<?xml version="1.0" encoding="utf-8"?>
<!-- Generator: Adobe Illustrator 22.1.0, SVG Export Plug-In . SVG Version: 6.00 Build 0)  -->
<svg version="1.1" id="레이어_1" xmlns="http://www.w3.org/2000/svg" xmlns:xlink="http://www.w3.org/1999/xlink" x="0px"
	 y="0px" viewBox="0 0 145.2 57.6" style="enable-background:new 0 0 145.2 57.6;" xml:space="preserve">
<g>
	<path d="M21.8,57.6c0-1.4,0-2.7,0-4.1c41.1,0,82.2,0,123.4,0c0,1.3,0,2.7,0,4.1C104.1,57.6,63,57.6,21.8,57.6z"/>
	<path d="M89.1,49c-1.8,0-3.3,0-5,0c0-16.3,0-32.6,0-49c1.6,0,3.2,0,5,0c0,9.4,0,18.7,0,28c1.3,0.5,1.9,0,2.3-1.1
		c1.6-4.1,3.4-8.1,5.1-12.1c0.4-1,0.9-1.5,2-1.4c1.1,0.1,2.2,0,3.7,0c-2.1,5-4.1,9.8-6.2,14.7c3.2,0.7,4,3.1,4.3,5.8
		c0.5,4.9,1,9.9,1.5,15c-1.7,0-3.3,0-5.1,0c-0.5-4.8-1-9.6-1.3-14.3c-0.1-1.6-0.5-2.3-2.2-2.1c-1.3,0.1-2.5,0-3.9,0
		C89.1,38.1,89.1,43.5,89.1,49z"/>
	<path d="M111,34.4c0,3.5,0,6.8,0,10.1c2.4,0,4.7,0,7.3,0c0-1.6,0-3.3,0-5c1.8,0,3.4,0,5.1,0c0,1.8,0.2,3.6,0,5.3
		c-0.3,2.5-2.4,4.2-4.9,4.2c-2.5,0-5,0-7.6,0c-2.8-0.1-5-2.2-5-5c0-8.5,0-16.9,0-25.4c0-2.9,2.1-5,4.9-5.1c2.6-0.1,5.1-0.1,7.7,0
		c2.8,0.1,4.8,2.2,4.9,5c0.1,3.6,0.1,7.3,0,10.9c-0.1,2.9-2.1,4.9-5,5C116,34.4,113.6,34.4,111,34.4z M111.1,18c0,4.1,0,7.9,0,11.8
		c2.4,0,4.7,0,7.2,0c0-3.7,0-7.3,0-10.9c0-0.3-0.6-0.9-1-0.9C115.3,18,113.3,18,111.1,18z"/>
	<path d="M60.8,31.3c0-4,0-7.9,0-11.9c0-3.9,2-5.9,5.8-5.9c2.1,0,4.3,0,6.4,0c3.2,0,5.3,2.1,5.3,5.2c0.1,8.4,0.1,16.8,0,25.2
		c0,3.1-2.2,5.1-5.2,5.1c-2.4,0-4.7,0-7.1,0c-3.1,0-5.2-2.1-5.3-5.3C60.8,39.6,60.8,35.4,60.8,31.3z M73.3,44.6c0-8.9,0-17.6,0-26.4
		c-2.4,0-4.8,0-7.2,0c0,8.9,0,17.6,0,26.4C68.6,44.6,70.8,44.6,73.3,44.6z"/>
	<path d="M16.6,25.3c-1.6,0-3.1,0-4.9,0c0-2.4,0-4.8,0-7.2c-2.1,0-4,0-6.2,0c0.3,2.9-0.7,5.8,1.1,8.7c3.1,5,6.1,10.2,8.9,15.4
		c0.8,1.4,1.1,3.1,1.3,4.7c0.2,2,0.1,4,0,5.9c0,2.9-2.1,4.9-5,5c-2.1,0-4.2,0-6.3,0c-3,0-5.1-1.8-5.3-4.7c-0.2-2.3,0-4.6,0-7
		c1.7,0,3.3,0,5.2,0c0,2.3,0,4.7,0,7.2c2.2,0,4.1,0,6.2,0c-0.1-3.7,0.6-7.3-1.8-10.8c-3.1-4.6-5.6-9.5-8.3-14.3
		c-2.1-3.6-1.7-7.5-0.9-11.2c0.5-2.3,2.5-3.2,4.8-3.3c2.1-0.1,4.2-0.1,6.3,0c3.2,0.1,5.1,2.2,5.1,5.4c0,2,0,4,0,5.9
		C16.8,24.9,16.7,25,16.6,25.3z"/>
	<path d="M26.9,44.6c2.5,0,4.8,0,7.3,0c0-1.7,0-3.3,0-5c1.8,0,3.4,0,5.1,0c0,1.9,0.2,3.8,0,5.6c-0.3,2.2-2.4,3.8-4.7,3.9
		c-2.6,0.1-5.1,0.1-7.7,0c-2.8-0.1-4.9-2.1-4.9-4.9c-0.1-8.6-0.1-17.1,0-25.7c0-2.8,2.1-4.8,4.9-4.9c2.6-0.1,5.1-0.1,7.7,0
		c2.7,0.1,4.7,2,4.8,4.7c0.1,3.9,0.1,7.8,0,11.7c-0.1,2.6-2.2,4.4-4.8,4.5c-2.1,0.1-4.3,0-6.4,0c-0.7,0-1.2,0.1-1.2,1
		C26.9,38.4,26.9,41.4,26.9,44.6z M34.1,29.8c0-3.9,0-7.8,0-11.8c-1.9,0-3.9,0-5.8,0c-1.1,0-1.5,0.3-1.5,1.5c0.1,2.7,0,5.5,0,8.2
		c0,0.7,0.1,1.4,0.1,2.2C29.5,29.8,31.7,29.8,34.1,29.8z"/>
	<path d="M129,0c1.7,0,3.3,0,5,0c0,16.3,0,32.6,0,49c-1.6,0-3.3,0-5,0C129,32.6,129,16.4,129,0z"/>
	<path d="M145.2,49c-1.7,0-3.2,0-4.9,0c0-16.3,0-32.6,0-48.9c1.6,0,3.2,0,4.9,0C145.2,16.4,145.2,32.6,145.2,49z"/>
	<path d="M44.9,13.6c1.7,0,3.3,0,4.9,0c0.1,0.6,0.2,1.2,0.3,2.1c2.1-2.6,4.8-2.2,7.6-2.2c0,1.4,0,2.8,0,4.5c-1.8,0-3.6,0-5.5,0
		C50,18,50,18,50,20.1c0,8.9,0,17.9,0,26.8c0,0.6,0,1.3,0,2c-1.8,0-3.4,0-5.1,0C44.9,37.2,44.9,25.5,44.9,13.6z"/>
</g>
</svg>
