<?xml version="1.0" encoding="utf-8"?>
<!-- Generator: Adobe Illustrator 22.1.0, SVG Export Plug-In . SVG Version: 6.00 Build 0)  -->
<svg version="1.1" id="레이어_1" xmlns="http://www.w3.org/2000/svg" xmlns:xlink="http://www.w3.org/1999/xlink" x="0px"
	 y="0px" viewBox="0 0 300 69.9" style="enable-background:new 0 0 300 69.9;" xml:space="preserve">
<style type="text/css">
	.st0{fill:#232E34;}
	.st1{fill:#899297;}
	.st2{fill:#929BA0;}
	.st3{fill:#5C676D;}
	.st4{fill:#949EA3;}
	.st5{fill:#3C464C;}
	.st6{fill:#D7DEE4;}
	.st7{fill:#818A90;}
	.st8{fill:#232D34;}
	.st9{fill:#F9B201;}
	.st10{fill:#FAB104;}
	.st11{fill:#F7AF0B;}
	.st12{fill:#28303D;}
	.st13{fill:#F6AF0C;}
	.st14{fill:#F4AE0F;}
	.st15{fill:#26303A;}
	.st16{fill:#2B2D39;}
	.st17{fill:#DDAF5E;}
	.st18{fill:#D6B05D;}
	.st19{fill:#253229;}
	.st20{fill:#724900;}
	.st21{fill:#252E38;}
	.st22{fill:#E2AD0E;}
	.st23{fill:#2C2C3D;}
	.st24{fill:#F9AF13;}
	.st25{fill:#312F3D;}
	.st26{fill:#262C41;}
	.st27{fill:#ECAC19;}
	.st28{fill:#F0A91A;}
	.st29{fill:#3E2D32;}
	.st30{fill:#33362C;}
	.st31{fill:#29254F;}
	.st32{fill:#EEAC0E;}
	.st33{fill:#2A313A;}
	.st34{fill:#313434;}
	.st35{fill:#D7B35B;}
	.st36{fill:#23321D;}
	.st37{fill:#212B48;}
	.st38{fill:#2C2157;}
	.st39{fill:#D3B25D;}
	.st40{fill:#F0B011;}
	.st41{fill:#ECAB15;}
	.st42{fill:#482D22;}
	.st43{fill:#BB903D;}
	.st44{fill:#404A4F;}
	.st45{fill:#F9B202;}
	.st46{fill:#FAB202;}
	.st47{fill:#232D33;}
	.st48{fill:#222E35;}
	.st49{fill:#232E32;}
	.st50{fill:#232D35;}
	.st51{fill:#242E30;}
	.st52{fill:#F9B107;}
	.st53{fill:#232F37;}
	.st54{fill:#F8B10D;}
	.st55{fill:#242F37;}
	.st56{fill:#F8B008;}
	.st57{fill:#252F2F;}
	.st58{fill:#FAB007;}
	.st59{fill:#252D38;}
	.st60{fill:#F7B10B;}
	.st61{fill:#262C3A;}
	.st62{fill:#F7B00A;}
	.st63{fill:#2B3236;}
	.st64{fill:#F6B10C;}
	.st65{fill:#F3AE08;}
	.st66{fill:#F8AF0A;}
	.st67{fill:#F7B10A;}
	.st68{fill:#24302B;}
	.st69{fill:#F9B109;}
	.st70{fill:#353936;}
	.st71{fill:#252E2E;}
	.st72{fill:#F8B009;}
	.st73{fill:#FAAE10;}
	.st74{fill:#EEAD15;}
	.st75{fill:#1F2F43;}
	.st76{fill:#F7AF10;}
	.st77{fill:#FCAE0D;}
	.st78{fill:#2F3A24;}
	.st79{fill:#FDAD11;}
	.st80{fill:#283137;}
	.st81{fill:#A3976A;}
	.st82{fill:#F3B110;}
	.st83{fill:#FBAD10;}
	.st84{fill:#1C3433;}
	.st85{fill:#2B3134;}
	.st86{fill:#21323C;}
	.st87{fill:#F6B116;}
	.st88{fill:#27313C;}
	.st89{fill:#3D3E31;}
	.st90{fill:#502F00;}
	.st91{fill:#F1B110;}
	.st92{fill:#EDAA12;}
	.st93{fill:#193043;}
	.st94{fill:#2B2C42;}
	.st95{fill:#F4AD0F;}
	.st96{fill:#FDAB13;}
	.st97{fill:#C2AB69;}
	.st98{fill:#2A2E3D;}
	.st99{fill:#C7AD71;}
	.st100{fill:#31352C;}
	.st101{fill:#E3A016;}
	.st102{fill:#1A3042;}
	.st103{fill:#D8AE5B;}
	.st104{fill:#D8B260;}
	.st105{fill:#D2B361;}
	.st106{fill:#282F3A;}
	.st107{fill:#D5B558;}
	.st108{fill:#242948;}
	.st109{fill:#E4B707;}
	.st110{fill:#BDA86C;}
	.st111{fill:#D1A759;}
	.st112{fill:#D09C25;}
	.st113{fill:#C7A130;}
	.st114{fill:#3A3E37;}
	.st115{fill:#4C470C;}
	.st116{fill:#1F2E47;}
	.st117{fill:#CCB26A;}
	.st118{fill:#2F381D;}
	.st119{fill:#222B47;}
	.st120{fill:#2B2B47;}
	.st121{fill:#FBAD18;}
	.st122{fill:#C8B06B;}
	.st123{fill:#D4AE5E;}
	.st124{fill:#E3B239;}
	.st125{fill:#CFB071;}
	.st126{fill:#B89034;}
	.st127{fill:#32353A;}
	.st128{fill:#AE9133;}
	.st129{fill:#503621;}
	.st130{fill:#B89438;}
	.st131{fill:#393037;}
	.st132{fill:#D6A660;}
	.st133{fill:#B89436;}
	.st134{fill:#B89339;}
	.st135{fill:#B79531;}
	.st136{fill:#C09637;}
	.st137{fill:#BC8E38;}
	.st138{fill:#2D2545;}
	.st139{fill:#F7B308;}
	.st140{fill:#F6B00C;}
	.st141{fill:#212E3D;}
	.st142{fill:#232F3C;}
	.st143{fill:#282E26;}
	.st144{fill:#F7B109;}
	.st145{fill:#222E42;}
	.st146{fill:#262E2B;}
	.st147{fill:#1E3228;}
	.st148{fill:#2E3029;}
	.st149{fill:#333334;}
	.st150{fill:#363525;}
	.st151{fill:#2D313C;}
	.st152{fill:#2B3037;}
	.st153{fill:#23294D;}
	.st154{fill:#212C41;}
	.st155{fill:#2E2543;}
	.st156{fill:#21331A;}
	.st157{fill:#1F2F39;}
	.st158{fill:#1C3621;}
	.st159{fill:#494827;}
	.st160{fill:#CBAF63;}
	.st161{fill:#2B3436;}
	.st162{fill:#B49832;}
	.st163{fill:#C89836;}
	.st164{fill:#C39D37;}
	.st165{fill:#2A333C;}
	.st166{fill:#233232;}
	.st167{fill:#BE9935;}
	.st168{fill:#FBAF0E;}
	.st169{fill:#4B3404;}
	.st170{fill:#553E10;}
	.st171{fill:#CCB568;}
	.st172{fill:#DFAE59;}
	.st173{fill:#D5B361;}
	.st174{fill:#C8B171;}
	.st175{fill:#C39237;}
	.st176{fill:#24313B;}
	.st177{fill:#4C2E00;}
	.st178{fill:#F2AF11;}
	.st179{fill:#C3A16A;}
	.st180{fill:#422D00;}
	.st181{fill:#B19E61;}
	.st182{fill:#293238;}
	.st183{fill:#FCAE0E;}
	.st184{fill:#493000;}
	.st185{fill:#A5915D;}
	.st186{fill:#BCA874;}
	.st187{fill:#D3B061;}
	.st188{fill:#273436;}
	.st189{fill:#BEA069;}
	.st190{fill:#2E3236;}
	.st191{fill:#3A3A38;}
	.st192{fill:#1E2D40;}
	.st193{fill:#26313C;}
	.st194{fill:#143144;}
	.st195{fill:#21331D;}
	.st196{fill:#1B2F3E;}
	.st197{fill:#222A44;}
	.st198{fill:#C7AF5E;}
	.st199{fill:#272D3F;}
	.st200{fill:#282E21;}
	.st201{fill:#ECA90F;}
	.st202{fill:#283138;}
	.st203{fill:#0E3540;}
	.st204{fill:#272E27;}
	.st205{fill:#20351A;}
	.st206{fill:#1F2C45;}
	.st207{fill:#2A302A;}
	.st208{fill:#203220;}
</style>
<g>
	<path class="st0" d="M33,0.2c0.8,0.3,1.6,0.2,2.4,0.3C48,2.3,58.5,12.1,61.1,24.6c3.4,16.5-6.5,32.4-22.9,36.5
		c-16.5,4.1-33.6-6.4-37.3-23c-0.4-1.6-0.6-3.3-0.7-5c0-0.1,0-0.3-0.1-0.3c0-0.3,0-0.5,0-0.8c0.1-0.7,0.1-1.3,0-2c0-0.3,0-0.5,0-0.8
		c0.2-1.1,0.1-2.3,0.3-3.4c0.9-5.5,3.3-10.5,6.9-14.8c2.8-3.4,6.2-6,10.2-7.9c3-1.4,6.1-2.4,9.4-2.8c0.7-0.1,1.4,0,2.1-0.2
		c0.3,0,0.7,0,1,0c0.6,0.1,1.3,0,1.9,0.1c0.2,0,0.5,0.1,0.7-0.1C32.7,0.2,32.8,0.2,33,0.2z"/>
	<path class="st0" d="M209.7,69.9C209.7,69.9,209.7,69.9,209.7,69.9c-2.2-1-2.8-2.1-2.3-4.4c0.5-2.3,1.1-4.7,1.6-7
		c0.1-0.3,0.2-0.4,0.6-0.4c0.9,0,1.8,0,2.7,0c0.5,0,0.6,0.2,0.5,0.6c-0.5,2-1,4.1-1.4,6.1c-0.1,0.6-0.2,1.3,0.4,1.7
		c0.6,0.4,1.3,0.2,1.9-0.1c0.8-0.5,1.2-1.3,1.5-2.3c0.4-1.8,0.9-3.6,1.3-5.4c0.1-0.4,0.2-0.6,0.7-0.6c0.9,0,1.7,0,2.6,0
		c0.5,0,0.6,0.1,0.5,0.6c-0.8,3.3-1.5,6.5-2.3,9.8c-0.3,1.1-0.3,1.1-1.4,1.1c-0.8,0-1.5,0-2.3,0c0,0-0.1,0-0.1,0
		c0-0.4,0.3-0.9,0.2-1.4c-0.9,0.9-1.9,1.5-3.1,1.7c-0.4,0.1-0.9-0.1-1.3,0.1C209.8,69.9,209.7,69.9,209.7,69.9z"/>
	<path class="st1" d="M299.9,17.7c0,0,0.1,0,0.1,0c0,0.8,0,1.7,0,2.5c0,0-0.1,0-0.1,0C299.6,19.3,299.5,18.5,299.9,17.7z"/>
	<path class="st2" d="M0,30c0.2,0.7,0.2,1.3,0,2C0,31.4,0,30.7,0,30z"/>
	<path class="st3" d="M31.9,0.3c-0.7,0-1.4,0.2-2-0.1c0.7,0,1.3,0,2,0C31.9,0.2,31.9,0.2,31.9,0.3C31.9,0.3,31.9,0.3,31.9,0.3z"/>
	<path class="st4" d="M209.8,69.9c0.4-0.3,0.8-0.1,1.3-0.1c0,0,0,0.1,0,0.1C210.7,69.9,210.2,69.9,209.8,69.9z"/>
	<path class="st5" d="M197.1,69.9c0.4-0.2,0.8-0.2,1.1,0C197.9,69.9,197.5,69.9,197.1,69.9z"/>
	<path class="st6" d="M291.2,69.9c0,0,0-0.1,0-0.1c0.3-0.2,0.5-0.2,0.8,0c0,0,0,0.1,0,0.1C291.7,69.9,291.4,69.9,291.2,69.9z"/>
	<path class="st7" d="M31.9,0.3c0,0,0-0.1,0-0.1c0.2,0,0.4,0,0.6,0C32.3,0.4,32.1,0.2,31.9,0.3z"/>
	<path class="st0" d="M105,33.4c-2.2,2.5-4.2,4.9-6.3,7.3c-0.3,0.4-0.6,1-1,1c-0.4,0-0.7-0.6-1-1c-2-2.3-4.1-4.5-6.1-6.8
		c-0.2,0.2-0.1,0.4-0.1,0.6c0,3.2,0,6.4,0,9.6c0,0.6-0.2,0.8-0.8,0.7c-1.8,0-3.5,0-5.3,0c-0.4,0-0.5-0.1-0.5-0.5
		c0-8.8-0.1-17.5-0.1-26.3c0-0.5,0.2-0.5,0.6-0.6c0.7,0,1.1,0.2,1.5,0.7c3.9,4.5,7.8,8.9,11.7,13.4c0.3,0.4,0.4,0.4,0.8,0
		c3.8-4.6,7.7-9.2,11.5-13.8c0.5-0.6,1-0.4,1.5-0.4c0.1,0,0.2,0.1,0.2,0.2c0,0.1,0,0.3,0,0.4c0,8.7,0,17.5,0,26.2
		c0,0.5-0.1,0.7-0.7,0.7c-1.8,0-3.5,0-5.3,0c-0.5,0-0.5-0.1-0.5-0.6C105,40.7,105,37.1,105,33.4z"/>
	<path class="st0" d="M155,31.9c0-4.7,0-9.2,0-13.8c0-0.6,0.1-0.8,0.8-0.8c1.8,0.1,3.7,0,5.5,0c0.4,0,0.6,0.1,0.6,0.6
		c0,8.7,0,17.5,0,26.2c0,0.5-0.1,0.6-0.6,0.6c-0.7,0-1.1-0.2-1.6-0.6c-5-4.5-10-8.9-15-13.3c-0.2-0.1-0.3-0.3-0.5-0.4
		c-0.1,0.2-0.1,0.5-0.1,0.7c0,4.3,0,8.7,0,13c0,0.5-0.1,0.7-0.6,0.7c-1.8,0-3.7,0-5.5,0c-0.5,0-0.6-0.1-0.5-0.6c0-8.7,0-17.5,0-26.2
		c0-0.5,0.1-0.6,0.6-0.6c0.6,0,1.1,0.2,1.6,0.6c5,4.5,10,9,15,13.5C154.6,31.6,154.8,31.7,155,31.9z"/>
	<path class="st0" d="M170.7,31.1c0-4.4,0-8.7,0-13.1c0-0.5,0.1-0.6,0.6-0.6c6.4,0,12.8,0,19.3,0c0.5,0,0.7,0.1,0.7,0.6
		c0,1.4,0,2.9,0,4.3c0,0.5-0.1,0.6-0.6,0.6c-4.3,0-8.6,0-13,0c-0.6,0-0.8,0.1-0.7,0.7c0.1,1.3,0,2.5,0,3.8c0,0.5,0.1,0.6,0.6,0.6
		c3.8,0,7.6,0,11.4,0c0.5,0,0.7,0.1,0.7,0.7c-0.1,1.3,0,2.7,0,4c0,0.5-0.2,0.6-0.6,0.6c-3.8,0-7.6,0-11.4,0c-0.5,0-0.7,0.1-0.7,0.6
		c0,1.6,0,3.1,0,4.7c0,0.5,0.1,0.6,0.6,0.6c4.3,0,8.6,0,13-0.1c0.6,0,0.7,0.2,0.7,0.7c0,1.5,0,3.1,0,4.6c0,0.4-0.1,0.5-0.5,0.5
		c-6.5,0-13.1,0-19.6,0c-0.5,0-0.5-0.3-0.5-0.6C170.7,39.8,170.7,35.4,170.7,31.1C170.7,31.1,170.7,31.1,170.7,31.1z"/>
	<path class="st0" d="M272.2,22.7c-0.5-1-1.3-1.5-2.2-1.8c-2.9-1-5.8-1.2-8.8-0.5c-1,0.2-1.8,0.8-2.5,1.6c-1.2,1.5-1,3.5,0.4,4.6
		c1.6,1.3,3.6,1.9,5.6,2.4c1.8,0.4,3.6,0.8,5.3,1.4c1.7,0.6,3.2,1.4,4.4,2.9c2.3,2.9,1.6,7.4-1.4,9.8c-1.8,1.4-3.8,2.1-6,2.3
		c-3,0.3-6,0.1-8.8-1.2c-1-0.5-2-1.1-2.8-1.9c-0.2-0.2-0.2-0.4-0.1-0.6c0.6-1,1.2-1.9,1.9-3c0.3,0.4,0.5,0.8,0.8,1.1
		c1.1,1.2,2.6,1.9,4.2,2.2c2.5,0.5,5.1,0.5,7.4-0.7c1.4-0.7,2.3-1.8,2.4-3.4c0.1-1.5-0.5-2.6-1.7-3.4c-0.9-0.6-1.9-0.9-3-1.2
		c-2.3-0.6-4.6-1-6.8-1.8c-1.9-0.6-3.6-1.7-4.9-3.3c-2.4-2.9-1.6-7.1,1.1-9.3c1.6-1.3,3.5-1.9,5.6-2.1c2.5-0.3,4.9-0.2,7.3,0.4
		c1.5,0.3,2.8,1.1,3.9,2.2c0.3,0.3,0.4,0.5,0.1,0.8C273.3,21,272.8,21.8,272.2,22.7z"/>
	<path class="st0" d="M228.9,31.2c0-4.3,0-8.7,0-13c0-0.5,0.1-0.7,0.7-0.7c6,0,12,0,17.9,0c0.5,0,0.6,0.1,0.6,0.6c0,0.6,0,1.1,0,1.7
		c0,0.4-0.1,0.5-0.5,0.5c-2,0-3.9,0-5.9,0c-3,0-6,0-8.9,0c-0.5,0-0.6,0.1-0.6,0.6c0,2.8,0,5.7,0,8.5c0,0.5,0.1,0.7,0.7,0.7
		c4.2,0,8.4,0,12.7,0c0.6,0,0.7,0.1,0.7,0.7c-0.1,0.5,0,1,0,1.5c0,0.5-0.1,0.6-0.6,0.6c-4.1,0-8.3,0-12.4,0c-1,0-1,0-1,1
		c0,2.6,0,5.2,0,7.7c0,0.5,0.1,0.6,0.6,0.6c4.9,0,9.8,0,14.7,0c0.6,0,0.8,0.1,0.7,0.7c-0.1,0.6,0,1.1,0,1.7c0,0.4-0.1,0.5-0.5,0.5
		c-1.3,0-2.5,0-3.8,0c-4.8,0-9.5,0-14.3,0c-0.6,0-0.7-0.2-0.7-0.7C229,39.9,228.9,35.5,228.9,31.2z"/>
	<path class="st0" d="M121.6,31c0-4.3,0-8.7,0-13c0-0.6,0.2-0.7,0.7-0.7c1.8,0,3.7,0,5.5,0c0.4,0,0.5,0.1,0.5,0.5
		c0,8.8,0,17.6,0,26.4c0,0.4-0.1,0.5-0.5,0.5c-1.9,0-3.8,0-5.7,0c-0.5,0-0.5-0.2-0.5-0.6C121.6,39.8,121.6,35.4,121.6,31z"/>
	<path class="st8" d="M299.9,17.7c0,0.8,0,1.7,0,2.5c-2.4,0-4.9,0-7.3,0c-0.5,0-0.7,0.1-0.7,0.7c0,7.8,0,15.6,0,23.4
		c0,0.6-0.2,0.7-0.7,0.7c-0.7,0-1.4,0-2.1,0c-0.3,0-0.4-0.1-0.4-0.4c0-0.1,0-0.3,0-0.4c0-7.8,0-15.5,0-23.3c0-0.5-0.1-0.7-0.7-0.7
		c-2.3,0-4.7,0-7,0c-0.4,0-0.7-0.1-0.6-0.6c0.1-0.7-0.3-1.5,0.1-1.9c0.4-0.3,1.2-0.1,1.9-0.1c5.6,0,11.3,0,16.9,0
		C299.5,17.6,299.7,17.6,299.9,17.7z"/>
	<path class="st0" d="M187.8,59.3c1.5-1.9,3-3.7,4.4-5.5c0.3-0.3,0.6-0.5,1-0.5c1.3,0,2.5,0,3.8,0c-0.1,0.3-0.3,0.4-0.4,0.6
		c-2.4,2.7-4.9,5.4-7.3,8.2c-0.4,0.4-0.6,0.9-0.7,1.4c-0.4,1.9-0.9,3.7-1.3,5.6c-0.1,0.4-0.2,0.5-0.7,0.5c-1.1,0-2.2,0-3.4,0
		c0.3-1.3,0.6-2.6,0.9-3.9c0.2-1,0.7-2,0.6-3c-0.1-1-0.7-1.9-1.1-2.9c-0.8-2-1.7-4-2.5-6c-0.1-0.2-0.1-0.3-0.2-0.5c1.5,0,3,0,4.4,0
		c0.3,0,0.3,0.3,0.4,0.5c0.6,1.7,1.2,3.5,1.8,5.2C187.7,59.1,187.7,59.1,187.8,59.3z"/>
	<path class="st0" d="M272.5,61c0.2-0.9,0.4-1.7,0.6-2.5c0.1-0.3,0.2-0.3,0.5-0.4c0.6,0,1.3,0.2,1.6-0.1c0.3-0.3,0.3-1,0.5-1.5
		c1-3.7,3.8-5.1,7.2-4.6c0.4,0.1,0.5,0.2,0.4,0.6c-0.3,0.7-0.5,1.4-0.7,2.1c-0.1,0.3-0.2,0.4-0.5,0.3c-1.5-0.2-2.3,0.3-2.7,1.8
		c-0.4,1.4-0.4,1.4,1,1.4c1.2,0,1.2,0,0.9,1.2c-0.1,0.5-0.1,1.3-0.5,1.6c-0.4,0.3-1.1,0.1-1.7,0.1c-0.6,0-0.9,0.1-1,0.7
		c-0.5,2.5-1.1,4.9-1.7,7.3c-0.1,0.4-0.3,0.5-0.7,0.5c-0.9,0-1.8,0-2.7,0c-0.4,0-0.5-0.1-0.4-0.5c0.6-2.5,1.2-5.1,1.8-7.6
		c0.1-0.4,0-0.6-0.4-0.5C273.6,61,273.1,61,272.5,61z"/>
	<path class="st0" d="M291.9,69.8c-0.3,0-0.5,0-0.8,0c-0.3,0-0.7-0.1-1-0.2c-1.2-0.3-1.9-1.1-1.9-2.3c0-1.3,0.4-2.4,0.7-3.6
		c0.2-0.8,0.3-1.5,0.5-2.3c0.1-0.4,0-0.5-0.4-0.5c-0.4,0-0.8,0-1.3,0c0.2-0.9,0.4-1.7,0.6-2.5c0.1-0.3,0.3-0.4,0.5-0.4
		c1.4,0,1.4,0,1.7-1.4c0.4-1.6,0.4-1.6,2-1.6c0.6,0,1.1,0,1.7,0c0.3,0,0.4,0.1,0.3,0.4c-0.2,0.7-0.3,1.5-0.5,2.2
		c-0.1,0.3,0,0.4,0.4,0.4c0.6,0,1.2,0,1.8,0c0.3,0,0.5,0.1,0.4,0.4c-0.2,0.7-0.4,1.4-0.5,2.1c-0.1,0.3-0.2,0.3-0.5,0.3
		c-0.6,0-1.3,0-1.9,0c-0.3,0-0.4,0.1-0.5,0.4c-0.3,1.4-0.7,2.7-0.9,4.1c-0.3,1.2,0.2,1.7,1.6,1.4c0.6-0.1,0.6,0,0.5,0.5
		c-0.1,0.3-0.1,0.6-0.2,0.9c-0.3,1.3-0.3,1.3-1.6,1.5C292.3,69.8,292.1,69.8,291.9,69.8z"/>
	<path class="st0" d="M254.9,59.7c0.2-0.2,0.4-0.5,0.7-0.7c0.9-0.8,1.9-1.2,3.1-1.1c0.3,0,0.5,0.1,0.4,0.4c-0.3,0.9-0.5,1.7-0.7,2.6
		c-0.1,0.3-0.2,0.3-0.4,0.3c-2.1-0.3-3.6,1.1-4,3c-0.3,1.6-0.8,3.3-1.1,4.9c-0.1,0.4-0.2,0.5-0.6,0.5c-0.9,0-1.9,0-2.8,0
		c-0.3,0-0.4-0.1-0.3-0.4c0.8-3.5,1.7-7.1,2.5-10.6c0.1-0.3,0.2-0.4,0.5-0.4c0.9,0,1.8,0,2.8,0c0.4,0,0.4,0.1,0.3,0.5
		c-0.1,0.3-0.2,0.7-0.3,1C254.9,59.6,254.9,59.6,254.9,59.7z"/>
	<path class="st0" d="M220.6,69.6c0.7-3,1.4-5.9,2-8.8c0.2-0.7,0.3-1.5,0.5-2.2c0.1-0.3,0.2-0.5,0.5-0.5c0.9,0,1.8,0,2.7,0
		c0.4,0,0.5,0.2,0.4,0.5c-0.1,0.3-0.2,0.7-0.3,1.2c0.8-0.9,1.6-1.6,2.7-1.8c0,0,0,0,0.1,0c1.4-0.4,1.6-0.2,1.2,1.2
		c0,0.1-0.1,0.2-0.1,0.4c-0.1,0.5-0.2,1.1-0.5,1.5c-0.3,0.5-0.9,0.1-1.4,0.1c-1.4,0.2-2.5,1.3-2.9,2.8c-0.4,1.7-0.8,3.4-1.2,5.1
		c-0.1,0.4-0.2,0.6-0.7,0.6C222.7,69.5,221.6,69.6,220.6,69.6z"/>
	<path class="st0" d="M280.5,69.6c0.5-2.3,1.1-4.6,1.6-6.8c0.3-1.4,0.7-2.7,0.9-4.1c0.1-0.4,0.2-0.5,0.6-0.5c0.9,0,1.8,0,2.7,0
		c0.4,0,0.6,0.1,0.5,0.5c-0.8,3.5-1.6,7-2.5,10.5c-0.1,0.2-0.1,0.4-0.4,0.4C282.8,69.5,281.6,69.6,280.5,69.6z"/>
	<path class="st0" d="M285.4,56.6c-1,0-1.7-0.7-1.7-1.6c0-1.3,1.3-2.5,2.7-2.5c1,0,1.7,0.7,1.7,1.6C288,55.3,286.7,56.6,285.4,56.6z
		"/>
	<path class="st9" d="M13.6,53.6c-0.4-0.2-0.7-0.5-1-0.8c-0.1-0.4-0.4-0.6-0.8-0.8c-1.6-1.2-2.8-2.8-4-4.4c-2-2.8-3.5-5.8-4.4-9.1
		C3.3,37.9,3,37.2,3,36.4c-0.1-0.2,0.1-0.5-0.1-0.7c-0.2-0.3-0.1-0.6-0.1-0.9c-0.1-0.6,0-1.3-0.2-1.9C2.5,31,2.4,29,2.7,27.1
		c0-0.2,0-0.5,0-0.7c0,0,0-0.1,0.1-0.1c0.1-0.2,0-0.4,0-0.6c0-0.1,0-0.2,0.1-0.3c0.1-1,0.3-1.9,0.8-2.8C4,22.4,4,22.2,4,21.9
		c0,0,0-0.1,0-0.1c0.2-0.2,0.1-0.4,0.2-0.7c0,0,0-0.1,0-0.1c0.2-0.1,0.2-0.4,0.2-0.5c0-0.1,0-0.1,0-0.2c0.2-0.1,0.2-0.2,0.2-0.4
		c0,0,0-0.1,0-0.1C5,19.7,4.9,19.5,5,19.3c0.9-2.1,2.1-4,3.5-5.8c0.9-1.2,2-2.3,3.1-3.4c0.1-0.2,0.2-0.3,0.4-0.4
		c1.9-1.6,3.9-3.1,6.2-4.2c1-0.5,2.1-0.9,3.1-1.4c0.3-0.4,0.8-0.3,1.2-0.4c1.6-0.4,3.3-0.8,4.9-1c0.2-0.2,0.5-0.3,0.8-0.1
		c1.5,0,2.9-0.1,4.4,0c2.9,0.2,5.7,0.8,8.4,1.8c0.9,0.3,1.8,0.7,2.7,1.2c0.1,0.1,0.2,0,0.4,0.1c0.3,0.1,0.6,0.2,0.8,0.5
		c0.3,0.2,0.5,0.3,0.8,0.5c0.3,0.2,0.6,0.5,0.1,0.9c0.6,0,1,0.1,1.3,0.6c0.1,0.2,0.2,0.1,0.3,0c0.2-0.1,0.3-0.1,0.5,0l0,0
		c0.1,0.1,0.3,0.2,0.4,0.3c0.1,0,0.1,0.2,0.3,0.2c0.2,0.1,0.5,0.2,0.6,0.4c1.3,1.2,2.5,2.3,3.6,3.7c1.7,2.1,3.2,4.3,4.2,6.9
		c0.1,0.4,0.4,0.7,0.5,1.1c0.1,0.1,0.1,0.3,0.1,0.4c0,0-0.1,0-0.1,0.1c0,0,0,0,0,0c0.1,0,0.1,0,0.2,0c0,0.1,0,0.1,0,0.2
		c0,0.1,0.1,0.3,0.1,0.4c0,0,0,0.1-0.1,0.1c0,0,0,0,0,0c0.1,0,0.1,0,0.2,0c0,0.3,0.3,0.6,0.3,1c0.1,0.2,0.1,0.5,0.2,0.7
		c0,0.2,0,0.3,0.1,0.5c0.6,0.4,0.4,1.1,0.6,1.6c0,0.3,0.1,0.7,0,1c0,0.3,0.1,0.6,0.1,0.9c0.1,0.2,0,0.5,0,0.7
		c0.1,1.1,0.1,2.3,0.1,3.4c0,0.6-0.1,1.2-0.1,1.9c0,0.4,0.1,0.8-0.1,1.2c-0.2,0.2,0,0.6-0.1,0.8c-0.2,1.4-0.5,2.8-1,4.2
		c-0.3,0.4-0.4,0.9-0.5,1.3c-0.2,0.9-0.6,1.7-1.1,2.5c-0.2,0.2-0.5,0.4-0.5,0.8c-0.4,0.9-0.9,1.7-1.5,2.5c-0.4,0.1-0.6,0.6-1.1,0.5
		c0.2,0.1,0.4,0.1,0.4,0.3c0,0.2-0.2,0.3-0.3,0.4c0,0.4-0.4,0.5-0.5,0.7c-0.4,0.4-0.5,0.4-0.8-0.2c0,0,0-0.1,0.1-0.1
		c-0.1,0-0.1,0.1-0.1,0.1c-0.7,0.2-0.9-0.3-1.2-0.7c0-0.1-0.1-0.1-0.1-0.2c-0.1-0.6,0.4-0.9,0.5-1.4c0.1-0.4,0.1-1,0.8-1.1
		c0.2,0,0.1-0.4,0.1-0.6c0-0.7,0.3-1,1-0.8c0.1,0,0.1,0,0.1,0c0-0.1,0.1-0.2-0.1-0.3c-0.3-0.1-0.5-0.3-0.5-0.6
		c0.2-0.9,0.8-1.7,1.1-2.6c0.1-0.3,0.2-0.6,0.4-1c0.4-1,0.7-2,0.9-3c0.1-0.2,0.1-0.5,0.2-0.6c0.2-0.2,0-0.5,0.1-0.8
		c0.3-2.1,0.2-4.3,0.3-6.5c0-0.4,0-0.8,0.1-1.1c0,0,0,0,0,0c0,0,0,0-0.1,0c-0.1,0-0.1,0-0.1-0.1c0-0.1-0.1-0.2-0.1-0.3
		c0-0.3,0-0.7-0.1-1c0-0.1-0.1-0.2-0.1-0.3c-0.1-0.3-0.2-0.5-0.2-0.8c0-0.3-0.1-0.6-0.2-0.9c0-0.1,0-0.1-0.1-0.2
		c-0.1-0.1-0.1-0.3-0.1-0.4c0-0.1,0-0.2,0-0.3c0-0.3,0.1-0.5,0.3-0.8c-0.2,0.1-0.3,0.2-0.4,0.1c-0.4-0.2-0.3-0.7-0.6-1
		c-0.1-0.2-0.2-0.3-0.2-0.5c0-0.2-0.1-0.4-0.2-0.6c-0.1-0.2-0.1-0.3-0.1-0.5c0-0.4,0-0.7,0.6-0.5c-0.7-0.3-0.8-0.9-1.1-1.4
		c-0.2-0.4-0.4-0.8-0.9-0.8c-0.3-0.1-0.4-0.3-0.5-0.5c-0.6-0.9-1.3-1.8-2-2.6c-0.4-0.5-0.8-0.9-1.3-1.4c-0.1-0.1-0.1-0.1-0.2-0.2
		c-0.4-0.4-0.9-0.8-1.3-1.2c-0.2-0.2-0.4-0.3-0.5-0.5c-0.1-0.2-0.2-0.2-0.4-0.3c-1.1-0.7-2.2-1.5-3.4-2.1c-1-0.5-2-1-3-1.3
		c-0.1,0-0.2-0.1-0.3-0.1c-0.2-0.1-0.3-0.2-0.4-0.3c-0.2-0.2-0.5-0.1-0.7-0.1c-0.2,0-0.3,0-0.5,0c-0.7-0.2-1.4-0.3-2-0.5
		c-0.1,0-0.2,0-0.3-0.1c-0.4-0.1-0.8-0.2-1.2-0.2c-0.2,0-0.5,0-0.6-0.2c0-0.1-0.1-0.1-0.1-0.2c-0.1-0.3-0.4-0.3-0.6-0.3
		c-1.3,0-2.6,0-3.9,0c-0.5,0-1,0.2-1.3,0.6c-0.4,0.3-0.8,0.4-1.2,0.4c-0.3,0-0.6,0.1-0.9,0.2c-0.1,0-0.1,0-0.2,0.1
		c-0.8,0.1-1.5,0.4-2.3,0.6c-0.2,0.1-0.4,0.2-0.7,0.1c-0.2,0.1-0.5-0.4-0.5,0.1c-0.1,0.2-0.3,0.3-0.4,0.3c-2.7,1-5,2.7-7.1,4.5
		c-1.2,1-2.2,2.3-3.2,3.5c-0.2,0.1-0.2,0.3-0.3,0.4C9.2,18.7,8,21,7.2,23.6c-0.2,0.6-0.4,1.2-0.5,1.9c-0.1,0.3-0.2,0.6-0.2,0.9
		c0,0.3-0.1,0.5-0.1,0.8c0,0.1,0,0.1,0,0.2c-0.1,0.2-0.1,0.4-0.1,0.6c0,0.1,0,0.1-0.1,0.2C5.9,28.3,6,28.5,6,28.8c0,0.3,0,0.7,0,1
		c0,0.8,0,1.7,0,2.5c0,0.3-0.1,0.7,0.1,1c0.2,1.1,0.3,2.3,0.6,3.4c0.1,0.2,0.1,0.5,0.2,0.7c0.2,0.8,0.5,1.6,0.7,2.4
		c0.4,1.3,1.1,2.4,1.7,3.6c0,0,0.1,0.1,0.1,0.1c0.4,0.8,0.8,1.5,1.4,2.1c0,0,0.1,0.1,0.1,0.1c0.1,0.1,0.2,0.3,0.2,0.4
		c0,0.2,0.1,0.3,0.3,0.3c0.9,1.1,1.9,2.1,3,3c0.2,0.3,0.6,0.5,0.8,0.9c0,0.3-0.2,0.5-0.5,0.5c-0.1-0.2-0.3-0.2-0.5-0.2
		c0.1,0.1,0.3,0,0.4,0.1c0.4,0.4,0.9,0,1.3,0.2c0.2,0,0.4,0.1,0.5,0.3c0.2,0.2,0.4,0.2,0.6,0.1c0.2-0.1,0-0.3,0-0.5
		c0-0.1,0-0.2,0-0.3c0-0.1,0.1-0.2,0.1-0.2c0.1-0.3-0.1-0.4-0.3-0.5c-0.4-0.3-0.9-0.7-1.3-1C14.2,48,13,46.7,12,45.3
		c-0.2-0.3-0.4-0.5-0.5-0.9c0-0.1,0-0.2,0.1-0.3c0.1,0,0.1,0,0.2,0c0.5,0.4,0.5,0.4,0.7,0c0-0.1,0-0.1,0.1-0.1
		c0.2-0.2,0.4-0.5,0.7-0.6c0.3,0.1,0.5,0.5,0.7,0.7c1.1,1.5,2.4,2.8,3.9,3.9c0.2,0.2,0.4,0.3,0.7,0.4c0.3,0,0.6,0,0.9,0
		c-0.5-0.1-0.6-0.5-0.4-0.9c0,0,0.1-0.1,0.2-0.1c0.4,0,0.6-0.2,0.7-0.6c0-0.2,0.1-0.4,0.1-0.6c0.1-0.6,0.3-0.7,0.9-0.5
		C21,45.9,21,46,21,46.2c0,0-0.1,0-0.1,0.1c0,0.1,0.1,0.1,0,0c0,0,0,0,0,0c0.2-0.2,0-0.4-0.1-0.5c-0.1-0.2-0.4-0.4-0.2-0.7
		c0.1-0.2,0.4-0.1,0.6,0c-0.3-0.5,0.1-1,0-1.5c0.1-0.4,0.3-0.8,0.5-1.1c0.7-1.2,1.4-2.5,2.1-3.7c0.1-0.2,0.3-0.5,0.6-0.6
		c0.4,0.1,0.6-0.3,0.8-0.5c0.2-0.3,0.3-0.5,0.7-0.5c-0.1-0.1-0.3-0.1-0.4-0.2c-0.2-0.2-0.2-0.4,0.1-0.5c0.3-0.1,0.5-0.3,0.7-0.5
		c0.4-0.5,0.1-0.9,0-1.3c0.2-0.6,0.5-1,0.7-1.5c0.3-0.6,0.7-1.1,1-1.7c0.1-0.2,0.2-0.4,0.5-0.5c0.6,0,0.2,0.5,0.4,0.8
		c0.1,0.1,0,0,0,0c0,0,0,0,0,0c-0.1-0.1-0.1-0.3-0.1-0.4c0.2-0.3,0-0.5-0.2-0.6c0-0.6,0.3-1,0.6-1.4c0.3-0.5,0.6-1.1,0.9-1.6
		c0.2-0.3,0.4-0.6,0.5-0.9c0.5-0.8,1-1.5,0.2-2.4c-0.1-0.1,0-0.2-0.1-0.2c0-0.2,0-0.3,0-0.5c0.2-0.7,0.6-1.3,1.1-1.8
		c0.1,0,0.1-0.1,0.2-0.1c0.2-0.1,0.4-0.2,0.3-0.4c0-0.2-0.2-0.2-0.4-0.3c-0.5-0.3-0.9-0.7-1.2-1.2c0-0.4,0-0.8-0.6-0.7
		c-0.3,0-0.2-0.4-0.2-0.6c-0.3,0-0.4,0.2-0.6,0.2c-0.2,0-0.4-0.1-0.6-0.3c-0.1-0.2-0.2-0.2-0.4-0.3c-1.1-0.6-2.2-0.9-3.2-1.6
		c-0.1-0.2-0.7-0.1-0.6-0.5c0.1-0.4,0.5-0.2,0.8-0.2c0.2,0,0.4,0,0.6-0.1c0.1,0,0.1-0.1,0.2-0.1c0.3-0.1,0.6-0.1,0.9,0
		c-0.2-0.2-0.6-0.2-0.4-0.6c0.3-0.3,0.7-0.1,1.1-0.2c0.2,0,0.3,0,0.5,0c0.2,0,0.3,0,0.5,0.1C29,15,29.3,15,29.5,15
		c1.7,0.3,3.3,0.8,4.9,1.4c0.4,0.2,0.6,0.1,0.9-0.2c0.2-0.2,0.3-0.5,0.5-0.7c0.4-0.6,1-1,1.8-0.8c0.9,0.2,1.8,0.6,2.7,1.1
		c0.1,0.1,0.2,0.2,0.2,0.3c0,0.2,0.2,0.3,0.4,0.2c0.2,0.1,0.4,0.2,0.4,0.4c-0.1,0.6-0.1,1.1,0.5,1.5c0.1,0,0.1,0.2,0.1,0.2
		c0,0.1,0,0.1,0,0.2c-0.1,0.1-0.2,0.3-0.3,0.4c0,0-0.1,0.1-0.1,0.1c-0.1,0.1-0.3-0.1-0.4,0c0,0.1,0.1,0.1,0.2,0.2
		c-0.2,0.6,0.2,0.9,0.6,1.2c0.7,0.5,1.5,1,1.9,1.8c-0.2,0.9,0.2,1.3,1.2,1.2c0.5,0.3,0.8,0.8,1.1,1.3c1.1,1.6,2.1,3.4,2.6,5.4
		c0,0.2,0,0.5-0.1,0.7c-0.2,0.2-0.4,0.2-0.6,0c-0.4-0.4-0.9-0.7-1.2-1.3c0.1-0.3,0-0.4-0.3-0.4c-0.6-0.3-0.9-0.8-1.4-1.2
		c-0.2-0.1-0.4-0.3-0.6-0.5c-0.1-0.1-0.2-0.1-0.3-0.2c-0.2-0.2-0.4-0.3-0.5-0.5c-0.1-0.1-0.2-0.2-0.4-0.2c-0.3-0.1-0.6-0.2-0.8-0.5
		c0-0.3-0.3-0.1-0.5-0.3c-0.1,0-0.1-0.1-0.1-0.2c0.2-0.5,0.6-0.2,1-0.2c0.3,0.2,0.6,0.6,1.1,0.5c-0.4,0-0.6-0.2-0.9-0.4
		c-0.5-0.2-1.1-0.3-1.6-0.2c-0.1,0-0.3,0.1-0.4,0.1c-0.6-0.1-1.2-0.4-1.8-0.6c-0.5-0.2-0.7,0-0.9,0.4c-0.2,0.4-0.3,0.8-0.7,1.1
		c-0.2,0.1-0.4,0.3-0.6,0.6c-0.3,0.3-0.6,0.3-1,0.2c-0.2-0.1-0.5-0.4-0.7,0c-0.7,1.4-1.6,2.8-2.3,4.1c-0.3,0.6-0.5,1.2-1,1.6
		c-0.7-0.1-0.5,0.4-0.4,0.8c0,0.1,0,0.1,0,0.2c-0.1,0.1-0.2,0.3-0.2,0.5c-0.4,0.9-0.9,1.7-1.4,2.6c-0.3,0.5-0.6,1.1-0.9,1.6
		c-0.1,0.2-0.2,0.3-0.3,0.5c-0.7,1.2-1.3,2.4-2,3.5c-0.2,0.1-0.2,0.4-0.3,0.5c-1.3,2.4-2.6,4.7-3.9,7c-0.1,0.3-0.2,0.5-0.1,0.8
		c0,0.3-0.2,0.4-0.4,0.4c0.3,0.1,0.5-0.3,0.9-0.2c0.1,0,0.1,0,0.2,0.1c0.1,0.5,0.4,0.1,0.6,0.2c1.1,0.2,2.1,0.7,3.2,0.8
		c0.4,0.1,0.7,0.1,1.1,0.2c0.1,0,0.1,0,0.2,0.1c0.3,0.2,0.7,0.1,1.1,0.1c0.1,0,0.3,0,0.4,0c0.7,0,1.5,0,2.2,0c0.3,0,0.6,0,0.8,0
		c0.3,0,0.7,0,1,0.1c0.1,0,0,0,0.1,0c0,0,0,0,0-0.1c0-0.1,0-0.1,0.1-0.1c0.1,0,0.2-0.1,0.3-0.1c0.4,0,0.8-0.1,1.2-0.2
		c0.1,0,0.2,0,0.3,0c0.2,0,0.3,0,0.5,0c0.4,0.2,0.8,0.2,1.2,0.3c0.1,0,0.1,0,0.2,0.1c0.1,0.1,0.3,0.1,0.4,0.1c0.2,0,0.3,0.1,0.4,0.4
		c0,0.3-0.1,0.4-0.3,0.4c-0.5,0-1,0.1-1.5,0.3c-0.5,0.2-1,0.2-1.5,0.1c0.3,0.2,0.9-0.2,0.9,0.5c-0.4,0.4-1,0.4-1.5,0.4
		c-0.3,0-0.5,0-0.8,0c-0.3-0.2-0.4,0.1-0.5,0.2c-1.3,0.1-2.7,0.2-4-0.1c0-0.4-0.4-0.1-0.6-0.3C28,54,28.3,54,28.5,53.9
		c-0.3-0.1-0.5,0.1-0.5,0.4c-0.1,0.1-0.2,0.1-0.3,0.1c-0.3,0-0.6,0.1-0.8-0.1c-0.2-0.3-0.5-0.1-0.7-0.1c-1.3-0.1-2.5-0.6-3.8-1
		c-0.2-0.1-0.4-0.2-0.6-0.3c-0.2-0.1-0.3-0.1-0.5-0.2c-0.4-0.2-0.5,0.2-0.7,0.4c-0.2,0.3-0.3,0.5,0.1,0.6c0.3,0.2,0.7,0.3,1.1,0.4
		c1.8,0.8,3.8,1.2,5.7,1.5c0.1,0,0.1,0.1,0.1,0.1c0.4,0.2,0.8,0,1.2,0.1c0.3,0,0.5,0,0.8,0c0.9,0,1.8,0,2.6,0c0.7,0.1,1.3-0.1,2-0.2
		c0.5-0.1,1-0.1,1.5-0.2c0.1,0,0.1,0,0.2-0.1c0.6,0,1.1-0.2,1.6-0.4c0.1,0,0.2-0.1,0.4-0.1c0.7-0.2,1.5-0.4,2.2-0.7
		c0.1,0,0.2-0.1,0.3-0.1c1.1-0.4,2.1-1,3.1-1.5c0.2,0,0.3-0.1,0.4-0.2c1.3-1,2.7-1.9,3.9-3c0.1-0.1,0.2-0.2,0.4-0.1
		c0.1,0.2,0.3,0.4,0.4,0c0.2-0.7,0.3-0.7,0.8-0.3c-0.1-0.4,0.4-0.8,0.2-1.3c0-0.1,0.1-0.1,0.1-0.1c0.1,0,0.2,0,0.4,0
		c0.4,0.2,0.1,0.9,0.8,0.9c0.2,0,0.5,0.6,0.7,1c0.1,0.3,0.2,0.5-0.1,0.7c-0.4,0.2-0.4-0.1-0.6-0.4c-0.8,0.7-1.4,1.5-2.4,2
		c0.3,0.3,0.8,0.4,0.7,1c-0.7,0.7-1.5,1.3-2.3,1.8C45,55.9,43,57,40.9,57.7c-2.4,0.9-4.9,1.5-7.5,1.6c-1.6,0.3-3.1,0.2-4.7,0.1
		c-0.2,0-0.5,0-0.7,0c-1.2-0.2-2.4-0.2-3.5-0.5c-0.3-0.1-0.6,0-0.8-0.2c-2.8-0.8-5.5-1.9-8-3.5c-0.1-0.1-0.2-0.1-0.3-0.2
		c-0.1-0.2-0.3-0.2-0.4-0.3c0,0-0.1,0-0.1-0.1c0-0.6-0.5-1.1-1.1-0.9C13.7,53.6,13.6,53.6,13.6,53.6z"/>
	<path class="st10" d="M52.1,48.8c0.1,0.5,0.4,0.5,0.7,0.3c-0.4,0.8-1.2,1.3-1.6,2c0,0.2-0.2,0.3-0.4,0.4c-0.6,0.5-1.1,1-1.7,1.4
		c-0.2-0.3-0.3-0.8-0.9-0.6c0,0-0.1-0.1-0.1-0.1c0-0.1,0-0.2,0.1-0.3c1.1-0.5,1.9-1.5,2.7-2.3c0.1,0,0.1,0.1,0.1,0.1
		c0.1,0.2-0.1,0.4,0.2,0.5c0.1,0,0.2,0,0.3-0.1c0.2-0.2-0.1-0.3-0.2-0.5c0-0.4-0.5-0.5-0.5-0.9c0,0-0.1-0.1-0.1-0.1
		c-0.9,0.4-0.6-0.3-0.7-0.7c-0.1-0.3-0.3-0.2-0.5-0.2c-0.1-0.2,0-0.3,0.1-0.4c0.6-0.7,1.2-1.5,1.7-2.3c0.1-0.1,0.2-0.3,0.4-0.3
		C52,45,52,45.1,52,45.2c0-0.2-0.1-0.4-0.1-0.6c0-0.1,0.1-0.3,0.1-0.4c0-0.1,0.1-0.2,0.2-0.3c0.3-0.2,0.3-0.6,0.7-0.7
		c0.1,0.3,0.2,0.5,0.6,0.4c0.2-0.1,0.2,0.1,0.2,0.2c0,0.1-0.2,0.2-0.1,0.4c0.1,0.1,0.2,0.2,0,0.3c-0.1,0-0.2,0-0.3-0.1
		c-0.1-0.1,0-0.5-0.3-0.2c-0.2,0.2-0.6,0.2-0.5,0.6c0.1,0.2,0,0.5,0,0.7c0,0.1,0,0.3-0.2,0.3c-0.6-0.1-0.6,0.3-0.6,0.7
		c-0.1,0.6-0.6,1-0.7,1.6c0,0.1-0.1,0-0.2,0.1c0.1,0,0.1,0,0.2-0.1c0.1,0,0.2,0.1,0.2,0.1C51.2,48.7,51.6,48.8,52.1,48.8L52.1,48.8z
		"/>
	<path class="st11" d="M47.9,8.2c-0.4-0.2-0.4,0.4-0.7,0.4c-0.3-0.1-0.2-0.6-0.6-0.6c-0.2,0-0.3-0.2-0.6-0.1
		c-0.1,0.1-0.3-0.2-0.6-0.2c0.6-0.2,0.5-0.6,0.2-0.9C46.4,7.1,47.2,7.6,47.9,8.2z"/>
	<path class="st12" d="M33,59.6c0.4,0,0.8,0,1.2,0c0,0.3-0.1,0.3-0.2,0.3c-1.7,0-3.4,0-5.2,0c-0.1,0-0.3,0-0.3-0.1
		c0,0,0.1-0.1,0.2-0.1c0.2-0.2,0.4-0.1,0.7-0.1c1,0,2,0,2.9,0C32.5,59.5,32.8,59.4,33,59.6z"/>
	<path class="st13" d="M13.6,53.6c0.5-0.4,0.8-0.4,1.1,0.2c0.1,0.2,0.3,0.3,0.6,0.3c-0.1,0.3-0.4,0.1-0.4,0.4
		C14.4,54.2,13.9,54,13.6,53.6z"/>
	<path class="st14" d="M53.4,48.3c0.1-0.3,0.3-0.6-0.2-0.7c-0.1,0-0.3-0.2-0.2-0.3c0.1-0.1,0.2-0.1,0.3,0c0.2,0.2,0.3,0,0.4-0.1
		c0.2-0.2,0.4-0.3,0.7-0.2C54.2,47.5,53.9,48,53.4,48.3z"/>
	<path class="st15" d="M59.4,31.7c0.1,0,0.2,0.1,0.2,0.2c0,0.8,0,1.7-0.1,2.5c-0.3-0.6,0-1.2-0.2-1.8c-0.2,0-0.1-0.2-0.1-0.3
		C59.3,32,59.3,31.8,59.4,31.7z"/>
	<path class="st15" d="M59.4,29.6c0.2-0.5,0-1.1,0.1-1.7c0.2,0,0.2,0.1,0.2,0.2c0,0.6,0,1.2,0,1.8c0,0.2,0,0.4-0.3,0.4
		c-0.1-0.1-0.1-0.2-0.2-0.3C59.3,29.9,59.2,29.7,59.4,29.6z"/>
	<path class="st16" d="M59,25.9c-0.2-0.5-0.2-1.1-0.5-1.6c0.1,0,0.1,0,0.2,0c0.1,0,0.2,0.1,0.2,0.1c0.3,0,0.2,0.3,0.3,0.5
		c0.2,0.2,0.1,0.5,0.1,0.8C59.3,25.8,59.2,26,59,25.9z"/>
	<path class="st17" d="M59.4,29.6c0,0.1,0,0.3-0.1,0.4c0.1,0.7,0.1,1.4,0,2.1c0,0.1,0,0.2,0.1,0.3c-0.1,0.4,0,0.8-0.2,1.2
		c0-1.8,0-3.6,0-5.4l0.1,0l0,0.1C59.3,28.8,59.4,29.2,59.4,29.6z"/>
	<path class="st18" d="M28.6,59.4c1.6,0,3.2,0,4.8,0c-0.1,0-0.3,0.1-0.4,0.1c-1.4,0.1-2.8,0.1-4.3,0C28.7,59.5,28.6,59.5,28.6,59.4
		L28.6,59.4L28.6,59.4z"/>
	<path class="st19" d="M59,25.9c0.5-0.2,0.1-0.7,0.2-1c0.5,0.4,0.2,0.9,0.2,1.4c0,0.2-0.1,0.4-0.3,0.6C59,26.5,58.9,26.2,59,25.9z"
		/>
	<path class="st20" d="M28.7,59.5c1.4,0,2.8,0,4.3,0c0,0,0,0.1,0,0.1c-1.4,0-2.8,0-4.2,0C28.7,59.6,28.7,59.5,28.7,59.5z"/>
	<path class="st21" d="M22.5,3.8c-0.4,0.1-0.8,0.3-1.2,0.4c-0.1,0-0.4,0-0.3-0.2c0-0.2,0.2-0.3,0.4-0.3C21.8,3.6,22.1,3.8,22.5,3.8z
		"/>
	<path class="st22" d="M2.5,32.9c0.3,0,0.2,0.2,0.2,0.4c0,0.5,0,1,0,1.5C2.6,34.2,2.5,33.6,2.5,32.9z"/>
	<path class="st23" d="M28.2,2.7c-0.3,0-0.5,0.1-0.8,0.1c-0.1-0.1-0.3,0-0.3-0.2c0-0.1,0.2-0.1,0.2-0.1C27.7,2.5,28.1,2.2,28.2,2.7z
		"/>
	<path class="st24" d="M55.9,44.5c0-0.1-0.1-0.2-0.1-0.3c-0.2-0.3-0.2-0.3,0.2-0.3c0.1,0,0.2-0.1,0.4-0.2
		C56.3,44,56.2,44.3,55.9,44.5z"/>
	<path class="st25" d="M49.1,9.1c-0.2-0.1-0.5-0.2-0.6-0.4c0.2-0.1,0.4-0.2,0.7,0C49.3,8.9,49.3,9,49.1,9.1z"/>
	<path class="st26" d="M50.9,51.4c0.1-0.2,0.2-0.3,0.4-0.4c0.2,0.2,0.3,0.4,0.3,0.7C51.4,51.5,51.1,51.6,50.9,51.4z"/>
	<path class="st27" d="M11.8,52.1c0.5-0.1,0.8,0.2,0.8,0.8C12.3,52.6,12,52.4,11.8,52.1z"/>
	<path class="st28" d="M57.4,41.3c-0.1-0.5,0-1,0.5-1.3C57.8,40.4,57.7,40.9,57.4,41.3z"/>
	<path class="st9" d="M59.3,32.2c0-0.7,0-1.4,0-2.1c0,0.1,0.1,0.2,0.1,0.3c0,0.4,0,0.8,0,1.3C59.4,31.8,59.4,32,59.3,32.2z"/>
	<path class="st29" d="M44.8,6.2C44.5,6.1,44.3,6,44,5.7C44.4,5.7,44.8,5.7,44.8,6.2z"/>
	<path class="st30" d="M23.7,58.6c0.3,0,0.5,0.1,0.8,0.2C24.1,59,23.8,59.1,23.7,58.6z"/>
	<path class="st31" d="M3.8,22.3c-0.4-0.1-0.2-0.4-0.2-0.8C3.8,21.8,3.7,22.1,3.8,22.3C3.8,22.3,3.8,22.3,3.8,22.3z"/>
	<path class="st32" d="M3.8,22.3C3.8,22.3,3.8,22.3,3.8,22.3C3.9,22.1,3.9,22,4,21.9c0.3,0.3,0.2,0.6-0.2,0.7
		C3.8,22.5,3.8,22.4,3.8,22.3z"/>
	<path class="st33" d="M38.3,59c-0.3,0.2-0.5,0.2-0.7,0.1C37.8,58.8,38,58.8,38.3,59z"/>
	<path class="st34" d="M2.9,26.3C2.9,26.4,2.8,26.4,2.9,26.3c0-0.3-0.3-0.7,0.1-1c0,0.1,0,0.2,0,0.4C2.9,25.9,3,26.1,2.9,26.3z"/>
	<path class="st35" d="M59,35.8c0-0.3-0.1-0.6,0-0.9c0-0.1,0.1,0.1,0.1,0.1C59.1,35.3,59.1,35.6,59,35.8z"/>
	<path class="st32" d="M4.3,21.2c0,0.2,0.2,0.6-0.2,0.7C4,21.6,4.1,21.4,4.3,21.2z"/>
	<path class="st36" d="M15.4,56.1c-0.1,0-0.2,0-0.2-0.1c0-0.1,0.1-0.1,0.2-0.1c0.1,0,0.2,0,0.2,0.1C15.6,56.1,15.5,56,15.4,56.1z"/>
	<path class="st32" d="M4.8,19.9C4.8,20,5,20.1,5,20.2c-0.1,0.1-0.3,0.1-0.4,0.1C4.6,20.2,4.7,20,4.8,19.9z"/>
	<path class="st37" d="M24.6,59.5c-0.1,0-0.1,0.1-0.2,0.1c-0.1,0-0.2,0-0.2-0.1c0,0,0.1-0.1,0.2-0.1C24.5,59.4,24.6,59.4,24.6,59.5z
		"/>
	<path class="st38" d="M58.9,24.3c-0.1,0-0.2,0-0.2-0.1c0-0.1,0-0.3,0.1-0.3C59,24,58.9,24.2,58.9,24.3z"/>
	<path class="st39" d="M2.9,35.7C3.2,35.9,3,36.2,3,36.4C2.9,36.2,2.9,36,2.9,35.7z"/>
	<path class="st32" d="M4.5,20.5c0,0.2,0.1,0.5-0.2,0.5C4.3,20.9,4.4,20.7,4.5,20.5z"/>
	<path class="st40" d="M57.7,21.3c-0.1,0-0.1,0-0.2,0l0,0c0-0.2,0-0.3,0-0.5C57.6,21,57.7,21.1,57.7,21.3z"/>
	<path class="st41" d="M58.4,23.7c-0.3-0.1-0.2-0.4-0.2-0.7C58.3,23.3,58.4,23.5,58.4,23.7z"/>
	<path class="st32" d="M5,19.3c0,0.2,0.1,0.5-0.2,0.5C4.8,19.6,4.9,19.5,5,19.3z"/>
	<path class="st42" d="M12,9.8c-0.1,0.2-0.2,0.3-0.4,0.4C11.6,9.8,11.7,9.7,12,9.8z"/>
	<path class="st40" d="M57.7,22.1c0-0.2,0-0.4,0-0.5c0.1,0.2,0.2,0.3,0.2,0.5C57.8,22.1,57.8,22.1,57.7,22.1L57.7,22.1z"/>
	<path class="st12" d="M28.6,59.4C28.6,59.4,28.6,59.4,28.6,59.4c-0.2,0.1-0.4,0.2-0.6,0C28.2,59.4,28.4,59.4,28.6,59.4z"/>
	<path class="st15" d="M59.3,28.4C59.3,28.4,59.2,28.4,59.3,28.4c-0.1-0.2-0.1-0.4-0.1-0.6C59.4,27.9,59.3,28.2,59.3,28.4z"/>
	<path class="st13" d="M15,54.6c0.2,0,0.4,0,0.4,0.3C15.2,54.8,15.1,54.7,15,54.6z"/>
	<path class="st43" d="M48.2,8.5c-0.2,0-0.4,0-0.4-0.3C48,8.2,48.2,8.3,48.2,8.5z"/>
	<g>
		<path class="st0" d="M201.8,57.9c-4-0.7-8.1,2-9,6c-0.7,3.1,0.8,5.3,3.4,5.9c0.1,0,0.2,0,0.2,0.2c0.2,0,0.4,0,0.6,0
			c0.4-0.1,0.8-0.1,1.1,0c0.2,0,0.3,0,0.5,0c0.1-0.2,0.2-0.1,0.3-0.1c3.2-0.6,5.7-3,6.4-6.2C206.1,60.7,204.6,58.4,201.8,57.9z
			 M198.9,66.7c-1.4,0.2-2.4-0.6-2.5-2c-0.1-1.8,1.3-3.5,3-3.8c1.5-0.3,2.6,0.7,2.6,2.2C201.9,64.9,200.6,66.4,198.9,66.7z"/>
	</g>
	<g>
		<path class="st0" d="M220.8,36.4c-0.2-2.2-1.1-3.9-3.1-5c-0.7-0.4-1.5-0.7-2.5-1c0.2-0.1,0.4-0.2,0.5-0.3c0.1-0.1,0.3-0.1,0.4-0.2
			c2.1-1.3,3.3-3.2,3.1-5.7c-0.3-3.6-3.2-6.4-6.8-6.5c-3.9-0.2-7.8,0-11.6-0.1c-0.5,0-0.4,0.3-0.4,0.6c0,8.7,0,17.5,0,26.2
			c0,0.5,0.2,0.6,0.6,0.6c3.3,0,6.5,0,9.8,0c1.2,0,2.4-0.1,3.6-0.3C217.7,43.9,221.2,41.6,220.8,36.4z M203.9,20.2
			c2.4,0,4.8,0,7.2,0c3.2-0.1,5.4,3.4,4.6,6.1c-0.5,1.7-2.1,3-4.3,3.1c-2.5,0.1-5.1,0-7.6,0.1c-0.4,0-0.3-0.2-0.3-0.4
			c0-1.4,0-2.8,0-4.2c0-1.4,0-2.7,0-4.1C203.4,20.4,203.5,20.2,203.9,20.2z M215.3,41.1c-1.1,0.7-2.3,1-3.6,1c-2.6,0-5.2,0-7.7,0
			c-0.5,0-0.5-0.2-0.5-0.6c0-1.5,0-2.9,0-4.4c0-1.4,0-2.9,0-4.3c0-0.4,0.1-0.6,0.5-0.6c2.6,0,5.2,0,7.7,0c1,0,2,0.1,2.9,0.5
			c1.8,0.8,2.9,2.1,3,4.1C217.7,38.7,216.9,40.1,215.3,41.1z"/>
	</g>
	<g>
		<path class="st0" d="M267.3,57.9c-4-0.8-8.2,2.1-9,6.1c-0.6,3.1,0.9,5.3,3.4,5.8c0.1,0,0.2,0,0.2,0.2c0.2,0,0.3,0,0.5,0
			c0.4-0.2,0.8-0.2,1.3,0c0.2,0,0.3,0,0.5,0c0-0.1,0.1-0.1,0.2-0.1c3.3-0.5,5.8-2.9,6.6-6.1C271.6,60.7,270.2,58.4,267.3,57.9z
			 M264.4,66.7c-1.4,0.3-2.5-0.6-2.5-2.1c-0.1-1.8,1.3-3.5,3.1-3.8c1.5-0.2,2.5,0.7,2.5,2.1C267.4,64.8,266.1,66.4,264.4,66.7z"/>
		<path class="st44" d="M262.5,69.9c0.4,0,0.8,0,1.3,0C263.3,69.8,262.9,69.8,262.5,69.9z"/>
		<path class="st44" d="M262.5,69.9c0.4-0.1,0.8-0.1,1.3,0C263.3,69.7,262.9,69.7,262.5,69.9z"/>
		<path class="st0" d="M247.9,53.7c-0.4-0.1-0.8-0.2-1.3-0.3c-2.3-0.2-4.7,0-7-0.1c-0.4,0-0.4,0.2-0.4,0.5c-0.6,2.4-1.1,4.9-1.7,7.3
			c-0.6,2.8-1.3,5.6-1.9,8.4c1.2,0,2.3,0,3.4,0c0.4,0,0.5-0.1,0.6-0.5c0.4-1.7,0.8-3.4,1.2-5.1c0.1-0.5,0.3-0.6,0.8-0.6
			c1.1,0,2.3,0,3.4-0.2c3.1-0.5,5.1-2.5,5.6-5.5C250.8,55.7,249.9,54.3,247.9,53.7z M246.5,58c-0.1,1.1-0.9,2-2.2,2.2
			c-0.8,0.2-1.6,0.1-2.4,0.1c-0.3,0-0.3-0.1-0.3-0.4c0.2-1,0.5-2.1,0.7-3.1c0.1-0.3,0.2-0.4,0.5-0.4c0.3,0,0.6,0,0.9,0
			c0.6,0,1.3,0,1.9,0.2C246.3,56.9,246.5,57.3,246.5,58z"/>
	</g>
	<path class="st0" d="M28.8,15c-0.2,0-0.3,0-0.5,0c-0.4-0.2-0.8-0.1-1.2-0.1c-0.9,0.1-1.9,0-2.8,0c-0.3,0-0.5,0-0.7,0.1
		c-0.4,0.2-0.8,0.2-1.2,0.5c1.1,0.3,2.1,0.5,3,1c1.1,0.5,2.2,0.9,3.3,1.5c0.1,0.1,0.3,0.1,0.4,0.3c0.1,0.2,0.3,0.2,0.5,0.2
		c0.6,0.3,1.2,0.7,1.5,1.2c0.4,0.4,0.7,0.8,1.1,1.1c0.4,0.3,0.4,0.4-0.1,0.9c-0.4,0.6-0.8,1.1-1.1,1.8c-0.1,0.2-0.1,0.3,0,0.5
		c0.1,0.2,0.1,0.4,0.2,0.5c0.6,0.5,0.3,1,0,1.5c-0.3,0.5-0.5,1.1-1,1.6c-0.2,0.1-0.4,0.1-0.6,0c0-0.1-0.1-0.2-0.1-0.3
		c0.2-0.5,0.2-0.5,0.7-0.6c-0.5,0-1,0.4-1.1,1c-0.1,0.4-0.3,0.9,0.2,1.2c0.1,0.1,0.1,0.2,0,0.3c-0.2,0.5-0.4,0.9-0.7,1.4
		c0,0.2-0.1,0.2-0.2,0.3c-0.7,1.2-1.4,2.4-2,3.6c-0.2,0.6-0.5,1.2-0.9,1.8c-0.3,0.4-0.4,0.9-0.7,1.3c-0.1,0.2-0.2,0.5-0.4,0.6
		c-1.1,1.7-2.1,3.5-3,5.3c-0.4,1.1-1.1,2.1-1.8,3.2c-0.1,0.1-0.3,0.1-0.2,0.2c0,0.3-0.1,0.5-0.4,0.6l0,0c-0.2,0.3-0.3,0.8-0.6,1
		c-0.7-0.3-1.3-0.9-1.9-1.4c-1.3-1.1-2.4-2.4-3.4-3.8c-0.6-0.4-0.9-1.1-1.2-1.7c-0.1-0.1-0.1-0.2-0.2-0.3c-0.1-0.2-0.3-0.4-0.4-0.7
		c-0.1-0.1-0.1-0.3-0.2-0.4c-0.4-0.9-0.8-1.8-1.1-2.8c0-0.2-0.1-0.4-0.1-0.5c-0.3-0.7-0.4-1.4-0.5-2.1c-0.1-0.3,0-0.5-0.1-0.8
		c-0.1-0.3-0.1-0.7,0.1-1c0.1-0.2,0.1-0.3,0.1-0.5c0-1.1,0-2.1,0-3.2c0-0.2,0-0.3-0.1-0.5c-0.3-0.9,0-1.7,0.2-2.5
		c0.4-1.9,1.1-3.7,2-5.4c0.1-0.1,0.1-0.2,0.2-0.3c0.4-0.1,0.5-0.4,0.5-0.8c0.2-0.8,0.7-1.4,1.2-2c0.3-0.5,0.6-1,1.1-1.4
		c0.6-0.5,1.1-1.1,1.7-1.7c0.6-0.5,1.2-1.1,1.9-1.5c0.1-0.1,0.3-0.2,0.4-0.3c0.3-0.2,0.6-0.4,0.9-0.5c0.3-0.1,0.8,0.1,0.9-0.4
		c0.7-0.8,1.6-1,2.5-1.3c0-0.1,0.1,0.3,0.2,0c0.1-0.2,0.3-0.3,0.6-0.3c0.3,0,0.5,0,0.7-0.2c0.1,0,0.1,0,0.2,0
		c0.1,0.1,0.1,0.1,0.1,0.2c0.1,0.2,0.2,0.2,0.3,0c-0.1-0.2-0.3-0.3,0-0.5c1.2-0.4,2.3-0.8,3.6-0.5c0.2,0.1,0.3,0.1,0.5,0.1
		c1.1,0,2.3,0,3.4,0c0.2,0,0.4,0,0.5-0.1c0.3-0.1,0.6-0.1,1-0.1c0.4,0.1,0.9,0.2,1.3,0.3c0.3,0.1,0.6,0.2,0.9,0.3
		c0.2,0.1,0.4,0.2,0.7,0.2c0.8,0.2,1.7,0.4,2.4,0.8c0.4,0.2,0.7,0.4,1.1,0.5c0.7,0.4,1.5,0.8,2.2,1.3c0.1,0.1,0.3,0.2,0.4,0.3
		c4.3,3,7.1,6.9,8.6,11.9c0.1,0.5,0.3,0.9,0.3,1.4c0,0.4-0.1,0.8,0.2,1.1c0,0.1,0.1,0.2,0.1,0.3c0,0.6,0,1.2,0.2,1.8
		c0.1,1.2,0.1,2.5,0,3.7c0,0.2-0.1,0.5-0.2,0.7c-0.3,0.2-0.3-0.1-0.3-0.2c-0.1-0.3,0-0.6,0-0.9c0-0.1,0,0,0-0.1c0,0-0.1,0-0.1,0
		c-0.2,0.6-0.1,1.2,0.1,1.8c-0.2,0.3-0.2,0.6,0,0.9c0.1,0.3,0,0.6-0.1,0.9c-0.3,1.2-0.8,2.4-1.3,3.5c-0.1,0.2-0.2,0.4-0.4,0.6
		C50.1,40.8,50,41,50,41.2c-0.3,0.8-0.8,1.5-1.3,2.2c-0.1,0.1-0.2,0.3-0.3,0.4c-1.3,1.9-2.9,3.4-4.8,4.8c-0.2,0.1-0.3,0.2-0.4,0.3
		c-1.5,1-3.1,1.9-4.8,2.5c-0.2,0.1-0.4,0.2-0.6,0.3c-0.1,0-0.1,0-0.2,0.1c-0.6,0.1-1.1,0.4-1.7,0.3c-0.2,0-0.3,0-0.5,0
		c-0.3-0.2-0.7-0.1-1,0.1c-0.2,0.1-0.4,0.1-0.5,0.2c-0.1,0-0.1,0-0.2,0c-0.6,0.2-1.3,0-1.9,0.2c-0.8,0-1.6,0.1-2.4,0
		c-0.5-0.2-1,0.1-1.5-0.2c-1.4-0.1-2.7-0.5-4-0.9c-0.2,0-0.3-0.1-0.5-0.1c-0.2-0.1-0.4,0-0.5-0.2l-0.1,0l-0.1,0
		c-0.2-0.1-0.5,0-0.6-0.3c-0.4-0.2-0.2-0.4-0.1-0.7c1.2-2,2.3-4.1,3.4-6.1c0.2-0.4,0.3-0.8,0.6-1c0.1-0.1,0.2-0.1,0.3-0.1
		c0.2,0,0.2,0.2,0.3,0.2c0.1,0,0.2,0.1,0.2,0c0.1-0.2,0-0.2-0.1-0.1c0,0-0.1,0-0.2,0c-0.2-0.1-0.1-0.3-0.3-0.5c0,0,0,0,0-0.1
		c0.7-1.2,1.3-2.4,2-3.5c0.2-0.1,0.2-0.3,0.3-0.4c0.6-1.4,1.5-2.6,2.2-3.9c0-0.1,0.1-0.2,0.1-0.3c0.1-0.1,0.1-0.3,0.2-0.4
		c0,0,0-0.1,0-0.1c0.1-0.3,0.1-0.7,0.5-0.9c1.1-1.9,2.3-3.8,3.3-5.8c0.2-0.2,0.5-0.2,0.8,0c0.4,0,0.7,0.1,1-0.2
		c0.2-0.2,0.4-0.3,0.5-0.5c0.3-0.4,0.5-0.9,0.7-1.3c0.2-0.5,0.5-0.5,0.9-0.4c0.6,0.2,1.3,0.4,1.9,0.7c0.3,0.2,0.8,0.1,1,0.5
		c0,0,0.1,0,0.1,0c0.1,0.1,0.3,0.1,0.4,0.2c0.3,0.2,0.6,0.4,0.9,0.5c0.1,0.1,0.3,0.1,0.4,0.3c0.1,0.2,0.5,0.2,0.5,0.4
		c0.1,0.1,0.1,0.2,0.2,0.2c0.7,0.5,1.3,1.1,2,1.6c0.1,0.1,0.3,0.2,0.4,0.4c0.4,0.4,0.8,0.8,1.2,1.2c0.1,0.1,0.3,0.2,0.4,0.1
		c0.3-0.2,0.1-0.5,0-0.7c-0.7-2.5-1.9-4.6-3.6-6.5c-0.5-0.4-0.9-0.7-1.2-1.3c-0.6-0.7-1.3-1.3-2.1-1.8c-0.8-0.5-0.8-0.6-0.4-1.2
		c0-0.2,0.2-0.2,0.2-0.4l0,0c0.1-0.1,0.1-0.3,0.2-0.4c0,0,0-0.1,0-0.1c0.3-0.7-0.2-1.2-0.4-1.7c0-0.4-0.2-0.7-0.6-0.8
		c-0.1,0-0.2,0-0.2-0.1c-0.1-0.1-0.3-0.3-0.2-0.5c0.2-0.3,0.5-0.1,0.8-0.2c-0.5,0-0.9-0.2-1.3-0.3c-0.7,0-1.3-0.4-2-0.1
		c-0.8-0.1-1.4,0.2-1.8,1c-0.1,0.2-0.2,0.3-0.3,0.5c-0.3,0.5-0.5,0.6-1.1,0.4c-1.5-0.7-3.1-1.1-4.7-1.3c0,0-0.1,0-0.1-0.1
		C29.3,15,29,15.2,28.8,15z"/>
	<path class="st45" d="M42.7,13c-0.7-0.4-1.4-0.8-2.1-1.3c0-0.3,0.2-0.3,0.4-0.4c0.2,0,0.4,0,0.5-0.2c0.2-0.2,0.1-0.5,0.2-0.7
		c0-0.1,0.1-0.1,0.2-0.2c0.3,0,0.5,0,0.7,0.2c1.1,0.7,2.2,1.3,3.2,2.2c0.4,0.5,0.9,0.7,1.3,1.1c2.4,2.3,4.3,4.9,5.5,7.9
		c0.1,0.2,0.2,0.4,0.3,0.6c0.1,0.2,0.1,0.5,0.2,0.7c0.1,0.1,0.1,0.3,0.1,0.4c0,0.1,0,0.1,0.1,0.2c0,0.1,0.1,0.2,0.1,0.4
		c0.4,1.2,0.7,2.4,0.8,3.6c0,0.1,0,0.2,0,0.3c0,0.3,0,0.5,0.2,0.7c0,0.1,0.1,0.1,0.1,0.2c0.1,1.5,0,2.9,0,4.4c0,0.1,0,0.3-0.1,0.4
		c0.1,0.2-0.3-0.2-0.2,0.2c0.1,0.2,0.1,0.4,0.1,0.7c0,0.3,0,0.6-0.2,0.9c-0.3,0.2,0,0.4-0.1,0.7c-0.1,1.1-0.5,2.2-0.9,3.2
		c-1.6,4.3-4.2,7.9-7.9,10.7c-0.2,0.2-0.5,0.3-0.8,0.5c-0.2,0.1-0.3,0.1-0.4,0.3c-1.1,0.8-2.1,1.6-3.4,1.9c-0.2,0-0.3-0.1-0.4-0.2
		c-0.2-0.2,0.1-0.4,0.2-0.6c-0.3,0.4-0.8,0.2-1.2,0.4c0.3,0.5,0.7,0,1,0.2c0.1,0.1,0.1,0.2,0.1,0.3c-0.2,0.4-0.6,0.5-1,0.5
		c-0.2,0-0.3-0.3-0.5-0.3c0,0.1,0.1,0.2,0.1,0.3c0,0.2-0.2,0.3-0.3,0.3c-0.1,0-0.2,0.1-0.3,0.1c-0.2-0.1-0.6,0.1-0.5-0.4
		c0.4-0.2,0.3-0.4,0-0.5c-0.2-0.1-0.4,0.1-0.5-0.3c0.1-0.1,0.2-0.1,0.3-0.2c-0.1,0-0.2,0.1-0.3,0.2c-0.4,0-0.9,0.1-1.3-0.3
		c0.5-0.2,1.1-0.4,1.7-0.5c0,0,0.1,0.1,0.2,0.1c0,0,0-0.1-0.1-0.1c1.2-0.6,2.5-1,3.7-1.7c0.6-0.4,1.2-0.7,1.7-1.1
		c0.1-0.1,0.3-0.1,0.4-0.3c1.8-1.4,3.4-3,4.8-4.8c0.2-0.1,0.2-0.3,0.3-0.4c0.4-0.7,1-1.4,1.3-2.2c0-0.2,0.1-0.3,0.2-0.4
		c0.9-1.6,1.5-3.3,1.8-5c0,0-0.1-0.1-0.1-0.2c0-0.4,0.2-0.7,0.2-1.1c0-0.1,0.1-0.2,0.1-0.2c0.4-1.5,0.3-3,0.2-4.6
		c-0.1-0.3-0.1-0.5-0.1-0.8c0-0.3,0-0.6,0-0.8c0-0.1-0.1-0.1-0.1-0.2c0-0.1,0-0.2,0-0.2c-0.2-0.4-0.1-0.8-0.2-1.2
		c-0.3-1.8-1-3.5-1.8-5.2c-1.5-3-3.7-5.6-6.5-7.6c-0.2-0.1-0.4-0.3-0.5-0.4C43,13.1,42.8,13.1,42.7,13z"/>
	<path class="st46" d="M11.6,40.7c0.1,0.2,0.2,0.4,0.4,0.6c0,0.2,0,0.4-0.1,0.6c0,0,0,0,0,0c0.1-0.1,0.1-0.3,0.2-0.4
		c0.4,0.6,0.8,1.2,1.1,1.8c-0.1,0.4-0.3,0.5-0.6,0.6c-0.1-0.2-0.4-0.1-0.5-0.3c-0.1-0.1-0.1-0.2,0-0.3c-0.1,0.1-0.1,0.2,0,0.3
		c0.1,0.2,0.3,0.1,0.5,0.2c0,0.2,0.1,0.7-0.1,0.6c-0.2,0-0.7,0-0.8-0.5l0,0l0,0c-0.1,0.1-0.1,0.2-0.1,0.3C11.2,44.3,11,44,11,43.6
		c0-0.1,0.1-0.2,0.2-0.2c0.4-0.2,0.4-0.5,0-0.7c-0.2,0.2-0.2,0.5-0.4,0.6c-0.6-0.5-0.9-1.1-1.1-1.8c0-0.1,0.1-0.1,0.1-0.1
		c-0.1,0-0.1,0.1-0.1,0.1c-0.3-0.2-0.4-0.4-0.4-0.8c0.1-0.2,0.2-0.3,0.2-0.5c0.2-0.2,0.2-0.5,0.1-0.7c0.1,0.2,0.1,0.4,0,0.6
		c-0.1,0.1-0.2,0.3-0.4,0.3c-0.1,0-0.1-0.1-0.1-0.1C9,40.2,9,40.1,8.9,40c-0.3-0.5-0.5-0.9-0.5-1.5c0-0.1,0-0.2,0-0.3
		c0-0.2,0-0.4,0.1-0.6c0.2-0.7,0.2-0.8-0.6-0.9c-0.4-0.5-0.3-1.2-0.5-1.8c0-0.3-0.1-0.7,0-1c0-0.2,0-0.4,0-0.6c0-1.5,0-3.1,0-4.6
		c0-0.1,0-0.2,0-0.3c0-0.2,0-0.3,0-0.5c0-0.2,0.1-0.4,0.1-0.6c0-0.3,0-0.6,0.1-1c0.5-2.3,1.3-4.5,2.5-6.6c3.1-5.6,7.7-9.3,13.7-11.3
		c0.4-0.1,0.9-0.3,1.3-0.4c0.3,0,0.5-0.1,0.8-0.2c0.3-0.1,0.5-0.1,0.8-0.2c0.2,0,0.5-0.1,0.7-0.1c1.5-0.1,2.9-0.4,4.4-0.3
		c0.6,0.2,1.1,0,1.7,0.2c0.2,0,0.4,0,0.6,0c0.2,0,0.3,0,0.5,0.1c0.3,0.1,0.7,0.2,1,0.2c0.1,0,0.2,0,0.3,0.1C36.2,8,36.5,8,36.6,8.3
		c-0.5,0.5-1.1,0.4-1.6,0.6c-2.1,0.4-4.3,0.1-6,0.2c1.4,0,3.2,0,5,0c0.5,0,0.5,0.2,0.3,0.6c-0.3,0-0.7,0-1,0c0,0-0.1,0-0.1,0
		c-0.1,0-0.1,0-0.2,0c-0.3,0-0.5,0-0.8,0c-1.1,0-2.2,0-3.2,0c-0.1,0-0.1,0-0.2,0c0,0-0.1,0-0.1,0c-1.2,0-2.4,0.3-3.6,0.7
		c-0.1,0.1-0.2,0.2-0.4,0.1c0,0-0.1,0-0.1,0c-0.2,0.2-0.4,0.2-0.6,0.2c-0.2,0-0.5,0.1-0.6,0.2c0,0-0.1,0.1-0.1,0
		c-0.9,0.3-1.8,0.6-2.5,1.2c-0.2,0.4-0.7,0.4-1,0.6c-0.3,0.2-0.6,0.3-0.9,0.5c-0.1,0.1-0.3,0.1-0.4,0.3c-0.6,0.5-1.3,1-1.9,1.5
		c-0.1,0-0.2,0-0.2,0c-0.5,0.4-0.7,0.3-1.1-0.3c0.1,0.5,0,0.7-0.4,0.7c0.2,0,0.5,0.1,0.6,0.4c0.1,0.3-0.1,0.4-0.3,0.5
		c-0.2,0.1-0.1,0.3-0.2,0.4c-0.8,1-1.7,2-2.3,3.2c-0.1,0.3-0.3,0.7-0.5,0.9c-0.4,0.5-0.6,1.1-0.8,1.6c-0.9,2.1-1.6,4.2-1.7,6.5
		c0,0,0,0.1,0,0.1c0,0,0,0,0,0.1c0,0-0.1,0.1-0.1,0.1c0,0.4,0,0.8,0,1.1c0,0.5,0,1,0,1.6c0,0.4,0,0.8,0,1.2c0,0,0,0.1,0,0.1
		c0,0,0,0.1,0,0.1c0,0.3,0,0.6,0,1c0.1,0.2-0.1,0.5,0.1,0.7c0.2,0.7,0.3,1.4,0.5,2.2c0.1,0.3-0.1,0.5,0,0.8c0-0.2,0-0.4,0.2-0.3
		c0.4,0.9,0.7,1.9,1.1,2.8C11.5,40.5,11.4,40.6,11.6,40.7z"/>
	<path class="st47" d="M44.5,50.3c1.6-1.1,3-2.4,4.3-3.9c2.5-2.9,4.2-6.3,5.1-10c0-0.1,0-0.3,0-0.4c0.1-0.2,0-0.4,0.1-0.6
		c0.2-0.3,0.1-0.6,0.1-0.9c0.1-0.2,0-0.5,0.1-0.8c0.2-1,0.1-2,0.2-3c0-0.7,0-1.4,0-2.1c-0.2-0.3,0-0.7-0.2-1
		c-0.1-1.1-0.4-2.2-0.7-3.2c-0.1-0.2-0.1-0.4-0.1-0.5c0-0.1,0.1-0.2-0.1-0.3c0,0,0,0,0-0.1c-0.1-0.2,0-0.5-0.2-0.7
		c0-0.3,0.2-0.5,0.3-0.7c0.1-0.1,0.2-0.1,0.3,0c0.1,0.1,0.2,0.2,0.3,0.3c0.1,0.2,0.1,0.4,0.1,0.6c0,0.1,0,0.2,0.1,0.3
		c0.2-0.1,0.3-0.3,0.5-0.2c0,0,0.1,0.1,0.1,0.2c0.1,0.3-0.4,0.6-0.1,1c0.1,0.1,0.2,0,0.3,0.1c0,0,0,0.1,0,0.1c0.2,0.2,0,0.4,0,0.7
		c0,0.2-0.1,0.3-0.3,0.1c0,0,0-0.1,0-0.1c0,0,0,0,0,0.1c0,0.5,0.4-0.1,0.5,0.1c0.1,0.3,0.1,0.6,0.2,0.9c0,0.1-0.2,0.1-0.1,0.2
		c0,0,0.1-0.1,0.2-0.1c0.2,0.4,0.2,0.7,0.2,1.1c-0.2,0.3-0.1,0.7-0.1,1c0.1-0.3-0.1-0.6,0.2-0.8c0,0,0.1,0.1,0.1,0.1
		c0.2,0.3,0,0.7,0.1,1c0.1,2.3,0.1,4.5-0.2,6.8c-0.1,0.2,0,0.4-0.1,0.6c-0.3,1.3-0.6,2.6-1.2,3.9c-0.5,0.1-0.3,0.6-0.4,0.9
		c-0.3,0.9-0.8,1.7-1.1,2.5c-0.3,0.2-0.3,0.6-0.6,0.8c-0.1,0-0.2,0.1-0.1,0.3c0,0.1-0.1,0.3-0.1,0.4c-0.1,0,0,0.2-0.1,0.2
		c-0.7,1-1.5,1.9-2.2,2.9c0,0,0,0,0,0c-0.4,0.7-0.9,1.2-1.5,1.6c-1.3,1.2-2.8,2.3-4.3,3.2c-0.1,0.1-0.3,0.2-0.4,0.2
		c-1,0.5-2,1.1-3.1,1.5c0,0-0.1,0-0.1-0.1c-0.1-0.1-0.3,0-0.4,0c0.1,0,0.2,0,0.3,0.1c-0.7,0.4-1.5,0.7-2.3,0.8
		c-0.1,0-0.2-0.1-0.3-0.1c-0.1,0,0,0.1,0,0.2c-0.6,0.2-1.1,0.4-1.8,0.4c-0.1-0.2-0.3-0.1-0.5-0.1c0.2,0,0.3,0,0.5,0.1
		c-0.5,0.2-1,0.3-1.5,0.3c-0.7,0.1-1.4,0-2,0.2c-0.9,0.1-1.8,0.1-2.8,0c-0.6-0.2-1.3,0-1.9-0.2c-2-0.2-4-0.7-5.9-1.5
		c0,0-0.1-0.1,0-0.2c0.1-0.2,0.1-0.3,0-0.5c0-0.1,0-0.1,0.1-0.2c0.2-0.1,0.2-0.8,0.7-0.5c1,0.3,2.1,0.6,3.1,0.9
		c0.2,0.1,0.5,0.1,0.7,0.1c0.2,0.1,0.4,0,0.6,0.1c0.3,0.2,0.6,0.1,0.9,0.1c0.3,0.1,0.7,0,1,0.1c1.4,0.2,2.9,0.2,4.3,0
		c0.1,0,0.2-0.1,0.3-0.1c0.3,0,0.5,0,0.8,0c0.5,0,1-0.1,1.5-0.3c0.9-0.4,1.9-0.5,2.8-0.7c0.1,0,0.1,0,0.2,0c0,0,0.1,0,0.1,0
		c0.1,0,0.2,0.1,0.3,0c0-0.1,0.1-0.1,0.1-0.2c0,0,0,0,0.1,0c0.3-0.2,0.7-0.2,1-0.4c0.1-0.2,0.3-0.1,0.4-0.1c1.2-0.5,2.3-1.1,3.4-1.9
		C44.2,50.4,44.3,50.4,44.5,50.3z"/>
	<path class="st48" d="M25.2,8.2c-5.6,1.5-10,4.5-13.4,9.1C10.2,19.5,9,22,8.3,24.6c-0.2,0.6-0.4,1.1-0.5,1.7
		c-0.1,0.1-0.1,0.1-0.2,0c-0.1-0.1-0.2-0.2-0.3,0c-0.1,0-0.1,0.1-0.2,0.1c-0.1,0-0.2,0-0.2,0.1c-0.2,0.3-0.3,0.7,0,1
		c0.1,0.1,0.2,0.2,0.2,0.3c0,0.2-0.1,0.3-0.2,0.3c-0.1,0-0.3,0.2-0.4,0.2c-0.2,0-0.3,0-0.5-0.1C6,28.3,6,28.3,6,28.2
		c0.3-0.3,0.2-0.6,0.2-0.9c-0.1-0.3,0.1-0.6,0.1-0.9c0.1-0.3,0.2-0.6,0.2-0.9c0.3-1.9,1-3.7,1.9-5.4c0.6-1.3,1.3-2.5,2.2-3.6
		c0.1-0.1,0.1-0.3,0.3-0.4c1.6-2.1,3.4-3.9,5.6-5.4c1.5-1.1,3.1-1.9,4.8-2.6c0.2-0.1,0.3-0.2,0.5-0.3c0.2-0.2,0.4-0.1,0.6-0.2
		C23,7.3,23.8,7,24.5,6.8c0.2-0.1,0.4-0.1,0.7-0.1c0.1,0.1,0.1,0.1,0.2,0.1c0-0.1-0.1-0.1-0.1-0.1c0.7-0.4,1.5-0.2,2.2-0.5
		c0.1-0.1,0.2-0.1,0.3-0.1C28,6,28.2,6,28.4,5.9C29,5.9,29.5,6,30,5.8c0.6-0.1,1.2-0.1,1.8,0c0.3,0.1,0.7,0.1,1,0.1
		c0.2,0,0.5,0,0.6,0.2c0.6,0.2,1.3,0.1,1.9,0.3c-0.1,0.2-0.2,0.1-0.4,0.1c0.2,0,0.4,0.1,0.6-0.1c0.7,0.2,1.3,0.3,2,0.5
		c0.3,0.2,0.6,0.1,0.9,0.1c0.1,0,0.1,0,0.2,0.1c0.1,0.2,0,0.3-0.2,0.4c0.3,0,0.6-0.3,0.9-0.1c0.1,0,0.1,0,0.2,0
		c0.1,0.1,0.1,0.2,0.1,0.2c-0.2,0.5-1,0.3-1.1,0.8c-0.5-0.1-1,0-1.2-0.6C37.1,7.8,37.1,7.9,37,8c-0.1,0.2-0.3,0.1-0.5,0
		c-0.1-0.1-0.1-0.1-0.1-0.2c0-0.1,0-0.2,0-0.2c0,0,0-0.1,0-0.1c-0.1-0.1-0.1,0-0.2,0c-0.1,0-0.2,0.1-0.3,0c-0.1,0-0.1,0-0.2-0.1
		c-1.1-0.2-2.3-0.3-3.4-0.5c-1.1-0.2-2.1-0.2-3.2,0.1c-0.2,0.1-0.4,0.1-0.7,0.1c1.1,0,2.1-0.3,3.1-0.3c0.6,0,1.1,0.2,1.7,0.3
		c0.2,0,0.3,0.2,0.1,0.4c-0.5,0-1.1,0.1-1.6,0c-1.5-0.1-3,0.1-4.5,0.2c-0.2,0.1-0.5,0-0.7,0.1C26.5,8,26.2,8,26,8
		C25.7,8.1,25.4,8,25.2,8.2z"/>
	<path class="st49" d="M9.2,40.2c0,0,0,0.1,0.1,0.1c0.1,0,0.2,0.1,0.2,0.3c0.1,0.3,0.1,0.6,0.4,0.8l0,0c0.2,0.7,0.6,1.3,1,1.9
		c0.2,0.1,0.2,0.3,0.2,0.4c0.1,0.3,0.3,0.5,0.5,0.7c0.9,1.4,2,2.6,3.1,3.8c0.3,0.3,0.6,0.6,0.9,0.9c-0.3,0.4-0.6,1-1.3,0.8
		c-1.1-0.9-2.1-2-3-3c-0.2-0.1-0.2-0.3-0.3-0.4c-0.1-0.1-0.2-0.3-0.2-0.4c0.1-0.1,0,0,0,0c0-0.1,0-0.1-0.1,0
		c-0.6-0.7-1.1-1.4-1.5-2.2c0,0,0.1-0.1,0-0.1c-0.1-0.1,0,0-0.1,0c-0.7-1.2-1.4-2.4-1.8-3.7c0.2-0.5,0.4-1,0.2-1.5
		c-0.1-0.2-0.1-0.5,0.2-0.5c0.3-0.1,0.3,0.2,0.4,0.4c0,0.2,0.2,0.1,0.3,0.2c0.1,0.5,0.3,1,0.5,1.5C9.1,40,9,40.2,9.2,40.2z"/>
	<path class="st48" d="M52.6,21.8c-0.7-1.3-1.3-2.6-2.1-3.8c-1-1.5-2.2-2.8-3.4-4.1c0.1-0.2,0.2-0.4-0.2-0.6
		c-0.2-0.1-0.2-0.3-0.2-0.5c0.1-0.2,0.3-0.1,0.4-0.1c0.4,0.1,0.7,0.2,1,0.3c0,0,0.1,0.1,0.1,0.1c0.1,0.2,0.1,0.3-0.1,0.5
		c-0.3,0.3-0.2,0.5,0.2,0.5c0.4,0,0.8-0.1,1.1,0.3c0.8,0.7,1.4,1.7,2,2.5c0.1,0.2,0.2,0.4,0.4,0.5c0.7,0.8,1.2,1.7,1.5,2.8
		c0,0.2,0.1,0.3,0.1,0.5c0.2,0.1-0.1,0.4,0.2,0.5c0.1,0.2,0.1,0.3,0.2,0.5c0,0,0,0-0.1,0.1c-0.1,0-0.2,0.1-0.3,0.1
		c-0.1,0-0.2,0-0.3-0.1c-0.2-0.3-0.5,0-0.7,0C52.8,21.8,52.8,21.7,52.6,21.8C52.7,21.8,52.6,21.8,52.6,21.8z"/>
	<path class="st50" d="M36.5,8c0.1,0,0.4,0.1,0.4-0.1c0-0.3,0.3-0.2,0.4-0.2c0.3,0,0.1,0.2,0.1,0.3c0.1,0.4,0.6,0.1,0.8,0.4
		c0,0.1,0.3,0,0.2-0.3C38.3,7.9,38.6,8,38.7,8c0.3-0.1,0.7,0,0.7-0.5c2.4,0.8,4.5,2.1,6.6,3.5c0.1,0.1,0.3,0.1,0.4,0.3
		c0.2,0.2,0.3,0.3,0.5,0.5c0.1,0.1,0.1,0.2,0,0.2c-0.5,0-0.6,0.7-1.1,0.8c-0.8-0.5-1.6-1.2-2.5-1.7c-0.5-0.3-0.9-0.6-1.4-0.7
		C41,10,40.2,9.5,39.3,9.2c-0.4-0.1-0.7-0.3-1.1-0.4c-0.6-0.2-1.2-0.2-1.7-0.6c-0.2-0.1-0.4-0.2-0.6-0.2c0,0,0,0,0.1-0.1
		C36.2,7.8,36.3,7.8,36.5,8z"/>
	<path class="st51" d="M6.1,28.4c0.2,0,0.3,0,0.5,0c0.3,0.4,0.1,0.8,0.1,1.2c0.1-0.4-0.1-1,0.1-1.4C7,28.1,7,28,7.1,27.9
		c-0.2-0.5-0.3-1,0-1.5c0.1,0,0.2,0,0.3,0c0.1-0.1,0.2-0.1,0.2,0c0.1,0,0.2,0,0.2,0c-0.1,0.3-0.1,0.7-0.2,1c-0.2,0-0.2-0.2-0.2-0.4
		c0,0.4,0,0.7,0.1,0.9c0,0.2,0,0.3,0,0.5c-0.1,0.1-0.1,0.2-0.2,0.2c-0.1,0.3-0.1,0.6-0.1,0.9c0,1.6,0.1,3.1-0.1,4.7
		c-0.2,0.2-0.3,0.5-0.2,0.8c0-0.2-0.1-0.4,0.1-0.6c0.2,0,0.3,0.1,0.4,0.5c0,0,0,0,0.1,0c0,0,0,0,0.1,0c0.3,0.6,0.2,1.2,0.5,1.8
		c0.1,0.1,0.1,0.2,0.1,0.2C8,37.1,8,37.5,7.6,37.5c0,0-0.1-0.1-0.1-0.1c0,0,0.1,0.1,0.1,0.1c0.1,0.1,0.1,0.3,0,0.4
		c0,0.1-0.1,0.2-0.2,0.3c-0.1,0-0.2-0.1-0.3-0.2c-0.3-0.5-0.4-1,0.1-1.5c0,0-0.2,0-0.2,0.1c0,0,0,0,0,0.1c-0.1,0.1-0.2,0.1-0.3,0.1
		c-0.2-0.2-0.1-0.6-0.2-0.9c0.1,0.4,0.1,0.8,0.3,1c0,0.3,0.1,0.6-0.1,0.8c-0.4-1.1-0.6-2.2-0.7-3.4c0-0.3,0-0.6-0.1-0.9
		c-0.2-0.3,0-0.7-0.1-1c0-0.8,0-1.7,0-2.5c0-0.3,0-0.7,0-1C5.9,28.7,5.9,28.5,6.1,28.4z"/>
	<path class="st52" d="M25.3,16.5c-1-0.3-2-0.5-3-0.8c-0.1,0-0.2-0.1-0.2-0.2c0-0.2,0.1-0.2,0.2-0.2c0.4-0.1,0.8-0.2,1.1-0.3
		c0.8-0.3,1.7-0.1,2.6-0.2c0.2,0,0.5,0,0.7,0.2c0.2,0.4,0.6,0.4,1.1,0.6c-0.6,0.2-1.1,0.1-1.6,0.1c-0.5-0.5-1.1-0.8-1.9-0.5
		c0,0-0.1,0.1-0.1,0.1c0.1,0.3,0.3,0.2,0.5,0.2c0.5,0.1,1-0.1,1.4,0.2c0,0.3-0.3,0.2-0.5,0.3c-0.3,0-0.6-0.1-0.9,0.1
		C24.8,16.5,25.4,16,25.3,16.5z"/>
	<path class="st53" d="M14.4,49.8c0.5-0.1,0.8-0.6,1.3-0.8c0.5,0.4,1,0.8,1.5,1.1c0.2,0.2,0.2,0.3,0.1,0.5c-0.1,0-0.2-0.1-0.3-0.1
		c-0.1,0.1,0,0.1,0.1,0.1c0.1,0,0.1,0.1,0.2,0.1c0,0.1,0,0.1,0,0.2c-0.1,0.3-0.2,0.8-0.7,0.6c-0.2-0.1-0.2-0.3-0.5-0.3
		c-0.2-0.1-0.3-0.2-0.4-0.4c-0.1-0.1-0.2-0.2-0.3-0.2c0,0-0.1-0.1-0.1-0.1C14.9,50.3,14.5,50.1,14.4,49.8z"/>
	<path class="st54" d="M27.7,6.2c-0.1,0-0.2,0-0.3,0c0.2-0.5,0.7-0.7,1.2-0.7c1.5,0,2.9,0,4.4,0c0.4,0,0.5,0.1,0.5,0.5
		C33,6.1,32.4,6,31.9,6c-0.6,0-1.2,0-1.9,0c-0.5,0.1-1.1,0-1.6,0C28.2,6.1,27.9,6.1,27.7,6.2z"/>
	<path class="st55" d="M7.6,37.4c0.4,0,0.1-0.5,0.5-0.5c0.5,0.2,0.4,0.6,0.4,1c0,0.2,0,0.4-0.1,0.5c-0.3,0-0.2-0.3-0.4-0.5
		c-0.2,0.2-0.1,0.5,0,0.7c0.3,0.6,0,0.9-0.4,1.3c-0.4-0.7-0.6-1.5-0.8-2.4c0-0.3,0-0.6,0-0.9h0c0.4,0,0.1-0.5,0.4-0.7
		c0.2,0.3,0.2,0.6,0.1,0.8c-0.4,0.5-0.1,0.9,0.2,1.4C7.6,37.9,7.5,37.7,7.6,37.4L7.6,37.4z"/>
	<path class="st56" d="M24.4,38.2c0.6-1.3,1.3-2.5,2.1-3.6c0,0,0,0.1,0,0.1c0.3,0.6,0.3,0.6,0.1,1.1c-0.2,0.5-0.5,0.8-1.1,0.8
		c0,0.2,0.2,0.4,0.3,0.3c0.2-0.1,0.3-0.2,0.4,0.1c0.1,0.2-0.1,0.3-0.3,0.3c-0.5,0-0.7,0.5-0.9,0.8C24.9,38.5,24.6,38.3,24.4,38.2z"
		/>
	<path class="st57" d="M45.8,12.8c0.5-0.1-0.1-0.5,0.3-0.7c0.2-0.1,0.6,0.1,0.7-0.3c0.5,0.3,1,0.8,1.4,1.2c-0.1,0.1-0.2,0.4-0.4,0.1
		c-0.2-0.3-0.6,0-0.8-0.3c-0.1-0.1-0.2,0.1-0.2,0.2c0,0.1,0.1,0.2,0.2,0.2c0.2,0,0.4,0.2,0.4,0.4c0,0.2-0.3,0.1-0.4,0.3
		C46.7,13.5,46.1,13.3,45.8,12.8z"/>
	<path class="st58" d="M19.1,47.5c0-0.3,0.3-0.5,0.3-0.7c0-0.1,0-0.1,0.1-0.1c0.6-1,1.1-1.9,1.7-2.9c0.1-0.1,0.1-0.2,0.2-0.3
		c0.1,0.7-0.2,1.3,0,2c-0.3,0-0.2-0.1-0.3-0.2C21.1,45,20.9,45,20.8,45c-0.2,0.1,0,0.2,0,0.3c0,0.1,0,0.3,0.1,0.4l0,0
		c-0.6-0.1-0.9,0.1-0.8,0.7c0.1,0.4-0.4,0.7-0.2,1.2C19.6,47.6,19.4,47.5,19.1,47.5z"/>
	<path class="st59" d="M37.5,14.8c0.2-0.4,0.6-0.2,0.9-0.2c0.1,0,0.2,0.2,0.2,0.1c0.6-0.4,1.1,0.1,1.7,0.2c0.3,0,0.8,0,1.1,0.6
		c-0.5-0.2-0.8-0.3-1.2-0.1c0.1,0.2,0.1,0.3,0.2,0.5c0,0.1-0.1,0.1-0.2,0C39.3,15.4,38.4,15,37.5,14.8z"/>
	<path class="st60" d="M38.4,53.3c-0.9,0.4-1.8,0.7-2.8,0.7c-0.1-0.3-0.4-0.3-0.6-0.3c-0.3,0-0.6-0.1-0.7-0.4
		c0.3-0.3,0.5,0.1,0.8,0.2c0.6,0.1,1.1-0.2,1.5-0.3c0.4-0.2,0.8-0.1,1.1-0.2C37.9,53.5,38.2,53.2,38.4,53.3z"/>
	<path class="st61" d="M29.3,29.2c-0.1-0.1-0.1-0.2-0.2-0.3c-0.1-0.2-0.4-0.4-0.4-0.5c0.3-0.4,0.1-0.9,0.4-1.3
		c0.4-0.6,0.9-0.6,1.5-0.8c-0.3,0.1,0,0.7-0.6,0.5c-0.1,0-0.3,0.2-0.3,0.4c-0.2,0.2-0.3,0.5-0.4,0.8c0.2-0.2,0.2-0.4,0.4-0.5
		c0.2-0.1,0.4-0.1,0.5,0C30,28.2,29.7,28.8,29.3,29.2z"/>
	<path class="st62" d="M53.6,20.3c-0.5-0.9-1-1.8-1.5-2.8c0.6-0.1,0.8,0.3,1,0.6c0.2,0.4,0.4,0.8,0.6,1.1c0.1,0.2,0.2,0.3,0.4,0.2
		c0.2,0,0.3,0.1,0.2,0.3c0,0.2-0.2,0.2-0.3,0.1C53.5,19.6,53.7,20.2,53.6,20.3z"/>
	<path class="st10" d="M48.1,49.4c0.5-0.5,1-1,1.5-1.6c0.1,0.4,0.3,0.7-0.1,1c-0.2,0.2,0.3,0.4,0,0.7c-0.2-0.1-0.1-0.4-0.4-0.4
		c-0.2,0-0.5-0.2-0.4,0.2c0.1,0.4-0.4,0.4-0.5,0.7C48,49.8,48.2,49.6,48.1,49.4z"/>
	<path class="st63" d="M20.6,53.8c-0.4-0.1-0.7-0.2-0.3-0.6c0,0,0-0.1,0.1-0.1c0.5-0.8,0.5-0.8,1.4-0.4c-0.1,0.2-0.2,0.5-0.1,0.8
		l0,0C21.3,53.7,21,54,20.6,53.8z"/>
	<path class="st57" d="M49.7,14.5c-0.4-0.1-0.9-0.3-1.3-0.1c-0.3,0.1-0.2-0.3-0.4-0.5c-0.1-0.1-0.1-0.3,0.1-0.4
		c0.2-0.1,0.4-0.2,0.3-0.4C48.9,13.5,49.3,14,49.7,14.5z"/>
	<path class="st64" d="M43.6,22.3c0.5,0.4,0.9,0.8,1.2,1.3c-0.3,0.2-0.6,0.3-0.9,0C43.6,23.2,43.1,22.9,43.6,22.3z"/>
	<path class="st65" d="M5,28.5c0,1.3,0,2.6,0,3.8c0,0-0.1,0-0.1,0c0-1.3,0-2.6,0-3.9C4.9,28.5,5,28.5,5,28.5z"/>
	<path class="st66" d="M41.2,16.7c0.4,0.5,0.9,1.1,0.4,1.8c0-0.1,0-0.3-0.1-0.3c-0.9,0-0.3-0.9-0.6-1.2c-0.1-0.1,0.1-0.2,0.2-0.3
		C41.1,16.6,41.1,16.6,41.2,16.7z"/>
	<path class="st67" d="M31,19.8c-0.5-0.4-1.1-0.8-1.5-1.2c0.3-0.1,0.6-0.5,1-0.2c0,0.2-0.7,0.6,0.3,0.5C31.3,18.8,31,19.4,31,19.8z"
		/>
	<path class="st68" d="M20.6,53.8c0.3-0.1,0.7-0.4,1.1-0.3c0.1,0.5,0.7,0,0.9,0.4c-0.2,0.3-0.8-0.1-0.9,0.4
		C21.3,54.2,20.9,54.2,20.6,53.8z"/>
	<path class="st65" d="M5.5,33.5c-0.3-1-0.3-2,0-3C5.5,31.5,5.5,32.5,5.5,33.5z"/>
	<path class="st69" d="M41.8,25.8c-0.3-0.1-0.7-0.2-1-0.5c0.7-0.4,1.4,0.1,2.1,0c0.2,0-0.1,0.1,0,0.2v0
		C42.5,25.7,42.1,25.4,41.8,25.8z"/>
	<path class="st10" d="M53.1,46.7c-0.3,0.2-0.9,0-0.7,0.6c-0.1,0-0.2,0-0.3,0c-0.3-0.2-0.2-0.5-0.2-0.8c0.1-0.3,0.3-0.2,0.5-0.1
		C52.6,46.6,52.9,46.4,53.1,46.7z"/>
	<path class="st70" d="M26.2,14.9c-0.9-0.1-1.9,0-2.8,0.1c0.2-0.2,0.4-0.2,0.7-0.2c1.2,0,2.3,0,3.5,0c0.3,0,0.5,0,0.7,0.2
		c-0.2,0-0.3,0-0.5,0C27.3,14.9,26.8,15.1,26.2,14.9z"/>
	<path class="st71" d="M54.6,23.1c-0.3,0-0.3,0.4-0.5,0.5c-0.1-0.2-0.1-0.4-0.3-0.5c0-0.3,0-0.5,0-0.8c0,0,0-0.1,0-0.1
		c0.1-0.1,0.1-0.3,0.2-0.4c0,0,0,0,0,0c0.3,0.3,0.2,0.7,0.5,1C54.7,22.9,54.7,23,54.6,23.1z"/>
	<path class="st72" d="M15.1,50.6c0,0,0.1,0,0.1,0c0.1,0.1,0.3,0.1,0.4,0.3c0,0.2,0.3,0.2,0.3,0.4c0,0.1-0.1,0.3-0.2,0.2
		c-0.2-0.2-0.3-0.2-0.6,0c-0.3,0.2-0.4-0.1-0.5-0.4h0C14.9,51,15,50.8,15.1,50.6z"/>
	<path class="st58" d="M18.5,48.5c0.2-0.4,0.3-0.7,0.6-1c0.1,0.3-0.3,0.9,0.5,0.6c0.1,0,0.2,0.1,0.3,0.4
		C19.4,48.5,18.9,48.5,18.5,48.5z"/>
	<path class="st69" d="M42.8,25.6c0.5,0,0.9,0.4,1.4,0.3C43.5,26.4,43.2,26.3,42.8,25.6L42.8,25.6z"/>
	<path class="st65" d="M5.4,28.5c0.2,0.5,0.2,1.1,0,1.6C5.2,29.5,5.3,29,5.4,28.5z"/>
	<path class="st73" d="M28,54.3c-0.3-0.4-0.2-0.5,0.3-0.5c0.3,0,0.6,0,1,0c-0.3,0.5-0.9,0-1,0.5C28.1,54.4,28,54.4,28,54.3z"/>
	<path class="st72" d="M16.4,51.6c0.5,0.1,0.5-0.4,0.7-0.6c0,0,0,0.1,0,0.1c0.1,0.2,0.4,0.4,0.1,0.6C17,51.9,16.6,52,16.4,51.6z"/>
	<path class="st74" d="M32,21.8c0.1-0.3,0.5-0.5,0.1-0.9c0.4-0.2,0.6,0.1,0.6,0.3C32.7,21.7,32.4,21.9,32,21.8z"/>
	<path class="st68" d="M21.7,53.6c0-0.3-0.3-0.2-0.4-0.4c0.1-0.2,0.5-0.1,0.5-0.4c0.2,0,0.4,0.1,0.6,0.2c-0.1,0.1-0.4-0.1-0.3,0.3
		C22.2,53.7,21.8,53.5,21.7,53.6z"/>
	<path class="st75" d="M55.7,27.6c-0.1,0.5,0.1,1-0.1,1.5c-0.1-0.6-0.4-1.1,0.1-1.7C55.7,27.4,55.7,27.5,55.7,27.6z"/>
	<path class="st76" d="M31.8,32.9c-0.1,0.3-0.3,0.6-0.5,0.9c0-0.1,0-0.2-0.1-0.3c-0.3-0.3,0-0.5,0.1-0.7
		C31.4,32.6,31.6,33,31.8,32.9z"/>
	<path class="st77" d="M28.5,30.9c0-0.1,0.1-0.2,0.2-0.3c0.3,0.1,0.8,0.1,0.3,0.6c-0.1,0.1,0,0.3,0,0.4c-0.3,0-0.3-0.2-0.3-0.4
		C28.7,31.1,28.7,30.9,28.5,30.9z"/>
	<path class="st78" d="M32.2,56.1c0.1-0.3,0.3-0.2,0.5-0.2c0.5,0,1,0,1.5,0C33.6,56,32.9,56.1,32.2,56.1z"/>
	<path class="st79" d="M47.6,50.8c-0.3,0.4-0.5,0.7-1.1,0.7C46.9,51.2,47,50.8,47.6,50.8z"/>
	<path class="st80" d="M55.3,25.2c-0.2,0.1-0.4,0.2-0.5,0.3c-0.1-0.3-0.1-0.5,0-0.8c0.2,0.1,0,0.3,0.2,0.5c0-0.3,0.1-0.6,0.1-0.8
		C55.2,24.6,55.2,24.9,55.3,25.2z"/>
	<path class="st50" d="M39.2,7.5c-0.5,0-0.8,0.5-1.4,0.2c0.1-0.3,0.6,0,0.7-0.4c0.1-0.1,0.2-0.1,0.3,0C38.9,7.3,39.1,7.4,39.2,7.5z"
		/>
	<path class="st59" d="M41.2,16.7L41.2,16.7c-0.1,0-0.1,0-0.1,0c0-0.2-0.2-0.3-0.4-0.4c-0.1,0-0.2-0.1-0.2-0.2c0-0.1,0-0.2,0.1-0.2
		C41,15.8,41.2,16.1,41.2,16.7z"/>
	<path class="st10" d="M51.9,48.6c-0.3-0.3-0.6-0.4-0.5-0.7c0.1-0.1,0.2-0.3,0.3-0.2C52,47.9,51.9,48.2,51.9,48.6z"/>
	<path class="st81" d="M5.9,29.8c0,0.9,0,1.8,0,2.6c0,0.1-0.1,0.1-0.1,0C5.8,31.5,5.8,30.6,5.9,29.8C5.8,29.7,5.9,29.7,5.9,29.8z"/>
	<path class="st82" d="M54.6,23.1c0-0.1,0-0.2,0-0.3c0.3,0,0.2-0.3,0.4-0.5c0.4,0.5-0.2,0.8-0.1,1.2C54.6,23.6,54.8,23.3,54.6,23.1
		C54.7,23.1,54.7,23.1,54.6,23.1z"/>
	<path class="st83" d="M22.2,50.8c0.2,0,0.4,0.1,0.6,0.3c-0.4,0-0.7,0.5-1.2,0.2C21.7,50.9,22.2,51.2,22.2,50.8z"/>
	<path class="st84" d="M40.1,54.3c-0.3,0-0.6,0-1,0c0-0.1,0-0.1,0-0.2c0.4,0.1,0.8-0.2,1.2,0.2C40.2,54.3,40.1,54.3,40.1,54.3z"/>
	<path class="st66" d="M41.3,18.9c0,0.2-0.1,0.3-0.2,0.4c-0.9,0-0.1-0.5-0.2-0.7C41.2,18.5,40.9,19.2,41.3,18.9z"/>
	<path class="st10" d="M52.3,48.2c-0.2-0.1-0.2-0.2-0.2-0.3c-0.1-0.3,0.2-0.4,0.3-0.7c0.1,0,0.1,0,0.2,0.1c0.2,0.3,0,0.4-0.1,0.6
		C52.4,48,52.4,48.1,52.3,48.2z"/>
	<path class="st71" d="M54.7,23.2c0.1,0.1,0.2,0.3,0.2,0.4c0,0.1,0,0.2,0,0.2c-0.2,0.1-0.1,0.4-0.2,0.5c-0.4-0.2-0.3-0.5-0.2-0.7
		C54.6,23.5,54.7,23.4,54.7,23.2z"/>
	<path class="st85" d="M31.9,52.5c0.6-0.4,1.3-0.2,1.9-0.2c0,0-0.1,0.1-0.1,0.1c-0.3,0.2-0.7,0-1,0.1C32.4,52.5,32.2,52.5,31.9,52.5
		z"/>
	<path class="st86" d="M35.5,6.5c-0.3,0.5-0.8,0.2-1.1,0c0.3,0,0.6,0,0.9-0.1C35.4,6.4,35.4,6.5,35.5,6.5z"/>
	<path class="st87" d="M33,53.8c0.4,0,0.8-0.1,1.1,0.1C33.8,54,33.5,54.2,33,53.8z"/>
	<path class="st88" d="M54,40.7c0-0.2-0.1-0.3-0.1-0.5c-0.1-0.4,0.1-0.5,0.5-0.4C54.3,40.1,54.1,40.4,54,40.7z"/>
	<path class="st89" d="M27.6,55.8c0.6,0,1.3-0.1,1.9,0.2c-0.2,0-0.5,0-0.7,0c-0.3-0.1-0.7,0.1-1.1-0.1
		C27.6,55.9,27.6,55.9,27.6,55.8z"/>
	<path class="st72" d="M14.6,51C14.6,51,14.6,51.1,14.6,51c-0.3-0.1-0.6,0.1-0.7-0.2c0-0.1,0-0.2,0-0.2C14.2,50.8,14.5,50.7,14.6,51
		L14.6,51z"/>
	<path class="st90" d="M27.9,52.3c0.5,0.1,1.1-0.2,1.5,0.2c-0.1,0-0.2,0-0.3,0C28.8,52.4,28.3,52.6,27.9,52.3
		C28,52.4,28,52.4,27.9,52.3z"/>
	<path class="st91" d="M22.2,7.5c-0.1,0.2-0.3,0.2-0.6,0.2c0-0.2-0.3-0.3-0.1-0.4C21.8,7,22,7.5,22.2,7.5z"/>
	<path class="st92" d="M46.7,29.5c-0.1-0.1-0.2-0.3-0.4-0.4c0.2,0.1,0.3-0.4,0.5-0.1C47,29.2,47,29.4,46.7,29.5z"/>
	<path class="st93" d="M37.5,55.2c-0.1-0.1-0.3-0.1-0.5-0.2c0.3-0.1,0.6-0.3,0.8,0.1C37.7,55.2,37.6,55.2,37.5,55.2z"/>
	<path class="st85" d="M34,52.3c0.1-0.2,0.3-0.2,0.5-0.3c0.3-0.1,0.5-0.2,0.8,0C34.9,52.3,34.5,52.3,34,52.3z"/>
	<path class="st72" d="M16.7,52.3c0,0.1,0,0.3-0.2,0.2c-0.2,0-0.3-0.2-0.3-0.3c0-0.1,0.1-0.2,0.2-0.1C16.5,52.1,16.7,52,16.7,52.3z"
		/>
	<path class="st94" d="M35.3,52.1c-0.3,0-0.5,0-0.8,0c0.3-0.3,0.7-0.3,1,0C35.4,52.1,35.4,52.1,35.3,52.1z"/>
	<path class="st95" d="M22.9,51.1c0.2,0,0.4,0.1,0.5,0.2c-0.1,0-0.2,0-0.2,0.1c-0.1,0.1-0.3,0.2-0.4,0.1
		C22.6,51.3,23,51.2,22.9,51.1z"/>
	<path class="st96" d="M34.3,16.9c-0.4,0.2-0.7,0.1-1,0.1C33.6,16.7,33.9,16.8,34.3,16.9z"/>
	<path class="st97" d="M26.2,14.9c0.5,0,1.1-0.1,1.6,0.1c-0.4,0-0.8,0-1.2,0.1C26.5,15,26.3,15.1,26.2,14.9z"/>
	<path class="st98" d="M55.5,26.3c-0.2,0.1,0,0.4-0.2,0.6c-0.1-0.3-0.3-0.6,0.2-0.7C55.5,26.1,55.5,26.2,55.5,26.3
		C55.5,26.2,55.5,26.2,55.5,26.3z"/>
	<path class="st99" d="M31.9,6c0.5,0,1.1,0,1.6,0c0,0,0,0.1-0.1,0.1C32.9,6.1,32.4,6.1,31.9,6z"/>
	<path class="st100" d="M48.4,30.1c0.3,0.3,0.6,0.5,0,0.7C48.4,30.6,48.4,30.4,48.4,30.1z"/>
	<path class="st101" d="M35.8,27.1c-0.3,0-0.5,0-0.8,0C35.2,26.7,35.5,26.8,35.8,27.1z"/>
	<path class="st102" d="M25.3,6.7c0.2,0.1,0.4,0,0.6,0.1C25.5,7,25.5,7,25.3,6.7C25.2,6.7,25.2,6.7,25.3,6.7z"/>
	<path class="st103" d="M32.7,52.5c0.3-0.1,0.6-0.1,1-0.1c0,0,0.3,0,0.1,0.1C33.4,52.6,33.1,52.5,32.7,52.5z"/>
	<path class="st80" d="M54.7,24.3c0-0.2-0.1-0.5,0.2-0.5c0,0.1,0.1,0.3,0.1,0.4C54.9,24.3,54.8,24.5,54.7,24.3z"/>
	<path class="st104" d="M27.7,56c0.4,0,0.7,0,1.1,0.1c-0.4,0-0.7,0-1.1,0C27.6,56.1,27.6,56,27.7,56C27.6,56,27.6,56,27.7,56z"/>
	<path class="st50" d="M38.4,7.2c-0.3,0-0.7,0.2-0.9-0.3c0.2,0,0.3,0,0.5,0C38.1,7.1,38.4,6.9,38.4,7.2z"/>
	<path class="st105" d="M55.9,28.6c-0.1-0.3-0.1-0.6-0.1-1c0,0,0-0.3,0.1-0.1C56,27.9,55.9,28.3,55.9,28.6z"/>
	<path class="st106" d="M54,21.3c-0.1,0.1-0.1,0.2-0.2,0.2c-0.1,0-0.1-0.1-0.1-0.2c0-0.2,0-0.3,0.1-0.5C53.9,21,53.9,21.2,54,21.3z"
		/>
	<path class="st65" d="M6.1,28.4c0,0.2-0.1,0.3-0.1,0.5c-0.1-0.1-0.1-0.1-0.1-0.2c0-0.3,0-0.5,0.2-0.7c0,0,0.1,0,0.1,0.1
		c0,0,0,0.1,0,0.1C6.1,28.2,6.1,28.3,6.1,28.4z"/>
	<path class="st107" d="M28,54.3c0.1,0,0.2,0,0.3,0c0.2,0,0.4,0,0.6,0c0.1,0,0.1,0.1,0,0.1c0,0-0.1,0-0.1,0c-0.3,0-0.7,0-1-0.1
		C27.8,54.3,27.9,54.3,28,54.3z"/>
	<path class="st108" d="M16.9,50.3c0.3,0,0.2,0.3,0.3,0.4c0,0.1,0,0.1-0.1,0.1c-0.1,0-0.2,0-0.3,0C16.7,50.6,16.7,50.5,16.9,50.3z"
		/>
	<path class="st109" d="M40.5,16.1c0.1,0.1,0.1,0.1,0.2,0.2c-0.1,0.1-0.2,0.2-0.3,0.2c-0.2-0.1-0.1-0.3-0.1-0.4
		C40.4,16,40.5,16,40.5,16.1z"/>
	<path class="st110" d="M5.8,28.6c0,0.1,0.1,0.1,0.1,0.2c0,0.3,0,0.6,0,0.9c0,0-0.1,0-0.1,0C5.8,29.4,5.8,29,5.8,28.6z"/>
	<path class="st111" d="M28,52.4c0.4,0,0.8,0,1.1,0.1C28.7,52.5,28.3,52.7,28,52.4z"/>
	<path class="st112" d="M38.4,7.2C38.3,7.1,38.1,7.1,38,7c0.3,0.1,0.6-0.2,0.8,0.3c-0.1,0-0.2,0-0.3,0C38.5,7.2,38.5,7.2,38.4,7.2z"
		/>
	<path class="st113" d="M37.3,26.4c-0.1,0.3-0.2,0.5-0.5,0.5C36.8,26.6,37,26.4,37.3,26.4z"/>
	<path class="st41" d="M57.7,23.3c0-0.1,0-0.2,0.1-0.2c0,0,0.1,0.1,0.1,0.2c0,0.1,0,0.2-0.1,0.2C57.7,23.5,57.7,23.4,57.7,23.3z"/>
	<path class="st10" d="M52.1,48.8c0.1-0.3,0.2-0.3,0.5-0.2C52.5,48.9,52.3,48.7,52.1,48.8L52.1,48.8z"/>
	<path class="st32" d="M4.9,20.6C5,20.7,5,20.7,5,20.8C5,20.9,5,21,4.9,21c-0.1,0-0.1-0.1-0.1-0.2C4.8,20.7,4.8,20.7,4.9,20.6z"/>
	<path class="st40" d="M57.7,22.1c0,0.2,0,0.3-0.2,0.5C57.4,22.3,57.4,22.1,57.7,22.1C57.7,22.1,57.7,22.1,57.7,22.1z"/>
	<path class="st40" d="M57.4,21.3c0,0.1,0.1,0.3-0.2,0.5C57.2,21.6,57.1,21.4,57.4,21.3C57.4,21.3,57.4,21.3,57.4,21.3z"/>
	<path class="st114" d="M6.5,25.5c0,0.3,0,0.6-0.2,0.9C6.3,26,6.4,25.7,6.5,25.5z"/>
	<path class="st115" d="M26.4,43c-0.1,0-0.2,0-0.3,0c0.1-0.2,0-0.5,0.3-0.5c0,0,0,0,0,0C26.6,42.7,26.6,42.8,26.4,43z"/>
	<path class="st116" d="M9.3,43.6c0-0.1,0.1-0.2,0.1-0.3c0,0,0.1,0,0.1,0.1C9.6,43.6,9.6,43.7,9.3,43.6C9.3,43.7,9.3,43.7,9.3,43.6z
		"/>
	<path class="st117" d="M5.8,32.4C5.8,32.4,5.9,32.4,5.8,32.4c0.1,0.3,0.1,0.6,0.1,1C5.7,33.1,5.8,32.7,5.8,32.4z"/>
	<path class="st51" d="M6.1,28.1c0,0,0-0.1,0-0.1c0,0,0,0,0,0c0.1-0.2,0-0.4,0.1-0.6c0,0,0-0.1,0-0.1C6.3,27.6,6.5,27.9,6.1,28.1z"
		/>
	<path class="st77" d="M29,31.6c0.3,0.1,0.3,0.3,0.2,0.5C28.9,32,29,31.8,29,31.6z"/>
	<path class="st118" d="M31,24.1c-0.3-0.2-0.3-0.3,0-0.5C31,23.8,31,23.9,31,24.1z"/>
	<path class="st119" d="M10.8,45.9c0.1-0.1,0-0.3,0.2-0.4c0,0,0.1,0,0.1,0.1C11.1,45.8,11.1,46,10.8,45.9C10.8,46,10.8,46,10.8,45.9
		z"/>
	<path class="st58" d="M20.9,45.8c0.2,0,0.3,0.1,0.2,0.3c0,0.2-0.1,0.2-0.2,0.2C20.9,46.1,20.9,45.9,20.9,45.8L20.9,45.8z"/>
	<path class="st120" d="M44.3,27.5c0,0.1,0,0.3-0.1,0.3c-0.3-0.1-0.1-0.3-0.1-0.5C44.2,27.4,44.3,27.4,44.3,27.5z"/>
	<path class="st58" d="M20.4,46.4c0.1-0.2,0.3-0.1,0.5-0.2c0,0,0,0.1,0,0.1C20.8,46.6,20.6,46.5,20.4,46.4z"/>
	<path class="st121" d="M36.8,15.3c0.1,0,0.2,0,0.2,0.1c0,0.1-0.1,0.1-0.2,0.1c-0.1,0-0.2,0-0.2-0.1C36.6,15.3,36.7,15.3,36.8,15.3z
		"/>
	<path class="st122" d="M34.1,54.3c-0.3,0.1-0.6,0.1-0.9,0.1c0,0-0.1,0-0.1-0.1c0,0,0,0,0,0C33.6,54.3,33.9,54.3,34.1,54.3z"/>
	<path class="st13" d="M15.6,54.8c0.2-0.2,0.3-0.2,0.4-0.1c0.1,0.2-0.1,0.1-0.2,0.1C15.8,54.8,15.8,54.8,15.6,54.8z"/>
	<path class="st123" d="M55.5,36c0-0.2,0-0.4,0.1-0.6C55.7,35.6,55.7,35.8,55.5,36C55.6,36,55.6,36,55.5,36C55.5,36,55.5,36,55.5,36
		z"/>
	<path class="st124" d="M33.3,54.3c0,0,0,0.1,0,0.1c-0.1,0.1-0.2,0.1-0.3,0c0,0-0.1-0.1-0.1-0.1C33,54.3,33.1,54.3,33.3,54.3z"/>
	<path class="st125" d="M26.8,54.2c-0.2,0-0.4,0-0.6-0.1C26.4,54.1,26.6,54,26.8,54.2C26.8,54.1,26.8,54.2,26.8,54.2
		C26.8,54.2,26.8,54.2,26.8,54.2z"/>
	<path class="st32" d="M4.6,21.4c0.1,0.1,0.2,0.2,0.1,0.3c0,0-0.1,0-0.1,0C4.5,21.7,4.5,21.6,4.6,21.4z"/>
	<path class="st114" d="M6.2,27.4c0,0.2,0.1,0.5-0.1,0.6C6.1,27.8,6,27.6,6.2,27.4z"/>
	<path class="st126" d="M41.6,18.6c0,0.2-0.1,0.3-0.2,0.4C41.3,18.8,41.3,18.6,41.6,18.6z"/>
	<path class="st127" d="M28.8,15c0.2,0,0.5-0.1,0.6,0.2C29.2,15.1,29,15.2,28.8,15z"/>
	<path class="st128" d="M10.8,16c0,0.2-0.1,0.3-0.3,0.4C10.6,16.2,10.6,16,10.8,16z"/>
	<path class="st129" d="M40.5,16.1c-0.1,0-0.2,0-0.2,0c-0.1-0.1-0.1-0.1-0.2-0.2c0.1,0,0.1,0,0.2,0c0.1,0,0.2,0,0.2,0
		C40.5,15.9,40.5,16,40.5,16.1z"/>
	<path class="st130" d="M11.1,46.4c0.1,0.1,0.2,0.2,0.3,0.4C11.1,46.8,11.1,46.6,11.1,46.4z"/>
	<path class="st131" d="M28.7,38.5c0,0.2,0.1,0.4-0.3,0.4C28.5,38.8,28.6,38.6,28.7,38.5z"/>
	<path class="st132" d="M2.9,26.3c0-0.2,0-0.4,0.1-0.6C3,25.9,3.1,26.2,2.9,26.3z"/>
	<path class="st69" d="M42.3,26.1c-0.2,0-0.3-0.1-0.4-0.2C42,26,42.4,25.6,42.3,26.1z"/>
	<path class="st133" d="M43.4,52.8c0.1-0.1,0.2-0.2,0.4-0.2C43.8,52.8,43.6,52.8,43.4,52.8z"/>
	<path class="st134" d="M29,18.3c-0.2,0-0.3-0.1-0.4-0.3C28.8,18,29,18,29,18.3z"/>
	<path class="st135" d="M31.2,33.9c0,0.2-0.1,0.3-0.2,0.4C31,34.1,31,33.9,31.2,33.9z"/>
	<path class="st136" d="M46.3,11.3c-0.2,0-0.3-0.1-0.4-0.3C46.2,11,46.3,11,46.3,11.3z"/>
	<path class="st137" d="M43.6,26.9c-0.2,0-0.3-0.1-0.4-0.3C43.4,26.6,43.6,26.6,43.6,26.9z"/>
	<path class="st9" d="M50.9,48c0,0.3-0.2,0.3-0.4,0.2c-0.1-0.1-0.1-0.2-0.1-0.3C50.6,47.7,50.7,48.1,50.9,48L50.9,48z"/>
	<path class="st138" d="M52.2,44.3c-0.2,0-0.3-0.2-0.2-0.4c0.2-0.2,0.2,0.1,0.3,0.1C52.3,44.1,52.3,44.2,52.2,44.3z"/>
	<path class="st9" d="M51.9,44.9c0-0.1,0-0.2,0.1-0.2c0,0.2,0.2,0.4,0.1,0.6C51.8,45.2,51.9,45,51.9,44.9z"/>
	<path class="st46" d="M38.2,8.7c1.3,0.4,2.6,0.8,3.7,1.7c0,0-0.1,0.1-0.1,0.1c-0.3,0.2-0.4,0.4-0.3,0.8c0,0.3-0.3,0.2-0.5,0.3
		c-0.5-0.4-1-0.1-1.5-0.2c-0.8-0.3-1.6-0.5-2.5-0.8c-0.2-0.1-0.5-0.1-0.6-0.2c-0.3-0.1-0.6-0.2-0.9-0.3c-0.1-0.1-0.1-0.2,0-0.3
		c0,0,0.1-0.1,0.1-0.1c0.2-0.1,0.1-0.2,0-0.2c-0.3-0.1-0.6,0-0.9-0.1c-0.1,0-0.2-0.1-0.2-0.2c0-0.1,0.1-0.2,0.2-0.2
		c0.5,0,1-0.3,1.4-0.2c0.3,0,0.7,0.2,1.1,0.2c0.3,0,0.5,0.2,0.7-0.2C37.9,8.6,38.1,8.7,38.2,8.7z"/>
	<path class="st139" d="M38.2,8.7c-0.1,0-0.2,0-0.2,0C38,9.6,37.5,9,37.3,9c-0.2,0-0.3,0-0.5,0c-0.2,0.1-0.5,0.3-0.6-0.2
		c0,0-0.2-0.1-0.2-0.1c-0.4,0.4-0.9,0.2-1.6,0.3c0.7,0.3,1.4,0,1.8,0.6c-0.2,0.2-0.5,0.1-0.7,0.1c-0.1-0.1-0.3-0.1-0.4-0.1
		c0.2,0,0.3,0,0.4,0.1c0,0.1,0,0.2,0,0.2c-0.4,0-0.9-0.1-1.3-0.2c0.2-0.5-0.1-0.5-0.5-0.5c-1.7,0-3.4,0-5.1,0
		c-0.2,0-0.4,0.1-0.7-0.1C28.2,8.9,28.4,9,28.6,9c1.2,0,2.4,0,3.7,0c1.2,0,2.3-0.1,3.5-0.5c0.3-0.1,0.7,0.2,0.8-0.3
		C37.1,8.3,37.7,8.5,38.2,8.7z"/>
	<path class="st140" d="M14.9,16.7c-0.1-0.2-0.1-0.3-0.2-0.5c0.2-0.1,0.4,0.2,0.6-0.1c0.1-0.2,0-0.2,0-0.3c-0.2-0.2-0.3-0.3-0.5-0.1
		c-0.1,0.1-0.2,0.1-0.2,0c0-0.1,0-0.3,0.1-0.3c0.7,0,0.8-0.3,0.3-0.8c0.7-0.1,0.6,0.8,1.3,0.7c0.1-0.1-0.4-0.3-0.1-0.4
		c0.2-0.1,0.3,0.1,0.5,0.2C16,15.6,15.4,16.1,14.9,16.7z"/>
	<path class="st141" d="M33.3,9.7c0,0.2-0.2,0.3-0.4,0.3c-1.2,0-2.5,0-3.7,0c-0.2,0-0.4,0-0.4-0.3c0,0,0,0,0,0
		c0.2-0.1,0.4-0.1,0.6-0.1c1.1,0,2.2,0,3.4,0C32.9,9.6,33.1,9.6,33.3,9.7L33.3,9.7z"/>
	<path class="st142" d="M9.6,29C9.5,28.9,9.5,28.9,9.6,29c0.3-0.1,0.3,0.1,0.3,0.3c0,1.1,0,2.3,0,3.4c0,0.2,0,0.4-0.3,0.4
		c0,0,0,0,0,0c-0.2-0.2-0.1-0.5-0.1-0.8C9.5,31.3,9.3,30.1,9.6,29z"/>
	<path class="st143" d="M52.1,34.4c0,0.4-0.1,0.8-0.2,1.2c-0.2-0.2-0.2-0.4,0-0.7c-0.4-0.6-0.2-1.2-0.2-1.8c0-0.2,0.1-0.2,0.2-0.2
		c0.2,0.3,0.1,0.6,0.1,0.8C52,34,52,34.2,52.1,34.4z"/>
	<path class="st144" d="M39.5,11.3c0.5,0,0.9-0.4,1.4,0c0.1,0.1,0.1,0.1,0.2,0.2c-0.2,0-0.4,0-0.5,0.3
		C40.2,11.7,39.8,11.5,39.5,11.3z"/>
	<path class="st59" d="M42.5,14.1c-0.2,0.2-0.4,0.3-0.5,0.4c-0.1,0.1-0.2,0.2,0,0.2c0.2,0.1,0.4,0.1,0.3,0.4c-0.1,0.1-0.2,0-0.3,0
		c-0.2-0.1-0.5-0.2-0.4-0.5C41.7,14.2,41.9,14,42.5,14.1z"/>
	<path class="st59" d="M41.9,16.7c-0.1-0.3-0.1-0.6-0.3-0.8c-0.1-0.1,0-0.2,0.1-0.3c0.1-0.1,0.2-0.1,0.3,0c0.2,0.2,0.1,0.6,0.3,0.8
		C42.3,16.5,42.1,16.7,41.9,16.7z"/>
	<path class="st145" d="M52.1,34.4c-0.4-0.1-0.2-0.4-0.2-0.6c0-0.3,0-0.6,0-0.9c0-0.2,0-0.3,0.2-0.5c0.2,0.6,0,1.2,0.1,1.8
		C52.1,34.3,52.1,34.3,52.1,34.4z"/>
	<path class="st146" d="M29.7,27.6c0.1,0.4-0.4,0.5-0.4,0.9c-0.2-0.5-0.2-0.9,0.4-1.2C29.7,27.5,29.7,27.5,29.7,27.6z"/>
	<path class="st147" d="M26.7,43c0.3,0,0.2-0.3,0.4-0.5c0.1,0.4,0.2,0.7-0.1,0.9c-0.2,0.1-0.3,0-0.3-0.2
		C26.6,43.2,26.6,43.1,26.7,43z"/>
	<path class="st148" d="M19.7,12.8c0.3-0.2,0.6-0.5,1-0.6C20.7,13,20,12.7,19.7,12.8z"/>
	<path class="st149" d="M52.4,28.8c0,0.3,0,0.6,0,0.8c-0.3-0.6-0.2-1.2-0.2-1.8c0,0,0.1,0,0.1,0.1C52.4,28.2,52.2,28.5,52.4,28.8z"
		/>
	<path class="st150" d="M12.1,20.8c0-0.4,0.3-0.6,0.5-0.9C12.6,20.3,12.6,20.7,12.1,20.8z"/>
	<path class="st151" d="M24.7,10.5c0.1-0.1,0.2-0.1,0.4-0.1c0,0.2,0.4,0.1,0.4,0.4c-0.3,0.1-0.5,0.2-0.8,0
		C24.7,10.7,24.7,10.6,24.7,10.5z"/>
	<path class="st152" d="M51.9,26.5c0.1,0.4,0.3,0.8,0.2,1.2C51.7,27.3,52,26.8,51.9,26.5z"/>
	<path class="st153" d="M51.9,34.9c0,0.2,0,0.4,0,0.7c0,0,0,0.1,0,0.1C51.5,35.4,51.5,35.2,51.9,34.9z"/>
	<path class="st154" d="M31.4,20.9c0,0.1-0.1,0.2-0.2,0.2c-0.2,0-0.3-0.1-0.3-0.2c0-0.1,0-0.2,0.1-0.2
		C31.2,20.7,31.3,20.8,31.4,20.9z"/>
	<path class="st155" d="M26.7,43c0,0.1,0,0.2,0,0.2c-0.1-0.1-0.2-0.2-0.3-0.3c0-0.2,0-0.3,0.1-0.5C27,42.5,26.6,42.8,26.7,43z"/>
	<path class="st9" d="M37.8,51.5c0.2,0,0.3,0.1,0.5,0.1C38,51.8,37.8,52,37.8,51.5C37.7,51.5,37.7,51.5,37.8,51.5z"/>
	<path class="st156" d="M24.7,10.7c0.3,0,0.5,0,0.8,0C25.2,10.9,24.9,11.3,24.7,10.7z"/>
	<path class="st154" d="M31.4,21.2c0.2,0.2,0.2,0.4,0,0.6C31.2,21.6,31.2,21.4,31.4,21.2z"/>
	<path class="st9" d="M10.4,37.6c-0.1,0.1-0.1,0.2-0.2,0.3c-0.2-0.3,0.1-0.5,0.1-0.8C10.4,37.2,10.3,37.4,10.4,37.6z"/>
	<path class="st9" d="M11.8,42c0-0.2,0-0.4,0.1-0.6c0.1,0.1,0.1,0.1,0.1,0.2C12.1,41.8,12.1,42,11.8,42L11.8,42z"/>
	<path class="st157" d="M23.2,11c0,0,0.1,0,0.1,0c0.1,0,0.2,0,0.3,0.1c0,0,0,0.1-0.1,0.1C23.3,11.3,23.2,11.2,23.2,11z"/>
	<path class="st158" d="M19.7,45.5c0,0.1-0.1,0.2-0.1,0.2c-0.1,0-0.1-0.1-0.1-0.2c0-0.1,0-0.2,0.1-0.2
		C19.6,45.3,19.6,45.4,19.7,45.5z"/>
	<path class="st159" d="M23.9,10.7c0.2-0.1,0.4-0.2,0.6-0.2C24.4,10.8,24.2,10.8,23.9,10.7z"/>
	<path class="st160" d="M9.7,34.9c-0.3-0.2-0.1-0.5-0.1-0.7C9.7,34.4,9.7,34.6,9.7,34.9z"/>
	<path class="st161" d="M36.4,10.3c0.2,0,0.5,0.1,0.6,0.2C36.8,10.5,36.5,10.5,36.4,10.3z"/>
	<path class="st162" d="M42.7,13c0.2,0,0.4,0,0.4,0.3C42.9,13.2,42.8,13.2,42.7,13z"/>
	<path class="st163" d="M18.4,13.5c0-0.3,0.2-0.3,0.4-0.3C18.7,13.4,18.6,13.5,18.4,13.5z"/>
	<path class="st164" d="M43.6,48.5c0,0.3-0.2,0.3-0.4,0.3C43.3,48.6,43.4,48.5,43.6,48.5z"/>
	<path class="st165" d="M19.5,46.6c0,0-0.1,0.1-0.1,0.1c-0.1,0-0.2,0-0.2-0.1C19.3,46.5,19.4,46.6,19.5,46.6z"/>
	<path class="st9" d="M11.6,40.7c-0.4,0-0.2-0.2-0.2-0.3C11.6,40.4,11.6,40.6,11.6,40.7z"/>
	<path class="st166" d="M50.1,40.7c0,0.2-0.1,0.3-0.2,0.4C49.9,41,49.8,40.8,50.1,40.7z"/>
	<path class="st167" d="M48.6,43.4c0,0.2,0,0.4-0.3,0.4C48.4,43.6,48.5,43.4,48.6,43.4z"/>
	<path class="st9" d="M40.3,52.3c-0.5,0.4-1,0.2-1.5-0.1c0.4-0.2,0.7-0.4,1.1-0.4c0.1,0,0.3,0,0.3-0.2c0.1-0.1,0-0.4,0.3-0.2
		c0.2,0.2,0.2,0.3,0,0.5C40.5,52,40.3,52.1,40.3,52.3L40.3,52.3z"/>
	<path class="st106" d="M52.9,21.8c0.3-0.2,0.5-0.5,0.8,0c0.1,0.1,0.1,0.2,0,0.3c-0.1,0-0.2,0-0.3,0c-0.2,0.1-0.2,0.4-0.5,0.3
		c-0.1-0.1-0.2-0.3-0.2-0.5c0,0,0,0,0,0C52.8,21.7,52.8,21.8,52.9,21.8z"/>
	<path class="st144" d="M41.6,11.2c-0.3-0.1-0.3-0.3-0.2-0.5c0-0.3,0.3-0.2,0.5-0.2C41.7,10.7,42,11.1,41.6,11.2z"/>
	<path class="st9" d="M38.9,53.1c-0.2,0-0.3,0-0.4-0.2c0-0.1,0-0.2,0.1-0.3c0.2-0.1,0.3,0,0.4,0.1c0.1,0.1,0.2,0.2,0.2,0.3
		c0,0,0,0,0,0C39.2,53.2,39,53.2,38.9,53.1z"/>
	<path class="st168" d="M49.5,42.8c0.2,0,0.3,0.2,0.3,0.3c0,0.3-0.4,0.2-0.5,0.3c0,0.1-0.1-0.1-0.1-0.1C49.1,43,49.3,42.9,49.5,42.8
		z"/>
	<path class="st71" d="M52.9,22.3c0.2-0.1,0.4-0.2,0.5-0.3c0.1,0.3-0.2,0.5-0.2,0.8c0.1,0.1,0.1,0.2,0,0.3
		C52.9,22.9,52.9,22.6,52.9,22.3z"/>
	<path class="st9" d="M37.3,52.3c0-0.7,0.4-0.1,0.6-0.2C37.8,52.4,37.5,52.3,37.3,52.3L37.3,52.3z"/>
	<path class="st169" d="M54.2,27.6C54.2,27.6,54.2,27.6,54.2,27.6c0.2-0.2,0.2-0.1,0.2,0c0,0.3,0,0.7,0,1c0,0-0.1,0-0.1-0.1
		c-0.2-0.2,0-0.5-0.1-0.7C54.2,27.8,54.2,27.7,54.2,27.6z"/>
	<path class="st80" d="M53.3,23.6c0.1,0,0.1-0.3,0.3-0.1c0.1,0.1,0.1,0.4-0.2,0.4C53.3,23.8,53.3,23.7,53.3,23.6z"/>
	<path class="st170" d="M38.9,53.1c0.1,0,0.2,0,0.4,0c0,0.1,0,0.1,0,0.2c-0.2,0.1-0.3,0.1-0.5,0c0,0-0.1,0-0.1,0
		C38.8,53.2,38.8,53.1,38.9,53.1z"/>
	<path class="st171" d="M54.3,33.7c0,0.3,0,0.5-0.1,0.8c0-0.3,0-0.6,0-0.9c0,0,0,0,0,0C54.2,33.6,54.3,33.7,54.3,33.7z"/>
	<path class="st172" d="M52.4,28.8c-0.1-0.3-0.1-0.6-0.1-0.9C52.5,28.2,52.4,28.5,52.4,28.8z"/>
	<path class="st80" d="M53.1,23.1c0-0.1,0-0.2,0-0.3c0.5,0.2,0,0.5,0.1,0.7C53.1,23.4,53.1,23.2,53.1,23.1z"/>
	<path class="st173" d="M54,35.4c0,0.2,0,0.4-0.1,0.6C53.9,35.7,53.8,35.5,54,35.4C54,35.3,54,35.3,54,35.4C54,35.3,54,35.4,54,35.4
		z"/>
	<path class="st174" d="M54.2,27.9c0.2,0.2,0.1,0.5,0.1,0.7C54.1,28.4,54.2,28.1,54.2,27.9z"/>
	<path class="st144" d="M42.3,11.2c0,0.1,0,0.1-0.1,0.1c-0.1,0-0.1-0.1-0.2-0.2c0-0.1,0-0.1,0.1-0.1C42.2,11,42.3,11.1,42.3,11.2z"
		/>
	<path class="st175" d="M44.5,50.3c-0.1,0.1-0.2,0.3-0.4,0.2C44.1,50.3,44.3,50.3,44.5,50.3z"/>
	<path class="st9" d="M40.7,52.4c-0.1,0.1-0.2,0.1-0.4,0.1c0-0.1,0-0.2,0-0.3c0,0,0,0,0,0C40.4,52.4,40.6,52.4,40.7,52.4z"/>
	<path class="st50" d="M33.5,7.5c0-0.1-0.1-0.2-0.2-0.2c-1.1,0-2.2-0.6-3.3-0.1c-0.6,0.3-1.4,0-2.2,0c0-0.1,0-0.2,0.1-0.2
		c1.6-0.4,3.2-0.5,4.8-0.3c1,0.1,2.1,0.4,3.1,0.5c0.2,0,0.2,0.1,0.2,0.2c-0.4,0.3-0.8,0.1-1.3,0.1c-0.2,0-0.5-0.1-0.6,0.1
		c-0.2,0-0.4,0-0.6-0.1C33.5,7.6,33.6,7.5,33.5,7.5z"/>
	<path class="st176" d="M7.6,34.9c0,0.1,0,0.3-0.1,0.5c-0.4-0.2,0.1-0.8-0.4-0.9l0,0c0-1.8,0-3.6,0-5.4c0-0.2-0.1-0.5,0.3-0.6
		c0.2,0.2,0.1,0.5,0.1,0.7c0,1.4,0,2.7,0,4.1c0,0.2-0.1,0.5,0.1,0.7C7.5,34.2,7.6,34.6,7.6,34.9z"/>
	<path class="st177" d="M7.5,33.9c-0.3-0.1-0.2-0.4-0.2-0.6c0-1.7,0-3.3,0-5c0.1,0,0.1,0,0.2,0c0,0.1,0,0.1,0,0.2
		c-0.1,1.6-0.1,3.2,0,4.8C7.5,33.6,7.5,33.8,7.5,33.9z"/>
	<path class="st9" d="M11.1,43.6c-0.1-0.1-0.2-0.2-0.2-0.4c0.1-0.3,0.2-0.6,0.3-0.9c0,0.3,0.6,0.2,0.5,0.7
		C11.6,43.4,11.4,43.5,11.1,43.6z"/>
	<path class="st178" d="M8.3,37.9c0-0.3-0.1-0.7-0.3-1c0-0.1,0-0.2,0-0.2c0.2,0,0.3-0.4,0.6-0.1c0.2,0.2,0.2,0.5,0.1,0.7
		c-0.1,0.3-0.2,0.6-0.2,0.9C8.3,38.2,8.4,38,8.3,37.9z"/>
	<path class="st48" d="M34.1,7.7c-0.1-0.3,0.1-0.5,0.3-0.4c0.5,0.2,1,0.1,1.5,0.1c0,0,0,0,0,0c0.1,0.1,0,0.2,0,0.3
		c0,0.1-0.1,0.2-0.1,0.2c0,0,0,0,0,0c-0.1,0-0.2,0-0.2,0c-0.3-0.1-0.7-0.2-1-0.2C34.4,7.7,34.3,7.7,34.1,7.7z"/>
	<path class="st9" d="M9.7,36.4c0.2,0.6,0.1,1.2,0.1,1.8c0,0.2-0.1,0.2-0.3,0.2c-0.2,0-0.2-0.2-0.2-0.3C9.7,37.6,9.5,37,9.7,36.4z"
		/>
	<path class="st179" d="M7.5,33.4c-0.2-1-0.1-2.1-0.1-3.1c0-0.6-0.1-1.2,0.1-1.7C7.5,30.2,7.5,31.8,7.5,33.4z"/>
	<path class="st9" d="M10.4,39.6c0.5,0.5,0.1,1.1,0.4,1.6C10.1,40.7,10.4,40.1,10.4,39.6z"/>
	<path class="st0" d="M33.3,9.7c-1.5,0-3,0-4.6,0c0,0,0-0.1,0.1-0.1c0.9-0.2,1.7,0,2.6-0.1c0.3,0,0.6,0,0.9,0
		C32.6,9.6,32.9,9.5,33.3,9.7C33.2,9.7,33.2,9.7,33.3,9.7z"/>
	<path class="st180" d="M9.6,29c0,1.4,0,2.8,0,4.2c0,0-0.1,0-0.1-0.1c-0.2-0.4,0-0.8-0.1-1.2c0-0.6,0-1.1,0-1.7
		C9.4,29.8,9.3,29.4,9.6,29C9.5,29,9.5,29,9.6,29z"/>
	<path class="st181" d="M32.4,9.6c-1.2,0-2.4,0-3.6,0c0.1-0.2,0.3-0.1,0.4-0.1C30.3,9.5,31.3,9.5,32.4,9.6
		C32.4,9.5,32.4,9.5,32.4,9.6C32.4,9.6,32.4,9.6,32.4,9.6z"/>
	<path class="st9" d="M9.6,40.1c0-0.2,0-0.5-0.2-0.7c-0.1-0.1-0.1-0.3,0-0.3c0.2-0.1,0.3,0.1,0.3,0.2C9.8,39.5,10.1,39.9,9.6,40.1
		L9.6,40.1z"/>
	<path class="st182" d="M7.6,27.9c-0.5-0.3-0.2-0.7-0.1-1.2c0.2,0.2,0,0.5,0.2,0.7C7.6,27.5,7.6,27.7,7.6,27.9z"/>
	<path class="st183" d="M27.6,9.4c-0.4,0.2-0.7,0.2-1.3,0C26.9,9.2,27.3,9.2,27.6,9.4z"/>
	<path class="st184" d="M33.5,7.5c0.1,0,0.1,0,0.2,0c-0.1,0-0.1,0.1-0.2,0.1c-0.6-0.1-1.1,0-1.7-0.2C32.4,7.5,32.9,7.5,33.5,7.5z"/>
	<path class="st9" d="M12.1,43.7c-0.2-0.1-0.3-0.2-0.2-0.4c0.1-0.1,0.2-0.3,0.3-0.3c0.2,0.1,0.1,0.3,0,0.4
		C12.2,43.6,12.1,43.7,12.1,43.7L12.1,43.7z"/>
	<path class="st9" d="M9.8,38.8c0.2-0.1,0.3-0.2,0.5-0.1c0.2,0.1,0.1,0.3,0,0.5C10.1,39.1,10,39,9.8,38.8z"/>
	<path class="st185" d="M9.4,30.1c0,0.6,0,1.2,0,1.8c0,0-0.1,0-0.1,0C9.3,31.3,9.3,30.7,9.4,30.1C9.4,30.1,9.4,30.1,9.4,30.1z"/>
	<path class="st9" d="M12.6,44c-0.3,0.2-0.6,0.3-0.5-0.3c0,0,0,0,0,0C12.3,43.8,12.6,43.7,12.6,44C12.6,44,12.6,44,12.6,44z"/>
	<path class="st186" d="M9.3,31.9C9.4,31.9,9.4,31.9,9.3,31.9c0.1,0.4,0.1,0.8,0.1,1.2C9.2,32.7,9.4,32.3,9.3,31.9z"/>
	<path class="st187" d="M9.4,30.1C9.4,30.1,9.4,30.1,9.4,30.1c-0.1-0.3-0.1-0.7-0.1-1.1c0,0,0,0,0,0c0,0,0.1,0,0.1,0
		C9.4,29.4,9.4,29.8,9.4,30.1z"/>
	<path class="st188" d="M34.6,7.7c0.4,0,0.7,0,1,0.2C35.3,8,34.9,7.9,34.6,7.7z"/>
	<path class="st183" d="M25.8,8.8c0.1,0,0.1-0.1,0.2-0.1c0.1,0,0.2,0,0.2,0.1C26.1,9,26,9,25.9,9C25.8,9,25.8,9,25.8,8.8z"/>
	<path class="st9" d="M9.4,40.6c-0.1-0.1-0.2-0.1-0.2-0.3c0.1-0.1,0.2-0.2,0.3-0.2c0,0,0,0,0,0C9.6,40.3,9.6,40.5,9.4,40.6z"/>
	<path class="st9" d="M10.9,41.7c0.2,0,0.3,0,0.4,0.1c0,0,0,0.1-0.1,0.1C11,42,10.9,41.9,10.9,41.7z"/>
	<path class="st9" d="M11.8,42c0,0.2,0,0.3-0.1,0.5C11.6,42.2,11.5,42,11.8,42C11.8,42,11.8,42,11.8,42z"/>
	<path class="st189" d="M32.4,9.6C32.4,9.6,32.4,9.5,32.4,9.6c0.3-0.1,0.6-0.2,0.8,0C32.9,9.6,32.6,9.6,32.4,9.6z"/>
	<path class="st63" d="M8.3,37.9c0.1,0.1,0.1,0.2,0.2,0.3c0,0.1,0,0.2,0,0.2c-0.1,0-0.2,0.1-0.2,0C8.3,38.3,8.3,38.1,8.3,37.9z"/>
	<path class="st190" d="M25.2,8.2C25.4,7.9,25.7,8,26,8C25.7,8.1,25.5,8.2,25.2,8.2z"/>
	<path class="st9" d="M10.3,41.6c0.3,0.1,0.3,0.2,0.3,0.4C10.3,42,10.3,41.8,10.3,41.6z"/>
	<path class="st63" d="M9.2,40.2c-0.1,0.1-0.2,0.1-0.3-0.1C8.8,40,9.1,40.1,9.1,40C9.2,40,9.2,40.1,9.2,40.2z"/>
	<path class="st9" d="M11.7,44.1c0-0.1,0-0.2-0.1-0.3c0,0,0.1,0,0.1,0C11.9,43.9,11.8,44,11.7,44.1C11.7,44.1,11.7,44.1,11.7,44.1z"
		/>
	<path class="st191" d="M26.7,7.8c0.2-0.2,0.4-0.1,0.7-0.1C27.2,7.9,26.9,7.9,26.7,7.8z"/>
	<path class="st9" d="M9.8,41.4c0-0.1,0-0.2,0.1-0.3c0.1,0,0.2,0.1,0.2,0.2C10,41.5,9.9,41.3,9.8,41.4C9.8,41.4,9.8,41.4,9.8,41.4z"
		/>
	<path class="st192" d="M54.7,32.3c0-0.8,0-1.6,0-2.3c0,0,0.1,0,0.1,0c0,0.8,0,1.6,0,2.3C54.8,32.3,54.8,32.3,54.7,32.3z"/>
	<path class="st193" d="M35.8,55.6c-0.3,0-0.6,0.1-0.9-0.1C35.2,55.4,35.5,55.1,35.8,55.6C35.8,55.6,35.8,55.6,35.8,55.6z"/>
	<path class="st194" d="M38.8,53.3c0.2,0,0.3,0,0.5,0c0,0.2-0.1,0.3-0.3,0.3C38.9,53.6,38.8,53.5,38.8,53.3z"/>
	<path class="st71" d="M53.7,22.1c0-0.1,0-0.2,0-0.3c0.1,0,0.2,0,0.3,0c0.1,0.2,0.1,0.3,0,0.5l0,0C53.7,22.3,53.7,22.2,53.7,22.1z"
		/>
	<path class="st195" d="M52.1,42.3c0,0.1,0.1,0.1,0.1,0.2c0,0.1,0,0.2-0.1,0.2c0,0-0.1-0.1-0.1-0.2C51.9,42.4,51.9,42.3,52.1,42.3z"
		/>
	<path class="st80" d="M53.9,23.1c0.3,0,0.2,0.3,0.3,0.5C54,23.5,53.9,23.3,53.9,23.1z"/>
	<path class="st80" d="M53.7,24c0.1,0.1,0.1,0.1,0.1,0.2c0,0,0,0.1-0.1,0.1c0,0-0.1-0.1-0.1-0.1C53.7,24.2,53.7,24.1,53.7,24z"/>
	<path class="st196" d="M6.8,28.1c0,0.7,0,1.5,0,2.2c-0.1,0-0.2,0-0.3,0c0-0.6,0-1.3,0-1.9C6.6,28.2,6.6,28.1,6.8,28.1z"/>
	<path class="st51" d="M6.8,27.6c0,0.1,0,0.3-0.2,0.2c-0.2-0.2-0.1-1.2,0.2-1.4C7,26.8,7,27.2,6.8,27.6z"/>
	<path class="st197" d="M6.8,27.6c0-0.4,0-0.8,0-1.3c0.1,0,0.2,0,0.2,0c0,0.5,0,1,0,1.5C7,27.8,6.9,27.7,6.8,27.6z"/>
	<path class="st198" d="M28.2,6c0.6,0,1.2,0,1.8,0c-0.5,0.1-1.1,0.1-1.6,0.1C28.3,6.2,28.2,6.1,28.2,6z"/>
	<path class="st50" d="M36,7.7c-0.4-0.1,0.1-0.2,0-0.3c0.1,0,0.2-0.1,0.3-0.1c0.1-0.1,0.2,0,0.3,0.1c0,0.1,0,0.2,0,0.3
		C36.4,7.9,36.2,7.9,36,7.7z"/>
	<path class="st199" d="M36,7.7c0.2,0,0.3,0,0.5,0c0,0.1,0,0.2,0,0.2c-0.2,0-0.4,0-0.6,0C35.9,7.9,36,7.8,36,7.7z"/>
	<path class="st200" d="M7.6,26.4c-0.1,0-0.2,0-0.2,0c0-0.1-0.1-0.3,0.1-0.4C7.6,26,7.5,26.2,7.6,26.4z"/>
	<path class="st201" d="M28.2,6c0.1,0,0.1,0.1,0.2,0.1c-0.2,0.1-0.4,0.1-0.7,0.1C27.9,6,28,6,28.2,6z"/>
	<path class="st202" d="M36.5,7.5c-0.1,0-0.2-0.1-0.3-0.1c0.2-0.2,0.3,0,0.4,0.1C36.6,7.4,36.6,7.4,36.5,7.5z"/>
	<path class="st203" d="M52.9,21.8c-0.1,0-0.1,0-0.2,0c0-0.1-0.1-0.4,0.1-0.4C53,21.4,52.9,21.7,52.9,21.8z"/>
	<path class="st106" d="M53.9,22.3c0-0.2,0-0.3,0-0.5c0.1,0,0.2,0,0.2,0C54.1,22,54.2,22.3,53.9,22.3z"/>
	<path class="st204" d="M42,9.6c-0.4,0.2-0.6-0.3-0.9-0.2C41.6,9.2,41.6,9.2,42,9.6z"/>
	<path class="st205" d="M41.7,8.9C41.7,9,41.6,9,41.6,9c-0.1,0-0.2,0-0.2-0.1c0-0.1,0.1-0.1,0.2-0.1C41.6,8.7,41.7,8.7,41.7,8.9z"/>
	<path class="st206" d="M7.1,34.4c0,0.4,0.1,0.8-0.1,1.2C6.9,35.2,6.6,34.8,7.1,34.4C7.1,34.4,7.1,34.4,7.1,34.4z"/>
	<path class="st55" d="M6.8,36.7c-0.3-0.2-0.3-0.5-0.2-0.9C6.9,36.1,6.8,36.4,6.8,36.7L6.8,36.7z"/>
	<path class="st55" d="M7.6,37.4c-0.2-0.2-0.2-0.2,0-0.4C7.5,37.2,7.5,37.3,7.6,37.4C7.6,37.4,7.6,37.4,7.6,37.4z"/>
	<path class="st9" d="M24.2,15.3c0.3-0.5,0.9-0.3,1.1-0.2c0.3,0.2,1,0,0.9,0.7c-0.7,0-1.3,0-2-0.1c-0.1,0-0.3,0-0.3-0.2
		C23.9,15.4,24,15.3,24.2,15.3c0.1,0.1,0.3,0.1,0.4,0.1C24.5,15.4,24.3,15.4,24.2,15.3z"/>
	<path class="st207" d="M15.2,50.2c0.2-0.2,0.4-0.1,0.7-0.1C15.6,50.4,15.4,50.3,15.2,50.2z"/>
	<path class="st208" d="M16.9,50.3c0,0.2,0,0.3,0,0.5c-0.2,0-0.3-0.1-0.2-0.3C16.6,50.4,16.7,50.3,16.9,50.3z"/>
	<path class="st207" d="M15.6,50.8c-0.2,0-0.3-0.1-0.4-0.3C15.4,50.5,15.6,50.5,15.6,50.8z"/>
	<path class="st139" d="M36.6,10c0-0.3,0.4-0.2,0.4-0.4c0-0.1-0.3-0.3,0.1-0.3c0.2,0,0.3,0.1,0.2,0.3c0,0.2,0,0.4-0.2,0.4
		C36.9,10,36.8,10,36.6,10z"/>
	<path class="st139" d="M38.8,9.5c-0.4,0.7-0.8,0-1.2,0.2C37.9,9.4,38.3,9.5,38.8,9.5z"/>
	<path class="st46" d="M35.5,9.7c-0.3,0-0.6,0.1-0.9-0.1C34.9,9.5,35.2,9.3,35.5,9.7C35.5,9.7,35.5,9.7,35.5,9.7z"/>
	<path class="st52" d="M24.2,15.3c0.3,0,0.6-0.1,0.9,0.2C24.8,15.4,24.4,15.8,24.2,15.3C24.2,15.3,24.2,15.3,24.2,15.3z"/>
</g>
</svg>
