<?xml version="1.0" encoding="utf-8"?>
<!-- Generator: Adobe Illustrator 22.1.0, SVG Export Plug-In . SVG Version: 6.00 Build 0)  -->
<svg version="1.1" id="레이어_1" xmlns="http://www.w3.org/2000/svg" xmlns:xlink="http://www.w3.org/1999/xlink" x="0px"
	 y="0px" viewBox="0 0 500 154.5" style="enable-background:new 0 0 500 154.5;" xml:space="preserve">
<style type="text/css">
	.st0{fill:#161616;}
</style>
<g>
	<g>
		<polygon class="st0" points="31,49.7 104.8,49.7 104.8,123.5 104.8,149.2 104.8,154.5 120.3,154.5 120.3,149.2 120.3,123.5 
			120.3,34.2 31,34.2 		"/>
		<polygon class="st0" points="62,3.2 62,18.7 135.8,18.7 135.8,91.9 135.8,92.5 135.8,143.5 135.8,143.7 135.8,143.7 135.8,154.5 
			151.3,154.5 151.3,143.8 151.3,143.7 151.3,143.5 151.3,92.5 151.3,91.9 151.3,3.2 		"/>
		<polygon class="st0" points="0,80.7 73.8,80.7 73.8,154.5 89.3,154.5 89.3,65.2 0,65.2 		"/>
	</g>
	<g>
		<path class="st0" d="M209.7,40.3l-3.2-7.9H190l-3.3,7.9h-8.1l16.1-37.1h7l16.1,37.1H209.7z M198.2,12.3l-5.4,13.3h10.8L198.2,12.3
			z"/>
		<path class="st0" d="M225.9,31.5c0.3,2.5,2.2,3.8,5.7,3.8c1.3,0,2.4-0.3,3.2-0.8c0.8-0.5,1.2-1.2,1.2-2c0-1.2-1-2.1-3-2.5
			l-5.7-1.2c-2.5-0.5-4.4-1.5-5.8-2.8c-1.3-1.4-2-3-2-5c0-2.7,1-4.9,3.1-6.6c2.1-1.7,4.8-2.6,8.2-2.6c3.2,0,5.9,0.8,8.1,2.3
			s3.5,3.5,4,5.9l-7,1.4c-0.1-1.1-0.7-2.1-1.6-2.8c-0.9-0.7-2.2-1.1-3.6-1.1c-1.3,0-2.3,0.3-2.9,0.8c-0.6,0.5-0.9,1.2-0.9,1.9
			c0,1.2,0.8,2,2.5,2.3l6.6,1.4c2.4,0.5,4.2,1.5,5.4,2.9c1.2,1.4,1.9,3,1.9,5c0,3-1.1,5.3-3.3,6.9c-2.2,1.6-5.1,2.4-8.8,2.4
			c-3.3,0-6.1-0.7-8.4-2c-2.3-1.3-3.7-3.4-4-6.1L225.9,31.5z"/>
		<path class="st0" d="M254.6,1.3c0.9,0.9,1.3,1.9,1.3,3.1c0,1.2-0.4,2.2-1.3,3s-1.9,1.2-3.2,1.2c-1.3,0-2.4-0.4-3.2-1.2
			c-0.8-0.8-1.2-1.8-1.2-3c0-1.2,0.4-2.2,1.3-3.1s1.9-1.3,3.2-1.3C252.6,0,253.7,0.4,254.6,1.3z M247.7,40.3V12.6h7.3v27.7H247.7z"
			/>
		<path class="st0" d="M289.5,40.3h-7.3v-2.2c-2.5,2-5.5,3-9.1,3c-3.7,0-6.8-1.4-9.5-4.2c-2.7-2.8-4-6.3-4-10.5s1.4-7.7,4.1-10.5
			c2.7-2.8,5.9-4.2,9.5-4.2c3.7,0,6.7,1,9.1,3v-2.2h7.3V40.3z M279.8,32.5c1.6-1.5,2.4-3.5,2.4-6s-0.8-4.4-2.4-6
			c-1.6-1.6-3.4-2.3-5.5-2.3c-2.3,0-4.1,0.8-5.6,2.3c-1.5,1.5-2.2,3.5-2.2,6c0,2.5,0.7,4.5,2.2,6c1.5,1.5,3.3,2.2,5.6,2.2
			C276.4,34.8,278.2,34,279.8,32.5z"/>
		<g>
			<path class="st0" d="M206.3,78c1.7,0.2,3.2,1.1,4.5,2.6c1.3,1.5,2,3.5,2,6c0,3.1-1,5.6-3,7.5c-2,1.9-5,2.8-9,2.8h-18.4V59.8h18.3
				c3.3,0,6,0.9,8,2.8c2,1.9,3,4.4,3,7.5c0,2.1-0.6,3.9-1.7,5.3c-1.1,1.4-2.4,2.2-3.7,2.4V78z M190,75.4h9.4c1.5,0,2.7-0.4,3.6-1.3
				c0.9-0.9,1.4-2,1.4-3.5c0-1.3-0.4-2.3-1.3-3.1c-0.9-0.8-1.9-1.2-3.2-1.2H190V75.4z M200,90.6c1.7,0,2.9-0.4,3.8-1.2
				c0.9-0.8,1.3-1.9,1.3-3.4c0-1.4-0.4-2.5-1.3-3.4c-0.9-0.8-2.1-1.2-3.5-1.2H190v9.2H200z"/>
			<path class="st0" d="M218.3,97V57.1h7.3V97H218.3z"/>
			<path class="st0" d="M255.6,72.7c2.9,2.7,4.4,6.2,4.4,10.5c0,4.3-1.5,7.7-4.4,10.5c-2.9,2.7-6.4,4.1-10.6,4.1
				c-4.2,0-7.8-1.4-10.7-4.1c-2.9-2.7-4.4-6.2-4.4-10.5c0-4.3,1.5-7.7,4.4-10.5c2.9-2.7,6.5-4.1,10.7-4.1
				C249.2,68.7,252.7,70,255.6,72.7z M250.5,89.1c1.6-1.5,2.4-3.5,2.4-6s-0.8-4.4-2.4-6c-1.6-1.5-3.4-2.3-5.4-2.3
				c-2.1,0-4,0.8-5.6,2.3c-1.6,1.5-2.4,3.5-2.4,6c0,2.5,0.8,4.5,2.4,6c1.6,1.5,3.5,2.3,5.6,2.3C247.1,91.4,248.9,90.7,250.5,89.1z"
				/>
			<path class="st0" d="M284.3,85.7l6.8,1.7c-0.8,3.1-2.4,5.7-5,7.5c-2.6,1.9-5.5,2.8-8.8,2.8c-4.1,0-7.6-1.4-10.5-4.1
				c-2.9-2.7-4.3-6.2-4.3-10.5c0-4.3,1.4-7.8,4.3-10.6c2.9-2.8,6.4-4.1,10.5-4.1c3.3,0,6.1,0.9,8.7,2.8c2.5,1.9,4.3,4.3,5.2,7.4
				l-7,2c-0.9-3.7-3.2-5.5-6.8-5.5c-2.3,0-4.1,0.7-5.6,2.2c-1.4,1.5-2.1,3.4-2.1,5.8c0,2.4,0.7,4.3,2.1,5.7c1.4,1.5,3.3,2.2,5.6,2.2
				C280.8,91.1,283.2,89.3,284.3,85.7z"/>
			<path class="st0" d="M314.8,97l-10.9-10.8h-1.3V97h-7.3V57.1h7.3V79h1.3l9.9-9.6h9.2l-13.4,13.3L324.5,97H314.8z"/>
			<path class="st0" d="M344.8,85.7l6.8,1.7c-0.8,3.1-2.4,5.7-5,7.5c-2.6,1.9-5.5,2.8-8.8,2.8c-4.1,0-7.6-1.4-10.5-4.1
				c-2.9-2.7-4.3-6.2-4.3-10.5c0-4.3,1.4-7.8,4.3-10.6c2.9-2.8,6.4-4.1,10.5-4.1c3.3,0,6.1,0.9,8.7,2.8c2.5,1.9,4.3,4.3,5.2,7.4
				l-7,2c-0.9-3.7-3.2-5.5-6.8-5.5c-2.3,0-4.1,0.7-5.6,2.2c-1.4,1.5-2.1,3.4-2.1,5.8c0,2.4,0.7,4.3,2.1,5.7c1.4,1.5,3.3,2.2,5.6,2.2
				C341.3,91.1,343.6,89.3,344.8,85.7z"/>
			<path class="st0" d="M379.9,71.7c2,2.2,3,5,3,8.4V97h-7.3V81.7c0-2-0.5-3.5-1.5-4.7c-1-1.2-2.4-1.8-4.1-1.8
				c-4.6,0-6.9,3.2-6.9,9.5V97h-7.3V57.1h7.3v14.7c2.2-2.2,5.1-3.3,8.7-3.3C375.2,68.5,377.8,69.6,379.9,71.7z"/>
			<path class="st0" d="M416.9,97h-7.3v-2.2c-2.5,2-5.5,3-9.1,3c-3.7,0-6.8-1.4-9.5-4.2c-2.7-2.8-4-6.3-4-10.5s1.4-7.7,4.1-10.5
				c2.7-2.8,5.9-4.2,9.5-4.2c3.7,0,6.7,1,9.1,3v-2.2h7.3V97z M407.2,89.1c1.6-1.5,2.4-3.5,2.4-6s-0.8-4.4-2.4-6
				c-1.6-1.6-3.4-2.3-5.5-2.3c-2.3,0-4.1,0.8-5.6,2.3c-1.5,1.5-2.2,3.5-2.2,6c0,2.5,0.7,4.5,2.2,6c1.5,1.5,3.3,2.2,5.6,2.2
				C403.8,91.4,405.6,90.7,407.2,89.1z"/>
			<path class="st0" d="M430.2,58c0.9,0.9,1.3,1.9,1.3,3.1c0,1.2-0.4,2.2-1.3,3c-0.9,0.8-1.9,1.2-3.2,1.2c-1.3,0-2.4-0.4-3.2-1.2
				c-0.8-0.8-1.2-1.8-1.2-3c0-1.2,0.4-2.2,1.3-3.1s1.9-1.3,3.2-1.3C428.3,56.7,429.3,57.1,430.2,58z M423.4,97V69.3h7.3V97H423.4z"
				/>
			<path class="st0" d="M461.1,71.7c2,2.2,3,5,3,8.4V97h-7.3V81.7c0-2-0.5-3.5-1.5-4.7c-1-1.2-2.4-1.8-4.1-1.8
				c-4.6,0-6.9,3.2-6.9,9.5V97h-7.3V69.3h7.3v2.5c2.2-2.2,5.1-3.3,8.7-3.3C456.4,68.5,459.1,69.6,461.1,71.7z"/>
			<path class="st0" d="M492.7,94.8c-2.2,1.9-5,2.8-8.4,2.8c-3.4,0-6.2-0.8-8.3-2.5c-2.1-1.7-3.2-3.9-3.2-6.6c0-3.1,1.6-5.5,4.9-7.2
				c-1.4-1.7-2.1-3.6-2.1-5.7c0-2.3,0.9-4.3,2.6-5.7c1.7-1.5,3.9-2.2,6.5-2.2s4.7,0.7,6.3,2.2c1.6,1.5,2.5,3.5,2.9,6l-5.3,0.9
				c-0.2-2.9-1.5-4.4-3.9-4.4c-1.1,0-2,0.3-2.7,0.9c-0.7,0.6-1,1.4-1,2.4c0,0.9,0.3,1.8,0.8,2.6s1.5,1.8,2.9,3l6.8,6
				c0.3-0.9,0.4-1.9,0.4-3V82h5v2.2c0,2.5-0.4,4.7-1.3,6.6l4.1,3.6l-3.3,3.8L492.7,94.8z M488.8,91.4l-7.7-6.8
				c-1.8,1-2.7,2.3-2.7,3.9c0,1.3,0.5,2.4,1.6,3.2c1.1,0.8,2.5,1.2,4.3,1.2C486,92.9,487.5,92.4,488.8,91.4z"/>
		</g>
		<g>
			<path class="st0" d="M190,132.4h18v6.8h-18v14.4h-7.5v-37.1h27.7v6.8H190V132.4z"/>
			<path class="st0" d="M221.2,114.7c0.9,0.9,1.3,1.9,1.3,3.1c0,1.2-0.4,2.2-1.3,3s-1.9,1.2-3.2,1.2c-1.3,0-2.4-0.4-3.2-1.2
				s-1.2-1.8-1.2-3c0-1.2,0.4-2.2,1.3-3.1c0.9-0.9,1.9-1.3,3.2-1.3C219.3,113.4,220.4,113.8,221.2,114.7z M214.4,153.7V126h7.3v27.7
				H214.4z"/>
			<path class="st0" d="M252.2,128.4c2,2.2,3,5,3,8.4v16.9h-7.3v-15.3c0-2-0.5-3.5-1.5-4.7c-1-1.2-2.4-1.8-4.1-1.8
				c-4.6,0-6.9,3.2-6.9,9.5v12.3h-7.3V126h7.3v2.5c2.2-2.2,5.1-3.3,8.7-3.3C247.5,125.2,250.2,126.3,252.2,128.4z"/>
			<path class="st0" d="M281.3,152.5c-2.6,1.4-5,2.1-7.2,2.1c-3.4,0-6.1-0.9-8-2.7s-2.9-4.6-2.9-8.3V132h-5.9v-6h5.9v-8.4h7.3v8.4h9
				v6h-9v10.9c0,3.2,1.3,4.8,4,4.8c1.4,0,2.9-0.4,4.6-1.3L281.3,152.5z"/>
			<path class="st0" d="M310,141.8H289c0.4,2,1.2,3.5,2.5,4.7c1.3,1.2,2.8,1.7,4.5,1.7c3.1,0,5.4-1.2,6.9-3.7l6.5,1.4
				c-1.2,2.8-2.9,4.9-5.3,6.4c-2.3,1.4-5,2.2-8.1,2.2c-4,0-7.4-1.4-10.1-4.1c-2.7-2.7-4.1-6.2-4.1-10.5c0-4.3,1.4-7.8,4.1-10.6
				c2.8-2.8,6.1-4.1,10.2-4.1c3.8,0,7,1.3,9.7,4c2.7,2.6,4.1,6,4.3,10.2V141.8z M291.8,132.9c-1.3,0.9-2.2,2.1-2.6,3.8h13.4
				c-0.4-1.7-1.3-3-2.4-3.8s-2.6-1.3-4.1-1.3C294.5,131.6,293.1,132,291.8,132.9z"/>
			<path class="st0" d="M334.5,142.4l6.8,1.7c-0.8,3.1-2.4,5.7-5,7.5c-2.6,1.9-5.5,2.8-8.8,2.8c-4.1,0-7.6-1.4-10.5-4.1
				c-2.9-2.7-4.3-6.2-4.3-10.5c0-4.3,1.4-7.8,4.3-10.6c2.9-2.8,6.4-4.1,10.5-4.1c3.3,0,6.1,0.9,8.7,2.8c2.5,1.9,4.3,4.3,5.2,7.4
				l-7,2c-0.9-3.7-3.2-5.5-6.8-5.5c-2.3,0-4.1,0.7-5.6,2.2c-1.4,1.5-2.1,3.4-2.1,5.8c0,2.4,0.7,4.3,2.1,5.7c1.4,1.5,3.3,2.2,5.6,2.2
				C331,147.8,333.3,146,334.5,142.4z"/>
			<path class="st0" d="M369.6,128.4c2,2.2,3,5,3,8.4v16.9h-7.3v-15.3c0-2-0.5-3.5-1.5-4.7c-1-1.2-2.4-1.8-4.1-1.8
				c-4.6,0-6.9,3.2-6.9,9.5v12.3h-7.3v-39.9h7.3v14.7c2.2-2.2,5.1-3.3,8.7-3.3C364.9,125.2,367.5,126.3,369.6,128.4z"/>
		</g>
	</g>
</g>
</svg>
