<?xml version="1.0" encoding="utf-8"?>
<!-- Generator: Adobe Illustrator 22.1.0, SVG Export Plug-In . SVG Version: 6.00 Build 0)  -->
<svg version="1.1" id="레이어_1" xmlns="http://www.w3.org/2000/svg" xmlns:xlink="http://www.w3.org/1999/xlink" x="0px"
	 y="0px" viewBox="0 0 393.1 94.9" style="enable-background:new 0 0 393.1 94.9;" xml:space="preserve">
<style type="text/css">
	.st0{fill:#E73D45;}
	.st1{clip-path:url(#SVGID_2_);fill:url(#SVGID_3_);}
	.st2{fill:#FFFFFF;}
	.st3{fill:#595757;}
</style>
<g>
	<path class="st0" d="M94.9,47.5c0,26.2-21.3,47.4-47.5,47.4C21.3,94.9,0,73.7,0,47.5S21.3,0,47.5,0C73.7,0,94.9,21.3,94.9,47.5"/>
	<g>
		<defs>
			<polygon id="SVGID_1_" points="70,38.8 70,38.9 70,38.8 			"/>
		</defs>
		<clipPath id="SVGID_2_">
			<use xlink:href="#SVGID_1_"  style="overflow:visible;"/>
		</clipPath>
		
			<linearGradient id="SVGID_3_" gradientUnits="userSpaceOnUse" x1="-312.0913" y1="404.5161" x2="-303.7395" y2="404.5161" gradientTransform="matrix(-3.3871 2.7167 2.7167 3.3871 -2109.7009 -464.46)">
			<stop  offset="0" style="stop-color:#F6F7F8"/>
			<stop  offset="0.4002" style="stop-color:#EEEEEF"/>
			<stop  offset="1" style="stop-color:#D9D9D9"/>
		</linearGradient>
		<polygon class="st1" points="70,38.9 70,38.9 69.9,38.9 70,38.8 		"/>
	</g>
	<path class="st2" d="M23,36.2c-1.5-0.9-3.2-1.2-4.9-0.9c3.1-3.3,4.8-6.9,4.8-10.6c0-0.3,0-0.7,0-1c-0.2-2.3-1.2-4-2.8-4.5
		c-1.6-0.6-4.6-0.3-9.3,4.5l-2.8,3.2C7.2,27.9,4.2,32.4,3.6,37C2.7,45,3.3,53,5.3,60c0.2,0.8,1,2.8,2.8,3.6c1.9,0.8,3.8-0.2,5.4-1
		l0.4-0.2l1.7-0.8l1.6-0.7l2-0.9c1.4-0.6,2.8-1.1,4.1-2.2c1.8-1.5,3-3.4,3.7-5.6c0.3-1.1,0.6-2.4,0.7-3.8c0.1-1.1,0.2-3.2-0.2-5.1
		C26.6,39.1,24.6,37.1,23,36.2 M7.9,42.2c0,0,0.1,1.1,0.1,1.1c0,0.2,0.1,0.4,0.3,0.5c0.2,0.1,0.4,0,0.6-0.1c1.8-1.5,4.5-2.8,6.6-2.1
		c1.7,0.6,2.8,2.3,3.4,5.2c1.2,6-2.9,8.9-5.4,10.1l-0.1,0l-3.3,1.6c0,0-0.2,0.1-0.4,0c-0.2-0.1-0.3-0.2-0.4-0.6
		c-2.3-8.3-3-16.9-2.2-24.9c0.1-0.6,0.3-1.3,0.8-2l2.7-2.9l0.3-0.3c1.5-1.5,2.9-2.2,3.7-1.9c0.7,0.3,0.8,1.3,0.8,2.1
		c0.1,4.3-2.3,8.7-7.3,13.4C8.2,41.3,7.9,41.6,7.9,42.2"/>
	<path class="st2" d="M60.3,11.2c-0.9-3.1-2.4-3.8-2.9-4c-3.9-1.2-8-1.5-12-0.8c-6,1.1-11.2,4.2-14.6,8.8c-3.6,4.8-5,10.8-3.9,16.9
		c1.1,6.1,4.2,11.1,9,14.3c5.6,3.8,13.1,4.9,21.1,3.3c4.7-1,8.6-2.9,11.7-5.5c1.4-1.2,1.6-2.7,1.6-3.7c0,0,0.1-0.8-0.6-3.5
		c-0.2-0.6-0.5-0.8-0.9-0.8c-0.3,0-0.7,0.4-0.8,0.4c-2.2,2.6-5.7,4.4-10,5.3c-11,2.1-19.5-3-21.6-13.1c-0.9-4.4-0.1-8.6,2.1-11.8
		c2.3-3.3,6.1-5.5,10.6-6.2c3.5-0.5,6.9-0.1,10.1,1.2C59.2,12.1,60.6,12.5,60.3,11.2"/>
	<path class="st3" d="M145,31.8V16.7h4.9c1.5,0,2.7,0.5,3.6,1.4c0.9,0.9,1.3,2.1,1.3,3.6v24.1c0,2.5-0.3,4.7-0.9,6.7
		c-0.6,2-1.5,3.8-2.6,5.2c-1.1,1.4-2.5,2.6-4.2,3.3c-1.7,0.8-3.5,1.2-5.6,1.2H126c-2.2,0-4-0.7-5.3-2c-1.3-1.4-2-3.2-2-5.7V16.7h5
		c1.6,0,2.8,0.5,3.6,1.4c0.9,0.9,1.3,2.1,1.3,3.6v10.2H145 M139.5,55.5c1.6,0,2.9-0.5,3.9-1.4c1-0.9,1.5-2.5,1.5-4.7V38.5h-16.3
		v14.4c0,1,0.2,1.7,0.6,2.1c0.4,0.4,0.9,0.6,1.5,0.6H139.5 M176.8,14.2v61.7c0,1.5-0.4,2.7-1.2,3.6c-0.8,0.9-2.1,1.3-3.7,1.3h-5
		V14.2H176.8z"/>
	<path class="st3" d="M204.2,36.7c0,3.1,0.3,5.8,1,8c0.7,2.2,1.7,4.2,3.1,6h0.3c1.4-1.7,2.4-3.6,3.1-5.7c0.7-2.1,1-4.6,1-7.6V16.7
		h5.7c1.3,0,2.3,0.4,2.9,1.1c0.6,0.7,1,1.8,1,3.1v15.9c0,5.1,0.9,9.3,2.7,12.7c1.8,3.4,4.6,5.8,8.4,7.3l-5.7,4.6
		c-1.9-0.6-3.8-1.6-5.5-2.9c-1.7-1.3-3.3-2.9-4.7-4.7h-0.3c-0.6,0.8-1.2,1.6-1.9,2.2c-0.6,0.7-1.2,1.3-1.9,1.9
		c-0.7,0.6-1.4,1.2-2.2,1.8c-0.8,0.6-1.7,1.2-2.8,1.9c-2-1.2-3.7-2.4-5.1-3.5c-1.4-1.2-2.7-2.6-3.9-4.3h-0.3
		c-2.8,3.9-6.2,6.4-10.1,7.6l-5.6-4.6c3.6-1.5,6.4-3.8,8.3-7.1c1.9-3.3,2.8-7.4,2.8-12.3V16.7h5.7c1.3,0,2.3,0.4,2.9,1.1
		c0.6,0.7,0.9,1.8,0.9,3.1V36.7 M246.9,14.2v61.7c0,1.5-0.4,2.7-1.3,3.6c-0.8,0.9-2.1,1.3-3.7,1.3H237V14.2H246.9z"/>
	<path class="st3" d="M283.7,41.4h-24.5v-6.7h24.5V41.4z M259.9,60.4c2.5-0.6,5.1-1.5,7.8-2.9c2.7-1.3,5.2-3,7.5-4.9
		c2.3-1.9,4.2-4.1,5.6-6.6c1.5-2.5,2.2-5.1,2.2-8v-8.4c0-4.2-2-6.4-6-6.4h-16.3v-6.6h18.9c9.1,0,13.7,4.1,13.7,12.2v7.6
		c0,3.7-0.8,7.1-2.5,10.2c-1.6,3.1-3.8,5.9-6.5,8.4c-2.6,2.5-5.6,4.5-8.9,6.2c-3.3,1.7-6.6,2.9-10,3.7L259.9,60.4 M314.4,14.2v61.7
		c0,1.5-0.4,2.7-1.3,3.6c-0.8,0.9-2.1,1.3-3.7,1.3h-5V14.2H314.4 M314,34.6h11.7v6.6H314V34.6z"/>
	<path class="st3" d="M393.1,67.7c0,1.1-0.3,2-1,2.6c-0.7,0.6-1.4,0.9-2.2,0.9h-60.6v-6.6h63.8V67.7 M384.2,45v3.7
		c0,0.9-0.3,1.6-0.8,2.2c-0.6,0.5-1.3,0.8-2.3,0.8h-36.6c-2.1,0-3.9-0.7-5.2-2c-1.3-1.4-2-3.3-2-5.7V24.7c0-2.4,0.7-4.3,2-5.6
		c1.3-1.4,3.1-2,5.2-2h38.9v3.6c0,1-0.3,1.7-0.9,2.3c-0.6,0.5-1.3,0.8-2.3,0.8H350c-0.8,0-1.5,0.3-2.1,0.8c-0.5,0.5-0.8,1.3-0.8,2.4
		v15.3c0,1.1,0.2,1.8,0.7,2.2c0.5,0.4,1.1,0.6,2,0.6H384.2z"/>
</g>
</svg>
