<?xml version="1.0" encoding="utf-8"?>
<!-- Generator: Adobe Illustrator 22.1.0, SVG Export Plug-In . SVG Version: 6.00 Build 0)  -->
<svg version="1.1" id="레이어_1" xmlns="http://www.w3.org/2000/svg" xmlns:xlink="http://www.w3.org/1999/xlink" x="0px"
	 y="0px" viewBox="0 0 264.8 32" style="enable-background:new 0 0 264.8 32;" xml:space="preserve">
<style type="text/css">
	.st0{clip-path:url(#SVGID_2_);fill:url(#SVGID_3_);}
	.st1{clip-path:url(#SVGID_5_);fill:url(#SVGID_6_);}
	.st2{clip-path:url(#SVGID_8_);fill:url(#SVGID_9_);}
	.st3{clip-path:url(#SVGID_11_);fill:url(#SVGID_12_);}
	.st4{clip-path:url(#SVGID_14_);fill:url(#SVGID_15_);}
	.st5{filter:url(#Adobe_OpacityMaskFilter);}
	.st6{clip-path:url(#SVGID_17_);fill:url(#SVGID_19_);}
	.st7{clip-path:url(#SVGID_17_);mask:url(#SVGID_18_);fill:url(#SVGID_20_);}
	.st8{fill:#2E2C2A;}
</style>
<g>
	<g>
		<defs>
			<rect id="SVGID_1_" y="17.3" width="5.3" height="5.3"/>
		</defs>
		<clipPath id="SVGID_2_">
			<use xlink:href="#SVGID_1_"  style="overflow:visible;"/>
		</clipPath>
		
			<linearGradient id="SVGID_3_" gradientUnits="userSpaceOnUse" x1="-261.2013" y1="682.3315" x2="-261.0532" y2="682.3315" gradientTransform="matrix(223.1688 214.0392 214.0392 -223.1688 -87747.7031 208205.5625)">
			<stop  offset="0" style="stop-color:#35A6DD"/>
			<stop  offset="1" style="stop-color:#006EAE"/>
		</linearGradient>
		<polygon class="st0" points="2.5,14.6 8,19.8 2.8,25.3 -2.7,20.1 		"/>
	</g>
	<g>
		<defs>
			<rect id="SVGID_4_" x="0.5" y="8.7" width="4" height="4"/>
		</defs>
		<clipPath id="SVGID_5_">
			<use xlink:href="#SVGID_4_"  style="overflow:visible;"/>
		</clipPath>
		
			<linearGradient id="SVGID_6_" gradientUnits="userSpaceOnUse" x1="-261.2957" y1="682.1943" x2="-261.1475" y2="682.1943" gradientTransform="matrix(193.9137 185.9808 185.9808 -193.9137 -76195.0156 180901.8906)">
			<stop  offset="0" style="stop-color:#35A6DD"/>
			<stop  offset="1" style="stop-color:#006EAE"/>
		</linearGradient>
		<polygon class="st1" points="2.4,6.7 6.5,10.6 2.6,14.7 -1.5,10.8 		"/>
	</g>
	<g>
		<defs>
			<rect id="SVGID_7_" x="8.5" y="12.7" width="6" height="6"/>
		</defs>
		<clipPath id="SVGID_8_">
			<use xlink:href="#SVGID_7_"  style="overflow:visible;"/>
		</clipPath>
		
			<linearGradient id="SVGID_9_" gradientUnits="userSpaceOnUse" x1="-261.2201" y1="682.1694" x2="-261.072" y2="682.1694" gradientTransform="matrix(209.5627 200.9896 200.9896 -209.5627 -82354.3281 195476.5938)">
			<stop  offset="0" style="stop-color:#35A6DD"/>
			<stop  offset="2.702200e-02" style="stop-color:#32A4DB"/>
			<stop  offset="0.4837" style="stop-color:#007DBA"/>
			<stop  offset="0.8211" style="stop-color:#0066A7"/>
			<stop  offset="1" style="stop-color:#005EA0"/>
		</linearGradient>
		<polygon class="st2" points="11.3,9.7 17.4,15.6 11.6,21.7 5.5,15.8 		"/>
	</g>
	<g>
		<defs>
			<polygon id="SVGID_10_" points="22,18.7 16.3,18.7 16.3,24 30.2,32 44,24 44,8 30.2,0 16.3,8 16.3,12.9 22,12.9 			"/>
		</defs>
		<clipPath id="SVGID_11_">
			<use xlink:href="#SVGID_10_"  style="overflow:visible;"/>
		</clipPath>
		
			<linearGradient id="SVGID_12_" gradientUnits="userSpaceOnUse" x1="-261.2374" y1="681.9087" x2="-261.0893" y2="681.9087" gradientTransform="matrix(193.9137 185.9808 185.9808 -193.9137 -76143.0156 180824.1406)">
			<stop  offset="0" style="stop-color:#35A6DD"/>
			<stop  offset="2.702200e-02" style="stop-color:#32A4DB"/>
			<stop  offset="0.4837" style="stop-color:#007DBA"/>
			<stop  offset="0.8211" style="stop-color:#0066A7"/>
			<stop  offset="1" style="stop-color:#005EA0"/>
		</linearGradient>
		<polygon class="st3" points="29.6,-13.8 60,15.3 30.8,45.8 0.4,16.7 		"/>
	</g>
	<g>
		<defs>
			<polygon id="SVGID_13_" points="30.2,32 30.2,15.7 44,8 44,24 			"/>
		</defs>
		<clipPath id="SVGID_14_">
			<use xlink:href="#SVGID_13_"  style="overflow:visible;"/>
		</clipPath>
		
			<linearGradient id="SVGID_15_" gradientUnits="userSpaceOnUse" x1="-259.0486" y1="682.2208" x2="-258.9004" y2="682.2208" gradientTransform="matrix(-94.9854 -84.3238 -84.3238 94.9854 32967.6055 -86617.1172)">
			<stop  offset="0" style="stop-color:#35A6DD"/>
			<stop  offset="1" style="stop-color:#003C79"/>
		</linearGradient>
		<polygon class="st4" points="37.9,38.8 18.3,21.4 36.3,1.1 55.9,18.6 		"/>
	</g>
	<g>
		<defs>
			<polygon id="SVGID_16_" points="16.3,8 30.2,15.7 44,8 30.2,0 			"/>
		</defs>
		<clipPath id="SVGID_17_">
			<use xlink:href="#SVGID_16_"  style="overflow:visible;"/>
		</clipPath>
		<defs>
			<filter id="Adobe_OpacityMaskFilter" filterUnits="userSpaceOnUse" x="16.2" y="-0.3" width="28" height="16.2">
				<feColorMatrix  type="matrix" values="1 0 0 0 0  0 1 0 0 0  0 0 1 0 0  0 0 0 1 0"/>
			</filter>
		</defs>
		<mask maskUnits="userSpaceOnUse" x="16.2" y="-0.3" width="28" height="16.2" id="SVGID_18_">
			<g class="st5">
				
					<linearGradient id="SVGID_19_" gradientUnits="userSpaceOnUse" x1="-259.986" y1="682.8217" x2="-259.8378" y2="682.8217" gradientTransform="matrix(1.3147 -138.0448 -138.0448 -1.3147 94631.7734 -34964.625)">
					<stop  offset="0" style="stop-color:#FFFFFF"/>
					<stop  offset="1" style="stop-color:#000000"/>
				</linearGradient>
				<polygon class="st6" points="16.2,15.7 16.3,-0.3 44.2,0 44,16 				"/>
			</g>
		</mask>
		
			<linearGradient id="SVGID_20_" gradientUnits="userSpaceOnUse" x1="-259.985" y1="682.8235" x2="-259.8369" y2="682.8235" gradientTransform="matrix(1.3147 -138.0448 -138.0448 -1.3147 94632.0234 -34964.4883)">
			<stop  offset="0" style="stop-color:#FFFFFF"/>
			<stop  offset="1" style="stop-color:#FFFFFF"/>
		</linearGradient>
		<polygon class="st7" points="16.2,15.7 16.3,-0.3 44.2,0 44,16 		"/>
	</g>
	<g>
		<path class="st8" d="M56.7,8.8l7.2,0c1.8,0,3.2,0.5,4.1,1.4c0.7,0.7,1.1,1.6,1.1,2.6v0c0,1.8-0.9,2.7-2,3.4
			c1.8,0.7,2.9,1.7,2.9,3.8v0c0,2.8-2.3,4.3-5.8,4.3l-7.4,0L56.7,8.8z M63.2,15.1c1.5,0,2.5-0.5,2.5-1.6v0c0-1-0.8-1.6-2.2-1.6
			l-3.4,0l0,3.3L63.2,15.1z M64.1,21.4c1.5,0,2.4-0.5,2.4-1.7v0c0-1-0.8-1.7-2.5-1.7l-3.9,0l0,3.4L64.1,21.4z"/>
		<path class="st8" d="M73.2,8.8l11.7,0l0,3l-8.3,0l0,3.1l7.3,0l0,3l-7.3,0l0,3.3l8.4,0l0,3l-11.8,0L73.2,8.8z"/>
		<path class="st8" d="M92.8,18.2l-6-9.4l4,0l3.7,6.2l3.8-6.2l3.9,0l-6,9.3l0,6.2l-3.4,0L92.8,18.2z"/>
		<path class="st8" d="M104.1,16.6L104.1,16.6c0-4.5,3.5-8.1,8.3-8.1c4.8,0,8.2,3.6,8.2,8v0c0,4.4-3.5,8-8.3,8
			C107.6,24.6,104.1,21,104.1,16.6z M117,16.6L117,16.6c0-2.7-2-4.9-4.7-4.9c-2.8,0-4.7,2.2-4.7,4.8v0c0,2.7,2,4.9,4.7,4.9
			C115.1,21.4,117.1,19.2,117,16.6z"/>
		<path class="st8" d="M124.1,8.7l3.2,0l7.3,9.5l0-9.6l3.4,0l0,15.5l-2.9,0l-7.5-9.9l0,9.9l-3.4,0L124.1,8.7z"/>
		<path class="st8" d="M142,8.7l6.1,0c4.9,0,8.3,3.3,8.3,7.7v0c0,4.4-3.4,7.8-8.2,7.8l-6.1,0L142,8.7z M148.1,21.2
			c2.8,0,4.7-1.9,4.7-4.6v0c0-2.8-1.9-4.7-4.7-4.7l-2.6,0l0,9.4L148.1,21.2z"/>
	</g>
	<g>
		<path class="st8" d="M167.1,8.7l6.4,0c1.8,0,3.2,0.5,4,1.4c0.6,0.6,1,1.5,1,2.4v0c0,2.1-1.4,3.2-2.6,3.7c1.9,0.5,3.5,1.5,3.5,3.7
			v0c0,2.6-2.2,4.2-5.6,4.2l-6.7,0L167.1,8.7z M173.4,15.8c2.3,0,4-1.1,4-3.2v0c0-1.7-1.4-2.9-3.9-2.9l-5.2,0l0,6.1L173.4,15.8z
			 M173.9,23.1c2.7,0,4.3-1.2,4.3-3.2v0c0-1.9-1.7-3-4.7-3l-5.3,0l0,6.2L173.9,23.1z"/>
		<path class="st8" d="M184.7,8.7l1.2,0l0,14.5l9.1,0l0,1.1l-10.3,0L184.7,8.7z"/>
		<path class="st8" d="M198.3,16.4L198.3,16.4c0-4.3,3.1-8.1,7.8-8.1c4.7,0,7.8,3.7,7.8,8v0c0,4.2-3.1,8-7.8,8
			C201.4,24.4,198.3,20.7,198.3,16.4z M212.8,16.4L212.8,16.4c0-3.9-2.8-7-6.6-7c-3.8,0-6.6,3.1-6.6,7v0c0,3.8,2.8,7,6.6,7
			C210,23.4,212.8,20.3,212.8,16.4z"/>
		<path class="st8" d="M218.7,16.4L218.7,16.4c0-4.4,3.3-8.1,7.8-8.1c2.8,0,4.4,1,6,2.5l-0.8,0.8c-1.4-1.3-2.9-2.3-5.2-2.3
			c-3.7,0-6.5,3-6.5,7v0c0,3.9,2.9,7,6.6,7c2.2,0,3.8-0.9,5.3-2.4l0.8,0.8c-1.6,1.6-3.4,2.7-6.2,2.7C222,24.4,218.7,20.9,218.7,16.4
			z"/>
		<path class="st8" d="M237.3,8.6l1.2,0l0,10.2l9.9-10.2l1.6,0l-6.8,6.9l7.1,8.7l-1.5,0l-6.4-7.8l-3.9,3.9l0,3.9l-1.2,0L237.3,8.6z"
			/>
		<path class="st8" d="M253.4,21.8l0.8-0.9c1.7,1.6,3.3,2.3,5.6,2.3c2.3,0,3.9-1.3,3.9-3.1v0c0-1.6-0.9-2.6-4.4-3.3
			c-3.7-0.8-5.2-2-5.2-4.4l0,0c0-2.3,2.1-4.1,5-4.1c2.3,0,3.8,0.6,5.3,1.9l-0.7,0.9c-1.5-1.3-2.9-1.7-4.6-1.7
			c-2.3,0-3.8,1.3-3.8,2.9v0c0,1.6,0.8,2.6,4.5,3.4c3.6,0.7,5.1,2,5.1,4.3v0c0,2.5-2.1,4.2-5.1,4.2
			C257.2,24.3,255.3,23.5,253.4,21.8z"/>
	</g>
</g>
</svg>
