<?xml version="1.0" encoding="utf-8"?>
<!-- Generator: Adobe Illustrator 22.1.0, SVG Export Plug-In . SVG Version: 6.00 Build 0)  -->
<svg version="1.1" id="레이어_1" xmlns="http://www.w3.org/2000/svg" xmlns:xlink="http://www.w3.org/1999/xlink" x="0px"
	 y="0px" viewBox="0 0 301.8 97.2" style="enable-background:new 0 0 301.8 97.2;" xml:space="preserve">
<style type="text/css">
	.st0{fill:#0C419A;}
</style>
<g>
	<g>
		<path class="st0" d="M105.8,31.9c-1.8,0-3.2-0.6-4.4-1.8c-1.2-1.2-1.8-2.7-1.8-4.5s0.6-3.3,1.7-4.5c1.1-1.3,2.6-1.9,4.4-1.9
			c1.8,0,3.3,0.6,4.5,1.9c1.2,1.3,1.8,2.8,1.8,4.5s-0.6,3.3-1.8,4.5C109.1,31.3,107.6,31.9,105.8,31.9z M101.7,83.6
			c-0.5,0-0.8-0.1-1-0.3c-0.2-0.2-0.3-0.6-0.3-1.3V40.3c0-0.6,0.1-1.1,0.2-1.3c0.2-0.2,0.5-0.3,1-0.3h7.9c0.5,0,0.9,0.1,1.1,0.3
			c0.2,0.2,0.3,0.6,0.3,1.3V82c0,0.6-0.1,1.1-0.3,1.3c-0.2,0.2-0.5,0.3-1.1,0.3H101.7z"/>
		<path class="st0" d="M119.2,83.6c-0.6,0-1-0.1-1.2-0.4c-0.2-0.2-0.3-0.7-0.3-1.2V76c0-0.3,0.1-0.6,0.2-0.9
			c0.1-0.3,0.3-0.6,0.4-0.8l20.3-26.1h-18.4c-1,0-1.5-0.5-1.5-1.6V40c0-1.1,0.5-1.6,1.5-1.6h30.1c0.6,0,1.1,0.1,1.2,0.4
			c0.2,0.2,0.3,0.7,0.3,1.2v6.5c0,0.4-0.1,0.7-0.3,1c-0.2,0.3-0.3,0.5-0.4,0.6l-20.6,25.7h20c0.6,0,1.1,0.1,1.2,0.4
			c0.2,0.2,0.3,0.7,0.3,1.2V82c0,0.6-0.1,1-0.3,1.2c-0.2,0.2-0.6,0.4-1.2,0.4H119.2z"/>
		<path class="st0" d="M179.5,85.4c-1.7,0-3.3-0.4-5.1-1.1c-1.7-0.7-3.2-1.9-4.5-3.4v13.7c0,0.6-0.1,1-0.3,1.2
			c-0.2,0.2-0.6,0.4-1.2,0.4H161c-0.6,0-1-0.1-1.2-0.4c-0.2-0.2-0.3-0.7-0.3-1.2V40.4c0-0.7,0.1-1.2,0.4-1.5
			c0.3-0.2,0.7-0.4,1.3-0.4h7.2c0.6,0,1.1,0.1,1.3,0.3c0.2,0.2,0.4,0.6,0.4,1.2v3.1c0.5-0.6,1.1-1.3,1.8-1.9
			c0.7-0.6,1.6-1.1,2.5-1.6c0.9-0.5,1.9-0.8,2.9-1.1c1-0.3,2.1-0.4,3.1-0.4c2.7,0,5.2,0.6,7.3,1.7c2.2,1.1,4,2.7,5.6,4.8
			c1.5,2.1,2.7,4.6,3.6,7.5c0.8,2.9,1.2,6.2,1.2,9.9c0,3.5-0.4,6.6-1.3,9.5c-0.9,2.9-2.1,5.3-3.7,7.4c-1.6,2-3.5,3.6-5.8,4.8
			C185,84.9,182.4,85.4,179.5,85.4z M178.6,47.9c-1.1,0-2.2,0.3-3.2,0.8c-1,0.6-2,1.4-2.8,2.6c-0.8,1.1-1.5,2.6-2,4.4
			c-0.5,1.8-0.8,3.8-0.8,6.2c0,2.5,0.2,4.6,0.7,6.4c0.5,1.8,1.1,3.2,1.8,4.3c0.8,1.1,1.7,1.9,2.8,2.4c1.1,0.5,2.2,0.8,3.4,0.8
			c2.7,0,4.8-1.1,6.4-3.4c1.6-2.2,2.4-5.8,2.4-10.6c0-5-0.8-8.6-2.5-10.7C183.3,49,181.2,47.9,178.6,47.9z"/>
		<path class="st0" d="M208.5,83.6c-0.5,0-0.8-0.1-1-0.3c-0.2-0.2-0.3-0.6-0.3-1.3V19.4c0-0.6,0.1-1.1,0.2-1.3
			c0.2-0.2,0.5-0.3,1-0.3h7.9c0.5,0,0.9,0.1,1.1,0.3c0.2,0.2,0.3,0.6,0.3,1.3V82c0,0.6-0.1,1.1-0.3,1.3c-0.2,0.2-0.5,0.3-1.1,0.3
			H208.5z"/>
		<path class="st0" d="M251.5,83.8c-0.5,0-0.8-0.1-0.9-0.2c-0.1-0.1-0.2-0.4-0.2-1v-3.4c-0.9,1.4-2.4,2.7-4.4,3.7
			c-2.1,1-4.1,1.5-6.1,1.5c-2.2,0-4.3-0.3-6.3-0.9c-2-0.6-3.7-1.6-5-2.9c-1.3-1.3-2.3-2.9-3.1-4.7c-0.7-1.8-1.1-3.9-1.1-6.3
			c0-2.8,0.7-5.3,2-7.5c1.3-2.2,3.1-4,5.3-5.2c2.2-1.2,4.8-2.2,7.9-2.7c3-0.6,6.4-0.7,10.1-0.5c-0.3-4.2-2.1-6.6-5.4-7
			c-1.1-0.1-2.1-0.1-3.2,0.1c-1.1,0.2-2.2,0.4-3.2,0.7c-1,0.3-2,0.7-3,1.2c-1,0.4-1.8,0.9-2.6,1.4c-1.1,0.7-1.9,1.1-2.4,1.1
			s-0.7-0.5-0.7-1.6v-6.6c0-0.7,0.1-1.2,0.2-1.5c0.1-0.3,0.5-0.6,1.2-0.9c1.6-0.8,3.5-1.5,5.6-2.2c2.2-0.7,4.7-1,7.6-1
			c5.4,0,9.5,1.4,12.2,4.2c2.7,2.8,4,7.1,4,12.9v18.2c0,0.7,0,1.5,0,2.3c0,0.8,0,1.7,0,2.5c0,0.9,0.1,1.7,0.1,2.4
			c0,0.8,0.1,1.5,0.1,2c0.1,1.1,0.1,1.7-0.2,1.8c-0.2,0.1-0.6,0.2-1.1,0.2H251.5z M250.4,61.8c-3,0.1-5.5,0.3-7.5,0.7
			c-2,0.4-3.6,0.9-4.8,1.6c-1.2,0.7-2,1.5-2.4,2.5c-0.4,1-0.6,2-0.6,3.2c0,1.7,0.5,3,1.5,3.9c1,0.9,2.4,1.4,4.2,1.4
			c2.9,0,5.2-1,6.9-3.1C249.4,69.8,250.3,66.5,250.4,61.8z"/>
		<path class="st0" d="M286.6,85.3c-1.4,3.9-3.1,6.8-5.2,8.5c-2.1,1.7-4.6,2.6-7.4,2.6c-0.6,0-1.4,0-2.6-0.1
			c-1.1-0.1-2.2-0.3-3.3-0.8c-0.6-0.3-1-0.5-1.2-0.7c-0.2-0.2-0.3-0.6-0.2-1.2l0.6-6.6c0.1-0.5,0.2-0.8,0.5-0.8c0.3-0.1,0.6,0,1,0.1
			c0.7,0.3,1.5,0.5,2.3,0.6c0.8,0.1,1.6,0.2,2.4,0.1c0.4-0.1,0.8-0.2,1.2-0.3c0.4-0.2,0.7-0.5,1-1c0.6-1.2,1.1-2.5,1.6-3.6
			c0.5-1.2,1-2.6,1.5-4.1l-13.3-37.8c-0.3-0.8-0.3-1.3-0.1-1.5c0.2-0.2,0.6-0.3,1.3-0.3h7.6c0.5,0,0.8,0.1,1,0.2
			c0.2,0.1,0.4,0.5,0.5,1.1l7.9,25.4l7.9-25.4c0.2-0.6,0.3-0.9,0.5-1.1c0.2-0.1,0.5-0.2,1-0.2h7.8c0.7,0,1.2,0.1,1.3,0.4
			c0.1,0.3,0.1,0.8-0.2,1.5L286.6,85.3z"/>
	</g>
	<g>
		<g>
			<path class="st0" d="M82.4,0H9C4,0,0,4,0,8.9v73.6c0,4.9,4,8.9,9,8.9h73.5c5,0,9-4,9-8.9V8.9C91.4,4,87.4,0,82.4,0z M58.2,84.2
				c-3.9,0-7.6-1-10.9-2.6v0.3h0c0,0,0,0,0,0c0,0.8-0.6,1.4-1.4,1.4c0,0,0,0,0,0H35.8c0,0,0,0,0,0c-0.7,0-1.4-0.6-1.4-1.4h0V13.6h0
				c0-0.7,0.6-1.3,1.4-1.3c0,0,0,0,0,0v0H46v0c0.8,0,1.4,0.6,1.4,1.4v26.1C50.6,38,54.3,37,58.2,37c13,0,23.6,10.6,23.6,23.6
				C81.8,73.6,71.2,84.2,58.2,84.2z"/>
		</g>
	</g>
	<path class="st0" d="M50.3,52.6c0-1.4,0.6-2.6,1.7-3.1c1-0.5,2.3-0.4,3.5,0.4L69,57.6c1.1,0.8,1.7,1.9,1.7,3.1
		c0,1.2-0.6,2.3-1.7,3.1l-13.6,7.7c-1.2,0.8-2.4,1-3.5,0.4c-1-0.5-1.6-1.7-1.6-3.1L50.3,52.6z"/>
</g>
</svg>
