<?xml version="1.0" encoding="utf-8"?>
<!-- Generator: Adobe Illustrator 22.1.0, SVG Export Plug-In . SVG Version: 6.00 Build 0)  -->
<svg version="1.1" id="레이어_1" xmlns="http://www.w3.org/2000/svg" xmlns:xlink="http://www.w3.org/1999/xlink" x="0px"
	 y="0px" viewBox="0 0 150 150" style="enable-background:new 0 0 150 150;" xml:space="preserve">
<style type="text/css">
	.st0{fill:#182449;}
	.st1{fill:#FFFFFF;}
</style>
<g>
	<rect y="0" class="st0" width="150" height="150"/>
	<g>
		<path class="st1" d="M44.7,133.8l-0.1-9.1c0-4-2.8-4.7-5-4.7c-2,0.1-5.5,2-6.7,2.9l0.5,1.1c1-0.5,3.3-2,4.7-2c2.5,0,3.1,1,3.1,3.3
			v0.8c-1.5,0.2-3.7,0.5-5.2,1c-1.6,0.5-3.5,1.2-4,3.1c-0.4,1.4-0.2,3,0.5,4c0.9,1.4,2.6,2,4.1,2c2,0,3.8-1.7,4.8-2.7
			c0,1.1,0.1,1.6,0.5,2.1c0.4,0.4,1.7,0.6,2.3,0.6c1.2,0,2.5-0.6,3-1l-0.1-0.8C45.8,134.5,44.7,134.5,44.7,133.8z M35.5,132.6
			c-0.8-1.3-0.5-2.9,0.8-3.7c1.4-0.8,4-1.3,4.9-1.4l0.1,5.1C38.5,134.1,36.5,134.1,35.5,132.6z"/>
		<path class="st1" d="M91.5,134l0-8.4c0-3.1,0-5.6-4.1-5.6c-2.6,0-5.3,2.4-6.4,3.3V122c0-0.7-0.3-1.8-1.1-1.8
			c-1.2,0-4.9,1.1-4.9,1.1v0.9h2.6l0,10.8c0,1.4-2.2,2.1-2.2,2.1l0.1,1.1h8l0.1-1.1c0,0-2.6,0-2.6-1l0-9.7c1.2-0.6,2.9-2,4.6-2
			c2.5,0,2.5,1.5,2.5,4.1v7.5c0,0.7-1.9,1.2-1.9,1.2l0.1,1.1h7.4l0.1-1.1C93.7,135,91.5,135,91.5,134z"/>
		<path class="st1" d="M23.4,113.6h-9.9l-0.1,1c0,0,2.5,0.6,2.5,1.4v16.6c0,1.5-1.3,2-2.4,2.4l0.1,1.1h9.2l0.1-1.2
			c0,0-3.5-0.3-3.5-1.2l0-18.5l3.2,0.1c2.9,0,4.6,1.7,4.6,5.4c0,3.5-1.8,5.2-4.7,5.4l-1.2,0.1c0,0-0.2,0.7-0.2,1.2h1.5
			c5.2,0,8.3-1.4,8.3-6.7C30.9,115.6,27.6,113.6,23.4,113.6z"/>
		<path class="st1" d="M70,134.1c-1.7,0-2.3-1.2-2.3-2.5v-9.4h4.8v-1.4h-4.8v-5h-1.4c-0.4,2.6-2,4.8-4.3,5.6v0.8h2.3v9.2
			c0,2.2,0.4,3.3,1.4,4.1c0.8,0.6,2.1,0.8,3.6,0.8c1.7,0,3.2-0.8,4.1-1.6l-0.3-1C72.4,133.8,71.4,134.1,70,134.1z"/>
		<path class="st1" d="M102.2,120c-3.3,0.1-5.8,2.1-6.6,4.6c-0.8,2.5-0.7,5.1,0,7.2c1.1,3.2,4.2,4.5,7.5,4.5c2.1,0,4.5-1.2,5.6-2.6
			l-0.6-0.6c-0.7,0.6-2.5,1.3-4,1.3c-2.3,0-4.1-0.9-4.9-3.2c-0.2-0.6-0.4-1.5-0.5-2.4l10.3-1.6c0,0,0-0.9-0.1-1.8
			C108.5,121.5,106.4,119.9,102.2,120z M98.8,127.4c-0.1-3.5,0.5-5.7,2.8-6c2.5-0.4,3.7,1.6,3.8,5L98.8,127.4z"/>
		<path class="st1" d="M54.7,123.4V122c0-0.8-0.4-1.9-1.1-1.9c-1.4,0-4.9,1.1-4.9,1.1v1.1h2.6l0,10.6c0,1.3-2.3,2.1-2.3,2.1l0.1,1.1
			h9l0-1.1c0,0-3.5-0.2-3.5-1.3v-9.3c0.8-0.5,2.1-1.8,3.7-1.8c0.8,0,1.6,0.4,1.9,0.7l0.7-2.8c-0.2-0.2-0.6-0.5-1.6-0.5
			C57.5,120,55.5,122.2,54.7,123.4z"/>
		<path class="st1" d="M117.2,123.4V122c0-0.8-0.4-1.9-1.1-1.9c-1.4,0-4.9,1.1-4.9,1.1v1.1h2.6l0,10.6c0,1.1-2.3,2.1-2.3,2.1
			l0.1,1.1h9l0-1.1c0,0-3.5,0-3.5-1.3v-9.3c0.8-0.5,2.1-1.8,3.7-1.8c0.8,0,1.6,0.4,1.9,0.7l0.7-2.8c-0.2-0.2-0.6-0.5-1.6-0.5
			C120.1,120,118,122.2,117.2,123.4z"/>
		<path class="st1" d="M132.8,126.8c-2.3-0.9-4.7-1.7-4.8-3.5c-0.1-1.4,0.7-2.2,2.1-2.2c1.9,0,3.5,1.6,4.3,3.7l0.9,0.2l0.6-3.8
			c-1.2-0.7-3.3-1.4-5.3-1.4c-3,0-5.9,1.5-5.7,4.7c0.2,3,2.7,3.8,5,4.7c1.7,0.6,3.4,1.4,3.4,3.3c0,1.6-1.1,2.6-2.9,2.6
			c-2.4,0-3.5-2.2-4.1-4l-1-0.3l-1.2,3.5c1.2,1,4,2,6.3,2c2.8,0,6.4-1.2,6.2-5C136.5,128.8,134.8,127.7,132.8,126.8z"/>
		<path class="st1" d="M13.3,95c0,7.8,4.7,11.8,11,11.8c3.5,0,6.5-1.4,7-1.9l-0.4-1.2c-0.9,0.3-3,1-5.4,1c-4.5,0-8.3-3-8.3-9.6
			c0-7.2,3.4-9.8,7.8-9.8c3.1,0,4.4,2.5,5,4.4c0.2,0,1.1,0,1.3,0v-4.8c-1.5-0.6-2.9-1.5-6.5-1.5C18.3,83.4,13.3,87.4,13.3,95z"/>
		<path class="st1" d="M36.1,103.5c0,1.2-1,1.9-2,2.2l0.1,1H42l0.1-1c0,0-2.5-0.1-2.5-1.1l0-9.7c1-0.6,2.8-2,4.6-2
			c2.5,0,2.5,1.5,2.5,4.1v7.5c0,0.6-2.1,1.2-2.1,1.2l0.1,1h7.6l0.1-1c0,0-2.3,0-2.3-1.1l0-8.4c0-3.1,0-5.6-4.1-5.6
			c-2.6,0-5.3,2.4-6.4,3.3V83.1c0-0.7-0.3-1.9-1.1-1.9c-1.2,0-4.8,1.1-4.8,1.1v1.1h2.4V103.5z"/>
		<path class="st1" d="M59,106.8c2,0,3.8-1.7,4.8-2.7c0,1.1,0.1,1.6,0.5,2.1c0.4,0.4,1.7,0.6,2.3,0.6c1.2,0,2.5-0.6,3-1l-0.1-0.8
			c-1,0-2.2,0.1-2.2-0.6l-0.1-9.1c0-4-2.8-4.7-5-4.7c-2,0.1-5.5,2-6.7,2.9l0.5,1.1c1-0.5,3.3-2,4.7-2c2.5,0,3.1,1,3.1,3.3v0.8
			c-1.5,0.2-3.7,0.5-5.2,1c-1.6,0.5-3.5,1.2-4,3.1c-0.4,1.4-0.2,3,0.5,4C55.8,106.2,57.5,106.8,59,106.8z M58.8,99.5
			c1.4-0.8,4-1.3,4.9-1.4l0.1,5.1c-2.8,1.5-4.8,1.6-5.7,0C57.1,101.8,57.5,100.3,58.8,99.5z"/>
		<path class="st1" d="M73.7,103.5c0,1.3-2.7,2.1-2.7,2.1l0.1,1.1h8.5l0.1-1.1c0,0-2.7-0.3-2.7-1l-0.1-11.9c0-0.9-0.4-2-1.2-2
			c-1.3,0-4.9,1.1-4.9,1.1v1h2.7V103.5z"/>
		<path class="st1" d="M83.7,103.5c0,1.3-2.2,2.1-2.2,2.1l0.1,1.1h8l0.1-1.1c0,0-2.6-0.1-2.6-1l0-9.7c1.2-0.6,2.9-2,4.6-2
			c2.5,0,2.5,1.5,2.5,4.1v7.5c0,0.7-1.9,1.2-1.9,1.2l0.1,1.1h7.4l0.1-1.1c0,0-2.2-0.1-2.2-1l0-8.4c0-3.1,0-5.6-4.1-5.6
			c-2.6,0-5.3,2.4-6.4,3.3v-1.3c0-0.7-0.3-1.8-1.1-1.8c-1.2,0-4.9,1.1-4.9,1.1v0.9h2.6L83.7,103.5z"/>
		<path class="st1" d="M75,87.9c0.8,0,2.1-1.1,2.1-2.1c0-1-1.2-2.1-2.1-2.1s-2.1,1.1-2.1,2.1C72.8,86.8,74.2,87.9,75,87.9z"/>
	</g>
</g>
</svg>
