<?xml version="1.0" encoding="utf-8"?>
<!-- Generator: Adobe Illustrator 22.1.0, SVG Export Plug-In . SVG Version: 6.00 Build 0)  -->
<svg version="1.1" id="图层_1" xmlns="http://www.w3.org/2000/svg" xmlns:xlink="http://www.w3.org/1999/xlink" x="0px" y="0px"
	 viewBox="0 0 729.8 141.1" style="enable-background:new 0 0 729.8 141.1;" xml:space="preserve">
<style type="text/css">
	.st0{fill:#555556;}
	.st1{fill:#565555;}
	.st2{fill:#F39800;}
</style>
<g>
	<g>
		<rect x="224.8" y="33.8" class="st0" width="21.6" height="106.9"/>
		<rect x="224.8" class="st0" width="21.6" height="23.6"/>
	</g>
	<g>
		<rect x="444.8" y="33.8" class="st0" width="21.7" height="106.9"/>
		<rect x="444.8" class="st0" width="21.7" height="23.6"/>
	</g>
	<g id="XMLID_400_">
		<path id="XMLID_401_" class="st0" d="M194.6,49.4c-20.9-20.9-54.7-20.9-75.6,0s-20.9,54.7,0,75.6c20.9,20.9,54.7,20.9,75.6,0
			S215.5,70.3,194.6,49.4z M134.4,109.7c-12.4-12.4-12.4-32.5,0-45c12.4-12.4,32.5-12.4,45,0c12.4,12.4,12.4,32.5,0,45
			C166.9,122.1,146.8,122.1,134.4,109.7z"/>
	</g>
	<path class="st0" d="M306.5,37.1c-8.8,0-17.1,2.5-24,6.8V33.8h-21.6v106.9h21.6V82.7c0-13.3,10.8-24,24-24c13.3,0,24,10.8,24,24h0
		v57.9h21.6V82.7h0C352.2,57.5,331.7,37.1,306.5,37.1z"/>
	<path class="st0" d="M608.5,75.1c0-20.6-16.7-37.3-37.3-37.3c-10.3,0-19.7,4.2-26.5,11c-6.8-6.8-16.1-11-26.5-11
		c-5.6,0-10.9,1.2-15.6,3.4v-7H481v106.9h21.6V75.1c0-8.6,7-15.6,15.6-15.6c8.6,0,15.6,7,15.6,15.6h0v66h21.6v-66h0
		c0-8.6,7-15.6,15.6-15.6c8.6,0,15.6,7,15.6,15.6h0v66h21.6L608.5,75.1L608.5,75.1z"/>
	<path class="st0" d="M729.2,95.7c2.4-16.2-2.6-33.3-15-45.8c-20.9-20.9-54.7-20.9-75.6,0c-20.9,20.9-20.9,54.7,0,75.6
		c20.9,20.9,54.7,20.9,75.6,0c5.6-5.6,9.6-12,12.2-18.9h-24.4c-0.9,1.3-1.9,2.5-3.1,3.6c-12.4,12.4-32.5,12.4-45,0
		c-4.2-4.2-6.9-9.2-8.3-14.5h61.5c0,0,0,0,0,0H729.2z M698.9,65.2c4.1,4.1,6.8,9,8.2,14.1h-61.3c1.4-5.2,4.1-10.1,8.2-14.1
		C666.3,52.8,686.4,52.8,698.9,65.2z"/>
	<g>
		<g id="XMLID_412_">
			<path id="XMLID_415_" class="st1" d="M404.3,0v116.9h-21.6V0H404.3z"/>
			<path id="XMLID_413_" class="st2" d="M357.8,34.3h71.4V56h-71.4V34.3z"/>
		</g>
		<rect x="409.1" y="118.9" class="st1" width="20.1" height="21.7"/>
		<path class="st1" d="M382.7,114.9c0,0-2.3,25.7,27.1,25.7l3.5-21.7c0,0-8.9,0.3-8.9-8.2L382.7,114.9z"/>
	</g>
	<path class="st0" d="M80.2,99.4c-1.2,1.9-2.6,3.6-4.2,5.3c-12.4,12.4-32.5,12.4-45,0c-12.4-12.4-12.4-32.5,0-45s32.5-12.4,45,0
		c1.6,1.6,3,3.4,4.2,5.3l16.3-14.5c-1.6-2.1-3.3-4.2-5.3-6.1c-20.9-20.9-54.7-20.9-75.6,0c-20.9,20.9-20.9,54.7,0,75.6
		c20.9,20.9,54.7,20.9,75.6,0c1.9-1.9,3.7-4,5.3-6.1L80.2,99.4z"/>
</g>
</svg>
