<?xml version="1.0" encoding="utf-8"?>
<!-- Generator: Adobe Illustrator 22.1.0, SVG Export Plug-In . SVG Version: 6.00 Build 0)  -->
<svg version="1.1" id="레이어_1" xmlns="http://www.w3.org/2000/svg" xmlns:xlink="http://www.w3.org/1999/xlink" x="0px"
	 y="0px" viewBox="0 0 697 331" style="enable-background:new 0 0 697 331;" xml:space="preserve">
<style type="text/css">
	.st0{fill:#0032D3;}
	.st1{fill:#BCFFFF;}
	.st2{fill:#006FE4;}
	.st3{fill:#FFFFFF;}
</style>
<g>
	<g id="XMLID_123_">
		<path id="XMLID_138_" class="st0" d="M138.6,323.3c17.3,12.2,41.4,10.8,57.1-4.5l46.3-45l-96.8,47
			C143,321.8,140.8,322.6,138.6,323.3z"/>
		<path id="XMLID_136_" class="st0" d="M8.4,138.2c-12.2,17.3-10.8,41.4,4.5,57.1l45,46.3l-47-96.8C9.9,142.6,9,140.4,8.4,138.2z"/>
		<path id="XMLID_134_" class="st0" d="M193.5,8c-17.3-12.2-41.4-10.8-57.1,4.5l-46.3,45l96.8-47C189.1,9.5,191.3,8.6,193.5,8z"/>
		<path id="XMLID_132_" class="st0" d="M323.7,193.1c12.2-17.3,10.8-41.4-4.5-57.1l-45-46.3l47,96.8
			C322.2,188.7,323,190.9,323.7,193.1z"/>
		<path id="XMLID_131_" class="st1" d="M274.2,89.7l-28.6-58.9C236.1,11.3,213.7,1.9,193.5,8c2.2,1.6,4.3,3.3,6.3,5.3L274.2,89.7z"
			/>
		<path id="XMLID_130_" class="st1" d="M90.1,57.5L31.3,86.1C11.7,95.6,2.3,118,8.4,138.2c1.6-2.2,3.3-4.3,5.3-6.3L90.1,57.5z"/>
		<path id="XMLID_129_" class="st1" d="M323.7,193.1c-1.6,2.2-3.3,4.3-5.3,6.3l-76.4,74.4l58.9-28.6
			C320.4,235.7,329.7,213.3,323.7,193.1z"/>
		<path id="XMLID_128_" class="st1" d="M57.9,241.5l28.6,58.9c9.5,19.6,31.9,28.9,52.1,22.9c-2.2-1.6-4.3-3.3-6.3-5.3L57.9,241.5z"
			/>
		<path id="XMLID_126_" class="st0" d="M323.7,193.1c-0.7-2.2-1.5-4.4-2.6-6.6l-47-96.8l-74.4-76.4c-2-2-4.1-3.8-6.3-5.3
			c-2.2,0.7-4.4,1.5-6.6,2.6l-96.8,47l-76.4,74.4c-2,2-3.8,4.1-5.3,6.3c0.7,2.2,1.5,4.4,2.6,6.6l47,96.8l74.4,76.4
			c2,2,4.1,3.8,6.3,5.3c2.2-0.7,4.4-1.5,6.6-2.6l96.8-47l76.4-74.4C320.4,197.4,322.1,195.3,323.7,193.1z"/>
		<path id="XMLID_124_" class="st2" d="M323.7,193.1c-0.7-2.2-1.5-4.4-2.6-6.6l-47-96.8l-74.4-76.4c-2-2-4.1-3.8-6.3-5.3
			c-2.2,0.7-4.4,1.5-6.6,2.6l-96.8,47l-76.4,74.4c-2,2-3.8,4.1-5.3,6.3c0.7,2.2,1.5,4.4,2.6,6.6l47,96.8l74.4,76.4
			c2,2,4.1,3.8,6.3,5.3c2.2-0.7,4.4-1.5,6.6-2.6l96.8-47l76.4-74.4C320.4,197.4,322.1,195.3,323.7,193.1z"/>
	</g>
	<path id="XMLID_122_" class="st3" d="M200.9,214.5h-69.8v-97.7h69.8v24.4l28.5-15.9v-10.2c0-14.8-12.1-26.9-26.9-26.9h-73
		c-14.8,0-26.9,12.1-26.9,26.9v101.2c0,14.8,12.1,26.9,26.9,26.9h73c14.8,0,26.9-12.1,26.9-26.9v-73.3l-28.5,15.9V214.5z"/>
	<g>
		<path class="st0" d="M375,197.8v-11.3h28.7v-16.1l12.3-3.3v19.4h29.8v11.3H375z M383,145.4h42.1v-11.8c0-4.1-2.6-5.6-7.8-5.6
			h-31.1l-3.3-11.3h41.9c10.7,0,15.8,4,15.8,12.2v49.3h-15.5v-21.6h-38.8L383,145.4z"/>
		<path class="st0" d="M452.5,133.5c0-11.2,9.4-17.9,23-17.9c13.6,0,23,6.7,23,17.9v12.6c0,11.2-9.4,18.1-23,18.1
			c-13.6,0-23-6.9-23-18.1V133.5z M477.2,197.8c-11,0-16.9-3.9-16.9-12.2v-13l15.5-3.3V183c0,3.2,1.5,4,5.4,4h26.2v-67.6l14.8-3.3
			v81.7H477.2z M468.1,146.2c0,5.2,3.8,6.9,7.3,6.9c3.7,0,7.3-1.8,7.3-6.9v-12.7c0-5.1-3.8-6.9-7.3-6.9c-3.5,0-7.3,1.9-7.3,6.9
			V146.2z"/>
		<path class="st0" d="M592.5,197.8h-13.9v-36.4h-6.3v23.9c0,8.7-4.1,11.6-14.1,11.6h-9.5c-10.1,0-14.1-2.9-14.1-11.6v-65.9
			l15.5-3.3V149h6.8v-29.6l15.5-3.3v34h6.3v-30.7l13.9-3.3V197.8z M556.9,159.9h-6.8v23.1c0,2.8,0.8,3.1,2.9,3.1h1.1
			c2.2,0,2.9-0.3,2.9-3.1V159.9z M611.2,116.1v81.7H597v-78.4L611.2,116.1z"/>
		<path class="st0" d="M642.2,197c-13.6,0-18.8-4.1-18.8-15.4v-62.1l15.5-3.3v64.4c0,4,2.2,5.1,6.3,5.1h13.1V197H642.2z
			 M650.2,148.7h12v-29.3l15-3.3v81.7h-15v-37.8h-8.6L650.2,148.7z M697.3,116.1v81.7h-15v-78.4L697.3,116.1z"/>
	</g>
	<g>
		<path class="st0" d="M438.1,238.4l3.1,0.8c-0.7,2.6-1.8,4.6-3.6,5.9c-1.7,1.4-3.8,2-6.3,2c-2.6,0-4.7-0.5-6.3-1.6
			c-1.6-1-2.8-2.6-3.7-4.5c-0.8-2-1.3-4.1-1.3-6.4c0-2.5,0.5-4.6,1.4-6.5c0.9-1.8,2.3-3.2,4-4.2c1.7-1,3.7-1.4,5.8-1.4
			c2.4,0,4.4,0.6,6,1.8c1.6,1.2,2.8,2.9,3.4,5.1l-3.1,0.7c-0.6-1.7-1.4-3-2.4-3.8c-1-0.8-2.4-1.2-4-1.2c-1.8,0-3.4,0.4-4.6,1.3
			c-1.2,0.9-2.1,2.1-2.6,3.5c-0.5,1.5-0.7,3-0.7,4.6c0,2,0.3,3.8,0.9,5.3c0.6,1.5,1.5,2.6,2.8,3.4c1.2,0.7,2.6,1.1,4,1.1
			c1.8,0,3.3-0.5,4.5-1.5C436.8,241.9,437.7,240.4,438.1,238.4z"/>
		<path class="st0" d="M443,238.1c0-3.2,0.9-5.6,2.7-7.1c1.5-1.3,3.3-1.9,5.4-1.9c2.4,0,4.3,0.8,5.8,2.3c1.5,1.6,2.3,3.7,2.3,6.4
			c0,2.2-0.3,4-1,5.2c-0.7,1.3-1.6,2.3-2.9,3c-1.3,0.7-2.7,1.1-4.2,1.1c-2.4,0-4.4-0.8-5.9-2.3C443.8,243.3,443,241,443,238.1z
			 M446,238.1c0,2.2,0.5,3.9,1.4,5c1,1.1,2.2,1.6,3.6,1.6c1.5,0,2.7-0.6,3.6-1.7c1-1.1,1.4-2.8,1.4-5c0-2.1-0.5-3.7-1.5-4.8
			c-1-1.1-2.2-1.6-3.6-1.6c-1.5,0-2.7,0.5-3.6,1.6C446.5,234.3,446,235.9,446,238.1z"/>
		<path class="st0" d="M462,226.3v-3.4h2.9v3.4H462z M462,246.7v-17.2h2.9v17.2H462z"/>
		<path class="st0" d="M468.7,246.7v-17.2h2.6v2.5c1.3-1.9,3.1-2.8,5.5-2.8c1,0,2,0.2,2.9,0.6c0.9,0.4,1.5,0.9,2,1.5
			c0.4,0.6,0.7,1.3,0.9,2.2c0.1,0.5,0.2,1.5,0.2,2.8v10.6h-2.9v-10.5c0-1.2-0.1-2.1-0.3-2.7c-0.2-0.6-0.6-1.1-1.2-1.4
			c-0.6-0.4-1.3-0.5-2-0.5c-1.2,0-2.3,0.4-3.2,1.2c-0.9,0.8-1.4,2.3-1.4,4.5v9.4H468.7z"/>
		<path class="st0" d="M486.8,246.7v-23.8h8.9c1.8,0,3.3,0.2,4.4,0.7c1.1,0.5,2,1.2,2.6,2.2c0.6,1,0.9,2,0.9,3.1c0,1-0.3,2-0.8,2.9
			c-0.6,0.9-1.4,1.6-2.5,2.2c1.4,0.4,2.5,1.1,3.3,2.2c0.8,1,1.2,2.2,1.2,3.6c0,1.1-0.2,2.2-0.7,3.1c-0.5,1-1.1,1.7-1.7,2.2
			c-0.7,0.5-1.6,0.9-2.6,1.2c-1,0.3-2.3,0.4-3.8,0.4H486.8z M490,232.9h5.1c1.4,0,2.4-0.1,3-0.3c0.8-0.2,1.4-0.6,1.8-1.2
			c0.4-0.6,0.6-1.2,0.6-2.1c0-0.8-0.2-1.5-0.6-2.1c-0.4-0.6-0.9-1-1.6-1.2c-0.7-0.2-1.9-0.3-3.6-0.3H490V232.9z M490,243.9h5.9
			c1,0,1.7,0,2.1-0.1c0.7-0.1,1.3-0.3,1.8-0.6c0.5-0.3,0.9-0.7,1.2-1.3c0.3-0.6,0.5-1.2,0.5-2c0-0.9-0.2-1.7-0.7-2.3
			c-0.5-0.7-1.1-1.1-1.9-1.4c-0.8-0.3-2-0.4-3.5-0.4H490V243.9z"/>
		<path class="st0" d="M519.9,241.2l3,0.4c-0.5,1.8-1.4,3.1-2.6,4.1c-1.3,1-2.9,1.5-4.9,1.5c-2.5,0-4.5-0.8-6-2.3
			c-1.5-1.6-2.2-3.7-2.2-6.5c0-2.9,0.7-5.2,2.2-6.8c1.5-1.6,3.4-2.4,5.8-2.4c2.3,0,4.2,0.8,5.6,2.4c1.5,1.6,2.2,3.8,2.2,6.6
			c0,0.2,0,0.4,0,0.8h-12.9c0.1,1.9,0.6,3.3,1.6,4.3c1,1,2.2,1.5,3.6,1.5c1.1,0,2-0.3,2.7-0.8C518.9,243.3,519.5,242.4,519.9,241.2z
			 M510.3,236.5h9.6c-0.1-1.5-0.5-2.5-1.1-3.3c-0.9-1.1-2.1-1.7-3.6-1.7c-1.3,0-2.5,0.4-3.4,1.3C511,233.8,510.4,235,510.3,236.5z"
			/>
		<path class="st0" d="M526,246.7v-17.2h2.6v2.5c1.3-1.9,3.1-2.8,5.5-2.8c1,0,2,0.2,2.9,0.6c0.9,0.4,1.5,0.9,2,1.5
			c0.4,0.6,0.7,1.3,0.9,2.2c0.1,0.5,0.2,1.5,0.2,2.8v10.6h-2.9v-10.5c0-1.2-0.1-2.1-0.3-2.7c-0.2-0.6-0.6-1.1-1.2-1.4
			c-0.6-0.4-1.3-0.5-2-0.5c-1.2,0-2.3,0.4-3.2,1.2c-0.9,0.8-1.4,2.3-1.4,4.5v9.4H526z"/>
		<path class="st0" d="M555.7,241.2l3,0.4c-0.5,1.8-1.4,3.1-2.6,4.1c-1.3,1-2.9,1.5-4.9,1.5c-2.5,0-4.5-0.8-6-2.3
			c-1.5-1.6-2.2-3.7-2.2-6.5c0-2.9,0.7-5.2,2.2-6.8c1.5-1.6,3.4-2.4,5.8-2.4c2.3,0,4.2,0.8,5.6,2.4c1.5,1.6,2.2,3.8,2.2,6.6
			c0,0.2,0,0.4,0,0.8h-12.9c0.1,1.9,0.6,3.3,1.6,4.3c1,1,2.2,1.5,3.6,1.5c1.1,0,2-0.3,2.7-0.8C554.6,243.3,555.2,242.4,555.7,241.2z
			 M546.1,236.5h9.6c-0.1-1.5-0.5-2.5-1.1-3.3c-0.9-1.1-2.1-1.7-3.6-1.7c-1.3,0-2.5,0.4-3.4,1.3C546.7,233.8,546.2,235,546.1,236.5z
			"/>
		<path class="st0" d="M570.6,246.7v-23.8h3.1v11.8l11.8-11.8h4.3l-10,9.6l10.4,14.2h-4.2l-8.5-12l-3.9,3.8v8.2H570.6z"/>
		<path class="st0" d="M590.8,238.1c0-3.2,0.9-5.6,2.7-7.1c1.5-1.3,3.3-1.9,5.4-1.9c2.4,0,4.3,0.8,5.8,2.3c1.5,1.6,2.3,3.7,2.3,6.4
			c0,2.2-0.3,4-1,5.2c-0.7,1.3-1.6,2.3-2.9,3c-1.3,0.7-2.7,1.1-4.2,1.1c-2.4,0-4.4-0.8-5.9-2.3C591.5,243.3,590.8,241,590.8,238.1z
			 M593.8,238.1c0,2.2,0.5,3.9,1.4,5c1,1.1,2.2,1.6,3.6,1.6c1.5,0,2.7-0.6,3.6-1.7c1-1.1,1.4-2.8,1.4-5c0-2.1-0.5-3.7-1.5-4.8
			c-1-1.1-2.2-1.6-3.6-1.6c-1.5,0-2.7,0.5-3.6,1.6C594.3,234.3,593.8,235.9,593.8,238.1z"/>
		<path class="st0" d="M609.7,246.7v-17.2h2.6v2.6c0.7-1.2,1.3-2,1.9-2.4c0.6-0.4,1.2-0.6,1.9-0.6c1,0,2,0.3,3,0.9l-1,2.7
			c-0.7-0.4-1.4-0.6-2.1-0.6c-0.6,0-1.2,0.2-1.7,0.6c-0.5,0.4-0.9,0.9-1.1,1.6c-0.3,1-0.5,2.2-0.5,3.4v9H609.7z"/>
		<path class="st0" d="M632,241.2l3,0.4c-0.5,1.8-1.4,3.1-2.6,4.1c-1.3,1-2.9,1.5-4.9,1.5c-2.5,0-4.5-0.8-6-2.3
			c-1.5-1.6-2.2-3.7-2.2-6.5c0-2.9,0.7-5.2,2.2-6.8c1.5-1.6,3.4-2.4,5.8-2.4c2.3,0,4.2,0.8,5.6,2.4c1.5,1.6,2.2,3.8,2.2,6.6
			c0,0.2,0,0.4,0,0.8h-12.9c0.1,1.9,0.6,3.3,1.6,4.3c1,1,2.2,1.5,3.6,1.5c1.1,0,2-0.3,2.7-0.8C630.9,243.3,631.5,242.4,632,241.2z
			 M622.4,236.5h9.6c-0.1-1.5-0.5-2.5-1.1-3.3c-0.9-1.1-2.1-1.7-3.6-1.7c-1.3,0-2.5,0.4-3.4,1.3C623,233.8,622.5,235,622.4,236.5z"
			/>
		<path class="st0" d="M649.3,244.6c-1.1,0.9-2.1,1.6-3.1,1.9c-1,0.4-2.1,0.6-3.2,0.6c-1.9,0-3.3-0.5-4.4-1.4
			c-1-0.9-1.5-2.1-1.5-3.5c0-0.8,0.2-1.6,0.6-2.3c0.4-0.7,0.9-1.3,1.5-1.7c0.6-0.4,1.3-0.7,2.1-1c0.6-0.2,1.4-0.3,2.6-0.4
			c2.4-0.3,4.1-0.6,5.2-1c0-0.4,0-0.7,0-0.8c0-1.2-0.3-2-0.8-2.5c-0.7-0.7-1.9-1-3.3-1c-1.4,0-2.4,0.2-3,0.7
			c-0.7,0.5-1.1,1.3-1.5,2.6l-2.9-0.4c0.3-1.2,0.7-2.2,1.3-3c0.6-0.8,1.5-1.3,2.6-1.7c1.1-0.4,2.4-0.6,3.9-0.6
			c1.5,0,2.7,0.2,3.6,0.5c0.9,0.3,1.6,0.8,2,1.3c0.4,0.5,0.7,1.2,0.9,2c0.1,0.5,0.1,1.4,0.1,2.7v3.9c0,2.7,0.1,4.4,0.2,5.2
			c0.1,0.7,0.4,1.4,0.7,2.1h-3.1C649.5,246.1,649.3,245.4,649.3,244.6z M649,238.1c-1.1,0.4-2.7,0.8-4.8,1.1
			c-1.2,0.2-2.1,0.4-2.5,0.6c-0.5,0.2-0.9,0.5-1.2,1c-0.3,0.4-0.4,0.9-0.4,1.4c0,0.8,0.3,1.4,0.9,1.9c0.6,0.5,1.5,0.8,2.6,0.8
			c1.1,0,2.1-0.2,3-0.7c0.9-0.5,1.5-1.2,1.9-2c0.3-0.7,0.5-1.6,0.5-2.9V238.1z"/>
	</g>
</g>
</svg>
