<?xml version="1.0" encoding="utf-8"?>
<!-- Generator: Adobe Illustrator 22.1.0, SVG Export Plug-In . SVG Version: 6.00 Build 0)  -->
<svg version="1.1" id="레이어_1" xmlns="http://www.w3.org/2000/svg" xmlns:xlink="http://www.w3.org/1999/xlink" x="0px"
	 y="0px" viewBox="0 0 349 55.8" style="enable-background:new 0 0 349 55.8;" xml:space="preserve">
<style type="text/css">
	.st0{fill:#0C419A;}
	.st1{fill:#42A6CC;}
	.st2{fill:#FFFFFF;}
</style>
<path class="st0" d="M51.6,55.8H28.1c-8.7,0-15.6-2.5-20.6-7.6S0,36.4,0,28.2c0-8,2.4-14.6,7.1-19.9c5.1-5.6,12.1-8.4,21.1-8.4h23.4
	v13H30.4c-4,0-7.3,1.6-10.1,4.8c-2.8,3.2-4.2,6.8-4.2,10.9c0,4.2,1.3,7.8,4,10.8c2.7,3,6,4.5,9.9,4.5h21.7V55.8z"/>
<path class="st0" d="M216.5,55.8h-23.5c-8.7,0-15.6-2.5-20.6-7.6c-5-5.1-7.5-11.8-7.5-20.1c0-8,2.4-14.6,7.1-19.9
	c5.1-5.6,12.1-8.4,21.1-8.4h23.4v13h-21.3c-4,0-7.3,1.6-10.1,4.8c-2.8,3.2-4.2,6.8-4.2,10.9c0,4.2,1.3,7.8,4,10.8
	c2.7,3,6,4.5,9.9,4.5h21.7V55.8z"/>
<path class="st0" d="M288.4,27.7c0,9.7-3.1,17.2-9.3,22.4c-5.7,4.8-13.4,7.1-23.2,7.1c-9.8,0-17.4-2.2-22.8-6.5
	c-6.3-5-9.4-12.7-9.4-23.3c0-8.8,3.4-15.7,10.2-20.8c6.1-4.5,13.5-6.8,22.4-6.8c9.7,0,17.5,2.4,23.4,7.3
	C285.4,12,288.4,18.9,288.4,27.7z M271.6,27.5c0-4.6-1.4-8.4-4.3-11.5c-2.8-3.1-6.7-4.6-11.6-4.6c-4.5,0-8.2,1.6-11.1,4.7
	c-2.9,3.1-4.4,7.1-4.4,11.9c0,5.5,1.5,9.9,4.4,13.1c3,3.3,6.8,4.9,11.5,4.9c5.3,0,9.3-1.7,11.9-5.1
	C270.4,37.9,271.6,33.4,271.6,27.5z"/>
<path class="st0" d="M349,55.8h-15V18.9c0-0.9-0.2-1.8-0.6-2.5c-0.4-0.8-1-1.5-1.8-2.2c-1.4-1.2-3.1-1.8-5-1.8h-14.7v43.5h-15v-56
	h28.7c5.1,0,8.8,0.3,11.1,0.9c3.6,0.9,6.5,2.8,8.6,5.7c2.4,3.5,3.7,7.2,3.7,11.4V55.8z"/>
<path class="st1" d="M128.6-0.6c-15.7,0.2-28.5,13.1-28.4,28.9c-0.4,7-6.2,12.5-13.2,12.6c-7.4,0.1-13.4-5.9-13.5-13.2
	c-0.1-7.4,5.9-13.4,13.2-13.5c5.1-0.1,9.8,2.9,12.1,7.5c1.2-5.5,3.9-10.6,7.8-14.8c-5.4-5.2-12.5-8-20-7.9C70.8-1,58.1,12,58.3,27.7
	c0.2,15.8,13.1,28.5,28.9,28.3c15.5-0.2,27.9-12.5,28.3-28c-0.1-7.4,5.9-13.4,13.3-13.5c7.4-0.1,13.4,5.9,13.5,13.2
	c0.1,7.4-5.9,13.4-13.2,13.5c-5.2,0.1-9.8-2.9-12.1-7.5c-1.2,5.6-3.9,10.7-7.8,14.8c5.4,5.2,12.5,8,20.1,7.9
	c15.8-0.2,28.5-13.1,28.3-28.9C157.4,11.9,144.4-0.8,128.6-0.6z"/>
<path class="st2" d="M128.7-0.8c-15.9,0.1-28.7,13.2-28.6,29.1h0c-0.4,6.8-6.1,12.3-13,12.3c-7.3,0.1-13.2-5.8-13.3-13
	c-0.1-7.3,5.8-13.2,13-13.3c5.4,0,10.1,3.2,12.1,7.8c1.2-5.9,4-11.2,8.1-15.3c-5.3-5.1-12.4-8.2-20.3-8.2
	C70.7-1.3,57.9,11.7,58.1,27.7c0.1,15.9,13.2,28.7,29.1,28.6c15.6-0.1,28.2-12.7,28.6-28.2c0-7.3,5.8-13.2,13.1-13.2
	c7.3-0.1,13.2,5.8,13.3,13c0.1,7.3-5.8,13.2-13,13.3c-5.4,0-10.1-3.2-12.2-7.9c-1.2,5.9-4,11.2-8.1,15.4c5.3,5.1,12.5,8.2,20.4,8.2
	c15.9-0.1,28.7-13.2,28.6-29.1C157.7,11.8,144.6-1,128.7-0.8z M129.2,56.7c-7.5,0.1-14.6-2.8-20-8c3.9-4.1,6.6-9.2,7.8-14.8
	c2.3,4.6,6.9,7.6,12.1,7.6c7.4-0.1,13.3-6.1,13.3-13.5c-0.1-7.4-6.1-13.3-13.5-13.3c-7.4,0.1-13.4,6.1-13.3,13.5
	c-0.4,15.5-12.8,27.8-28.3,27.9c-15.8,0.1-28.7-12.6-28.9-28.4C58.2,11.9,70.9-1.1,86.7-1.2c7.5-0.1,14.6,2.8,20,8
	c-4,4.1-6.6,9.2-7.8,14.8C96.6,16.9,92,14,86.8,14c-7.4,0.1-13.3,6.1-13.3,13.5c0.1,7.4,6.1,13.3,13.5,13.3
	c7-0.1,12.8-5.6,13.2-12.5C100.2,12.5,113-0.5,128.7-0.6c15.8-0.1,28.7,12.6,28.9,28.4C157.7,43.6,145,56.5,129.2,56.7z"/>
</svg>
