<?xml version="1.0" encoding="utf-8"?>
<!-- Generator: Adobe Illustrator 22.1.0, SVG Export Plug-In . SVG Version: 6.00 Build 0)  -->
<svg version="1.1" id="레이어_1" xmlns="http://www.w3.org/2000/svg" xmlns:xlink="http://www.w3.org/1999/xlink" x="0px"
	 y="0px" viewBox="0 0 640.7 121" style="enable-background:new 0 0 640.7 121;" xml:space="preserve">
<style type="text/css">
	.st0{fill:url(#SVGID_1_);}
	.st1{fill:#FFFFFF;}
</style>
<g>
	<g>
		<g>
			<path d="M169.3,84.1c-3.6,0-6.9-0.7-9.9-1.9c-3-1.3-5.6-3.1-7.8-5.3c-2.2-2.2-4-4.9-5.2-8c-1.3-3.1-1.9-6.3-1.9-9.8V59
				c0-3.5,0.6-6.7,1.9-9.8c1.2-3,3-5.7,5.2-8c2.2-2.3,4.9-4.1,7.9-5.4c3.1-1.3,6.4-2,10.2-2c2.2,0,4.3,0.2,6.1,0.6
				c1.8,0.4,3.5,0.9,5,1.6c1.5,0.7,2.9,1.5,4.2,2.4c1.3,0.9,2.5,1.9,3.7,3.1l-5.5,6.3c-1.9-1.8-4-3.3-6.2-4.4
				c-2.2-1.1-4.7-1.7-7.4-1.7c-2.3,0-4.5,0.5-6.4,1.4c-2,0.9-3.7,2.1-5.1,3.7c-1.4,1.6-2.5,3.4-3.3,5.5c-0.8,2.1-1.2,4.3-1.2,6.7V59
				c0,2.4,0.4,4.6,1.2,6.7c0.8,2.1,1.9,4,3.3,5.5c1.4,1.6,3.1,2.8,5.1,3.7c2,0.9,4.1,1.4,6.4,1.4c3,0,5.5-0.6,7.7-1.7
				c2.1-1.1,4.2-2.7,6.3-4.6l5.5,5.6c-1.3,1.3-2.6,2.5-3.9,3.6c-1.4,1-2.8,1.9-4.4,2.7c-1.6,0.8-3.3,1.3-5.2,1.7
				C173.6,84,171.5,84.1,169.3,84.1z"/>
			<path d="M221.1,84.1c-3.8,0-7.2-0.7-10.3-2c-3.1-1.3-5.8-3.1-8-5.4c-2.2-2.3-4-4.9-5.2-8c-1.3-3-1.9-6.3-1.9-9.7V59
				c0-3.4,0.6-6.7,1.9-9.7c1.3-3,3-5.7,5.3-8c2.3-2.3,5-4.1,8.1-5.5c3.1-1.3,6.5-2,10.3-2s7.2,0.7,10.3,2c3.1,1.3,5.8,3.1,8,5.4
				c2.2,2.3,4,4.9,5.2,8c1.3,3,1.9,6.3,1.9,9.7V59c0,3.4-0.6,6.7-1.9,9.7c-1.3,3-3,5.7-5.3,8c-2.3,2.3-5,4.1-8.1,5.5
				C228.3,83.5,224.9,84.1,221.1,84.1z M221.3,76.3c2.4,0,4.6-0.5,6.6-1.4c2-0.9,3.7-2.1,5.2-3.7c1.4-1.6,2.6-3.4,3.4-5.5
				c0.8-2.1,1.2-4.3,1.2-6.7V59c0-2.4-0.4-4.6-1.2-6.7c-0.8-2.1-1.9-3.9-3.4-5.5c-1.5-1.6-3.2-2.8-5.2-3.7c-2-0.9-4.2-1.4-6.6-1.4
				c-2.4,0-4.6,0.5-6.6,1.4c-2,0.9-3.7,2.1-5.2,3.7c-1.4,1.6-2.6,3.4-3.4,5.5c-0.8,2.1-1.2,4.3-1.2,6.7V59c0,2.4,0.4,4.6,1.2,6.7
				c0.8,2.1,1.9,3.9,3.4,5.5c1.5,1.6,3.2,2.8,5.2,3.7C216.7,75.8,218.9,76.3,221.3,76.3z"/>
			<path d="M274.1,84c-3.8,0-7.3-0.6-10.8-1.9c-3.4-1.3-6.6-3.2-9.5-5.9l5.1-6.1c2.4,2,4.8,3.6,7.2,4.7c2.4,1.1,5.1,1.6,8.2,1.6
				c2.6,0,4.7-0.6,6.3-1.7c1.6-1.1,2.3-2.6,2.3-4.5v-0.1c0-0.9-0.2-1.7-0.5-2.3c-0.3-0.7-0.9-1.3-1.7-1.9c-0.8-0.6-1.9-1.2-3.3-1.7
				c-1.4-0.5-3.3-1-5.5-1.5c-2.6-0.6-4.9-1.3-6.9-2.1c-2-0.8-3.7-1.7-5.1-2.8c-1.4-1.1-2.4-2.4-3.1-4c-0.7-1.6-1.1-3.5-1.1-5.7v-0.1
				c0-2.1,0.4-4,1.2-5.7c0.8-1.7,2-3.2,3.4-4.5c1.4-1.2,3.2-2.2,5.2-2.9c2-0.7,4.3-1,6.7-1c3.6,0,6.8,0.5,9.6,1.6
				c2.9,1,5.5,2.6,8,4.6l-4.6,6.5c-2.2-1.6-4.4-2.9-6.6-3.7c-2.2-0.9-4.4-1.3-6.6-1.3c-2.5,0-4.5,0.6-5.8,1.7
				c-1.4,1.1-2.1,2.5-2.1,4.1v0.1c0,0.9,0.2,1.8,0.5,2.5c0.3,0.7,0.9,1.4,1.8,1.9c0.9,0.6,2,1.1,3.6,1.6c1.5,0.5,3.4,1,5.8,1.6
				c2.6,0.7,4.8,1.4,6.8,2.2c2,0.8,3.6,1.8,4.9,2.9c1.3,1.1,2.3,2.5,3,4c0.7,1.5,1,3.3,1,5.3v0.1c0,2.3-0.4,4.3-1.3,6.1
				c-0.9,1.8-2,3.3-3.6,4.6c-1.5,1.3-3.3,2.2-5.5,2.9C279,83.7,276.7,84,274.1,84z"/>
			<path d="M301.5,34.6h9.1l14.8,23l14.8-23h9.1v48.7h-8.5V48.4l-15.4,23h-0.3L310,48.5v34.8h-8.5V34.6z"/>
			<path d="M385.1,84.1c-3.8,0-7.2-0.7-10.3-2c-3.1-1.3-5.8-3.1-8-5.4c-2.2-2.3-4-4.9-5.2-8c-1.3-3-1.9-6.3-1.9-9.7V59
				c0-3.4,0.6-6.7,1.9-9.7c1.3-3,3-5.7,5.3-8c2.3-2.3,5-4.1,8.1-5.5c3.1-1.3,6.5-2,10.3-2c3.8,0,7.2,0.7,10.3,2
				c3.1,1.3,5.8,3.1,8,5.4c2.2,2.3,4,4.9,5.2,8c1.3,3,1.9,6.3,1.9,9.7V59c0,3.4-0.6,6.7-1.9,9.7c-1.3,3-3,5.7-5.3,8
				c-2.3,2.3-5,4.1-8.1,5.5C392.3,83.5,388.9,84.1,385.1,84.1z M385.3,76.3c2.4,0,4.6-0.5,6.6-1.4c2-0.9,3.7-2.1,5.2-3.7
				c1.4-1.6,2.6-3.4,3.4-5.5s1.2-4.3,1.2-6.7V59c0-2.4-0.4-4.6-1.2-6.7c-0.8-2.1-1.9-3.9-3.4-5.5c-1.5-1.6-3.2-2.8-5.2-3.7
				c-2-0.9-4.2-1.4-6.6-1.4c-2.4,0-4.6,0.5-6.6,1.4c-2,0.9-3.7,2.1-5.2,3.7c-1.4,1.6-2.6,3.4-3.4,5.5c-0.8,2.1-1.2,4.3-1.2,6.7V59
				c0,2.4,0.4,4.6,1.2,6.7c0.8,2.1,1.9,3.9,3.4,5.5c1.5,1.6,3.2,2.8,5.2,3.7C380.7,75.8,382.9,76.3,385.3,76.3z"/>
			<path d="M444,84.1c-3.5,0-6.7-0.7-9.7-1.9c-3-1.3-5.5-3.1-7.7-5.3c-2.2-2.2-3.8-4.9-5-8c-1.2-3.1-1.8-6.3-1.8-9.8V59
				c0-3.4,0.6-6.7,1.8-9.7c1.2-3.1,2.9-5.7,5.1-8c2.2-2.3,4.7-4.1,7.7-5.4c3-1.3,6.2-2,9.7-2c2.2,0,4.2,0.2,5.9,0.6
				c1.8,0.4,3.4,0.9,4.9,1.6c1.5,0.7,2.9,1.5,4.2,2.5c1.3,1,2.6,2,3.9,3.2l-2.6,2.6c-1.1-1-2.2-2-3.3-2.9c-1.2-0.9-2.4-1.6-3.7-2.3
				c-1.3-0.6-2.8-1.1-4.3-1.5c-1.6-0.4-3.2-0.6-5-0.6c-2.9,0-5.6,0.6-8.1,1.7c-2.5,1.1-4.7,2.7-6.5,4.6c-1.8,2-3.3,4.3-4.3,6.9
				c-1,2.6-1.6,5.5-1.6,8.6V59c0,3.1,0.5,5.9,1.6,8.6c1.1,2.7,2.5,5,4.3,7c1.8,2,4,3.5,6.5,4.7c2.5,1.1,5.2,1.7,8.1,1.7
				c3.5,0,6.6-0.6,9.2-1.9c2.6-1.3,5.1-3.2,7.6-5.6l2.4,2.4c-1.3,1.3-2.6,2.4-4,3.4c-1.4,1-2.8,1.9-4.4,2.7c-1.6,0.7-3.2,1.3-5,1.7
				C448.2,83.9,446.2,84.1,444,84.1z"/>
			<path d="M473.3,34.6h3.6v22.6h31.2V34.6h3.6v48.7h-3.6V60.5h-31.2v22.8h-3.6V34.6z"/>
			<path d="M544.7,34.3h3.5l22.7,49h-4l-6.2-13.6H532l-6.2,13.6H522L544.7,34.3z M559.2,66.4l-12.8-28.2l-12.9,28.2H559.2z"/>
			<path d="M581.6,34.6h3.6v48.7h-3.6V34.6z"/>
			<path d="M600.2,34.6h3.4L637.2,77V34.6h3.5v48.7H638l-34.3-43.3v43.3h-3.5V34.6z"/>
		</g>
	</g>
	<linearGradient id="SVGID_1_" gradientUnits="userSpaceOnUse" x1="2.2966" y1="76.1185" x2="117.0387" y2="43.2168">
		<stop  offset="0" style="stop-color:#FE94FF"/>
		<stop  offset="1" style="stop-color:#243991"/>
	</linearGradient>
	<circle class="st0" cx="59.7" cy="59.7" r="59.7"/>
	<g>
		<polygon class="st1" points="59.1,53.4 59.1,53.4 57.2,51 		"/>
		<path class="st1" d="M63.8,59.7L63.8,59.7l-4.7-6.3l0,0L57.2,51l-1.6-2.1l0,0L47,37.4l-0.4-0.5C44.3,34,43,30.4,43,26.7
			c0-8.9,7.2-16.1,16.1-16.1s16.1,7.2,16.1,16.1c0,2.7-0.7,5.4-2,7.8l-2.1,2.9l-7.3,9.7l4.7,6.3l8.7-11.5l2.3-3.2l0.2-0.3
			c2-3.5,3.1-7.6,3.1-11.7C82.8,13.7,72.1,3,59.1,3C46,3,35.4,13.7,35.4,26.7c0,5.5,1.9,10.8,5.4,15l13.5,17.9l0,0L59,66l0,0
			l11.4,15.2l0.5,0.7c2.9,3.9,4.2,7.2,4.2,10.8c0,8.9-7.2,16.1-16.1,16.1S43,101.5,43,92.6c0-2.3,0.5-4.5,1.4-6.6
			c0.4-0.7,1.4-2.6,2.2-3.5l7.7-10.2L49.6,66l-9,12c-1.3,1.7-2.7,4.3-2.9,4.6l-0.1,0.2c-1.4,3.1-2.1,6.4-2.1,9.8
			c0,13,10.6,23.7,23.7,23.7c13,0,23.7-10.6,23.7-23.7c0-5.3-1.8-10.2-5.7-15.2L63.8,59.7z"/>
		<polygon class="st1" points="55.7,48.9 57.2,51 55.7,48.9 		"/>
	</g>
</g>
</svg>
