<?xml version="1.0" encoding="utf-8"?>
<!-- Generator: Adobe Illustrator 22.1.0, SVG Export Plug-In . SVG Version: 6.00 Build 0)  -->
<svg version="1.1" id="레이어_1" xmlns="http://www.w3.org/2000/svg" xmlns:xlink="http://www.w3.org/1999/xlink" x="0px"
	 y="0px" viewBox="0 0 371.1 75.7" style="enable-background:new 0 0 371.1 75.7;" xml:space="preserve">
<style type="text/css">
	.st0{fill:#8BC541;}
	.st1{fill:#221E1F;}
	.st2{fill:#FFFFFF;}
	.st3{fill:#403F41;}
	.st4{fill:#211D1E;}
</style>
<g>
	<path class="st0" d="M365.8,23.4c-2.9,0-5.3-2.4-5.3-5.3c0-2.9,2.4-5.3,5.3-5.3c2.9,0,5.3,2.4,5.3,5.3
		C371.1,21,368.7,23.4,365.8,23.4z M365.8,13.9c-2.3,0-4.2,1.9-4.2,4.2s1.9,4.2,4.2,4.2c2.3,0,4.2-1.9,4.2-4.2
		S368.2,13.9,365.8,13.9z"/>
	<g>
		<path class="st0" d="M367.4,21.7l-1.5-2.7h-1v2.7h-1.4v-7.1h2.5c1.5,0,2.7,0.5,2.7,2.1c0,1.1-0.5,1.7-1.3,2l1.7,2.9H367.4z
			 M365,17.9h0.9c0.9,0,1.4-0.4,1.4-1.1c0-0.8-0.5-1-1.4-1H365V17.9z"/>
	</g>
	<path class="st1" d="M62.9,25.5c0-12.1,8.1-19,17.3-19c4.7,0,8.5,2.2,11,4.7l-4.6,5.6C84.9,15.2,83,14,80.4,14
		c-4.7,0-8.5,4.2-8.5,11.3c0,7.2,3.3,11.4,8.4,11.4c2.9,0,5.2-1.5,6.9-3.3l4.6,5.5c-3.1,3.6-7.1,5.4-11.8,5.4
		C70.7,44.2,62.9,37.8,62.9,25.5z"/>
	<path class="st1" d="M95.2,15.8h7.1l0.6,4.8h0.2c2-3.7,5.1-5.5,7.9-5.5c1.7,0,2.6,0.2,3.4,0.6l-1.5,7.5c-1-0.2-1.8-0.4-3-0.4
		c-2.1,0-4.5,1.3-6,5v15.8h-8.6V15.8z"/>
	<path class="st1" d="M116.2,53.6l1.6-6.6c0.5,0.1,1.2,0.3,1.9,0.3c2.6,0,4-1.4,4.6-3.3l0.4-1.4L114,15.8h8.7l3.7,11.5
		c0.8,2.5,1.4,5.1,2.1,7.8h0.2c0.5-2.6,1.2-5.2,1.8-7.8l3.2-11.5h8.2l-9.5,27.8c-2.7,7.1-5.7,10.6-12.3,10.6
		C118.5,54.1,117.3,53.9,116.2,53.6z"/>
	<path class="st1" d="M145,15.8h7.1l0.6,2.7h0.2c2.2-2,4.9-3.4,7.8-3.4c6.6,0,10.8,5.6,10.8,14.1c0,9.5-5.7,15-11.6,15
		c-2.3,0-4.6-1-6.4-2.9l0.2,4.3v7.9H145V15.8z M162.6,29.3c0-4.9-1.4-7.2-4.5-7.2c-1.6,0-2.9,0.7-4.4,2.3v11
		c1.4,1.2,2.8,1.6,4.1,1.6C160.4,37,162.6,34.8,162.6,29.3z"/>
	<path class="st1" d="M175.4,33.2V22.5h-3.8v-6.4l4.2-0.3l1-7.3h7.2v7.3h6.5v6.8h-6.5v10.6c0,3.1,1.5,4.3,3.5,4.3
		c0.9,0,1.8-0.3,2.5-0.5l1.4,6.2c-1.5,0.4-3.5,1-6.3,1C178.2,44.2,175.4,39.8,175.4,33.2z"/>
	<path class="st1" d="M192.1,29.6c0-9.2,6.5-14.6,13.6-14.6c7,0,13.6,5.4,13.6,14.6c0,9.2-6.5,14.5-13.6,14.5
		C198.6,44.2,192.1,38.8,192.1,29.6z M210.4,29.6c0-4.6-1.5-7.6-4.7-7.6c-3.3,0-4.7,2.9-4.7,7.6c0,4.6,1.5,7.5,4.7,7.5
		C208.9,37.1,210.4,34.2,210.4,29.6z"/>
	<path class="st0" d="M221.8,48.2c0-2.3,1.4-4.1,3.9-5.5v-0.2c-1.5-1-2.5-2.4-2.5-4.8c0-1.9,1.3-3.9,3.1-5.2v-0.2
		c-2-1.4-3.8-3.9-3.8-7.2c0-6.8,5.6-10.1,11.6-10.1c1.6,0,3.1,0.2,4.4,0.7h10.2V22h-4.3c0.4,0.8,0.8,2,0.8,3.4
		c0,6.5-4.9,9.3-11.1,9.3c-0.9,0-2-0.1-3.3-0.5c-0.6,0.6-0.9,1-0.9,2c0,1.3,1.1,1.9,4.1,1.9h4.4c6.8,0,10.7,2.1,10.7,7.1
		c0,5.8-6.1,10-15.7,10C227,55.1,221.8,53.1,221.8,48.2z M240.8,46.6c0-1.6-1.5-2-4-2h-2.6c-2,0-3.1-0.1-3.9-0.3
		c-0.9,0.8-1.3,1.6-1.3,2.5c0,1.9,2.3,2.9,5.9,2.9C238.3,49.7,240.8,48.4,240.8,46.6z M237.6,25.2c0-2.8-1.5-4.3-3.5-4.3
		c-2,0-3.5,1.5-3.5,4.3c0,2.9,1.5,4.3,3.5,4.3C236.2,29.5,237.6,28,237.6,25.2z"/>
	<path class="st0" d="M252.3,15.8h7.1l0.6,4.8h0.2c2.1-3.7,5.1-5.5,7.9-5.5c1.7,0,2.6,0.2,3.4,0.6l-1.5,7.5c-1-0.2-1.8-0.4-3-0.4
		c-2,0-4.5,1.3-6,5v15.8h-8.6V15.8z"/>
	<path class="st0" d="M270.8,35.7c0-5.9,4.6-9,15.4-10.2c-0.2-2.2-1.4-3.6-4.2-3.6c-2.2,0-4.5,0.9-7.3,2.4l-3-5.7
		c3.7-2.2,7.6-3.7,11.9-3.7c7.2,0,11.2,4,11.2,12.7v15.7h-7.1l-0.6-2.8H287c-2.3,2-4.9,3.5-7.9,3.5C274,44.2,270.8,40.4,270.8,35.7z
		 M286.2,35.2v-4.4c-5.4,0.7-7.2,2.3-7.2,4.2c0,1.6,1.2,2.4,3,2.4C283.8,37.4,285,36.6,286.2,35.2z"/>
	<path class="st0" d="M300.4,15.8h7.1l0.6,2.7h0.2c2.2-2,4.9-3.4,7.8-3.4c6.6,0,10.8,5.6,10.8,14.1c0,9.5-5.7,15-11.6,15
		c-2.3,0-4.6-1-6.4-2.9l0.2,4.3v7.9h-8.6V15.8z M317.9,29.3c0-4.9-1.4-7.2-4.5-7.2c-1.6,0-2.9,0.7-4.4,2.3v11
		c1.4,1.2,2.8,1.6,4.1,1.6C315.8,37,317.9,34.8,317.9,29.3z"/>
	<path class="st0" d="M331.2,4.5h8.6v9.4l-0.4,4.9c2-1.9,4.7-3.7,8.5-3.7c6,0,8.6,4.3,8.6,11.2v17.2h-8.7V27.4c0-3.8-1-4.9-3.2-4.9
		c-2,0-3.1,0.9-4.8,2.5v18.5h-8.6V4.5z"/>
	<path class="st0" d="M51.9,18.2H1.4l0,18.4l0,0c0,0.1,0-0.2,0-0.1c0,9.6,11.3,17.3,25.2,17.3c13.9,0,25.2-7.9,25.2-17.5
		c0-0.1,0,0.4,0,0.4l0,0L51.9,18.2z"/>
	<path class="st2" d="M51.9,18.3c0,9.6-11.3,17.4-25.2,17.4c-13.9,0-25.2-7.8-25.2-17.4c0-9.6,11.3-17.4,25.2-17.4
		C40.6,0.9,51.9,8.7,51.9,18.3z"/>
	<path class="st3" d="M53.2,28.7L53,25.6L53,19.4c0-0.4,0-0.7,0-1.1c0-0.4,0-0.9-0.1-1.3v-0.1l0,0C51.9,7.5,40.4,0,26.6,0
		C12.5,0,0.5,7.9,0,17.7l0-0.1l0,0.7v0v0L0.2,36c0,7.1,5.6,13.2,14,16.3l0.3,0.2v-0.1c3.6,1.3,7.7,2,12.1,2v0c0,0,0,0,0,0
		c0,0,0,0,0,0v0c14.8,0,26.5-8.2,26.5-18.4l-0.1-5.9C53.1,29.6,53.2,29.2,53.2,28.7z M26.6,1.8C40,1.8,51,9.2,51,18.3
		c0,9.1-10.9,16.5-24.4,16.5c-13.4,0-24.4-7.4-24.4-16.5C2.3,9.2,13.2,1.8,26.6,1.8z M44.8,46.5c-1.4,1-3,1.9-4.7,2.7v-4.6
		c1.7-0.7,3.2-1.5,4.7-2.4V46.5z M7.3,41.3c1.4,1.1,3,2,4.8,2.8V49c-1.8-0.9-3.4-1.9-4.8-3V41.3z M7.3,38.7v-7.9c1.4,1,3,2,4.8,2.8
		v8.1C10.3,40.8,8.7,39.8,7.3,38.7z M14.5,34.6c1.9,0.7,3.8,1.2,5.9,1.5v8.2c-2.1-0.4-4-0.9-5.9-1.6V34.6z M22.8,36.4
		c1.3,0.1,2.5,0.2,3.8,0.2c0.9,0,1.9,0,2.8-0.1v8.1c-1.2,0.1-2.3,0.2-3.5,0.2c-1,0-2.1-0.1-3.1-0.2V36.4z M31.9,36.3
		c2.1-0.3,4-0.8,5.9-1.4v7.9c-1.9,0.7-3.8,1.2-5.9,1.5V36.3z M37.7,45.5v4.6c-1.9,0.7-3.8,1.2-5.9,1.5v-4.8
		C33.9,46.5,35.9,46.1,37.7,45.5z M44.8,39.2c-1.4,1-3,1.9-4.7,2.6V34c1.7-0.7,3.2-1.5,4.7-2.5V39.2z M1.6,26v-1.6
		c0.8,1.5,1.9,2.9,3.2,4.2l0,7.7c-1.5-1.7-2.6-3.7-3-5.7L1.6,26z M2.1,36.8L2,35.5c0.7,1.3,1.7,2.5,2.8,3.7l0,4.4
		C3.2,41.5,2.2,39.2,2.1,36.8z M14.5,45.1c1.8,0.7,3.8,1.2,5.9,1.5v5c-2.1-0.4-4.1-0.9-5.9-1.6V45.1z M25.9,52.1
		c-1,0-2.1-0.1-3.1-0.2v-5c1.2,0.1,2.5,0.2,3.8,0.2v0c0,0,0,0,0,0c0,0,0,0,0,0v0c0.9,0,1.8,0,2.7-0.1v4.9
		C28.3,52,27.1,52.1,25.9,52.1z M51,36.8c-0.1,2.8-1.5,5.4-3.7,7.6v-4.1c1.5-1.3,2.8-2.8,3.8-4.3L51,36.8z M51.4,26l-0.1,2.3l0,0.9
		c-0.2,2.9-1.6,5.6-4,7.9v-7.5c1.7-1.5,3.1-3.2,4.1-5V26z"/>
	<path class="st4" d="M47.1,18.1l-2.7-5.4l-3.2,5.1l1.7,0.1c-0.7,5.1-8,11-16.8,11c-9.3,0-16.8-5.9-16.8-10.8H6.9
		c0,7.3,8.6,13.1,19.2,13.1c10.2,0,18.5-6.1,19.2-13L47.1,18.1z"/>
	<g>
		<path class="st0" d="M224.1,71c-0.7-0.5-1.1-1.3-1.2-2.2c-0.1-0.6-0.1-1.4-0.1-2.3c0-0.8,0-1.5,0.1-2.2c0.1-0.9,0.6-1.6,1.2-2.2
			c0.7-0.5,1.5-0.8,2.5-0.8c1,0,1.8,0.3,2.5,0.8c0.7,0.5,1.1,1.2,1.2,2l0.1,0.5c0,0.1-0.1,0.2-0.2,0.2l-1.5,0.1h0
			c-0.1,0-0.1,0-0.2-0.1l0-0.1l0-0.2c-0.1-0.4-0.3-0.8-0.6-1.1c-0.3-0.3-0.8-0.4-1.3-0.4c-0.5,0-0.9,0.2-1.3,0.5
			c-0.3,0.3-0.5,0.7-0.6,1.2c-0.1,0.6-0.1,1.2-0.1,1.9c0,0.8,0,1.4,0.1,1.9c0.1,0.5,0.3,0.9,0.6,1.2c0.3,0.3,0.7,0.5,1.2,0.5
			c0.5,0,1-0.1,1.3-0.4c0.3-0.3,0.5-0.6,0.6-1.1l0-0.2c0-0.1,0.1-0.2,0.2-0.2l1.5,0.1c0.1,0,0.2,0.1,0.2,0.2l-0.1,0.3
			c-0.1,0.9-0.5,1.6-1.2,2.1c-0.7,0.5-1.5,0.8-2.5,0.8C225.6,71.8,224.8,71.6,224.1,71z"/>
		<path class="st0" d="M237.3,61.6c0.1,0.1,0.1,0.1,0.1,0.3l-0.3,1.5c0,0.1-0.1,0.2-0.2,0.1c-0.2-0.1-0.4-0.1-0.7-0.1
			c-0.1,0-0.2,0-0.3,0c-0.5,0-1,0.3-1.3,0.7c-0.3,0.4-0.5,0.9-0.5,1.5v5.9c0,0.1-0.1,0.2-0.2,0.2h-1.5c-0.1,0-0.2-0.1-0.2-0.2v-9.8
			c0-0.1,0.1-0.2,0.2-0.2h1.5c0.1,0,0.2,0.1,0.2,0.2v1.1c0,0,0,0.1,0,0.1c0,0,0,0,0.1,0c0.5-1,1.2-1.4,2.2-1.4
			C236.6,61.4,237,61.4,237.3,61.6z"/>
		<path class="st0" d="M238.4,75.7c0,0,0-0.1,0-0.2v-1.2c0-0.1,0-0.1,0-0.1c0,0,0.1-0.1,0.1-0.1h0.1c0.5,0,0.9-0.1,1.1-0.2
			c0.3-0.1,0.5-0.3,0.7-0.7c0.2-0.3,0.3-0.8,0.5-1.5c0,0,0-0.1,0-0.1l-3-9.9l0-0.1c0-0.1,0.1-0.2,0.2-0.2h1.6c0.1,0,0.2,0.1,0.2,0.2
			l1.9,7.3c0,0,0,0,0,0c0,0,0,0,0,0l1.8-7.3c0-0.1,0.1-0.2,0.2-0.2l1.6,0c0.1,0,0.1,0,0.2,0.1c0,0,0,0.1,0,0.2l-3.2,10.7
			c-0.3,0.9-0.6,1.6-0.9,2.1c-0.3,0.5-0.7,0.8-1.1,1c-0.5,0.2-1.1,0.3-2,0.3h-0.1C238.5,75.7,238.4,75.7,238.4,75.7z"/>
		<path class="st0" d="M254.9,66.6c0,0.8-0.1,1.6-0.2,2.3c-0.4,2-1.5,3-3.3,3c-1,0-1.7-0.3-2.2-1c0,0,0-0.1-0.1-0.1c0,0,0,0,0,0.1
			v4.5c0,0.1-0.1,0.2-0.2,0.2h-1.5c-0.1,0-0.2-0.1-0.2-0.2V61.7c0-0.1,0.1-0.2,0.2-0.2h1.5c0.1,0,0.2,0.1,0.2,0.2v0.7c0,0,0,0,0,0.1
			c0,0,0,0,0.1,0c0.5-0.7,1.3-1.1,2.2-1.1c0.8,0,1.5,0.2,2,0.7c0.5,0.5,0.9,1.2,1.1,2.2C254.8,64.9,254.9,65.7,254.9,66.6z
			 M252.9,66.6c0-0.9-0.1-1.7-0.2-2.2c-0.3-0.9-0.8-1.4-1.7-1.4c-0.8,0-1.3,0.5-1.6,1.4c-0.2,0.5-0.2,1.3-0.2,2.2
			c0,1,0.1,1.7,0.3,2.2c0.3,0.9,0.8,1.3,1.6,1.3c0.4,0,0.7-0.1,1-0.4c0.3-0.2,0.5-0.6,0.6-1C252.8,68.3,252.9,67.5,252.9,66.6z"/>
		<path class="st0" d="M260.9,62.9h-1.8c-0.1,0-0.1,0-0.1,0.1v5.5c0,0.5,0.1,0.9,0.3,1.2c0.2,0.2,0.6,0.3,1,0.3h0.4
			c0.1,0,0.2,0.1,0.2,0.2v1.3c0,0.1-0.1,0.2-0.2,0.2l-0.8,0c-0.9,0-1.6-0.2-2.1-0.5c-0.5-0.4-0.7-1-0.7-2V63c0-0.1,0-0.1-0.1-0.1h-1
			c-0.1,0-0.2-0.1-0.2-0.2v-1.1c0-0.1,0.1-0.2,0.2-0.2h1c0.1,0,0.1,0,0.1-0.1v-2.3c0-0.1,0.1-0.2,0.2-0.2h1.5c0.1,0,0.2,0.1,0.2,0.2
			v2.3c0,0.1,0,0.1,0.1,0.1h1.8c0.1,0,0.2,0.1,0.2,0.2v1.1C261.1,62.9,261.1,62.9,260.9,62.9z"/>
		<path class="st0" d="M263.8,71c-0.7-0.5-1.1-1.3-1.2-2.2c-0.1-0.8-0.2-1.5-0.2-2.3c0-0.8,0.1-1.6,0.2-2.2c0.1-0.9,0.6-1.7,1.2-2.2
			c0.7-0.5,1.5-0.8,2.6-0.8c1,0,1.8,0.3,2.5,0.8c0.7,0.5,1.1,1.3,1.2,2.2c0.1,0.8,0.2,1.5,0.2,2.2c0,0.7-0.1,1.5-0.2,2.3
			c-0.2,0.9-0.6,1.7-1.2,2.2c-0.7,0.5-1.5,0.8-2.5,0.8C265.3,71.8,264.4,71.6,263.8,71z M267.5,69.7c0.3-0.3,0.5-0.7,0.6-1.2
			c0.1-0.6,0.1-1.2,0.1-1.9c0-0.7,0-1.3-0.1-1.9c-0.1-0.5-0.3-0.9-0.6-1.2c-0.3-0.3-0.8-0.5-1.3-0.5c-0.5,0-0.9,0.2-1.3,0.5
			c-0.3,0.3-0.6,0.7-0.6,1.2c-0.1,0.6-0.1,1.2-0.1,1.9c0,0.7,0,1.3,0.1,1.9c0.1,0.5,0.3,0.9,0.6,1.2c0.3,0.3,0.8,0.5,1.3,0.5
			C266.8,70.2,267.2,70,267.5,69.7z"/>
		<path class="st0" d="M277.7,61.5h1.5c0.1,0,0.2,0.1,0.2,0.2v9.6c0,3-1.6,4.5-4.8,4.5c-0.3,0-0.5,0-0.6,0c-0.1,0-0.2-0.1-0.2-0.2
			l0-1.3c0-0.1,0-0.1,0.1-0.2c0,0,0.1,0,0.1,0c1.3,0.1,2.1-0.1,2.7-0.6c0.5-0.4,0.8-1.2,0.8-2.2v-0.4c0,0,0,0,0-0.1c0,0,0,0-0.1,0
			c-0.5,0.6-1.3,1-2.2,1c-0.9,0-1.6-0.3-2.2-0.8c-0.6-0.5-1-1.2-1.1-2.2c-0.1-0.4-0.1-1.2-0.1-2.2c0-1.1,0-1.9,0.1-2.3
			c0.1-0.9,0.5-1.6,1-2.1c0.6-0.5,1.3-0.8,2.2-0.8c1,0,1.7,0.3,2.3,0.9c0,0,0,0,0.1,0c0,0,0,0,0-0.1v-0.5
			C277.5,61.5,277.6,61.5,277.7,61.5z M277.5,66.5c0-0.7,0-1.4-0.1-1.9c-0.1-0.5-0.2-0.9-0.6-1.2c-0.3-0.3-0.7-0.5-1.2-0.5
			c-0.5,0-0.9,0.2-1.2,0.5c-0.3,0.3-0.5,0.7-0.6,1.2c-0.1,0.5-0.1,1.2-0.1,1.9c0,0.7,0,1.3,0.1,1.8c0.1,0.5,0.3,0.9,0.6,1.2
			c0.3,0.3,0.7,0.5,1.2,0.5c0.5,0,0.9-0.2,1.2-0.5c0.3-0.3,0.5-0.7,0.6-1.2C277.5,67.7,277.5,67.1,277.5,66.5z"/>
		<path class="st0" d="M286.6,61.6c0.1,0.1,0.1,0.1,0.1,0.3l-0.3,1.5c0,0.1-0.1,0.2-0.2,0.1c-0.2-0.1-0.4-0.1-0.7-0.1
			c-0.1,0-0.2,0-0.3,0c-0.5,0-1,0.3-1.3,0.7c-0.3,0.4-0.5,0.9-0.5,1.5v5.9c0,0.1-0.1,0.2-0.2,0.2h-1.5c-0.1,0-0.2-0.1-0.2-0.2v-9.8
			c0-0.1,0.1-0.2,0.2-0.2h1.5c0.1,0,0.2,0.1,0.2,0.2v1.1c0,0,0,0.1,0,0.1c0,0,0,0,0,0c0.5-1,1.2-1.4,2.2-1.4
			C286,61.4,286.3,61.4,286.6,61.6z"/>
		<path class="st0" d="M293.9,62.2c0.7,0.6,1,1.4,1,2.4v6.8c0,0.1-0.1,0.2-0.2,0.2h-1.5c-0.1,0-0.2-0.1-0.2-0.2v-0.6
			c0-0.1,0-0.1-0.1,0c-0.6,0.7-1.5,1-2.5,1c-0.9,0-1.6-0.2-2.2-0.7c-0.6-0.5-0.9-1.2-0.9-2.3c0-1.1,0.4-1.9,1.1-2.5
			c0.7-0.6,1.7-0.9,2.9-0.9h1.7c0.1,0,0.1,0,0.1-0.1v-0.6c0-0.6-0.2-1-0.5-1.4c-0.3-0.3-0.7-0.5-1.3-0.5c-0.5,0-0.8,0.1-1.1,0.3
			c-0.3,0.2-0.5,0.5-0.5,0.9c0,0.1-0.1,0.2-0.2,0.2l-1.6-0.1c-0.1,0-0.1,0-0.1,0c0,0-0.1-0.1,0-0.1c0.1-0.8,0.5-1.5,1.1-2
			c0.7-0.5,1.5-0.8,2.5-0.8C292.4,61.3,293.3,61.6,293.9,62.2z M292.4,69.7c0.4-0.3,0.7-0.8,0.7-1.3v-1.3c0-0.1,0-0.1-0.1-0.1h-1.5
			c-0.7,0-1.2,0.1-1.6,0.4c-0.4,0.3-0.6,0.7-0.6,1.3c0,0.5,0.2,0.9,0.5,1.1c0.3,0.2,0.7,0.4,1.2,0.4C291.4,70.2,291.9,70,292.4,69.7
			z"/>
		<path class="st0" d="M304.6,66.6c0,0.8-0.1,1.6-0.2,2.3c-0.4,2-1.5,3-3.3,3c-1,0-1.7-0.3-2.2-1c0,0,0-0.1-0.1-0.1c0,0,0,0,0,0.1
			v4.5c0,0.1-0.1,0.2-0.2,0.2h-1.5c-0.1,0-0.2-0.1-0.2-0.2V61.7c0-0.1,0.1-0.2,0.2-0.2h1.5c0.1,0,0.2,0.1,0.2,0.2v0.7c0,0,0,0,0,0.1
			c0,0,0,0,0.1,0c0.5-0.7,1.3-1.1,2.2-1.1c0.8,0,1.5,0.2,2,0.7c0.5,0.5,0.9,1.2,1.1,2.2C304.5,64.9,304.6,65.7,304.6,66.6z
			 M302.7,66.6c0-0.9-0.1-1.7-0.2-2.2c-0.3-0.9-0.8-1.4-1.7-1.4c-0.8,0-1.3,0.5-1.6,1.4c-0.2,0.5-0.2,1.3-0.2,2.2
			c0,1,0.1,1.7,0.3,2.2c0.3,0.9,0.8,1.3,1.6,1.3c0.4,0,0.7-0.1,1-0.4c0.3-0.2,0.5-0.6,0.6-1C302.6,68.3,302.7,67.5,302.7,66.6z"/>
		<path class="st0" d="M313,62.2c0.5,0.6,0.8,1.4,0.8,2.5v6.8c0,0.1-0.1,0.2-0.2,0.2h-1.5c-0.1,0-0.2-0.1-0.2-0.2V65
			c0-0.6-0.2-1.1-0.5-1.5c-0.3-0.4-0.7-0.5-1.3-0.5c-0.5,0-1,0.2-1.3,0.6c-0.3,0.4-0.5,0.9-0.5,1.5v6.5c0,0.1-0.1,0.2-0.2,0.2h-1.5
			c-0.1,0-0.2-0.1-0.2-0.2V57.8c0-0.1,0.1-0.2,0.2-0.2h1.5c0.1,0,0.2,0.1,0.2,0.2v4.5c0,0,0,0.1,0,0.1c0,0,0,0,0.1-0.1
			c0.5-0.7,1.3-1,2.3-1C311.7,61.3,312.4,61.6,313,62.2z"/>
		<path class="st0" d="M315.8,71.3c-0.3-0.3-0.4-0.6-0.4-1c0-0.4,0.1-0.7,0.4-1c0.3-0.3,0.6-0.4,1-0.4c0.4,0,0.7,0.1,1,0.4
			c0.3,0.3,0.4,0.6,0.4,1c0,0.4-0.1,0.7-0.4,1c-0.3,0.3-0.6,0.4-1,0.4C316.4,71.7,316,71.5,315.8,71.3z"/>
		<path class="st0" d="M321.1,71c-0.7-0.5-1.1-1.3-1.2-2.2c-0.1-0.6-0.1-1.4-0.1-2.3c0-0.8,0-1.5,0.1-2.2c0.1-0.9,0.6-1.6,1.2-2.2
			c0.7-0.5,1.5-0.8,2.5-0.8c1,0,1.8,0.3,2.5,0.8c0.7,0.5,1.1,1.2,1.2,2l0.1,0.5c0,0.1-0.1,0.2-0.2,0.2l-1.5,0.1h0
			c-0.1,0-0.1,0-0.2-0.1l0-0.1l0-0.2c-0.1-0.4-0.3-0.8-0.6-1.1c-0.3-0.3-0.8-0.4-1.3-0.4c-0.5,0-0.9,0.2-1.3,0.5
			c-0.3,0.3-0.5,0.7-0.6,1.2c-0.1,0.6-0.1,1.2-0.1,1.9c0,0.8,0,1.4,0.1,1.9c0.1,0.5,0.3,0.9,0.6,1.2c0.3,0.3,0.7,0.5,1.2,0.5
			c0.5,0,1-0.1,1.3-0.4c0.3-0.3,0.5-0.6,0.6-1.1l0-0.2c0-0.1,0.1-0.2,0.2-0.2l1.5,0.1c0.1,0,0.2,0.1,0.2,0.2l-0.1,0.3
			c-0.1,0.9-0.5,1.6-1.2,2.1c-0.7,0.5-1.5,0.8-2.5,0.8C322.6,71.8,321.7,71.6,321.1,71z"/>
		<path class="st0" d="M330.2,71c-0.7-0.5-1.1-1.3-1.2-2.2c-0.1-0.8-0.2-1.5-0.2-2.3c0-0.8,0.1-1.6,0.2-2.2c0.1-0.9,0.6-1.7,1.2-2.2
			c0.7-0.5,1.5-0.8,2.6-0.8c1,0,1.8,0.3,2.5,0.8c0.7,0.5,1.1,1.3,1.2,2.2c0.1,0.8,0.2,1.5,0.2,2.2c0,0.7-0.1,1.5-0.2,2.3
			c-0.2,0.9-0.6,1.7-1.2,2.2c-0.7,0.5-1.5,0.8-2.5,0.8C331.7,71.8,330.8,71.6,330.2,71z M333.9,69.7c0.3-0.3,0.5-0.7,0.6-1.2
			c0.1-0.6,0.1-1.2,0.1-1.9c0-0.7,0-1.3-0.1-1.9c-0.1-0.5-0.3-0.9-0.6-1.2c-0.3-0.3-0.8-0.5-1.3-0.5c-0.5,0-0.9,0.2-1.3,0.5
			c-0.3,0.3-0.6,0.7-0.6,1.2c-0.1,0.6-0.1,1.2-0.1,1.9c0,0.7,0,1.3,0.1,1.9c0.1,0.5,0.3,0.9,0.6,1.2c0.3,0.3,0.8,0.5,1.3,0.5
			C333.2,70.2,333.6,70,333.9,69.7z"/>
		<path class="st0" d="M338.5,71.3c-0.3-0.3-0.4-0.6-0.4-1c0-0.4,0.1-0.7,0.4-1c0.3-0.3,0.6-0.4,1-0.4c0.4,0,0.7,0.1,1,0.4
			c0.3,0.3,0.4,0.6,0.4,1c0,0.4-0.1,0.7-0.4,1c-0.3,0.3-0.6,0.4-1,0.4C339.1,71.7,338.8,71.5,338.5,71.3z"/>
		<path class="st0" d="M342.9,71.5V57.8c0-0.1,0.1-0.2,0.2-0.2h1.5c0.1,0,0.2,0.1,0.2,0.2v7.7c0,0,0,0,0,0.1c0,0,0,0,0.1,0l3.1-4
			c0.1-0.1,0.2-0.1,0.3-0.1h1.7c0.1,0,0.1,0,0.2,0.1c0,0,0,0.1,0,0.2l-2.3,3c0,0.1,0,0.1,0,0.1l2.7,6.6l0,0.1c0,0.1-0.1,0.2-0.2,0.2
			h-1.6c-0.1,0-0.2-0.1-0.2-0.2l-2-5.3c0-0.1-0.1-0.1-0.1,0l-1.5,1.9c0,0.1,0,0.1,0,0.1v3.2c0,0.1-0.1,0.2-0.2,0.2h-1.5
			C343,71.7,342.9,71.6,342.9,71.5z"/>
		<path class="st0" d="M357.1,61.6c0.1,0.1,0.1,0.1,0.1,0.3l-0.3,1.5c0,0.1-0.1,0.2-0.2,0.1c-0.2-0.1-0.4-0.1-0.7-0.1
			c-0.1,0-0.2,0-0.3,0c-0.5,0-1,0.3-1.3,0.7c-0.3,0.4-0.5,0.9-0.5,1.5v5.9c0,0.1-0.1,0.2-0.2,0.2h-1.5c-0.1,0-0.2-0.1-0.2-0.2v-9.8
			c0-0.1,0.1-0.2,0.2-0.2h1.5c0.1,0,0.2,0.1,0.2,0.2v1.1c0,0,0,0.1,0,0.1c0,0,0,0,0.1,0c0.5-1,1.2-1.4,2.2-1.4
			C356.5,61.4,356.8,61.4,357.1,61.6z"/>
	</g>
</g>
</svg>
