<?xml version="1.0" encoding="utf-8"?>
<!-- Generator: Adobe Illustrator 22.1.0, SVG Export Plug-In . SVG Version: 6.00 Build 0)  -->
<svg version="1.1" id="_x31_" xmlns="http://www.w3.org/2000/svg" xmlns:xlink="http://www.w3.org/1999/xlink" x="0px" y="0px"
	 viewBox="0 0 960 960" style="enable-background:new 0 0 960 960;" xml:space="preserve">
<style type="text/css">
	.st0{fill:#002C82;}
	.st1{fill:url(#SVGID_1_);}
	.st2{fill:url(#SVGID_2_);}
	.st3{fill:url(#SVGID_3_);}
	.st4{fill:url(#SVGID_4_);}
	.st5{fill:url(#SVGID_5_);}
	.st6{fill:url(#SVGID_6_);}
	.st7{fill:url(#SVGID_7_);}
	.st8{fill:url(#SVGID_8_);}
	.st9{fill:url(#SVGID_9_);}
	.st10{fill:url(#SVGID_10_);}
	.st11{fill:url(#SVGID_11_);}
	.st12{fill:url(#SVGID_12_);}
	.st13{fill:url(#SVGID_13_);}
	.st14{fill:url(#SVGID_14_);}
	.st15{fill:url(#SVGID_15_);}
	.st16{fill:url(#SVGID_16_);}
</style>
<g>
	<g>
		<path class="st0" d="M220.8,796.7c-24.3,0-110.5-2.4-110.5-109.5c0-107.1,85.9-109.5,110.5-109.5c52.4,0,75.3,21.2,75.3,21.2
			l-26.7,26.7c0,0-10.6-17.8-49.3-17.8c-16.4,0-66.4,5.8-66.4,79.4s48.9,79.4,66.4,79.4c38,0,49.3-18.8,49.3-18.8l26.7,26.7
			C296.1,774.4,273.5,796.7,220.8,796.7z"/>
		<path class="st0" d="M512,586.6v34.6c0,0-3.1-4.4-17.5-4.4h-56.1v160.2c0,10.6,3.8,17.1,3.8,17.1h-48.9c0,0,3.8-6.5,3.8-17.1
			V616.7h-56.1c-14.4,0-17.5,4.4-17.5,4.4v-34.6H512z"/>
		<path class="st0" d="M596.9,794h-43.8c0,0,1-2.1,1.4-3.4V589.6l-1.4-3.4h43.8c-0.7,0.3-1.7,1.7-1.7,3.1v201.6
			C595.6,792.9,596.9,794,596.9,794z"/>
		<path class="st0" d="M789.6,794l-28.7-77c-21.6,3.1-51.7,19.5-66.4,39.7L681.1,794h-48.3c0,0,3.8-1.7,7.2-11.6L714,584.5h40
			l74.3,199.9c2.4,7.2,6.2,9.6,6.2,9.6H789.6z M696.9,714.9c14.4-10.6,44.1-17.5,56.1-19.2l-15.1-53.4l-4.1-28.1l-3.8,28.4
			l-14.7,56.1L696.9,714.9z"/>
	</g>
	<g>
		<g>
			<linearGradient id="SVGID_1_" gradientUnits="userSpaceOnUse" x1="411.7295" y1="15.5387" x2="202.7936" y2="357.9569">
				<stop  offset="0" style="stop-color:#00005C"/>
				<stop  offset="0.2012" style="stop-color:#0071BC"/>
				<stop  offset="0.4911" style="stop-color:#00FFFF"/>
				<stop  offset="0.7515" style="stop-color:#0071BC"/>
				<stop  offset="0.9879" style="stop-color:#00005C"/>
			</linearGradient>
			<path class="st1" d="M154,281.8c46.1,34.5,95.5,66.4,147.9,95.6c16-7.7,31.7-15.6,47.1-23.9c-73.2-44.7-138.6-95.3-195-150.7
				V281.8z"/>
			<linearGradient id="SVGID_2_" gradientUnits="userSpaceOnUse" x1="701.0133" y1="192.029" x2="492.0653" y2="534.467">
				<stop  offset="0" style="stop-color:#00005C"/>
				<stop  offset="0.2012" style="stop-color:#0071BC"/>
				<stop  offset="0.4911" style="stop-color:#00FFFF"/>
				<stop  offset="0.7515" style="stop-color:#0071BC"/>
				<stop  offset="0.9879" style="stop-color:#00005C"/>
			</linearGradient>
			<path class="st2" d="M695.5,502.7c-101.8-28.8-196.6-66.9-282.4-112.6c-15.1,7.4-30.4,14.5-45.9,21.4
				c101.1,49.6,211.5,89.2,328.4,117.4V502.7z"/>
		</g>
		<g>
			<linearGradient id="SVGID_3_" gradientUnits="userSpaceOnUse" x1="747.9244" y1="220.6829" x2="538.9942" y2="563.0919">
				<stop  offset="0" style="stop-color:#00005C"/>
				<stop  offset="0.2012" style="stop-color:#0071BC"/>
				<stop  offset="0.4911" style="stop-color:#00FFFF"/>
				<stop  offset="0.7515" style="stop-color:#0071BC"/>
				<stop  offset="0.9879" style="stop-color:#00005C"/>
			</linearGradient>
			<path class="st3" d="M603.7,274.2c-12,9-24.3,17.9-36.9,26.5c60.9,38.1,129.2,71.6,203.8,99.5v-29.8
				C708.2,342.2,652.4,309.7,603.7,274.2z"/>
			<linearGradient id="SVGID_4_" gradientUnits="userSpaceOnUse" x1="454.6697" y1="41.7435" x2="245.7349" y2="384.16">
				<stop  offset="0" style="stop-color:#00005C"/>
				<stop  offset="0.2012" style="stop-color:#0071BC"/>
				<stop  offset="0.4911" style="stop-color:#00FFFF"/>
				<stop  offset="0.7515" style="stop-color:#0071BC"/>
				<stop  offset="0.9879" style="stop-color:#00005C"/>
			</linearGradient>
			<path class="st4" d="M499.9,254.8c13.7-10.8,26.9-22,39.5-33.3C465.8,153.9,415.5,78,391.6,0H285.7
				C328.4,94.1,401.8,181.1,499.9,254.8z"/>
		</g>
		<g>
			<linearGradient id="SVGID_5_" gradientUnits="userSpaceOnUse" x1="489.6219" y1="63.0735" x2="280.69" y2="405.4853">
				<stop  offset="0" style="stop-color:#00005C"/>
				<stop  offset="0.2012" style="stop-color:#0071BC"/>
				<stop  offset="0.4911" style="stop-color:#00FFFF"/>
				<stop  offset="0.7515" style="stop-color:#0071BC"/>
				<stop  offset="0.9879" style="stop-color:#00005C"/>
			</linearGradient>
			<path class="st5" d="M408.3,194.2c-34.9,36.1-76.2,70.2-123.3,101.5c11.6,8.4,23.3,16.5,35.3,24.5
				c47.2-27.1,90.5-56.8,129.3-88.8C435.3,219.4,421.5,207,408.3,194.2z"/>
			<linearGradient id="SVGID_6_" gradientUnits="userSpaceOnUse" x1="412.177" y1="15.7948" x2="203.2371" y2="358.2196">
				<stop  offset="0" style="stop-color:#00005C"/>
				<stop  offset="0.2012" style="stop-color:#0071BC"/>
				<stop  offset="0.4911" style="stop-color:#00FFFF"/>
				<stop  offset="0.7515" style="stop-color:#0071BC"/>
				<stop  offset="0.9879" style="stop-color:#00005C"/>
			</linearGradient>
			<path class="st6" d="M245.9,359.2c-11-6.7-21.9-13.5-32.6-20.5c-19,10.2-38.8,20-59.2,29.4v30.2
				C185.8,386.2,216.5,373.2,245.9,359.2z"/>
			<linearGradient id="SVGID_7_" gradientUnits="userSpaceOnUse" x1="529.9417" y1="87.6729" x2="321.0136" y2="430.0783">
				<stop  offset="0" style="stop-color:#00005C"/>
				<stop  offset="0.2012" style="stop-color:#0071BC"/>
				<stop  offset="0.4911" style="stop-color:#00FFFF"/>
				<stop  offset="0.7515" style="stop-color:#0071BC"/>
				<stop  offset="0.9879" style="stop-color:#00005C"/>
			</linearGradient>
			<path class="st7" d="M468.7,120.8c4.4,6.2,8.9,12.4,13.7,18.6c9.2,11.9,19.1,23.6,29.5,35C564.8,120.5,606,61.8,634.1,0H528.2
				C515.5,41.2,495.6,81.7,468.7,120.8z"/>
		</g>
		<g>
			<linearGradient id="SVGID_8_" gradientUnits="userSpaceOnUse" x1="515.8701" y1="79.074" x2="306.9333" y2="421.4938">
				<stop  offset="0" style="stop-color:#00005C"/>
				<stop  offset="0.2012" style="stop-color:#0071BC"/>
				<stop  offset="0.4911" style="stop-color:#00FFFF"/>
				<stop  offset="0.7515" style="stop-color:#0071BC"/>
				<stop  offset="0.9879" style="stop-color:#00005C"/>
			</linearGradient>
			<path class="st8" d="M197.5,461.9c89.6-27.3,173.3-61.9,249.6-103c-13.8-7.7-27.4-15.5-40.7-23.7c-62.9,37.8-132.8,71-208.9,98.4
				V461.9z"/>
			<linearGradient id="SVGID_9_" gradientUnits="userSpaceOnUse" x1="641.1825" y1="155.5506" x2="432.2489" y2="497.9651">
				<stop  offset="0" style="stop-color:#00005C"/>
				<stop  offset="0.2012" style="stop-color:#0071BC"/>
				<stop  offset="0.4911" style="stop-color:#00FFFF"/>
				<stop  offset="0.7515" style="stop-color:#0071BC"/>
				<stop  offset="0.9879" style="stop-color:#00005C"/>
			</linearGradient>
			<path class="st9" d="M655.1,115.4C607.5,180,545.6,239.9,471.3,292.8c13.7,9.5,27.8,18.7,42.3,27.6
				c94.3-58.8,174.9-128,238.3-205H655.1z"/>
		</g>
		<g>
			<linearGradient id="SVGID_10_" gradientUnits="userSpaceOnUse" x1="372.1059" y1="-8.6408" x2="163.1698" y2="333.7779">
				<stop  offset="0" style="stop-color:#00005C"/>
				<stop  offset="0.2012" style="stop-color:#0071BC"/>
				<stop  offset="0.4911" style="stop-color:#00FFFF"/>
				<stop  offset="0.7515" style="stop-color:#0071BC"/>
				<stop  offset="0.9879" style="stop-color:#00005C"/>
			</linearGradient>
			<path class="st10" d="M264.7,115.4h-96.9c42.2,51.2,91.9,99,148.3,142.5c15.4-11.7,30.1-23.9,44.1-36.4
				C323.9,188,291.9,152.5,264.7,115.4z"/>
			<linearGradient id="SVGID_11_" gradientUnits="userSpaceOnUse" x1="775.5686" y1="237.5603" x2="566.6467" y2="579.9557">
				<stop  offset="0" style="stop-color:#00005C"/>
				<stop  offset="0.2012" style="stop-color:#0071BC"/>
				<stop  offset="0.4911" style="stop-color:#00FFFF"/>
				<stop  offset="0.7515" style="stop-color:#0071BC"/>
				<stop  offset="0.9879" style="stop-color:#00005C"/>
			</linearGradient>
			<path class="st11" d="M730.3,436.6c-40.1-14.2-78.6-30-115.3-47.2c-11.4,6.2-24.4,13.2-37.4,20c48.7,20.8,99.7,39.2,152.7,55
				V436.6z"/>
			<linearGradient id="SVGID_12_" gradientUnits="userSpaceOnUse" x1="587.5338" y1="122.8198" x2="378.605" y2="465.2265">
				<stop  offset="0" style="stop-color:#00005C"/>
				<stop  offset="0.2012" style="stop-color:#0071BC"/>
				<stop  offset="0.4911" style="stop-color:#00FFFF"/>
				<stop  offset="0.7515" style="stop-color:#0071BC"/>
				<stop  offset="0.9879" style="stop-color:#00005C"/>
			</linearGradient>
			<path class="st12" d="M508.3,377.4c14.2-7.7,27.9-15.2,40.1-22c-46.6-25.7-89.8-53.8-129-84.1c-14,10.2-28.5,20.1-43.3,29.7
				C417.4,328.6,461.6,354.1,508.3,377.4z"/>
		</g>
		<g>
			<linearGradient id="SVGID_13_" gradientUnits="userSpaceOnUse" x1="752.4927" y1="223.4728" x2="543.5609" y2="565.8845">
				<stop  offset="0" style="stop-color:#00005C"/>
				<stop  offset="0.2012" style="stop-color:#0071BC"/>
				<stop  offset="0.4911" style="stop-color:#00FFFF"/>
				<stop  offset="0.7515" style="stop-color:#0071BC"/>
				<stop  offset="0.9879" style="stop-color:#00005C"/>
			</linearGradient>
			<path class="st13" d="M770.6,198c-34.5,34.3-72.4,66.9-113.5,97.3c15.6,10,31.7,19.6,48.3,28.9c22.4-14.8,44.1-30.2,65.1-46.1
				V198z"/>
			<linearGradient id="SVGID_14_" gradientUnits="userSpaceOnUse" x1="569.251" y1="111.6555" x2="360.3188" y2="454.0678">
				<stop  offset="0" style="stop-color:#00005C"/>
				<stop  offset="0.2012" style="stop-color:#0071BC"/>
				<stop  offset="0.4911" style="stop-color:#00FFFF"/>
				<stop  offset="0.7515" style="stop-color:#0071BC"/>
				<stop  offset="0.9879" style="stop-color:#00005C"/>
			</linearGradient>
			<path class="st14" d="M247.8,522.9c67.9-17.4,133.5-38.6,196.2-63.5c-14.6-6.1-29.1-12.3-43.4-18.8
				c-48.8,20.8-99.8,39.2-152.9,55.1V522.9z"/>
			<linearGradient id="SVGID_15_" gradientUnits="userSpaceOnUse" x1="684.126" y1="181.7562" x2="475.1942" y2="524.1678">
				<stop  offset="0" style="stop-color:#00005C"/>
				<stop  offset="0.2012" style="stop-color:#0071BC"/>
				<stop  offset="0.4911" style="stop-color:#00FFFF"/>
				<stop  offset="0.7515" style="stop-color:#0071BC"/>
				<stop  offset="0.9879" style="stop-color:#00005C"/>
			</linearGradient>
			<path class="st15" d="M648,360.1c0,0-87.4,49.3-129.5,67.5l-44.1-21.2c0,0,113.9-59.8,125.8-71.5L648,360.1z"/>
		</g>
	</g>
	<g>
		<g>
			<path class="st0" d="M258.9,869.9c-0.2,0.9-0.4,1.8-0.5,2.6c-3.3,1.7-7.6,2.5-12.6,2.5c-3.6,0-6.8-0.5-9.6-1.5
				c-2.8-1-5.2-2.4-7.2-4.3c-2-1.8-3.5-4-4.5-6.5c-1-2.5-1.5-5.2-1.5-8.2c0-4.3,0.7-7.9,2-10.9c1.3-3,3.1-5.4,5.4-7.3
				c2.2-1.9,4.9-3.2,7.8-4.1c3-0.9,6.1-1.3,9.3-1.3c1.1,0,2.2,0.1,3.4,0.2c1.2,0.2,2.4,0.4,3.5,0.7c1.1,0.3,2.2,0.6,3.2,1
				c1,0.4,1.9,0.8,2.6,1.2c-0.4,1-0.7,2.1-1,3.1c-0.2,1.1-0.4,2.1-0.5,3.2h-0.9c-1.6-2-3.2-3.4-4.8-4.2c-1.7-0.8-3.6-1.3-5.8-1.3
				c-1.7,0-3.3,0.4-5,1.1c-1.7,0.7-3.2,1.9-4.5,3.4c-1.4,1.5-2.5,3.5-3.3,5.9c-0.8,2.4-1.3,5.2-1.3,8.5c0,3.2,0.4,5.9,1.3,8.1
				c0.9,2.3,2,4.1,3.4,5.5c1.4,1.4,3,2.5,4.7,3.1c1.8,0.7,3.5,1,5.3,1c1,0,2-0.1,3-0.3c1-0.2,2-0.5,3-0.9c1-0.4,1.9-0.9,2.8-1.5
				c0.9-0.6,1.7-1.2,2.3-1.9l0.8,0.5C259.4,868.2,259.1,869,258.9,869.9z"/>
			<path class="st0" d="M280.4,854.8v2.5c0,3.4,0,6.5,0.1,9.1c0.1,2.7,0.2,5.3,0.4,7.8c-0.7-0.1-1.5-0.1-2.3-0.1c-0.8,0-1.8,0-2.8,0
				c-1,0-2,0-2.8,0c-0.8,0-1.6,0-2.3,0.1c0.2-2.6,0.3-5.2,0.4-7.8c0.1-2.7,0.1-5.7,0.1-9.1v-8.4c0-3.4,0-6.5-0.1-9.1
				c-0.1-2.7-0.2-5.3-0.4-8c0.7,0.1,1.5,0.2,2.3,0.2c0.8,0.1,1.8,0.1,2.8,0.1c1.1,0,2.4-0.1,3.8-0.2c1.4-0.1,3.2-0.2,5.3-0.2
				c1.6,0,2.9,0,4,0.1c1.1,0.1,2.1,0.2,2.9,0.4c0.8,0.2,1.5,0.4,2.1,0.7c0.6,0.3,1.2,0.6,1.7,1c1.2,0.9,2.2,2,2.9,3.4
				c0.7,1.3,1.1,2.9,1.1,4.8c0,3-0.8,5.5-2.5,7.4c-1.7,1.9-4,3.2-7.1,4c2,3.5,4.1,7,6.4,10.5c2.3,3.5,4.5,6.9,6.8,10.4
				c-0.9-0.1-1.9-0.1-2.8-0.1c-0.9,0-1.8,0-2.8,0c-1,0-1.9,0-2.8,0c-0.9,0-1.9,0-2.8,0.1L281,854.8H280.4z M289.7,839.1
				c-0.4-1.1-0.9-1.9-1.7-2.4c-0.8-0.6-1.8-0.9-3-1.1c-1.2-0.2-2.7-0.2-4.4-0.2c-0.1,5.6-0.2,11.2-0.2,16.8c0.2,0,0.5,0.1,0.7,0.1
				c0.2,0,0.4,0,0.7,0c2.7,0,4.8-0.7,6.3-2.2c1.4-1.5,2.2-3.7,2.2-6.7C290.2,841.6,290,840.1,289.7,839.1z"/>
			<path class="st0" d="M329.3,846.3c0.8-1.5,1.6-3.1,2.4-4.7c0.8-1.6,1.5-3.3,2.3-5c0.7-1.7,1.5-3.3,2.2-4.8
				c0.5,0.1,0.9,0.2,1.4,0.2c0.5,0.1,1,0.1,1.5,0.1c0.5,0,1,0,1.5-0.1c0.5-0.1,1-0.1,1.5-0.2c-0.7,1.2-1.6,2.7-2.6,4.5
				c-1.1,1.9-2.2,3.9-3.4,6.1c-1.2,2.2-2.4,4.4-3.6,6.7c-1.2,2.3-2.3,4.4-3.3,6.3c0,1,0,2-0.1,3c0,1-0.1,2-0.1,3.1
				c0,2.1,0,4.2,0.1,6.3c0.1,2.1,0.2,4.2,0.5,6.5c-0.9-0.1-1.7-0.1-2.6-0.1s-1.8,0-2.6,0c-0.9,0-1.7,0-2.6,0c-0.9,0-1.8,0-2.6,0.1
				c0.1-1.9,0.2-3.8,0.4-5.8c0.2-2,0.3-4,0.3-5.9c0-0.9,0-1.9,0-2.9c0-1-0.1-1.9-0.1-2.9c-1-2.1-2.2-4.4-3.6-6.9
				c-1.3-2.5-2.6-5-3.9-7.4c-1.3-2.4-2.4-4.6-3.5-6.5c-1.1-1.9-1.8-3.3-2.3-4.2c0.9,0.1,1.9,0.2,2.8,0.2c0.9,0.1,1.8,0.1,2.8,0.1
				c0.9,0,1.9,0,2.8-0.1c0.9-0.1,1.8-0.1,2.8-0.2c0.7,1.5,1.5,3.2,2.4,5.1c0.9,1.9,1.8,3.7,2.6,5.4c0.9,1.8,1.7,3.4,2.4,4.8
				c0.7,1.4,1.3,2.5,1.8,3.2h0.1C327.7,849.1,328.5,847.8,329.3,846.3z"/>
			<path class="st0" d="M351.4,839.8c-0.1-2.7-0.2-5.3-0.4-8c0.7,0.1,1.5,0.2,2.3,0.2c0.8,0.1,1.8,0.1,2.8,0.1
				c1.4,0,2.9-0.1,4.5-0.2s3.1-0.2,4.6-0.2c2.9,0,5.2,0.2,6.9,0.7c1.7,0.4,3,1.1,3.9,1.9c1.3,1.1,2.3,2.3,2.9,3.6
				c0.6,1.3,0.9,2.9,0.9,4.8c0,2.4-0.4,4.4-1.2,6.1c-0.8,1.7-1.9,3.1-3.3,4.1c-1.4,1.1-3.1,1.8-5,2.3c-1.9,0.5-4.1,0.7-6.4,0.7h-3.2
				c0,3.1,0,6.2,0.1,9.3c0.1,3.1,0.2,6.1,0.4,9.1c-0.7-0.1-1.5-0.1-2.3-0.1c-0.8,0-1.8,0-2.8,0c-1,0-2,0-2.8,0c-0.8,0-1.6,0-2.3,0.1
				c0.2-2.6,0.3-5.2,0.4-7.8c0.1-2.7,0.1-5.7,0.1-9.1v-8.4C351.5,845.5,351.5,842.4,351.4,839.8z M369.4,839.7
				c-0.4-1.1-0.8-1.9-1.4-2.6c-0.6-0.6-1.3-1.1-2.1-1.4c-0.8-0.3-1.6-0.4-2.5-0.4H362c-0.2,0-0.4,0-0.6,0c-0.2,0-0.4,0-0.6,0.1
				c0,3-0.1,5.9-0.1,8.8c0,2.9,0,5.7,0,8.6c1,0,2.1-0.1,3.2-0.3c1.1-0.2,2.1-0.6,3-1.3c0.9-0.6,1.7-1.6,2.2-2.8
				c0.6-1.2,0.9-2.8,0.9-4.8C370,842.1,369.8,840.8,369.4,839.7z"/>
			<path class="st0" d="M397.5,838.6c0-1-0.1-1.7-0.2-2.2c-0.6,0-1.4,0-2.3,0.1c-0.9,0-1.9,0.1-2.9,0.2c-1,0.1-2.1,0.1-3.2,0.2
				c-1.1,0.1-2.1,0.2-3,0.3c0.1-0.5,0.2-0.9,0.2-1.4c0.1-0.5,0.1-0.9,0.1-1.4c0-0.5,0-0.9-0.1-1.4s-0.1-0.9-0.2-1.4
				c1.4,0,2.7,0.1,3.8,0.1c1.1,0,2.3,0.1,3.5,0.1c1.2,0,2.5,0,3.8,0.1c1.4,0,3,0,5,0c1.9,0,3.6,0,5,0c1.4,0,2.7,0,3.8-0.1
				c1.2,0,2.3-0.1,3.4-0.1c1.1,0,2.3-0.1,3.6-0.1c-0.1,0.5-0.2,0.9-0.2,1.4c-0.1,0.5-0.1,0.9-0.1,1.4c0,0.5,0,0.9,0.1,1.4
				c0.1,0.5,0.1,0.9,0.2,1.4c-0.8-0.1-1.8-0.2-2.8-0.3c-1-0.1-2.1-0.2-3.1-0.2c-1-0.1-2-0.1-2.9-0.2c-0.9,0-1.7-0.1-2.3-0.1
				c0,0.2-0.1,0.5-0.1,0.9c0,0.4,0,0.8,0,1.3v3.3v15.5c0,3.4,0,6.5,0.1,9.1c0.1,2.7,0.2,5.3,0.4,7.8c-0.7-0.1-1.5-0.1-2.3-0.1
				c-0.8,0-1.8,0-2.8,0c-1,0-2,0-2.8,0c-0.8,0-1.6,0-2.3,0.1c0.2-2.6,0.3-5.2,0.4-7.8c0.1-2.7,0.1-5.7,0.1-9.1v-15.5
				C397.5,840.7,397.5,839.6,397.5,838.6z"/>
			<path class="st0" d="M424.4,844.5c1.1-2.7,2.7-5,4.8-7.1c2.1-2,4.6-3.6,7.5-4.8c2.9-1.2,6.2-1.7,9.8-1.7c3.3,0,6.4,0.5,9.2,1.4
				c2.8,0.9,5.3,2.3,7.4,4.1c2.1,1.8,3.8,4.1,5,6.9c1.2,2.8,1.8,6,1.8,9.8c0,3.1-0.6,6-1.8,8.7c-1.2,2.7-2.8,5-4.9,7
				c-2.1,2-4.6,3.6-7.5,4.7c-2.9,1.1-6.1,1.7-9.5,1.7c-3.3,0-6.3-0.4-9.2-1.2c-2.9-0.8-5.4-2.1-7.5-3.9c-2.1-1.8-3.8-4.1-5-6.9
				c-1.2-2.8-1.9-6.1-1.9-10C422.7,850.1,423.3,847.2,424.4,844.5z M458.8,844.5c-0.7-2.1-1.6-3.9-2.8-5.4c-1.2-1.5-2.6-2.6-4.3-3.4
				c-1.7-0.8-3.5-1.2-5.5-1.2c-2.1,0-4,0.5-5.7,1.5c-1.7,1-3.1,2.4-4.2,4.1c-1.2,1.7-2,3.8-2.6,6.1c-0.6,2.3-0.9,4.8-0.9,7.5
				c0,3.3,0.3,6.1,1.1,8.4c0.7,2.3,1.7,4.1,2.8,5.5c1.2,1.4,2.6,2.4,4.1,3c1.6,0.6,3.2,0.9,5,0.9c1.9,0,3.6-0.4,5.3-1.2
				c1.7-0.8,3.2-2,4.4-3.6c1.3-1.6,2.3-3.7,3-6.1c0.8-2.5,1.1-5.4,1.1-8.8C459.8,849.1,459.5,846.7,458.8,844.5z"/>
			<path class="st0" d="M504.9,838.6c0-1-0.1-1.7-0.2-2.2c-0.6,0-1.4,0-2.3,0.1c-0.9,0-1.9,0.1-2.9,0.2c-1,0.1-2.1,0.1-3.2,0.2
				c-1.1,0.1-2.1,0.2-3,0.3c0.1-0.5,0.2-0.9,0.2-1.4c0.1-0.5,0.1-0.9,0.1-1.4c0-0.5,0-0.9-0.1-1.4c-0.1-0.5-0.1-0.9-0.2-1.4
				c1.4,0,2.7,0.1,3.8,0.1c1.1,0,2.3,0.1,3.5,0.1c1.2,0,2.5,0,3.8,0.1c1.4,0,3,0,5,0c1.9,0,3.6,0,5,0c1.4,0,2.7,0,3.8-0.1
				c1.2,0,2.3-0.1,3.4-0.1c1.1,0,2.3-0.1,3.6-0.1c-0.1,0.5-0.2,0.9-0.2,1.4c-0.1,0.5-0.1,0.9-0.1,1.4c0,0.5,0,0.9,0.1,1.4
				c0.1,0.5,0.1,0.9,0.2,1.4c-0.8-0.1-1.8-0.2-2.8-0.3c-1-0.1-2.1-0.2-3.1-0.2c-1-0.1-2-0.1-2.9-0.2c-0.9,0-1.7-0.1-2.3-0.1
				c0,0.2-0.1,0.5-0.1,0.9c0,0.4,0,0.8,0,1.3v3.3v15.5c0,3.4,0,6.5,0.1,9.1s0.2,5.3,0.4,7.8c-0.7-0.1-1.5-0.1-2.3-0.1
				c-0.8,0-1.8,0-2.8,0c-1,0-2,0-2.8,0c-0.8,0-1.6,0-2.3,0.1c0.2-2.6,0.3-5.2,0.4-7.8c0.1-2.7,0.1-5.7,0.1-9.1v-15.5
				C505,840.7,505,839.6,504.9,838.6z"/>
			<path class="st0" d="M531.9,844.5c1.1-2.7,2.7-5,4.8-7.1c2.1-2,4.6-3.6,7.5-4.8c2.9-1.2,6.2-1.7,9.8-1.7c3.3,0,6.4,0.5,9.2,1.4
				c2.8,0.9,5.3,2.3,7.4,4.1c2.1,1.8,3.8,4.1,5,6.9c1.2,2.8,1.8,6,1.8,9.8c0,3.1-0.6,6-1.8,8.7c-1.2,2.7-2.8,5-4.9,7
				c-2.1,2-4.6,3.6-7.5,4.7c-2.9,1.1-6.1,1.7-9.5,1.7c-3.3,0-6.3-0.4-9.2-1.2c-2.9-0.8-5.4-2.1-7.5-3.9c-2.1-1.8-3.8-4.1-5-6.9
				c-1.2-2.8-1.9-6.1-1.9-10C530.2,850.1,530.7,847.2,531.9,844.5z M566.3,844.5c-0.7-2.1-1.6-3.9-2.8-5.4c-1.2-1.5-2.6-2.6-4.3-3.4
				c-1.7-0.8-3.5-1.2-5.5-1.2c-2.1,0-4,0.5-5.7,1.5c-1.7,1-3.1,2.4-4.2,4.1c-1.2,1.7-2,3.8-2.6,6.1c-0.6,2.3-0.9,4.8-0.9,7.5
				c0,3.3,0.3,6.1,1.1,8.4c0.7,2.3,1.6,4.1,2.8,5.5c1.2,1.4,2.6,2.4,4.1,3c1.6,0.6,3.2,0.9,5,0.9c1.9,0,3.6-0.4,5.3-1.2
				c1.7-0.8,3.2-2,4.4-3.6c1.3-1.6,2.3-3.7,3-6.1c0.8-2.5,1.1-5.4,1.1-8.8C567.3,849.1,566.9,846.7,566.3,844.5z"/>
			<path class="st0" d="M597.5,866.6c0,3.2,0.2,5.8,0.4,7.7c-0.7-0.1-1.5-0.1-2.3-0.1c-0.8,0-1.8,0-2.8,0c-1,0-2,0-2.8,0
				c-0.8,0-1.6,0-2.3,0.1c0.2-2.6,0.3-5.2,0.4-7.8c0.1-2.7,0.1-5.7,0.1-9.1v-8.4c0-3.4,0-6.5-0.1-9.1c-0.1-2.7-0.2-5.3-0.4-8
				c0.7,0.1,1.5,0.2,2.3,0.2c0.8,0.1,1.8,0.1,2.8,0.1c1,0,2,0,2.8-0.1c0.8-0.1,1.6-0.1,2.3-0.2c-0.2,1.2-0.3,3.1-0.4,5.6
				c-0.1,2.5-0.1,5.2-0.1,8.2v5.9c1.4-1.7,2.9-3.5,4.5-5.4c1.6-2,3.2-3.9,4.6-5.7c1.5-1.9,2.8-3.6,4-5.1c1.2-1.5,2.1-2.7,2.6-3.5
				c0.6,0.1,1.2,0.2,1.7,0.2c0.6,0.1,1.2,0.1,1.7,0.1c0.6,0,1.2,0,1.8-0.1c0.6-0.1,1.2-0.1,2-0.2c-0.7,0.7-1.8,1.8-3.2,3.4
				c-1.4,1.6-3,3.3-4.6,5.1c-1.6,1.8-3.2,3.6-4.7,5.3c-1.5,1.7-2.6,3.1-3.5,4.1c1.3,2,2.8,4.3,4.4,6.7c1.6,2.4,3.2,4.8,4.8,7.1
				c1.6,2.3,3.1,4.5,4.4,6.4c1.4,2,2.5,3.4,3.3,4.4c-1.2-0.1-2.3-0.1-3.2-0.1c-1,0-1.9,0-2.8,0c-0.9,0-1.8,0-2.7,0s-1.8,0-2.7,0.1
				c-2.1-3.1-4.2-6.3-6.2-9.6c-2-3.2-4.1-6.5-6.2-9.7h-0.1C597.4,859.5,597.4,863.4,597.5,866.6z"/>
			<path class="st0" d="M629.6,839.8c-0.1-2.7-0.2-5.3-0.3-8c1.9,0,3.7,0.1,5.5,0.2c1.8,0.1,3.7,0.1,5.5,0.1c3.1,0,5.8,0,8.1-0.1
				c2.4-0.1,4-0.1,4.8-0.2c-0.2,0.7-0.2,1.5-0.2,2.6c0,0.7,0,1.2,0.1,1.5c0,0.4,0.1,0.8,0.2,1.2c-1.2-0.1-2.5-0.2-3.9-0.2
				c-1.4-0.1-2.8-0.2-4.1-0.2c-1.3-0.1-2.5-0.1-3.6-0.2c-1.1,0-1.8-0.1-2.3-0.1c-0.2,2.3-0.3,4.5-0.3,6.7c0,2.2,0,4.5,0,6.7
				c2.7,0,5.1-0.1,7.3-0.2c2.2-0.1,4.4-0.2,6.8-0.3c-0.1,0.7-0.2,1.2-0.2,1.6c0,0.4-0.1,0.8-0.1,1.2c0,0.3,0,0.7,0.1,1
				c0.1,0.4,0.1,0.9,0.2,1.5c-4.7-0.4-9.4-0.6-14.1-0.6c0,1.3,0,2.6,0,4c0,1.3,0,2.6,0,4c0,2.7,0.1,5.3,0.2,7.7
				c2.4,0,4.7-0.1,7.1-0.2c2.4-0.1,4.7-0.3,7.1-0.6c-0.1,0.5-0.1,0.9-0.2,1.2c0,0.4-0.1,0.9-0.1,1.5s0,1.2,0.1,1.5
				c0,0.4,0.1,0.7,0.2,0.9c-1.1,0-2.5-0.1-4.1-0.1c-1.6,0-3.9,0-6.7,0c-2.5,0-4.6,0-6.1,0c-1.5,0-2.8,0-3.7,0c-0.9,0-1.6,0-2.1,0
				c-0.5,0-0.9,0.1-1.2,0.1c0.1-2.6,0.3-5.2,0.3-7.8c0.1-2.7,0.1-5.7,0.1-9.1v-8.4C629.7,845.5,629.7,842.4,629.6,839.8z"/>
			<path class="st0" d="M665.4,836.9c-0.1-1.9-0.1-3.7-0.2-5.1c1.2,0.2,2.1,0.3,2.8,0.3c0.7,0,1.6-0.1,2.8-0.3
				c4.5,5,8.9,9.9,13.3,14.7s8.9,9.7,13.5,14.7v-5.4v-6c0-2,0-4,0-6c0-2,0-3.8-0.1-5.4c0-1.6-0.1-3.1-0.1-4.3
				c-0.1-1.2-0.1-2-0.2-2.4c1.2,0.2,2.1,0.3,2.8,0.3c0.7,0,1.6-0.1,2.8-0.3c-0.2,3.8-0.4,7.1-0.5,10.2c-0.1,3-0.2,5.9-0.3,8.6
				c-0.1,2.7-0.1,5.3-0.2,8c0,2.6,0,5.4,0,8.4v7.4c-0.8-0.1-1.7-0.1-2.5-0.1c-0.9,0-1.7,0-2.4,0.1c-8.5-9.9-17.5-19.9-27.1-29.9
				c0,1.2-0.1,2.4-0.1,3.6c0,1.2,0,2.4,0,3.7v7.2c0,2.5,0,4.6,0,6.3c0,1.7,0,3.2,0.1,4.4c0,1.2,0.1,2.2,0.1,2.9
				c0,0.8,0.1,1.4,0.1,1.8c-0.5-0.1-1-0.1-1.5-0.1c-0.5,0-1,0-1.4,0c-1,0-1.9,0-2.8,0.1c0.1-0.3,0.2-1.5,0.3-3.5
				c0.1-2,0.3-4.5,0.4-7.4c0.1-2.9,0.3-6.1,0.4-9.5c0.1-3.4,0.2-6.7,0.2-9.8C665.6,841.2,665.5,838.8,665.4,836.9z"/>
		</g>
	</g>
	<g>
		<g>
			<path class="st0" d="M99.5,897.7c-0.1-2.7-0.2-5.3-0.4-8c0.7,0.1,1.5,0.2,2.3,0.2c0.8,0.1,1.8,0.1,2.8,0.1c1,0,2,0,2.8-0.1
				c0.8-0.1,1.6-0.1,2.3-0.2c-0.2,2.7-0.3,5.4-0.4,8c-0.1,2.7-0.1,5.7-0.1,9.1v8.4c0,3.4,0,6.5,0.1,9.1c0.1,2.7,0.2,5.3,0.4,7.8
				c-0.7-0.1-1.5-0.1-2.3-0.1c-0.8,0-1.8,0-2.8,0c-1,0-2,0-2.8,0c-0.8,0-1.6,0-2.3,0.1c0.2-2.6,0.3-5.2,0.4-7.8
				c0.1-2.7,0.1-5.7,0.1-9.1v-8.4C99.6,903.4,99.5,900.4,99.5,897.7z"/>
			<path class="st0" d="M124.1,894.9c-0.1-1.9-0.1-3.7-0.2-5.1c1.2,0.2,2.1,0.3,2.8,0.3s1.6-0.1,2.8-0.3c4.5,5,8.9,9.9,13.3,14.7
				c4.4,4.8,8.9,9.7,13.5,14.7v-5.4v-6c0-2,0-4,0-6c0-2,0-3.8-0.1-5.4c0-1.6-0.1-3.1-0.1-4.3c-0.1-1.2-0.1-2-0.2-2.4
				c1.2,0.2,2.1,0.3,2.8,0.3c0.7,0,1.6-0.1,2.8-0.3c-0.2,3.8-0.4,7.1-0.5,10.2c-0.1,3-0.2,5.9-0.3,8.6c-0.1,2.7-0.1,5.3-0.2,8
				c0,2.6,0,5.4,0,8.4v7.4c-0.8-0.1-1.7-0.1-2.5-0.1c-0.9,0-1.7,0-2.4,0.1c-8.5-9.9-17.5-19.9-27.1-29.9c0,1.2-0.1,2.4-0.1,3.6
				c0,1.2,0,2.4,0,3.7v7.2c0,2.5,0,4.6,0,6.3c0,1.7,0.1,3.2,0.1,4.4c0,1.2,0.1,2.2,0.1,2.9c0,0.8,0.1,1.4,0.1,1.8
				c-0.5-0.1-1-0.1-1.5-0.1c-0.5,0-1,0-1.4,0c-0.9,0-1.9,0-2.8,0.1c0.1-0.3,0.2-1.5,0.3-3.5c0.1-2,0.3-4.5,0.4-7.4
				c0.1-2.9,0.3-6.1,0.4-9.5c0.1-3.4,0.2-6.7,0.2-9.8C124.2,899.2,124.2,896.8,124.1,894.9z"/>
			<path class="st0" d="M199.6,905c2-5.3,3.8-10.4,5.4-15.3c1,0.2,1.9,0.3,2.7,0.3c0.8,0,1.7-0.1,2.7-0.3c-1,2.4-2.3,5.4-3.7,8.8
				c-1.4,3.4-3,7.1-4.5,10.9c-1.6,3.8-3.1,7.7-4.6,11.7c-1.5,4-2.9,7.7-4.1,11.1c-0.8-0.1-1.7-0.1-2.7-0.1c-1,0-1.9,0-2.7,0.1
				c-0.6-1.7-1.4-3.7-2.3-6c-0.9-2.4-1.8-4.8-2.8-7.5c-1-2.6-2.1-5.3-3.2-8.1c-1.1-2.8-2.2-5.4-3.2-8c-1-2.6-2-5-2.9-7.2
				c-0.9-2.2-1.7-4.1-2.4-5.7c0.9,0.1,1.9,0.2,2.8,0.2c0.9,0.1,1.8,0.1,2.8,0.1c0.9,0,1.8,0,2.7-0.1c0.9-0.1,1.8-0.1,2.7-0.2
				c0.7,2.3,1.5,4.7,2.4,7.3c0.9,2.6,1.8,5.2,2.8,7.8c0.9,2.7,1.9,5.3,2.9,8c1,2.7,2,5.3,2.9,7.9C195.5,915.6,197.6,910.3,199.6,905
				z"/>
			<path class="st0" d="M219.8,897.7c-0.1-2.7-0.2-5.3-0.3-8c1.9,0,3.7,0.1,5.5,0.2c1.8,0.1,3.7,0.1,5.5,0.1c3.1,0,5.8,0,8.1-0.1
				c2.4-0.1,4-0.1,4.8-0.2c-0.2,0.7-0.2,1.5-0.2,2.6c0,0.7,0,1.2,0.1,1.5c0,0.4,0.1,0.8,0.2,1.2c-1.2-0.1-2.5-0.2-3.9-0.2
				c-1.4-0.1-2.8-0.2-4.1-0.2c-1.3-0.1-2.5-0.1-3.6-0.2c-1.1,0-1.8-0.1-2.3-0.1c-0.2,2.3-0.3,4.5-0.3,6.7c0,2.2,0,4.5,0,6.7
				c2.7,0,5.1-0.1,7.3-0.2c2.2-0.1,4.4-0.2,6.8-0.3c-0.1,0.7-0.2,1.2-0.2,1.6c0,0.4-0.1,0.8-0.1,1.2c0,0.3,0,0.7,0.1,1
				c0.1,0.4,0.1,0.9,0.2,1.5c-4.7-0.4-9.4-0.6-14.1-0.6c0,1.3,0,2.6,0,4c0,1.3,0,2.6,0,4c0,2.7,0.1,5.3,0.2,7.7
				c2.4,0,4.7-0.1,7.1-0.2c2.4-0.1,4.7-0.3,7.1-0.6c-0.1,0.5-0.1,0.9-0.2,1.2c0,0.4-0.1,0.9-0.1,1.5s0,1.2,0.1,1.5
				c0,0.4,0.1,0.7,0.2,0.9c-1.1,0-2.5-0.1-4.1-0.1c-1.6,0-3.9,0-6.7,0c-2.5,0-4.6,0-6.1,0c-1.5,0-2.8,0-3.7,0c-0.9,0-1.6,0-2.1,0
				c-0.5,0-0.9,0.1-1.2,0.1c0.1-2.6,0.3-5.2,0.3-7.8c0.1-2.7,0.1-5.7,0.1-9.1v-8.4C219.9,903.4,219.9,900.4,219.8,897.7z"/>
			<path class="st0" d="M266,892.8c-1.9,0-3.4,0.6-4.6,1.7c-1.2,1.1-1.8,2.4-1.8,3.9c0,1.5,0.5,2.8,1.4,3.7c0.9,1,2.1,1.8,3.5,2.6
				c1.4,0.8,2.9,1.5,4.5,2.3c1.6,0.7,3.1,1.6,4.5,2.7c1.4,1.1,2.6,2.3,3.5,3.8c0.9,1.5,1.4,3.4,1.4,5.8c0,2.1-0.4,4-1.2,5.7
				c-0.8,1.7-1.9,3.2-3.3,4.4c-1.4,1.2-3.2,2.1-5.2,2.8c-2,0.6-4.2,1-6.7,1c-2.2,0-4.2-0.2-6-0.7c-1.8-0.5-3.1-1.1-4-1.8
				c0.4-1.4,0.8-2.8,1.1-4c0.3-1.2,0.5-2.5,0.7-3.9h1.2c0.2,0.9,0.5,1.8,0.9,2.6c0.5,0.8,1,1.5,1.7,2.1s1.5,1.1,2.5,1.5
				c1,0.4,2.1,0.5,3.3,0.5c2.5,0,4.3-0.6,5.5-1.9c1.2-1.2,1.8-2.7,1.8-4.5c0-1.6-0.5-2.8-1.4-3.8c-0.9-1-2-1.9-3.4-2.6
				c-1.4-0.8-2.8-1.5-4.5-2.2c-1.6-0.7-3.1-1.6-4.5-2.6c-1.4-1-2.5-2.3-3.4-3.8c-0.9-1.5-1.4-3.4-1.4-5.8c0-2.1,0.4-4,1.1-5.7
				c0.8-1.6,1.8-3,3.1-4.1c1.3-1.1,2.8-2,4.4-2.5c1.7-0.6,3.4-0.9,5.3-0.9c2.2,0,4.2,0.3,5.8,0.8c1.7,0.5,3.1,1.3,4.3,2.2
				c-0.4,1-0.7,1.9-1,2.8c-0.3,0.9-0.6,2-1,3.4h-0.9C272.2,894.5,269.7,892.8,266,892.8z"/>
			<path class="st0" d="M297.2,896.5c0-1-0.1-1.7-0.2-2.2c-0.6,0-1.4,0-2.3,0.1c-0.9,0-1.9,0.1-2.9,0.2c-1,0.1-2.1,0.1-3.2,0.2
				c-1.1,0.1-2.1,0.2-3,0.3c0.1-0.5,0.2-0.9,0.2-1.4c0.1-0.5,0.1-0.9,0.1-1.4c0-0.5,0-0.9-0.1-1.4c-0.1-0.5-0.1-0.9-0.2-1.4
				c1.4,0,2.7,0.1,3.8,0.1c1.1,0,2.3,0.1,3.5,0.1c1.2,0,2.5,0,3.8,0.1c1.4,0,3,0,5,0c1.9,0,3.6,0,5,0c1.4,0,2.7,0,3.8-0.1
				c1.2,0,2.3-0.1,3.4-0.1c1.1,0,2.3-0.1,3.6-0.1c-0.1,0.5-0.2,0.9-0.2,1.4c-0.1,0.5-0.1,0.9-0.1,1.4c0,0.5,0,0.9,0.1,1.4
				c0.1,0.5,0.1,0.9,0.2,1.4c-0.8-0.1-1.8-0.2-2.8-0.3c-1-0.1-2.1-0.2-3.1-0.2c-1-0.1-2-0.1-2.9-0.2c-0.9,0-1.7-0.1-2.3-0.1
				c0,0.2-0.1,0.5-0.1,0.9c0,0.4,0,0.8,0,1.3v3.3v15.5c0,3.4,0,6.5,0.1,9.1c0.1,2.7,0.2,5.3,0.4,7.8c-0.7-0.1-1.5-0.1-2.3-0.1
				c-0.8,0-1.8,0-2.8,0c-1,0-2,0-2.8,0c-0.8,0-1.6,0-2.3,0.1c0.2-2.6,0.3-5.2,0.4-7.8c0.1-2.7,0.1-5.7,0.1-9.1v-15.5
				C297.2,898.6,297.2,897.5,297.2,896.5z"/>
			<path class="st0" d="M331.5,918.4c-0.3,4.6-0.7,9.2-1,13.9c-0.5-0.1-1-0.1-1.5-0.1c-0.5,0-1,0-1.4,0c-0.5,0-1,0-1.5,0
				c-0.5,0-1,0-1.5,0.1c1.3-7.1,2.5-14.2,3.5-21.2c1-7,2-14.1,2.8-21.4c0.5,0.1,0.9,0.2,1.3,0.2c0.4,0.1,0.8,0.1,1.3,0.1
				c0.4,0,0.8,0,1.2-0.1c0.4-0.1,0.8-0.1,1.3-0.2c1.1,2.5,2.3,5,3.5,7.6c1.2,2.6,2.4,5.1,3.7,7.6c1.2,2.5,2.4,5,3.7,7.5
				c1.2,2.4,2.4,4.7,3.5,6.9c2.5-4.6,4.9-9.5,7.4-14.5c2.5-5.1,4.8-10.1,7-15.1c1,0.2,1.9,0.3,2.7,0.3c0.7,0,1.6-0.1,2.6-0.3
				c0.4,3.5,0.9,7.4,1.3,11.5c0.5,4.1,0.9,8.1,1.4,12c0.5,3.9,0.9,7.5,1.4,10.9c0.5,3.4,0.9,6.1,1.2,8.2c-0.8-0.1-1.7-0.1-2.5-0.1
				c-0.8,0-1.7,0-2.5,0c-0.8,0-1.7,0-2.5,0s-1.7,0-2.6,0.1c-0.2-4.2-0.5-8.9-1-13.8c-0.5-5-1-9.9-1.5-14.7h-0.1
				c-2.4,4.9-4.7,9.7-6.9,14.4c-2.3,4.7-4.5,9.4-6.7,14.2c-0.2,0-0.4-0.1-0.6-0.1c-0.2,0-0.4,0-0.6,0c-0.2,0-0.4,0-0.6,0
				c-0.2,0-0.4,0.1-0.6,0.1c-2.2-4.6-4.4-9.2-6.7-13.9c-2.2-4.6-4.5-9.3-6.8-14.1H333C332.3,909.1,331.8,913.8,331.5,918.4z"/>
			<path class="st0" d="M386,897.7c-0.1-2.7-0.2-5.3-0.3-8c1.9,0,3.7,0.1,5.5,0.2c1.8,0.1,3.7,0.1,5.5,0.1c3.1,0,5.8,0,8.1-0.1
				c2.4-0.1,4-0.1,4.8-0.2c-0.2,0.7-0.2,1.5-0.2,2.6c0,0.7,0,1.2,0.1,1.5c0,0.4,0.1,0.8,0.2,1.2c-1.2-0.1-2.5-0.2-3.9-0.2
				c-1.4-0.1-2.8-0.2-4.1-0.2c-1.3-0.1-2.5-0.1-3.6-0.2c-1.1,0-1.8-0.1-2.3-0.1c-0.2,2.3-0.3,4.5-0.3,6.7c0,2.2,0,4.5,0,6.7
				c2.7,0,5.1-0.1,7.3-0.2c2.2-0.1,4.4-0.2,6.8-0.3c-0.1,0.7-0.2,1.2-0.2,1.6c0,0.4-0.1,0.8-0.1,1.2c0,0.3,0,0.7,0.1,1
				c0.1,0.4,0.1,0.9,0.2,1.5c-4.7-0.4-9.4-0.6-14.1-0.6c0,1.3,0,2.6,0,4c0,1.3,0,2.6,0,4c0,2.7,0.1,5.3,0.2,7.7
				c2.4,0,4.7-0.1,7.1-0.2c2.4-0.1,4.7-0.3,7.1-0.6c-0.1,0.5-0.1,0.9-0.2,1.2c0,0.4-0.1,0.9-0.1,1.5s0,1.2,0.1,1.5
				c0,0.4,0.1,0.7,0.2,0.9c-1.1,0-2.5-0.1-4.1-0.1c-1.6,0-3.9,0-6.7,0c-2.5,0-4.6,0-6.1,0c-1.5,0-2.8,0-3.7,0c-0.9,0-1.6,0-2.1,0
				c-0.5,0-0.9,0.1-1.2,0.1c0.1-2.6,0.3-5.2,0.3-7.8c0.1-2.7,0.1-5.7,0.1-9.1v-8.4C386.1,903.4,386.1,900.4,386,897.7z"/>
			<path class="st0" d="M421.9,894.9c-0.1-1.9-0.1-3.7-0.2-5.1c1.2,0.2,2.1,0.3,2.8,0.3c0.7,0,1.6-0.1,2.8-0.3
				c4.5,5,8.9,9.9,13.3,14.7c4.4,4.8,8.9,9.7,13.5,14.7v-5.4v-6c0-2,0-4,0-6c0-2,0-3.8-0.1-5.4c0-1.6-0.1-3.1-0.1-4.3
				c-0.1-1.2-0.1-2-0.2-2.4c1.2,0.2,2.1,0.3,2.8,0.3c0.7,0,1.6-0.1,2.8-0.3c-0.2,3.8-0.4,7.1-0.5,10.2c-0.1,3-0.2,5.9-0.3,8.6
				c-0.1,2.7-0.1,5.3-0.2,8c0,2.6,0,5.4,0,8.4v7.4c-0.8-0.1-1.7-0.1-2.5-0.1c-0.9,0-1.7,0-2.4,0.1c-8.5-9.9-17.5-19.9-27.1-29.9
				c0,1.2-0.1,2.4-0.1,3.6c0,1.2,0,2.4,0,3.7v7.2c0,2.5,0,4.6,0,6.3c0,1.7,0.1,3.2,0.1,4.4c0,1.2,0.1,2.2,0.1,2.9
				c0,0.8,0.1,1.4,0.1,1.8c-0.5-0.1-1-0.1-1.5-0.1c-0.5,0-1,0-1.4,0c-0.9,0-1.9,0-2.8,0.1c0.1-0.3,0.2-1.5,0.3-3.5
				c0.1-2,0.3-4.5,0.4-7.4c0.1-2.9,0.3-6.1,0.4-9.5c0.1-3.4,0.2-6.7,0.2-9.8C422,899.2,421.9,896.8,421.9,894.9z"/>
			<path class="st0" d="M480.6,896.5c0-1-0.1-1.7-0.2-2.2c-0.6,0-1.4,0-2.3,0.1c-0.9,0-1.9,0.1-2.9,0.2c-1,0.1-2.1,0.1-3.2,0.2
				c-1.1,0.1-2.1,0.2-3,0.3c0.1-0.5,0.2-0.9,0.2-1.4c0.1-0.5,0.1-0.9,0.1-1.4c0-0.5,0-0.9-0.1-1.4c-0.1-0.5-0.1-0.9-0.2-1.4
				c1.4,0,2.7,0.1,3.8,0.1c1.1,0,2.3,0.1,3.5,0.1c1.2,0,2.5,0,3.8,0.1c1.4,0,3,0,5,0c1.9,0,3.6,0,5,0c1.4,0,2.7,0,3.8-0.1
				c1.2,0,2.3-0.1,3.4-0.1c1.1,0,2.3-0.1,3.6-0.1c-0.1,0.5-0.2,0.9-0.2,1.4c-0.1,0.5-0.1,0.9-0.1,1.4c0,0.5,0,0.9,0.1,1.4
				c0.1,0.5,0.1,0.9,0.2,1.4c-0.8-0.1-1.8-0.2-2.8-0.3c-1-0.1-2.1-0.2-3.1-0.2c-1-0.1-2-0.1-2.9-0.2c-0.9,0-1.7-0.1-2.3-0.1
				c0,0.2-0.1,0.5-0.1,0.9c0,0.4,0,0.8,0,1.3v3.3v15.5c0,3.4,0,6.5,0.1,9.1c0.1,2.7,0.2,5.3,0.4,7.8c-0.7-0.1-1.5-0.1-2.3-0.1
				c-0.8,0-1.8,0-2.8,0c-1,0-2,0-2.8,0c-0.8,0-1.6,0-2.3,0.1c0.2-2.6,0.3-5.2,0.4-7.8c0.1-2.7,0.1-5.7,0.1-9.1v-15.5
				C480.6,898.6,480.6,897.5,480.6,896.5z"/>
			<path class="st0" d="M565,932.3c-1-0.1-1.9-0.1-2.8-0.1c-0.9,0-1.8,0-2.6,0c-0.9,0-1.7,0-2.6,0c-0.9,0-1.8,0-2.6,0.1
				c-0.7-2-1.3-4.1-2-6.2c-0.7-2.1-1.4-4.2-2.2-6.3c-1.3,0-2.6-0.1-4-0.1c-1.3,0-2.6,0-4,0c-1.1,0-2.1,0-3.2,0
				c-1.1,0-2.1,0.1-3.2,0.1c-0.8,2.1-1.6,4.2-2.3,6.3c-0.7,2.1-1.3,4.2-1.9,6.2c-0.5-0.1-1-0.1-1.5-0.1c-0.5,0-1,0-1.5,0
				c-0.5,0-1,0-1.5,0c-0.5,0-1,0-1.6,0.1c0.5-1.1,1.2-2.6,2-4.5c0.8-1.9,1.7-4,2.7-6.4c1-2.4,2.1-5,3.2-7.7c1.1-2.7,2.3-5.5,3.4-8.3
				c1.1-2.8,2.2-5.6,3.3-8.3c1.1-2.7,2.1-5.3,3-7.6c0.4,0.1,0.8,0.2,1.2,0.2c0.4,0.1,0.8,0.1,1.2,0.1c0.4,0,0.8,0,1.2-0.1
				c0.4-0.1,0.8-0.1,1.2-0.2c1.3,3.5,2.7,7.3,4.2,11.3c1.5,4,3,7.9,4.6,11.8c1.5,3.9,3,7.5,4.5,11
				C562.5,926.9,563.8,929.9,565,932.3z M543.1,901.4c-1.1,2.5-2.1,4.9-3,7.3c-0.9,2.4-1.9,4.9-2.8,7.4h11.3c-0.9-2.5-1.8-5-2.7-7.4
				C545,906.3,544.1,903.8,543.1,901.4z"/>
			<path class="st0" d="M575,897.7c-0.1-2.7-0.2-5.3-0.4-8c0.7,0.1,1.5,0.2,2.3,0.2c0.8,0.1,1.8,0.1,2.8,0.1c1.4,0,2.9-0.1,4.6-0.2
				c1.7-0.1,3.9-0.2,6.6-0.2c3.5,0,6.8,0.3,9.7,1c2.9,0.6,5.4,1.7,7.5,3.2c2.1,1.5,3.7,3.6,4.9,6.2c1.2,2.6,1.7,5.8,1.7,9.8
				c0,3.4-0.6,6.5-1.7,9.3c-1.1,2.8-2.7,5.1-4.6,7.1c-2,2-4.2,3.5-6.8,4.5c-2.6,1-5.3,1.5-8.3,1.5c-3.1,0-5.7,0-7.9-0.1
				c-2.2,0-4.1-0.1-5.7-0.1c-1,0-2,0-2.8,0c-0.8,0-1.6,0-2.3,0.1c0.2-2.6,0.3-5.2,0.4-7.8c0.1-2.7,0.1-5.7,0.1-9.1v-8.4
				C575.1,903.4,575,900.4,575,897.7z M584.3,919.8v3.7c0,1.2,0,2.3,0,3.3c0,1,0,1.6,0,1.9c0.6,0,1.4,0.1,2.2,0.1s1.9,0.1,3.2,0.1
				c4.7,0,8.4-1.6,11.1-4.8c2.7-3.2,4.1-8,4.1-14.4c0-2.6-0.3-4.8-1-6.9c-0.7-2-1.6-3.7-2.9-5.2c-1.2-1.4-2.7-2.5-4.5-3.3
				c-1.7-0.8-3.7-1.1-5.8-1.1c-1.5,0-2.7,0-3.6,0.1c-0.9,0.1-1.9,0.1-2.8,0.2c0,0.3,0,0.9,0,1.9c0,1,0,2.1,0,3.3v3.7v3.1v11V919.8z"
				/>
			<path class="st0" d="M648.8,905c2-5.3,3.8-10.4,5.4-15.3c1,0.2,1.9,0.3,2.7,0.3c0.8,0,1.7-0.1,2.7-0.3c-1,2.4-2.3,5.4-3.7,8.8
				c-1.4,3.4-3,7.1-4.5,10.9c-1.6,3.8-3.1,7.7-4.6,11.7c-1.5,4-2.9,7.7-4.1,11.1c-0.8-0.1-1.7-0.1-2.7-0.1s-1.9,0-2.7,0.1
				c-0.6-1.7-1.4-3.7-2.3-6c-0.9-2.4-1.8-4.8-2.8-7.5c-1-2.6-2.1-5.3-3.2-8.1c-1.1-2.8-2.2-5.4-3.2-8c-1-2.6-2-5-2.9-7.2
				c-0.9-2.2-1.7-4.1-2.4-5.7c0.9,0.1,1.9,0.2,2.8,0.2c0.9,0.1,1.8,0.1,2.8,0.1c0.9,0,1.8,0,2.7-0.1c0.9-0.1,1.8-0.1,2.7-0.2
				c0.7,2.3,1.5,4.7,2.4,7.3c0.9,2.6,1.8,5.2,2.8,7.8c0.9,2.7,1.9,5.3,2.9,8c1,2.7,2,5.3,2.9,7.9C644.7,915.6,646.7,910.3,648.8,905
				z"/>
			<path class="st0" d="M669.8,897.7c-0.1-2.7-0.2-5.3-0.4-8c0.7,0.1,1.5,0.2,2.3,0.2c0.8,0.1,1.8,0.1,2.8,0.1c1,0,2,0,2.8-0.1
				c0.8-0.1,1.6-0.1,2.3-0.2c-0.2,2.7-0.3,5.4-0.4,8c-0.1,2.7-0.1,5.7-0.1,9.1v8.4c0,3.4,0,6.5,0.1,9.1c0.1,2.7,0.2,5.3,0.4,7.8
				c-0.7-0.1-1.5-0.1-2.3-0.1c-0.8,0-1.8,0-2.8,0c-1,0-2,0-2.8,0c-0.8,0-1.6,0-2.3,0.1c0.2-2.6,0.3-5.2,0.4-7.8
				c0.1-2.7,0.1-5.7,0.1-9.1v-8.4C669.9,903.4,669.9,900.4,669.8,897.7z"/>
			<path class="st0" d="M704.8,892.8c-1.9,0-3.4,0.6-4.6,1.7c-1.2,1.1-1.8,2.4-1.8,3.9c0,1.5,0.5,2.8,1.4,3.7c0.9,1,2.1,1.8,3.5,2.6
				c1.4,0.8,2.9,1.5,4.5,2.3c1.6,0.7,3.1,1.6,4.5,2.7c1.4,1.1,2.6,2.3,3.5,3.8c0.9,1.5,1.4,3.4,1.4,5.8c0,2.1-0.4,4-1.2,5.7
				c-0.8,1.7-1.9,3.2-3.3,4.4c-1.4,1.2-3.2,2.1-5.2,2.8s-4.2,1-6.7,1c-2.2,0-4.2-0.2-6-0.7c-1.8-0.5-3.1-1.1-4-1.8
				c0.4-1.4,0.8-2.8,1.1-4c0.3-1.2,0.5-2.5,0.7-3.9h1.2c0.2,0.9,0.5,1.8,0.9,2.6c0.5,0.8,1,1.5,1.7,2.1c0.7,0.6,1.5,1.1,2.5,1.5
				c1,0.4,2.1,0.5,3.3,0.5c2.5,0,4.3-0.6,5.5-1.9c1.2-1.2,1.8-2.7,1.8-4.5c0-1.6-0.5-2.8-1.4-3.8c-0.9-1-2-1.9-3.4-2.6
				c-1.4-0.8-2.8-1.5-4.5-2.2c-1.6-0.7-3.1-1.6-4.5-2.6c-1.4-1-2.5-2.3-3.4-3.8c-0.9-1.5-1.4-3.4-1.4-5.8c0-2.1,0.4-4,1.1-5.7
				c0.8-1.6,1.8-3,3.1-4.1c1.3-1.1,2.8-2,4.4-2.5c1.7-0.6,3.4-0.9,5.3-0.9c2.2,0,4.2,0.3,5.9,0.8c1.7,0.5,3.1,1.3,4.3,2.2
				c-0.4,1-0.7,1.9-1,2.8c-0.3,0.9-0.6,2-1,3.4h-0.9C711,894.5,708.5,892.8,704.8,892.8z"/>
			<path class="st0" d="M727,902.5c1.1-2.7,2.7-5,4.8-7.1c2.1-2,4.6-3.6,7.5-4.8c2.9-1.2,6.2-1.7,9.8-1.7c3.3,0,6.4,0.5,9.2,1.4
				c2.8,0.9,5.3,2.3,7.4,4.1c2.1,1.8,3.8,4.1,5,6.9c1.2,2.8,1.8,6,1.8,9.8c0,3.1-0.6,6-1.8,8.7c-1.2,2.7-2.8,5-4.9,7
				c-2.1,2-4.6,3.6-7.5,4.7c-2.9,1.1-6.1,1.7-9.5,1.7c-3.3,0-6.3-0.4-9.2-1.2c-2.9-0.8-5.4-2.1-7.5-3.9c-2.1-1.8-3.8-4.1-5-6.9
				c-1.2-2.8-1.9-6.1-1.9-10C725.3,908,725.9,905.2,727,902.5z M761.4,902.5c-0.7-2.1-1.6-3.9-2.8-5.4c-1.2-1.5-2.6-2.6-4.3-3.4
				c-1.7-0.8-3.5-1.2-5.5-1.2c-2.1,0-4,0.5-5.7,1.5c-1.7,1-3.1,2.4-4.2,4.1c-1.2,1.7-2,3.8-2.6,6.1c-0.6,2.3-0.9,4.8-0.9,7.5
				c0,3.3,0.3,6.1,1.1,8.4c0.7,2.3,1.6,4.1,2.8,5.5c1.2,1.4,2.6,2.4,4.1,3c1.6,0.6,3.2,0.9,5,0.9c1.9,0,3.6-0.4,5.3-1.2
				c1.7-0.8,3.2-2,4.4-3.6c1.3-1.6,2.3-3.7,3-6.1c0.8-2.5,1.1-5.4,1.1-8.8C762.4,907,762.1,904.6,761.4,902.5z"/>
			<path class="st0" d="M793.1,912.8v2.5c0,3.4,0,6.5,0.1,9.1c0.1,2.7,0.2,5.3,0.4,7.8c-0.7-0.1-1.5-0.1-2.3-0.1c-0.8,0-1.8,0-2.8,0
				c-1,0-2,0-2.8,0c-0.8,0-1.6,0-2.3,0.1c0.2-2.6,0.3-5.2,0.4-7.8c0.1-2.7,0.1-5.7,0.1-9.1v-8.4c0-3.4,0-6.5-0.1-9.1
				c-0.1-2.7-0.2-5.3-0.4-8c0.7,0.1,1.5,0.2,2.3,0.2c0.8,0.1,1.8,0.1,2.8,0.1c1.1,0,2.4-0.1,3.8-0.2c1.4-0.1,3.2-0.2,5.3-0.2
				c1.6,0,2.9,0,4,0.1c1.1,0.1,2.1,0.2,2.9,0.4c0.8,0.2,1.5,0.4,2.1,0.7c0.6,0.3,1.2,0.6,1.7,1c1.2,0.9,2.2,2,2.9,3.4
				c0.7,1.3,1.1,2.9,1.1,4.8c0,3-0.8,5.5-2.5,7.4c-1.7,1.9-4,3.2-7.1,4c2,3.5,4.1,7,6.4,10.5c2.3,3.5,4.5,6.9,6.8,10.4
				c-1-0.1-1.9-0.1-2.8-0.1c-0.9,0-1.8,0-2.8,0c-1,0-1.9,0-2.8,0s-1.9,0-2.8,0.1l-11.1-19.5H793.1z M802.4,897
				c-0.4-1.1-0.9-1.9-1.7-2.4c-0.8-0.6-1.8-0.9-3-1.1c-1.2-0.2-2.7-0.2-4.4-0.2c-0.1,5.6-0.2,11.2-0.2,16.8c0.2,0,0.5,0.1,0.7,0.1
				c0.2,0,0.4,0,0.7,0c2.7,0,4.8-0.7,6.3-2.2c1.4-1.5,2.2-3.7,2.2-6.7C802.9,899.5,802.7,898.1,802.4,897z"/>
			<path class="st0" d="M842,904.2c0.8-1.5,1.6-3.1,2.4-4.7c0.8-1.6,1.5-3.3,2.3-5c0.7-1.7,1.5-3.3,2.2-4.8c0.5,0.1,0.9,0.2,1.4,0.2
				c0.5,0.1,1,0.1,1.5,0.1c0.5,0,1,0,1.5-0.1c0.5-0.1,1-0.1,1.5-0.2c-0.7,1.2-1.6,2.7-2.6,4.5c-1.1,1.9-2.2,3.9-3.4,6.1
				c-1.2,2.2-2.4,4.4-3.6,6.7c-1.2,2.3-2.3,4.4-3.3,6.3c0,1,0,2-0.1,3c0,1-0.1,2-0.1,3.1c0,2.1,0,4.2,0.1,6.3
				c0.1,2.1,0.2,4.2,0.5,6.5c-0.9-0.1-1.7-0.1-2.6-0.1s-1.8,0-2.6,0c-0.9,0-1.7,0-2.6,0c-0.9,0-1.8,0-2.6,0.1
				c0.1-1.9,0.2-3.8,0.4-5.8c0.2-2,0.3-4,0.3-5.9c0-0.9,0-1.9,0-2.9c0-1-0.1-1.9-0.1-2.9c-1-2.1-2.2-4.4-3.6-6.9
				c-1.3-2.5-2.6-5-3.9-7.4c-1.3-2.4-2.4-4.6-3.5-6.5c-1.1-1.9-1.8-3.3-2.3-4.2c0.9,0.1,1.9,0.2,2.8,0.2c0.9,0.1,1.8,0.1,2.8,0.1
				c0.9,0,1.9,0,2.8-0.1c0.9-0.1,1.8-0.1,2.8-0.2c0.7,1.5,1.5,3.2,2.4,5.1c0.9,1.9,1.8,3.7,2.6,5.4c0.9,1.8,1.7,3.4,2.4,4.8
				c0.7,1.4,1.3,2.5,1.8,3.2h0.1C840.4,907.1,841.2,905.7,842,904.2z"/>
		</g>
	</g>
	<rect x="715.9" y="851.1" class="st0" width="133.4" height="3.5"/>
	<rect x="92.9" y="851.1" class="st0" width="105.6" height="3.5"/>
	<rect x="92.9" y="956.5" class="st0" width="757.6" height="3.5"/>
	<linearGradient id="SVGID_16_" gradientUnits="userSpaceOnUse" x1="843.7259" y1="655.1798" x2="716.2629" y2="737.9214">
		<stop  offset="0" style="stop-color:#002C82"/>
		<stop  offset="0.2012" style="stop-color:#0071BC"/>
		<stop  offset="0.4911" style="stop-color:#00FFFF"/>
		<stop  offset="0.7515" style="stop-color:#0071BC"/>
		<stop  offset="0.9879" style="stop-color:#002C82"/>
	</linearGradient>
	<path class="st16" d="M673.7,734c0,0,26.8-47,193.4-58.1c0,0-121.9,28-192.3,104"/>
</g>
</svg>
