<?xml version="1.0" encoding="utf-8"?>
<!-- Generator: Adobe Illustrator 22.1.0, SVG Export Plug-In . SVG Version: 6.00 Build 0)  -->
<svg version="1.1" id="레이어_1" xmlns="http://www.w3.org/2000/svg" xmlns:xlink="http://www.w3.org/1999/xlink" x="0px"
	 y="0px" viewBox="0 0 150 40.9" style="enable-background:new 0 0 150 40.9;" xml:space="preserve">
<style type="text/css">
	.st0{fill:#448AFF;}
</style>
<g>
	<g>
		<g>
			<path d="M55.1,12.7c4.9,0,8.5,3.2,8.5,7.8c0,4.7-3.6,7.9-8.5,7.9h-6.3V12.7H55.1z M55.1,24.8c2.5,0,4.5-1.9,4.5-4.4
				c0-2.4-2-4.3-4.5-4.3h-2.4v8.7L55.1,24.8L55.1,24.8z"/>
			<path d="M76.5,23.5L76.5,23.5l-8,0.1c0.3,1,1.1,1.8,2.5,1.8c0.8,0,1.4-0.3,1.7-0.8h3.7c-0.5,2.3-2.7,3.8-5.5,3.8
				c-3.7,0-6.1-2.4-6.1-5.9c0-3.4,2.4-5.8,6-5.8c3.3,0,5.7,2.2,5.7,5.6C76.6,22.7,76.6,23.1,76.5,23.5z M68.5,21.4h4.6
				c-0.2-1.2-1-1.9-2.2-1.9C69.6,19.5,68.8,20.3,68.5,21.4z"/>
			<path d="M86.4,23.5H90c-0.3,2.9-2.6,4.9-5.7,4.9c-3.5,0-6.1-2.4-6.1-5.9c0-3.4,2.6-5.8,6.1-5.8c3.1,0,5.5,2,5.7,4.9h-3.5
				c-0.2-1-1-1.7-2.2-1.7c-1.6,0-2.6,1.2-2.6,2.7s1,2.7,2.6,2.7C85.4,25.2,86.2,24.5,86.4,23.5z"/>
			<path d="M103.1,23.5L103.1,23.5l-8,0.1c0.3,1,1.1,1.8,2.5,1.8c0.8,0,1.4-0.3,1.7-0.8h3.7c-0.5,2.3-2.7,3.8-5.5,3.8
				c-3.7,0-6.1-2.4-6.1-5.9c0-3.4,2.4-5.8,6-5.8c3.3,0,5.7,2.2,5.7,5.6C103.2,22.7,103.2,23.1,103.1,23.5z M95.1,21.4h4.6
				c-0.2-1.2-1-1.9-2.2-1.9C96.2,19.5,95.4,20.3,95.1,21.4z"/>
			<path d="M116.7,22v6.4h-3.8v-5.8c0-1.6-0.8-2.4-2-2.4c-0.7,0-1.4,0.4-2.1,1.1v7H105V17.2h3.7V18c0.9-0.7,1.9-1.1,3.1-1.1
				C114.7,16.8,116.7,18.8,116.7,22z"/>
			<path d="M127.9,27.8c-1.5,0.5-2.3,0.6-3.4,0.6c-2.7,0-4.5-2-4.5-5v-3.3h-2.2v-3.2h2.2v-3.8h3.7v3.8h3.8v3.2h-3.8v3.2
				c0,1.1,0.6,1.7,1.8,1.7c0.5,0,1.2-0.1,2-0.3L127.9,27.8z"/>
			<path d="M140.5,23.5L140.5,23.5l-8,0.1c0.3,1,1.1,1.8,2.5,1.8c0.8,0,1.4-0.3,1.7-0.8h3.7c-0.5,2.3-2.7,3.8-5.5,3.8
				c-3.7,0-6.1-2.4-6.1-5.9c0-3.4,2.4-5.8,6-5.8c3.3,0,5.7,2.2,5.7,5.6C140.6,22.7,140.6,23.1,140.5,23.5z M132.5,21.4h4.6
				c-0.2-1.2-1-1.9-2.2-1.9C133.6,19.5,132.8,20.3,132.5,21.4z"/>
			<path d="M150,20.5c-1.8,0.1-3,0.6-3.9,1.4v6.4h-3.7V17.2h3.7v1.2c1-0.9,2.2-1.4,3.9-1.4V20.5z"/>
		</g>
	</g>
	<path class="st0" d="M40.5,16.2C40,11.9,38.7,7.8,36.8,4C33,2.1,28.9,0.8,24.7,0.3C23.3,0.1,21.9,0,20.4,0c-1.4,0-2.9,0.1-4.3,0.3
		C11.8,0.8,7.7,2.1,4,4c-2,3.9-3.2,8-3.7,12.2C0.1,17.6,0,19.1,0,20.5s0.1,2.9,0.3,4.3C0.8,29,2,33.1,4,36.9
		c3.8,1.9,7.9,3.2,12.1,3.7c1.4,0.2,2.8,0.3,4.3,0.3s2.9-0.1,4.3-0.3c4.3-0.5,8.4-1.8,12.2-3.7c1.9-3.8,3.2-7.9,3.7-12.1
		c0.2-1.4,0.3-2.8,0.3-4.3C40.7,19.1,40.6,17.6,40.5,16.2z M20.4,28c-2.2,0-4.5-0.3-6.6-0.9c-0.6-2.1-0.9-4.3-0.9-6.6
		s0.3-4.5,0.9-6.6c2.1-0.6,4.3-0.9,6.6-0.9s4.4,0.3,6.5,0.9c0.6,2.1,1,4.3,1,6.6c0,2.2-0.3,4.4-0.9,6.5C24.8,27.7,22.6,28,20.4,28z"
		/>
</g>
<g>
	<g>
		<g>
			<path d="M55.1,12.7c4.9,0,8.5,3.2,8.5,7.8c0,4.7-3.6,7.9-8.5,7.9h-6.3V12.7H55.1z M55.1,24.8c2.5,0,4.5-1.9,4.5-4.4
				c0-2.4-2-4.3-4.5-4.3h-2.4v8.7L55.1,24.8L55.1,24.8z"/>
			<path d="M76.5,23.5L76.5,23.5l-8,0.1c0.3,1,1.1,1.8,2.5,1.8c0.8,0,1.4-0.3,1.7-0.8h3.7c-0.5,2.3-2.7,3.8-5.5,3.8
				c-3.7,0-6.1-2.4-6.1-5.9c0-3.4,2.4-5.8,6-5.8c3.3,0,5.7,2.2,5.7,5.6C76.6,22.7,76.6,23.1,76.5,23.5z M68.5,21.4h4.6
				c-0.2-1.2-1-1.9-2.2-1.9C69.6,19.5,68.8,20.3,68.5,21.4z"/>
			<path d="M86.4,23.5H90c-0.3,2.9-2.6,4.9-5.7,4.9c-3.5,0-6.1-2.4-6.1-5.9c0-3.4,2.6-5.8,6.1-5.8c3.1,0,5.5,2,5.7,4.9h-3.5
				c-0.2-1-1-1.7-2.2-1.7c-1.6,0-2.6,1.2-2.6,2.7s1,2.7,2.6,2.7C85.4,25.2,86.2,24.5,86.4,23.5z"/>
			<path d="M103.1,23.5L103.1,23.5l-8,0.1c0.3,1,1.1,1.8,2.5,1.8c0.8,0,1.4-0.3,1.7-0.8h3.7c-0.5,2.3-2.7,3.8-5.5,3.8
				c-3.7,0-6.1-2.4-6.1-5.9c0-3.4,2.4-5.8,6-5.8c3.3,0,5.7,2.2,5.7,5.6C103.2,22.7,103.2,23.1,103.1,23.5z M95.1,21.4h4.6
				c-0.2-1.2-1-1.9-2.2-1.9C96.2,19.5,95.4,20.3,95.1,21.4z"/>
			<path d="M116.7,22v6.4h-3.8v-5.8c0-1.6-0.8-2.4-2-2.4c-0.7,0-1.4,0.4-2.1,1.1v7H105V17.2h3.7V18c0.9-0.7,1.9-1.1,3.1-1.1
				C114.7,16.8,116.7,18.8,116.7,22z"/>
			<path d="M127.9,27.8c-1.5,0.5-2.3,0.6-3.4,0.6c-2.7,0-4.5-2-4.5-5v-3.3h-2.2v-3.2h2.2v-3.8h3.7v3.8h3.8v3.2h-3.8v3.2
				c0,1.1,0.6,1.7,1.8,1.7c0.5,0,1.2-0.1,2-0.3L127.9,27.8z"/>
			<path d="M140.5,23.5L140.5,23.5l-8,0.1c0.3,1,1.1,1.8,2.5,1.8c0.8,0,1.4-0.3,1.7-0.8h3.7c-0.5,2.3-2.7,3.8-5.5,3.8
				c-3.7,0-6.1-2.4-6.1-5.9c0-3.4,2.4-5.8,6-5.8c3.3,0,5.7,2.2,5.7,5.6C140.6,22.7,140.6,23.1,140.5,23.5z M132.5,21.4h4.6
				c-0.2-1.2-1-1.9-2.2-1.9C133.6,19.5,132.8,20.3,132.5,21.4z"/>
			<path d="M150,20.5c-1.8,0.1-3,0.6-3.9,1.4v6.4h-3.7V17.2h3.7v1.2c1-0.9,2.2-1.4,3.9-1.4V20.5z"/>
		</g>
	</g>
	<path class="st0" d="M40.5,16.2C40,11.9,38.7,7.8,36.8,4C33,2.1,28.9,0.8,24.7,0.3C23.3,0.1,21.9,0,20.4,0c-1.4,0-2.9,0.1-4.3,0.3
		C11.8,0.8,7.7,2.1,4,4c-2,3.9-3.2,8-3.7,12.2C0.1,17.6,0,19.1,0,20.5s0.1,2.9,0.3,4.3C0.8,29,2,33.1,4,36.9
		c3.8,1.9,7.9,3.2,12.1,3.7c1.4,0.2,2.8,0.3,4.3,0.3s2.9-0.1,4.3-0.3c4.3-0.5,8.4-1.8,12.2-3.7c1.9-3.8,3.2-7.9,3.7-12.1
		c0.2-1.4,0.3-2.8,0.3-4.3C40.7,19.1,40.6,17.6,40.5,16.2z M20.4,28c-2.2,0-4.5-0.3-6.6-0.9c-0.6-2.1-0.9-4.3-0.9-6.6
		s0.3-4.5,0.9-6.6c2.1-0.6,4.3-0.9,6.6-0.9s4.4,0.3,6.5,0.9c0.6,2.1,1,4.3,1,6.6c0,2.2-0.3,4.4-0.9,6.5C24.8,27.7,22.6,28,20.4,28z"
		/>
</g>
</svg>
