<svg id="레이어_1" data-name="레이어 1" xmlns="http://www.w3.org/2000/svg" viewBox="0 0 186 120"><defs><style>.cls-1{fill:#448aff;}</style></defs><title>decenter</title><path d="M72,51.73C77.22,51.73,81,55.11,81,60S77.22,68.28,72,68.28H65.36V51.73Zm0,12.85a4.58,4.58,0,1,0,0-9.16H69.48v9.16Z"/><path d="M94.57,63.19l0,.08H86.18a2.54,2.54,0,0,0,2.65,1.9,2,2,0,0,0,1.81-.86h3.89c-.56,2.44-2.82,4-5.75,4-3.87,0-6.45-2.58-6.45-6.18a5.94,5.94,0,0,1,6.29-6.16,5.75,5.75,0,0,1,6,5.91A8.54,8.54,0,0,1,94.57,63.19ZM86.13,61H91a2.19,2.19,0,0,0-2.34-2A2.41,2.41,0,0,0,86.13,61Z"/><path d="M105,63.17h3.72c-.27,3-2.77,5.11-6,5.11a6.18,6.18,0,1,1,0-12.34c3.26,0,5.77,2.06,6,5.11H105a2.2,2.2,0,0,0-2.31-1.78,2.84,2.84,0,0,0,0,5.68A2.19,2.19,0,0,0,105,63.17Z"/><path d="M122.65,63.19l0,.08h-8.43a2.55,2.55,0,0,0,2.65,1.9,2,2,0,0,0,1.81-.86h3.89c-.56,2.44-2.82,4-5.75,4-3.87,0-6.45-2.58-6.45-6.18a5.94,5.94,0,0,1,6.29-6.16,5.75,5.75,0,0,1,6,5.91A9.94,9.94,0,0,1,122.65,63.19ZM114.2,61H119a2.19,2.19,0,0,0-2.34-2A2.41,2.41,0,0,0,114.2,61Z"/><path d="M136.92,61.54v6.74h-4V62.17c0-1.68-.85-2.49-2.14-2.49a3,3,0,0,0-2.19,1.2v7.4h-4V56.47h4v.81a5,5,0,0,1,3.26-1.17C134.88,56.11,136.92,58.18,136.92,61.54Z"/><path d="M148.75,67.7a10.62,10.62,0,0,1-3.59.58c-2.85,0-4.74-2.09-4.74-5.28V59.49H138.1V56.11h2.32v-4h3.94v4h4v3.38h-4v3.39a1.64,1.64,0,0,0,1.86,1.78,11.82,11.82,0,0,0,2.09-.3Z"/><path d="M162,63.19l0,.08h-8.42a2.54,2.54,0,0,0,2.65,1.9,2,2,0,0,0,1.8-.86H162c-.56,2.44-2.82,4-5.75,4-3.87,0-6.45-2.58-6.45-6.18a5.94,5.94,0,0,1,6.29-6.16,5.74,5.74,0,0,1,6,5.91A8.54,8.54,0,0,1,162,63.19ZM153.6,61h4.82a2.2,2.2,0,0,0-2.34-2A2.4,2.4,0,0,0,153.6,61Z"/><path d="M172.07,60A5.62,5.62,0,0,0,168,61.54v6.74h-3.94V56.47H168v1.27a5.93,5.93,0,0,1,4.07-1.46Z"/><path class="cls-1" d="M56.59,55.5a37.68,37.68,0,0,0-3.92-12.82A37.71,37.71,0,0,0,39.89,38.8a37.63,37.63,0,0,0-9,0A37.57,37.57,0,0,0,18.1,42.7a37.46,37.46,0,0,0-3.9,12.81,37.47,37.47,0,0,0,0,9A37.24,37.24,0,0,0,18.1,77.3a37.41,37.41,0,0,0,12.8,3.9,39.67,39.67,0,0,0,4.5.27,39.08,39.08,0,0,0,4.49-.27,37.9,37.9,0,0,0,12.83-3.93A38.19,38.19,0,0,0,56.87,60,35.19,35.19,0,0,0,56.59,55.5ZM35.4,67.91a24.21,24.21,0,0,1-6.91-1,24.37,24.37,0,0,1,0-13.82,24.58,24.58,0,0,1,13.81,0,24.33,24.33,0,0,1,1,6.92,24.8,24.8,0,0,1-1,6.9A24.68,24.68,0,0,1,35.4,67.91Z"/></svg>