<?xml version="1.0" encoding="utf-8"?>
<!-- Generator: Adobe Illustrator 22.1.0, SVG Export Plug-In . SVG Version: 6.00 Build 0)  -->
<svg version="1.1" id="레이어_1" xmlns="http://www.w3.org/2000/svg" xmlns:xlink="http://www.w3.org/1999/xlink" x="0px"
	 y="0px" viewBox="0 0 491.8 182.3" style="enable-background:new 0 0 491.8 182.3;" xml:space="preserve">
<style type="text/css">
	.st0{fill:#CD161D;}
	.st1{fill:#595959;}
</style>
<g>
	<g>
		<polygon class="st0" points="417.7,30.7 434.9,0.9 452.1,30.7 		"/>
		<polygon class="st0" points="417.7,97.8 434.9,68.1 452.1,97.8 		"/>
		<polygon class="st0" points="417.7,33.6 434.9,63.3 452.1,33.6 		"/>
		<polygon class="st0" points="457.5,30.7 474.6,0.9 491.8,30.7 		"/>
		<polygon class="st0" points="457.5,33.6 474.6,63.3 491.8,33.6 		"/>
		<polygon class="st0" points="397.9,0 415,29.8 432.2,0 		"/>
		<polygon class="st0" points="437.6,0 454.8,29.8 472,0 		"/>
		<polygon class="st0" points="437.6,64.3 454.8,34.5 472,64.3 		"/>
		<polygon class="st0" points="437.6,67.1 454.8,96.9 472,67.1 		"/>
	</g>
	<g>
		<path class="st1" d="M31.9,47.1H2.3v73.3h29.6c20.2,0,36.6-16.4,36.6-36.6C68.5,63.5,52.1,47.1,31.9,47.1z M15.9,60.7h16
			c12.7,0,23,10.3,23,23c0,12.7-10.3,23-23,23h-16V60.7z"/>
		<polygon class="st1" points="122.7,47.1 109,47.1 109,120.3 161.2,120.3 161.2,106.7 122.7,106.7 		"/>
		<rect x="174.7" y="47.1" class="st1" width="13.6" height="73.3"/>
		<path class="st1" d="M234.6,90.2h17.5v10.7c-4.3,4.1-10,6.3-15.9,6.3c-12.9,0-23.4-10.5-23.4-23.4c0-12.9,10.5-23.4,23.4-23.4
			c6.2,0,12,2.4,16.4,6.7l1.1,1.1l9.5-9.1l-1.1-1.1c-6.9-6.9-16.1-10.7-25.9-10.7c-20.2,0-36.6,16.4-36.6,36.6
			c0,20.2,16.4,36.6,36.6,36.6c11.6,0,22.3-5.3,29.3-14.7l0.3-0.4V76.5h-31.2V90.2z"/>
		<polygon class="st1" points="324.9,76.9 293,76.9 293,47.1 279.3,47.1 279.3,120.3 293,120.3 293,90.5 324.9,90.5 324.9,120.3 
			338.6,120.3 338.6,47.1 324.9,47.1 		"/>
		<polygon class="st1" points="352.1,47.1 352.1,60.7 374.8,60.7 374.8,120.3 388.5,120.3 388.5,60.7 411.3,60.7 411.3,47.1 		"/>
		<g>
			<polygon class="st1" points="100.1,47.1 83.8,47.1 72.9,63.4 89.2,63.4 			"/>
		</g>
		<g>
			<path class="st1" d="M27.9,147.8v18.3h-2.7v-7.7h-8.1v6.4H2.3v-15.2H5v5.3h9.5v-5.3h2.6v6.6h8.1v-8.2L27.9,147.8z M14.5,157H5
				v5.5h9.5V157z M25.2,167.7h2.7v13H6.7v-13h2.7v4.2h15.8V167.7z M25.2,174.1H9.4v4.4h15.8V174.1z"/>
			<path class="st1" d="M65,169.6H51.2v11.6h-2.7v-11.6H34.8v-2.3H65V169.6z M61.1,162.6H38.7v-12.9h22.4V162.6z M58.4,151.9H41.3
				v8.5h17.1V151.9z"/>
			<path class="st1" d="M96.4,147.8v18.3h-2.7v-7.7h-8v6.4H70.8v-15.2h2.7v5.3H83v-5.3h2.6v6.6h8v-8.2L96.4,147.8z M83,157h-9.5v5.5
				H83V157z M93.7,167.7h2.7v13H75.2v-13h2.7v4.2h15.8V167.7z M93.7,174.1H77.9v4.4h15.8V174.1z"/>
			<path class="st1" d="M112.8,166.5c-4.9,0-8.6-3.4-8.6-8.2c0-4.8,3.7-8.2,8.6-8.2c5,0,8.6,3.3,8.6,8.2
				C121.4,163.2,117.7,166.5,112.8,166.5z M112.8,164.2c3.4,0,6-2.4,6-5.8c0-3.4-2.6-5.8-6-5.8c-3.4,0-6,2.4-6,5.8
				C106.8,161.8,109.4,164.2,112.8,164.2z M131.7,178.2v2.3h-22.3v-10.7h2.7v8.4H131.7z M130.6,172.3h-2.7v-24.4h2.7V172.3z"/>
			<path class="st1" d="M152.6,169.5c6,0,9.8-0.2,14-1l0.4,4.1c-4.7,0.9-9,1-16.3,1h-3v-23.2h16.6v4h-11.7V169.5z M174.1,147.3v34.4
				h-4.9v-34.4H174.1z"/>
			<path class="st1" d="M185.3,170.2c5.5,0,9.7-0.3,14.5-1.1l0.4,3.1c-5.2,0.9-9.7,1.2-15.9,1.2h-2.8v-13.3h11.5v-6.3h-11.6v-3.1
				h15.4v12.5h-11.5V170.2z M211.5,164h-5.2v17.4h-3.9v-33.8h3.9v13.2h5.2V164z"/>
			<path class="st1" d="M232.9,162c0,7.3-3.7,11.9-8.7,11.9c-5,0-8.6-4.6-8.6-11.9c0-7.2,3.6-11.9,8.6-11.9
				C229.2,150.1,232.9,154.8,232.9,162z M219.3,162c0,5.3,2,8.5,5,8.5c2.9,0,5-3.2,5-8.5c0-5.2-2-8.4-5-8.4
				C221.3,153.6,219.3,156.8,219.3,162z M242.1,147.6v33.8h-3.9v-33.8H242.1z"/>
			<path class="st1" d="M279.2,174.1v3.1h-30.5v-3.1H279.2z M275.8,168.5h-23.3v-18.1h23.1v3.1h-19.1v4.3h18.4v3h-18.4v4.6h19.4
				V168.5z"/>
		</g>
	</g>
</g>
</svg>
