<?xml version="1.0" encoding="utf-8"?>
<!-- Generator: Adobe Illustrator 22.1.0, SVG Export Plug-In . SVG Version: 6.00 Build 0)  -->
<svg version="1.1" id="레이어_1" xmlns="http://www.w3.org/2000/svg" xmlns:xlink="http://www.w3.org/1999/xlink" x="0px"
	 y="0px" viewBox="0 0 124.2 85.2" style="enable-background:new 0 0 124.2 85.2;" xml:space="preserve">
<style type="text/css">
	.st0{fill:#005AA5;}
</style>
<g>
	<g>
		<path class="st0" d="M91.6,71.6c0,0.8,0.2,1.4,0.5,1.7c0.3,0.3,0.8,0.5,1.6,0.5h3.1v2h-7.1v1.7h4.2c-0.8,0.8-1.3,1.8-1.3,3
			c0,2.6,2.2,4.7,5.5,4.7c3.3,0,5.5-2.1,5.5-4.7c0-1.2-0.5-2.2-1.3-3h4.1v-1.7h-7.1v-2h5.3v-1.7H94.3c-0.1,0-0.2,0-0.3-0.1
			c-0.1-0.1-0.1-0.2-0.1-0.3v-2.3h10.5v-1.7H91.6V71.6z M98.1,83.4c-1.7,0-3.1-1.3-3.1-2.9c0-1.6,1.4-2.9,3.1-2.9
			c1.7,0,3.1,1.3,3.1,2.9C101.2,82.1,99.8,83.4,98.1,83.4z"/>
		<rect x="121.7" y="67.1" class="st0" width="2.3" height="12.5"/>
		<path class="st0" d="M112.9,82.8c0,0.5,0.1,0.9,0.4,1.2c0.2,0.2,0.6,0.4,1.2,0.4h9.7v-1.7h-8.7c-0.1,0-0.2,0-0.2-0.1
			c-0.1-0.1-0.1-0.1-0.1-0.2v-4h-2.3V82.8z"/>
		<path class="st0" d="M118.8,72.1c0-2.6-1.9-4.7-4.7-4.7c-2.9,0-4.7,2.1-4.7,4.7c0,2.6,1.9,4.7,4.7,4.7
			C116.9,76.8,118.8,74.7,118.8,72.1z M111.7,72.1c0-1.7,1.1-3,2.4-3c1.3,0,2.4,1.4,2.4,3c0,1.7-1.1,3-2.4,3
			C112.7,75.1,111.7,73.8,111.7,72.1z"/>
	</g>
	<path class="st0" d="M0,68.9h1.8v2.2H5v-2.3h1.8v2.7h2.8v-3.2h1.8v8.2H9.6V73H6.8v1.5c0,0.4-0.1,0.8-0.3,1
		c-0.2,0.2-0.5,0.3-0.9,0.3H1.2c-0.4,0-0.7-0.1-0.9-0.3C0.1,75.3,0,75,0,74.5V68.9z M9.6,77.1h1.8v5c0,0.4-0.1,0.8-0.3,1
		c-0.2,0.2-0.5,0.3-0.9,0.3H3.6c-0.4,0-0.7-0.1-0.9-0.3c-0.2-0.2-0.3-0.6-0.3-1v-4.8h1.8v1.6h5.4V77.1z M1.8,72.6v1.6
		c0,0.1,0,0.2,0,0.2c0,0,0.1,0,0.2,0h2.8c0.1,0,0.1,0,0.2-0.1c0,0,0.1-0.1,0.1-0.2v-1.5H1.8z M4.2,80.3v1.4c0,0.1,0,0.2,0.1,0.2
		c0,0,0.1,0,0.2,0h4.9c0.1,0,0.2,0,0.2-0.1c0,0,0.1-0.1,0.1-0.2v-1.4H4.2z"/>
	<path class="st0" d="M27.3,68.9h1.8v2.2h3.3v-2.3h1.8v2.7H37v-3.2h1.8v8.2H37V73h-2.8v1.5c0,0.4-0.1,0.8-0.3,1
		c-0.2,0.2-0.5,0.3-0.9,0.3h-4.5c-0.4,0-0.7-0.1-0.9-0.3c-0.2-0.2-0.3-0.6-0.3-1V68.9z M36.9,77.1h1.8v5c0,0.4-0.1,0.8-0.3,1
		c-0.2,0.2-0.5,0.3-0.9,0.3h-6.6c-0.4,0-0.7-0.1-0.9-0.3c-0.2-0.2-0.3-0.6-0.3-1v-4.8h1.8v1.6h5.4V77.1z M29.1,72.6v1.6
		c0,0.1,0,0.2,0,0.2c0,0,0.1,0,0.2,0h2.8c0.1,0,0.1,0,0.2-0.1c0,0,0.1-0.1,0.1-0.2v-1.5H29.1z M31.6,80.3v1.4c0,0.1,0,0.2,0.1,0.2
		c0,0,0.1,0,0.2,0h4.9c0.1,0,0.2,0,0.2-0.1c0,0,0.1-0.1,0.1-0.2v-1.4H31.6z"/>
	<path class="st0" d="M12.7,78.1v-1.5h13.1v1.5h-5.6v5.3h-1.9v-5.3H12.7z M14.5,68.9h9.6c0.1,0,0.1,0,0.1,0c0,0,0,0.1,0,0.1v4.6
		c0,0.4-0.1,0.8-0.4,1c-0.2,0.3-0.5,0.4-0.9,0.4h-7.3c-0.4,0-0.7-0.1-0.9-0.4c-0.2-0.3-0.3-0.6-0.3-1V68.9z M22.4,70.6
		c0-0.1,0-0.2,0-0.2c0,0-0.1-0.1-0.2-0.1h-5.6c-0.1,0-0.2,0-0.2,0.1c0,0,0,0.1,0,0.2v2.7c0,0.1,0,0.2,0.1,0.2c0,0,0.1,0,0.2,0h5.6
		c0.1,0,0.2,0,0.2-0.1c0,0,0.1-0.1,0.1-0.2V70.6z"/>
	<path class="st0" d="M41.6,75.5c-0.7-0.8-1.1-1.7-1.1-2.9c0-1.1,0.4-2.1,1.1-2.9c0.7-0.8,1.6-1.2,2.6-1.2c1,0,1.9,0.4,2.6,1.2
		c0.7,0.8,1.1,1.7,1.1,2.9c0,1.1-0.4,2.1-1.1,2.9c-0.7,0.8-1.6,1.2-2.6,1.2C43.2,76.7,42.3,76.3,41.6,75.5z M42.9,70.9
		c-0.4,0.5-0.6,1.1-0.6,1.8c0,0.7,0.2,1.3,0.6,1.8c0.4,0.5,0.8,0.8,1.4,0.8c0.5,0,1-0.3,1.4-0.8c0.4-0.5,0.6-1.1,0.6-1.8
		c0-0.7-0.2-1.3-0.6-1.8c-0.4-0.5-0.8-0.7-1.4-0.7C43.7,70.1,43.3,70.4,42.9,70.9z M43.4,78h1.8v3.5c0,0.1,0,0.1,0.1,0.2
		c0,0,0.1,0.1,0.2,0.1h6.7v1.5h-7.6c-0.4,0-0.7-0.1-0.9-0.3c-0.2-0.2-0.3-0.6-0.3-1V78z M50.2,68.2H52v10.9h-1.8V68.2z"/>
	<path class="st0" d="M82.7,71.3c0.4,1.3,0.6,2.8,0.6,4.5c0,1.7-0.2,3.2-0.5,4.5c-0.4,1.3-0.7,2.3-1.1,3.1h-0.8
		c0.5-1.3,0.9-2.6,1.1-3.9c0.2-1.3,0.3-2.6,0.3-3.7c0-1.2-0.1-2.4-0.3-3.7c-0.2-1.3-0.5-2.6-1.1-3.9h0.8C82,69,82.4,70,82.7,71.3z"
		/>
	<path class="st0" d="M55.9,68.2h0.8c-0.5,1.3-0.9,2.6-1.1,3.9c-0.2,1.3-0.3,2.6-0.3,3.7c0,1.2,0.1,2.4,0.3,3.7
		c0.2,1.3,0.5,2.6,1.1,3.9h-0.8c-0.4-0.8-0.8-1.8-1.1-3.1c-0.4-1.3-0.5-2.8-0.5-4.5c0-1.7,0.2-3.2,0.6-4.5
		C55.1,70,55.5,69,55.9,68.2z"/>
	<g>
		<g>
			<path class="st0" d="M67.8,78.1h-2.6v4.7h-1.3v-4.7h-2.7v4.7h-1.3v-4.7h-2.6v-1.3h10.6V78.1z M66.1,72c0,1.1-0.3,2-0.9,2.6
				c-0.6,0.7-1.5,1-2.7,1c-1.2,0-2-0.3-2.7-1c-0.6-0.7-0.9-1.5-0.9-2.6c0-1.1,0.3-2,0.9-2.7c0.6-0.7,1.5-1,2.7-1c1.1,0,2,0.3,2.7,1
				C65.8,70,66.1,70.8,66.1,72z M64.8,72c0-0.7-0.2-1.2-0.6-1.7c-0.4-0.4-1-0.7-1.7-0.7c-0.7,0-1.2,0.2-1.6,0.7
				c-0.4,0.4-0.6,1-0.6,1.7c0,0.7,0.2,1.2,0.6,1.7c0.4,0.4,1,0.7,1.6,0.7c0.7,0,1.2-0.2,1.7-0.7C64.6,73.2,64.8,72.6,64.8,72z"/>
			<path class="st0" d="M63.8,82.8l0.1-4.7l-2.7-0.1l-0.1,4.8l-1.4-0.1l0.1-4.7l-2.7-0.1l0.1-1.4l10.7,0.1v1.3h-0.1v0.1l-2.5-0.1
				l-0.1,4.8L63.8,82.8L63.8,82.8z M63.9,78.1l-0.1,4.7l1.3,0.1l0.1-4.8h2.6l0.1-1.2l-10.5-0.1L57.2,78l2.7,0.1l-0.1,4.7l1.3,0.1
				l0.1-4.8L63.9,78.1L63.9,78.1z M59.8,74.6c-0.6-0.7-1-1.6-1-2.7l0,0c0-1.1,0.3-2,1-2.7l0,0c0.6-0.7,1.6-1,2.7-1l0,0
				c1.2,0,2.1,0.3,2.7,1l0,0c0.6,0.7,0.9,1.6,0.9,2.7l0,0c0,1.1-0.3,2-0.9,2.7l0,0c-0.6,0.7-1.6,1-2.7,1l0,0
				C61.3,75.7,60.4,75.3,59.8,74.6L59.8,74.6z M59.9,69.3C59.3,70,59,70.9,59,72l0,0c0,1.1,0.3,2,0.9,2.6l0,0c0.6,0.6,1.5,1,2.6,1
				l0,0c1.1,0,2-0.3,2.6-1l0,0C65.7,73.9,66,73,66,72l0,0c0-1.1-0.3-2-0.9-2.6l0,0c-0.6-0.7-1.5-1-2.6-1l0,0
				C61.4,68.4,60.5,68.7,59.9,69.3L59.9,69.3z M62.5,74.3c-0.7,0-1.3-0.2-1.7-0.7l0,0c-0.4-0.4-0.6-1-0.6-1.7l0,0
				c0-0.7,0.2-1.3,0.6-1.7l0,0c0.4-0.4,1-0.7,1.7-0.7l0,0c0.7,0,1.3,0.2,1.7,0.7l0,0c0.4,0.4,0.6,1,0.6,1.7l0,0
				c0,0.7-0.2,1.3-0.6,1.7l0,0C63.8,74.1,63.2,74.3,62.5,74.3L62.5,74.3C62.5,74.3,62.5,74.3,62.5,74.3L62.5,74.3z M60.9,70.3
				c-0.4,0.4-0.6,1-0.6,1.6l0,0c0,0.7,0.2,1.2,0.6,1.6l0,0c0.4,0.4,0.9,0.6,1.6,0.6l0,0c0.7,0,1.2-0.2,1.6-0.6l0,0
				c0.4-0.4,0.6-1,0.6-1.6l0,0c0-0.7-0.2-1.2-0.6-1.6l0,0c-0.4-0.4-0.9-0.6-1.6-0.6l0,0C61.8,69.7,61.3,69.9,60.9,70.3L60.9,70.3z"
				/>
		</g>
		<g>
			<path class="st0" d="M75.2,73.5c0,1-0.3,1.8-0.8,2.4c-0.5,0.6-1.2,0.9-2,0.9c-0.8,0-1.5-0.3-2-0.9c-0.5-0.6-0.8-1.4-0.8-2.4
				c0-0.9,0.2-1.6,0.6-2.2h-1.4v-1.3h2.9v-1.8H73v1.8h2.8v1.3h-1.3C75,71.8,75.2,72.6,75.2,73.5z M73.9,73.5c0-0.6-0.1-1.1-0.4-1.4
				c-0.3-0.4-0.6-0.6-1.1-0.6s-0.8,0.2-1.1,0.6c-0.3,0.4-0.4,0.9-0.4,1.4c0,0.6,0.1,1.1,0.4,1.5c0.3,0.4,0.6,0.6,1.1,0.6
				s0.8-0.2,1.1-0.6C73.7,74.6,73.9,74.1,73.9,73.5z M78.7,82.6h-6.7c-0.3,0-0.5-0.1-0.6-0.2c-0.1-0.1-0.2-0.4-0.2-0.7v-3.4h1.3
				l0,2.5c0,0.4,0.2,0.6,0.5,0.6h5.7V82.6z M80.1,74.2h-1.9l0,4.5H77V68.6h1.3l0,4.3h1.9V74.2z"/>
			<path class="st0" d="M71.9,82.6c-0.3,0-0.5-0.1-0.6-0.2l0,0c-0.1-0.2-0.2-0.4-0.2-0.7l0,0l0.1-3.5l1.4,0.1l0,2.5
				c0,0.4,0.1,0.5,0.4,0.5l0,0l5.8,0.1v1.3h-0.1v0.1H71.9L71.9,82.6z M71.2,81.6c0,0.3,0.1,0.5,0.2,0.7l0,0c0.1,0.1,0.3,0.2,0.5,0.2
				l0,0h6.7l0.1-1.2h-5.7c-0.3,0-0.5-0.2-0.5-0.6l0,0l0.1-2.4l-1.3-0.1V81.6L71.2,81.6z M76.9,78.7L77,68.6l1.4,0.1l-0.1,4.2
				l1.9,0.1v1.3h-0.1v0.1l-1.8-0.1l-0.1,4.6L76.9,78.7L76.9,78.7z M77,78.7l1.3,0.1l0.1-4.6h1.8l0.1-1.2l-1.9-0.1l0.1-4.2L77,68.6
				L77,78.7L77,78.7z M72.4,76.9c-0.9,0-1.5-0.3-2.1-0.9l0,0c-0.5-0.6-0.8-1.4-0.8-2.5l0,0c0-0.9,0.2-1.6,0.6-2.2l0,0l-1.3-0.1
				l0.1-1.4l2.8,0.1l0.1-1.9l1.4,0.1L73,69.9l2.9,0.1l-0.1,1.4h-1.2c0.4,0.6,0.5,1.3,0.5,2.2l0,0c0,1-0.3,1.9-0.8,2.5l0,0
				C73.9,76.6,73.2,76.9,72.4,76.9L72.4,76.9C72.4,76.9,72.4,76.9,72.4,76.9L72.4,76.9z M68.8,71.2h1.4c0,0,0,0,0.1,0l0,0
				c0,0,0,0,0,0.1l0,0c-0.4,0.6-0.6,1.3-0.6,2.2l0,0c0,1,0.2,1.8,0.7,2.4l0,0c0.5,0.6,1.1,0.9,2,0.9l0,0c0.8,0,1.5-0.3,2-0.9l0,0
				c0.5-0.6,0.7-1.4,0.7-2.4l0,0c0-0.9-0.2-1.6-0.6-2.2l0,0c0,0,0,0,0-0.1l0,0c0,0,0,0,0.1,0l0,0l1.3,0.1l0.1-1.3L73,69.9l0.1-1.7
				l-1.3-0.1L71.7,70l-2.8-0.1L68.8,71.2L68.8,71.2z M72.4,75.6c-0.5,0-0.9-0.2-1.1-0.6l0,0c-0.3-0.4-0.4-0.9-0.4-1.5l0,0
				c0-0.6,0.1-1.1,0.4-1.5l0,0c0.3-0.4,0.7-0.6,1.1-0.6l0,0c0.5,0,0.9,0.2,1.1,0.6l0,0c0.3,0.4,0.4,0.9,0.4,1.5l0,0
				c0,0.6-0.1,1.1-0.4,1.5l0,0C73.2,75.4,72.9,75.6,72.4,75.6L72.4,75.6C72.4,75.6,72.4,75.6,72.4,75.6L72.4,75.6z M71.4,72.1
				c-0.3,0.4-0.4,0.8-0.4,1.4l0,0c0,0.6,0.1,1.1,0.4,1.4l0,0c0.3,0.4,0.6,0.5,1,0.5l0,0c0.4,0,0.8-0.2,1-0.5l0,0
				c0.3-0.4,0.4-0.8,0.4-1.4l0,0c0-0.6-0.1-1-0.4-1.4l0,0c-0.3-0.4-0.6-0.5-1-0.5l0,0C72,71.5,71.6,71.7,71.4,72.1L71.4,72.1z"/>
		</g>
	</g>
</g>
<g>
	<path class="st0" d="M63.8,57.2c-0.5-0.5-1.1-1.4-1.4-2.6c-0.2-1.2,0.1-2.3,0.4-2.9l0.4-0.1c-0.4,1-0.4,2.1-0.2,2.9
		c0.1,0.8,0.5,1.8,1.2,2.6L63.8,57.2L63.8,57.2z"/>
	<path class="st0" d="M78.9,51.4l-0.4,0.2c-0.1-1.1-0.5-2-0.9-2.7c-0.5-0.7-1.2-1.5-2.1-2l0.3-0.2c0.7,0.2,1.6,0.8,2.3,1.9
		C78.8,49.7,79,50.8,78.9,51.4L78.9,51.4z"/>
	<g>
		<polygon class="st0" points="63.9,19.9 60.8,20 60.8,22.7 63.9,22.7 		"/>
		<path class="st0" d="M62.1,9.6c-11.1,0-20.1,9-20.1,20c0,11,9,20,20.1,20c11.1,0,20.1-9,20.1-20C82.2,18.6,73.2,9.6,62.1,9.6z
			 M55.7,13.5c-0.1-0.6,1.8,0.4,2,0.5h9c0.4,0,0.5-1,1.1-0.8c0.5,0.3,1.1,0.5,1.5,0.8c0.7,0.6-0.4,0.7-0.4,1v9.8
			c0,1.9-1.2,1.7-2.1,1.7c-0.1,0-0.3-0.2-0.4-0.2c-0.4-0.3-1.1-0.5-1.5-0.7C64.6,25.2,64.8,25,65,25c0.5,0,2,0.3,2.1-0.2V14.5
			c0-0.1,0-0.1-0.1-0.1h-9.5v11c0,1.2-1.9,1.2-1.9,0.3V13.5z M59,19.1c0-0.7,1.8,0.3,1.9,0.3h2.7c0.5,0,0.3-1,0.8-0.8
			c0.7,0.2,1.1,0.6,1.5,0.8c0.6,0.4-0.3,0.6-0.3,0.7v3.1c0,0.7-1.8,1-1.8,0.1v0h-2.9v0.2c0,0.9-1.9,1-1.9,0.2V19.1z M58.7,17.4
			c-0.4,0.1-0.7-0.8-0.2-0.7c0.6,0.1,0.8,0.1,1.2,0.1c0.4,0,1.9,0,3.8,0c0.1,0,0.2,0,0.2-0.1c0.1-1.3,0.6-1.2,2.4,0.2
			c0.3,0.2,0,0.4-0.3,0.4c-3.6,0-5.3,0-6.1,0C59.4,17.3,59.2,17.4,58.7,17.4z M48.5,29.7c0.2-0.2,1-0.2,1.2-0.3
			c0.2-0.1,2.2-0.2,2.6-0.2c0.3,0,1.1,0,1.3-0.1c0.2-0.1,1.1-0.1,1.6-0.2c0.6,0,1.2-0.1,1.9-0.1c0.7,0,1.8-0.5,2.5-0.6
			c0.7-0.2,1.1-0.5,2-0.7c0.9-0.2,2.9,0.2,3.5,0.3c0.6,0.1,1.9,0.2,2.4,0.3c0.5,0.1,0.7,0.3,1.1,0.3c0.4-0.1,1.8,0,2.1,0.1
			c0.3,0.1,1.2,0.3,1.6,0.2c0.4-0.1,1.7,0,2.2,0.1c0.6,0.1,0.8,0.4,0.9,0.5c0.2,0.1,0.1,0.4-0.2,0.4c-0.2,0-1.4-0.1-1.8-0.1
			c-0.4,0-3.1,0-3.5-0.1c-0.4-0.1-2.3-0.1-2.6-0.1c-0.3,0-2.5,0-2.7,0c-0.3,0-0.6-0.1-0.8-0.2c-0.3-0.2-1.1,0-1.7,0
			c-0.5,0.1-1.7,0.1-2.2,0.2c-0.5,0.1-3.8,0.4-4.2,0.4c-0.3,0-0.6,0.4-2.4,0.3c-1.8-0.1-0.8,0.2-2.2,0.1c-1.3-0.1-1.7,0.2-1.8,0.2
			c-0.1,0-0.6,0.1-0.7-0.1C48.4,30.2,48.5,29.7,48.5,29.7z M50.9,39.1c-0.6,0-1.3-0.1-1.6-0.3c-0.3-0.2-1.5,0.2-1.8,0.3
			c-0.3,0.1-0.4-0.1-0.3-0.3c0.1-0.1,0.8-1,0.9-1.5c0.1-0.5,0.4-0.6,0.5-0.8c0.2-0.2-0.1-0.5,0.1-0.6c0.1-0.1,0.7-0.7,0.7-1
			c0-0.2,0.4-0.8,0.6-1c0.2-0.2,0.4-0.7,0.5-0.9c0-0.2,0.3-0.7,0.4-1.7c0,0,0.1-0.1,0.4-0.2c0.3-0.1,0.5-0.2,0.6-0.2
			c0.1,0,0.2,0.3,0.2,0.5c0,0.1,0.1,1.4,0.4,2c0.3,0.7,0.6,1.7,0.6,1.9c0,0.1,0.3,0.8,0.4,1c0.1,0.1,0.3,0.8,0.3,0.9
			c0,0.2,0.5,0.9,0.7,1.1c0.2,0.2,0.5,0.8-0.1,0.9c-0.6,0.1-1.4,0-1.8-0.1C52.1,38.9,51.5,39.1,50.9,39.1z M62.7,34.9
			c0,0.1-0.1,0.6-0.2,0.8c-0.1,0.2-0.2,1.2-0.3,1.5c-0.1,0.2-0.7,1.2-0.8,1.4c-0.1,0.3-0.7,1.4-1,1.8c-0.3,0.4-1,1.4-1.2,1.6
			c-0.2,0.3-0.7,1.3-1.5,1.7c-0.8,0.3-1.3,0.4-1.8,0.6c-0.6,0.2-0.7,0.3-1.3,0.1c-0.6-0.1-0.8-0.2-0.9-0.2c-0.2,0-0.3-0.3-0.3-0.6
			c0-0.3-0.1-0.6,0.4-0.7c0.5-0.1,1.3-0.1,1.5-0.4c0.1-0.2,1.7-1.4,2.1-2c0.4-0.6,1.9-1.7,2.2-2.2c0.3-0.5,0.7-2,0.9-2.3
			c0.2-0.3,0.4-1.6,0.7-2.1c0.3-0.4,0.2-1.7,0.1-1.9c-0.1-0.2-0.6-0.8-1.2-1.1c0,0-0.3-0.4,0.2-0.5c0.4-0.1,0.7-0.2,0.9-0.1
			c0.2,0.1,0.7,0.2,0.8,0.3c0.1,0.1,0.4-0.1,0.6,0.1c0.2,0.1,0.6,0.4,0.7,0.7c0.1,0.3,0,1.8-0.2,2.2C63.1,33.9,62.7,34.8,62.7,34.9z
			 M72.1,44.2c-0.3,0.2-0.5,0.3-0.8,0.3c-0.3,0-0.7-0.1-1-0.2c-0.3-0.1-0.7-0.2-0.9-0.2c-0.2,0-0.6-0.2-0.6-0.4
			c0-0.2-0.1-0.7-0.4-0.9c-0.3-0.2-1-0.8-1.2-1.1c-0.3-0.3-0.8-0.9-0.9-1.1c-0.1-0.1-0.7-1-0.7-1.2c0-0.2-0.5-0.9-0.6-1.1
			c-0.1-0.1-0.5-0.8-0.5-0.9c0-0.1-0.5-0.7-0.6-0.8c-0.1-0.2-0.1-0.7-0.2-0.8c-0.1-0.1-0.3-0.7-0.4-1c0,0,0-0.4,0.3-0.3
			c0.3,0.1,0.5,0.1,0.6,0.2c0.1,0.1,0.6,0.4,0.6,0.7c0,0.4,0.2,0.7,0.3,0.8c0.1,0.1,0.3,0.4,0.5,0.5c0.2,0.2,0.5,0.4,0.7,0.7
			c0.2,0.3,0.3,0.5,0.4,0.8c0.1,0.3,0.3,0.7,0.5,0.8c0.2,0.2,0.7,0.8,0.7,0.9c0,0.1,0.1,0.5,0.4,0.6c0.3,0.2,0.5,0.4,0.7,0.5
			c0.3,0.1,0.7,0.2,0.8,0.3c0.1,0.1,0.4,0.3,0.6,0.5c0.3,0.1,1,0.5,1.3,0.8c0.2,0.4,0.3,0.6,0.4,0.8C72.1,43.8,72.4,44,72.1,44.2z
			 M77.6,38.9c-0.3,0-0.7-0.1-1.3-0.2c-0.6-0.1-1.8,0-2.4,0c-0.6,0-1.6-0.2-1.9-0.2c-0.4,0-1.1,0.1-1.2,0.3c-0.1,0.1-0.9,0.2-1,0
			c-0.1-0.2,0-0.6,0.2-1c0.2-0.4,0.4-1.4,0.6-1.8c0.3-0.4,0.4-1.2,0.5-1.6c0.2-0.5,0.6-1.8,0.7-2c0.2-0.2,0.5-0.7,0.3-1.7
			c0,0,0.2-0.5,0.4-0.4c0.2,0.1,0.7,0.2,0.8,0.4c0.1,0.2,0.1,1.2,0.4,1.6c0.2,0.3,0.4,0.6,0.6,0.7c0.2,0.2,0.9,1.1,1.1,1.5
			c0.2,0.5,0,0.3,0.1,0.5c0.1,0.1,0.4,0.4,0.5,0.6c0.1,0.2,0.4,0.7,0.4,0.9c0,0.2,0.5,0.9,0.6,1.1c0.2,0.2,0.6,0.8,0.8,0.9
			C77.9,38.6,77.9,38.9,77.6,38.9z"/>
	</g>
	<path class="st0" d="M62.1,0.1c-16.3,0-29.5,13.2-29.5,29.5c0,16.3,13.2,29.5,29.5,29.5c16.3,0,29.5-13.2,29.5-29.5
		C91.6,13.4,78.4,0.1,62.1,0.1L62.1,0.1z M62.1,58.7c-16,0-29-13-29-29c0-16,13-29,29-29c16,0,29,13,29,29
		C91.1,45.6,78.1,58.7,62.1,58.7L62.1,58.7z"/>
	<path class="st0" d="M38.5,30.2c0,0.6-0.4,1-1,1c-0.5,0-1-0.4-1-1c0-0.6,0.4-1,1-1C38.1,29.2,38.5,29.7,38.5,30.2L38.5,30.2z"/>
	<path class="st0" d="M79.7,44.9c0.2,0.2,0.4,0.3,0.5,0.2c0.2,0,0.3-0.1,0.5-0.3l0.7-0.8l0.5,0.4l-1.5,1.9l0.5,0.4l0.9-1.1
		c0,0.4,0.2,0.7,0.5,1c0.7,0.6,1.7,0.4,2.4-0.4c0.7-0.9,0.6-1.9-0.1-2.5c-0.3-0.3-0.7-0.3-1.1-0.3l0.9-1.1L84,41.9l-1.5,1.9
		l-0.5-0.4l1.1-1.4l-0.4-0.4l-2.2,2.7c0,0,0,0-0.1,0c0,0-0.1,0-0.1,0l-0.6-0.5l2.2-2.8l-0.5-0.4l-2.7,3.4L79.7,44.9z M84.2,45.7
		c-0.4,0.5-1,0.5-1.4,0.2c-0.4-0.3-0.5-1-0.1-1.4c0.4-0.5,1-0.6,1.4-0.2C84.5,44.6,84.6,45.2,84.2,45.7z"/>
	<g>
		<polygon class="st0" points="87.3,36 87.6,35.2 83.5,34 83.3,34.7 		"/>
		<path class="st0" d="M87.5,39.1c0.2,0.1,0.3,0.1,0.4,0c0.1-0.1,0.2-0.2,0.2-0.3l1-3.2l-0.6-0.2l-0.9,2.8c0,0,0,0,0,0.1
			c0,0,0,0-0.1,0l-1.3-0.4L86,38.7L87.5,39.1z"/>
		<path class="st0" d="M84.6,36.1c-0.8-0.3-1.7,0.1-2,1.1c-0.3,0.9,0.2,1.7,1,2c0.8,0.3,1.7-0.1,2-1.1
			C85.9,37.2,85.4,36.4,84.6,36.1z M83.9,38.4c-0.5-0.2-0.9-0.7-0.8-1.1c0.1-0.4,0.7-0.6,1.2-0.5c0.5,0.2,0.9,0.7,0.7,1.1
			C85,38.4,84.4,38.6,83.9,38.4z"/>
	</g>
	<path class="st0" d="M48.8,46.8l0.6,0.4L48.9,48l1.1,0.8l0.5-0.7l0.6,0.4l-0.6,0.9l1,0.7l0.7-1l0.6,0.4L50.9,52l-0.6-0.4l0.8-1.1
		l-1-0.7l-0.3,0.5c-0.1,0.1-0.2,0.2-0.3,0.2c-0.1,0-0.2,0-0.4-0.1l-1.5-1.1c-0.1-0.1-0.2-0.2-0.2-0.3c0-0.1,0-0.2,0.1-0.4L48.8,46.8
		z M50.2,51.8l0.6,0.4l-1.1,1.6c-0.1,0.1-0.2,0.2-0.3,0.2c-0.1,0-0.2,0-0.4-0.1l-2.2-1.6c-0.1-0.1-0.2-0.2-0.2-0.3
		c0-0.1,0-0.2,0.1-0.4l1.1-1.5l0.6,0.4L48,51l1.8,1.3L50.2,51.8z M48.6,48.4l-0.4,0.5c0,0,0,0.1,0,0.1c0,0,0,0,0.1,0.1l0.9,0.7
		c0,0,0.1,0,0.1,0c0,0,0,0,0.1-0.1l0.3-0.5L48.6,48.4z M47.6,51.5l-0.3,0.4c0,0,0,0.1,0,0.1c0,0,0,0,0.1,0.1l1.7,1.2
		c0,0,0.1,0,0.1,0c0,0,0,0,0.1-0.1l0.3-0.4L47.6,51.5z"/>
	<path class="st0" d="M40.5,34.3l0.2,0.7l-0.8,0.3l0.4,1.3l0.9-0.3l0.2,0.7l-1,0.3l0.4,1.1L42,38l0.2,0.7l-3,1L39,39l1.2-0.4
		l-0.4-1.1l-0.5,0.2c-0.2,0.1-0.3,0.1-0.4,0c-0.1-0.1-0.2-0.2-0.2-0.3l-0.6-1.8c0-0.1,0-0.3,0-0.4c0.1-0.1,0.2-0.2,0.3-0.2
		L40.5,34.3z M38.7,39.1l0.2,0.7l-1.8,0.6c-0.2,0.1-0.3,0.1-0.4,0c-0.1-0.1-0.2-0.2-0.2-0.3l-0.9-2.6c0-0.1,0-0.3,0-0.4
		c0.1-0.1,0.2-0.2,0.3-0.2l1.8-0.6L38,37l-0.6,0.2l0.7,2.1L38.7,39.1z M39.4,35.4l-0.6,0.2c0,0-0.1,0-0.1,0c0,0,0,0,0,0.1l0.4,1.1
		c0,0,0,0.1,0,0.1c0,0,0,0,0.1,0l0.6-0.2L39.4,35.4z M36.8,37.3l-0.5,0.2c0,0-0.1,0-0.1,0c0,0,0,0,0,0.1l0.6,1.9c0,0,0,0.1,0,0.1
		c0,0,0,0,0.1,0l0.5-0.2L36.8,37.3z"/>
	<path class="st0" d="M40.4,43.7l0.4-0.4l3.6,4.1L44,47.8l-1.5-1.8l-1.5,1.3l-0.5-0.6l1.5-1.3L40.4,43.7z M43.6,41.9l2.6,3
		c0,0,0,0,0,0c0,0,0,0,0,0l-1.3,1.2c-0.1,0.1-0.3,0.2-0.4,0.2c-0.1,0-0.3-0.1-0.4-0.2l-2-2.3c-0.1-0.1-0.1-0.2-0.1-0.4
		c0-0.1,0.1-0.3,0.2-0.4L43.6,41.9z M45.2,44.8C45.2,44.8,45.3,44.8,45.2,44.8c0-0.1,0-0.1,0-0.1l-1.5-1.8c0,0,0,0-0.1,0
		c0,0,0,0-0.1,0l-0.8,0.7c0,0-0.1,0.1,0,0.1c0,0,0,0,0,0.1l1.5,1.8c0,0,0,0,0.1,0c0,0,0,0,0.1,0L45.2,44.8z"/>
	<path class="st0" d="M54.9,53.4c-0.2-0.4-0.3-0.8-0.2-1.2c0.1-0.4,0.3-0.8,0.7-1c0.4-0.2,0.7-0.3,1.2-0.2c0.4,0.1,0.8,0.3,1,0.7
		c0.2,0.4,0.3,0.8,0.2,1.2c-0.1,0.4-0.3,0.8-0.7,1c-0.4,0.2-0.7,0.3-1.2,0.2C55.5,53.9,55.2,53.7,54.9,53.4z M55.8,51.7
		c-0.2,0.2-0.3,0.4-0.4,0.6c-0.1,0.3,0,0.5,0.1,0.7c0.1,0.2,0.3,0.3,0.5,0.4c0.2,0,0.4,0,0.6-0.2c0.2-0.2,0.3-0.4,0.4-0.6
		c0.1-0.3,0-0.5-0.1-0.7c-0.1-0.2-0.3-0.4-0.5-0.4C56.2,51.5,56,51.5,55.8,51.7z M55.5,54.4l0.8,0.2l-0.3,1.3c0,0,0,0.1,0,0.1
		c0,0,0,0,0.1,0l2.8,0.5l-0.1,0.6l-3.1-0.6c-0.2,0-0.3-0.1-0.3-0.2c-0.1-0.1-0.1-0.2,0-0.4L55.5,54.4z M59,51.3l0.7,0.1l-0.8,4.1
		l-0.7-0.1L59,51.3z"/>
	<path class="st0" d="M87.6,30.3c0,0.6-0.5,1-1,1c-0.5,0-1-0.5-1-1c0-0.6,0.4-1,1-1C87.2,29.2,87.6,29.7,87.6,30.3L87.6,30.3z"/>
	<path class="st0" d="M35.1,25.1L35,25l0.6-2.2c0.2-0.9,0.7-1.5,1.3-1.8c0.6-0.3,1.2-0.4,2-0.1c0.7,0.2,1.2,0.5,1.5,1.1
		c0.4,0.6,0.5,1.3,0.3,2.2L40,26.4l-0.2-0.1l0.2-0.6l-4.7-1.3L35.1,25.1z M35.7,23.3l4.5,1.2l0.1-0.4c0.1-0.4,0.1-0.8-0.2-1.2
		c-0.2-0.4-0.8-0.7-1.7-0.9c-0.5-0.1-1-0.2-1.4-0.1c-0.7,0.1-1.1,0.4-1.2,1L35.7,23.3z"/>
	<path class="st0" d="M39,19.3c-0.2-0.4-0.1-0.9,0.1-1.3c0.2-0.4,0.6-0.7,1-0.8c0.5-0.1,0.9-0.1,1.4,0.2c0.5,0.2,0.8,0.6,1,1
		c0.2,0.4,0.2,0.9-0.1,1.3c-0.2,0.4-0.6,0.7-1,0.8c-0.5,0.1-0.9,0.1-1.4-0.2C39.5,20.1,39.2,19.8,39,19.3z M41.5,19.8
		c0.3,0.1,0.6,0,0.7-0.2c0.1-0.2,0.1-0.4-0.1-0.6c-0.2-0.2-0.5-0.4-1.1-0.7c-0.5-0.3-0.9-0.4-1.2-0.5c-0.3-0.1-0.5,0-0.6,0.2
		c-0.1,0.2,0,0.5,0.2,0.7c0.2,0.1,0.5,0.3,1,0.6C40.9,19.6,41.3,19.8,41.5,19.8z"/>
	<path class="st0" d="M44.6,15.8l-1.8-1.4c-0.1-0.1-0.3-0.2-0.3-0.2c-0.2-0.1-0.3,0-0.4,0.1c-0.1,0.1-0.1,0.2-0.1,0.4
		c0,0.1,0,0.3,0.1,0.4l2,1.5l0.2-0.3l0.2,0.1l-1.1,1.4l-0.2-0.1l0.2-0.3l-2.5-1.9l-0.2,0.3l-0.1-0.1l0.8-1.1l0.4,0.3
		c-0.1-0.2-0.1-0.4-0.1-0.6c0-0.2,0.1-0.4,0.2-0.6c0.2-0.3,0.4-0.4,0.6-0.4c0.2,0,0.5,0.1,0.9,0.3l1.8,1.4l0.2-0.3l0.2,0.1l-1.1,1.4
		L44.4,16L44.6,15.8z"/>
	<path class="st0" d="M46.3,14.8c0-0.1,0-0.3,0.2-0.5l0,0c-0.1,0.1-0.3,0.1-0.4,0.1c-0.2,0-0.3-0.1-0.4-0.2
		c-0.1-0.2-0.2-0.4-0.2-0.6c0-0.2,0.1-0.4,0.2-0.6l0,0c-0.3,0.1-0.5,0.1-0.8,0.1c-0.2-0.1-0.5-0.2-0.7-0.4c-0.2-0.3-0.3-0.6-0.3-0.9
		c0-0.3,0.2-0.7,0.6-1c0.1-0.1,0.3-0.2,0.4-0.3c0.1-0.1,0.2-0.1,0.3-0.2l0.7-0.7l0.3,0.3l-0.4,0.4c0.1,0,0.3,0,0.4,0.1
		c0.1,0.1,0.2,0.2,0.3,0.3c0.3,0.4,0.4,0.7,0.2,1.2c-0.1,0.2-0.3,0.5-0.5,0.7c-0.1,0.1-0.1,0.1-0.1,0.1c0,0,0,0-0.1,0.1
		c0,0.1-0.1,0.1-0.1,0.2c0,0.1,0,0.2,0.1,0.3c0.1,0.1,0.1,0.1,0.2,0.1c0.1,0,0.1,0,0.2-0.1c0,0,0.1-0.1,0.2-0.1
		c0.1-0.1,0.2-0.1,0.2-0.2l0.4-0.3c0.2-0.2,0.4-0.3,0.6-0.4c0.4-0.1,0.7-0.1,0.9,0.2c0.3,0.4,0.4,0.8,0.1,1.3
		c-0.1,0.3-0.4,0.5-0.7,0.8c-0.3,0.2-0.5,0.4-0.7,0.5c-0.4,0.2-0.7,0.2-0.9,0C46.4,15,46.4,14.9,46.3,14.8z M47.4,14.8
		c0.2,0,0.4-0.2,0.6-0.4c0.2-0.2,0.4-0.4,0.5-0.5c0.2-0.3,0.2-0.5,0-0.7c-0.1-0.1-0.2-0.1-0.3-0.1c-0.1,0-0.3,0.1-0.5,0.3l-0.9,0.8
		c0,0.1,0,0.2,0,0.2c0,0.1,0.1,0.2,0.1,0.3C47,14.8,47.2,14.8,47.4,14.8z M45.5,12.4c0.2,0.1,0.4,0.1,0.5,0c0.1-0.1,0.2-0.3,0.1-0.4
		c-0.1-0.2-0.2-0.4-0.4-0.6c-0.2-0.2-0.4-0.4-0.6-0.5c-0.2-0.1-0.3,0-0.4,0.1c-0.1,0.1-0.2,0.3-0.1,0.5c0.1,0.2,0.2,0.4,0.4,0.6
		C45.2,12.2,45.4,12.4,45.5,12.4z"/>
	<path class="st0" d="M47.4,6.7l2.7,4l0.6-0.4l0.1,0.2L48.7,12l-0.1-0.2l0.6-0.4l-2.7-4l-0.6,0.4l-0.1-0.2l2.1-1.4L48,6.3L47.4,6.7z
		"/>
	<path class="st0" d="M52.7,9.3l0.1,0.2l-1.6,0.8l-0.1-0.2l0.4-0.2L50.1,7l-0.4,0.2L49.7,7l1.3-0.6l0.2,0.5c0-0.2,0.1-0.4,0.2-0.6
		c0.1-0.2,0.3-0.3,0.5-0.4c0.3-0.1,0.5-0.2,0.8-0.1c0.2,0.1,0.4,0.3,0.6,0.7l1,2.1l0.3-0.2l0.1,0.2l-1.6,0.7L53,9.2l0.3-0.1l-1-2.1
		c-0.1-0.2-0.1-0.3-0.2-0.3c-0.1-0.1-0.3-0.1-0.4-0.1c-0.1,0.1-0.2,0.1-0.3,0.3c-0.1,0.1-0.1,0.3-0.1,0.4l1,2.3L52.7,9.3z"/>
	<path class="st0" d="M60.2,7.3c0.4-0.1,0.9-0.5,0.9-0.5c0.3-0.2,0.5-0.6,0.6-1.2l0.2,0l-0.1,1.8l-4.3,0.5l0-0.2l0.7-0.1l-0.5-4.8
		l-0.6,0.1l0-0.2l2.6-0.3l0,0.2l-0.8,0.1l0.5,4.8L60.2,7.3z"/>
	<path class="st0" d="M63.3,5.8c0.3-0.2,0.9-0.3,1.6-0.5l0.1-0.6c0-0.2,0-0.4-0.1-0.5c-0.1-0.1-0.2-0.2-0.5-0.2c-0.1,0-0.2,0-0.3,0
		c-0.1,0-0.1,0.1-0.1,0.2c0,0,0,0.1,0,0.1c0,0,0,0,0,0.1l0,0.1c0,0,0.1,0.1,0.1,0.1c0,0.1,0,0.1,0,0.2C64,5,64,5.1,63.9,5.1
		c-0.1,0.1-0.2,0.1-0.3,0.1c-0.1,0-0.3-0.1-0.4-0.2c-0.1-0.1-0.1-0.2-0.1-0.4c0-0.3,0.2-0.5,0.5-0.7c0.3-0.1,0.6-0.2,1-0.2
		c0.4,0,0.8,0.2,1,0.4c0.3,0.2,0.4,0.5,0.3,1L65.7,7c0,0.1,0,0.1,0,0.1c0,0,0,0.1,0.1,0.1c0,0,0.1,0,0.1,0c0,0,0.1,0,0.1-0.1
		l0.1,0.2c-0.2,0.2-0.3,0.3-0.5,0.3c-0.1,0-0.2,0-0.4,0c-0.2,0-0.4-0.1-0.5-0.2c0-0.1-0.1-0.2-0.1-0.4c-0.2,0.2-0.5,0.3-0.7,0.4
		c-0.2,0-0.3,0.1-0.5,0c-0.2,0-0.4-0.1-0.5-0.3c-0.2-0.2-0.2-0.4-0.2-0.6C62.8,6.3,63,6,63.3,5.8z M64.5,6.9c0.1,0,0.1-0.1,0.2-0.2
		l0.1-1.1c-0.2,0-0.4,0.1-0.5,0.2C64,6,63.9,6.2,63.9,6.5c0,0.2,0,0.3,0.1,0.4C64,7,64.1,7,64.2,7C64.3,7,64.4,7,64.5,6.9z"/>
	<path class="st0" d="M68.6,4.8l0-0.2l1.7,0.5l-0.1,0.2l-0.4-0.1L69.9,7l1.1-1.6l-0.5-0.1l0.1-0.2l1,0.3l-0.1,0.2l-0.2-0.1l-2.2,3
		l-0.2,0L68.9,6l0,0l-1.5,2.1l-0.2,0l-0.4-3.7l-0.2-0.1l0-0.2l1.6,0.4l0,0.2l-0.4-0.1l0.2,2.1l0,0l0.8-1.1V4.9L68.6,4.8z"/>
	<path class="st0" d="M77.9,10.9l-1,1.4c-0.2,0-0.5-0.1-0.8-0.2c-0.4-0.1-0.7-0.3-1.1-0.6c-0.7-0.5-1.1-1.1-1.1-1.8
		c-0.1-0.7,0.1-1.3,0.5-2c0.4-0.6,1-1,1.7-1.2c0.7-0.2,1.4,0,2,0.4c0.3,0.2,0.5,0.4,0.6,0.7c0.2,0.3,0.3,0.4,0.4,0.5
		c0.1,0.1,0.1,0.1,0.2,0c0.1,0,0.2-0.1,0.2-0.2l0.2,0.1l-1,1.5l-0.2-0.1c0.1-0.4,0.1-0.8,0.1-1.1c0-0.5-0.2-0.9-0.6-1.2
		C77.7,7,77.2,7,76.8,7.2c-0.4,0.2-0.9,0.7-1.3,1.3c-0.4,0.5-0.6,1.1-0.7,1.6c-0.1,0.5,0.1,1,0.5,1.3c0.3,0.2,0.5,0.2,0.6,0.2
		c0.1,0,0.2-0.1,0.3-0.2l0.8-1.1l-0.6-0.4l0.1-0.2l2.1,1.5l-0.1,0.2L77.9,10.9z"/>
	<path class="st0" d="M77.9,13.4l2.3-2.2l-0.3-0.3l0.1-0.1l1,1l-0.4,0.4c0.3,0,0.5,0,0.7,0c0.2,0,0.4,0.1,0.5,0.3
		c0.1,0.1,0.2,0.2,0.2,0.4c0,0.2-0.1,0.3-0.2,0.4c-0.1,0.1-0.2,0.2-0.4,0.2c-0.1,0-0.2,0-0.3-0.1c-0.1-0.1-0.1-0.3-0.1-0.5
		c0-0.2,0-0.3,0-0.3c-0.1-0.1-0.2-0.1-0.3-0.1c-0.2,0-0.3,0.1-0.5,0.3l-1.5,1.4l0.4,0.4l-0.1,0.1l-1.3-1.4l0.1-0.1L77.9,13.4z"/>
	<path class="st0" d="M82.6,14.3c0.5,0.1,0.9,0.3,1.1,0.7c0.3,0.4,0.4,0.8,0.2,1.3c-0.1,0.5-0.4,0.9-0.8,1.2
		c-0.4,0.3-0.9,0.4-1.3,0.4c-0.5,0-0.9-0.3-1.1-0.7c-0.3-0.4-0.3-0.8-0.2-1.3c0.1-0.5,0.4-0.9,0.8-1.2
		C81.7,14.4,82.1,14.2,82.6,14.3z M81,16.3c-0.2,0.3-0.3,0.5-0.1,0.7c0.1,0.2,0.3,0.2,0.6,0.2c0.3-0.1,0.6-0.3,1.1-0.6
		c0.5-0.3,0.8-0.6,1-0.8c0.2-0.2,0.2-0.4,0.1-0.6c-0.1-0.2-0.4-0.2-0.7-0.1c-0.2,0.1-0.5,0.3-1,0.6C81.4,15.9,81.1,16.1,81,16.3z"/>
	<path class="st0" d="M83.7,22.2l-0.2,0.1l-0.6-1.3l0.4-0.2c-0.2-0.1-0.4-0.2-0.5-0.3c-0.2-0.1-0.3-0.3-0.4-0.5
		c-0.1-0.2-0.1-0.5-0.1-0.7c0.1-0.3,0.3-0.5,0.6-0.6l2.2-1L85,17.4l0.2-0.1l0.6,1.3l-2.4,1.1c-0.1,0.1-0.2,0.1-0.3,0.2
		c-0.1,0.1-0.1,0.2,0,0.4c0,0.1,0.1,0.2,0.2,0.3c0.1,0,0.2,0.1,0.3,0.1l2.4-1.1l-0.2-0.4l0.2-0.1l0.6,1.3l-3.1,1.4L83.7,22.2z"/>
	<path class="st0" d="M82.4,23.3l4.6-1.1l-0.1-0.4l0.2,0l0.3,1.4l-0.5,0.1c0.2,0.1,0.4,0.1,0.5,0.2c0.2,0.1,0.3,0.3,0.4,0.6
		c0.1,0.4,0,0.7-0.2,1c-0.2,0.3-0.6,0.5-1.2,0.7c-0.5,0.1-1,0.1-1.5-0.1c-0.4-0.2-0.7-0.5-0.8-0.8c0-0.2,0-0.4,0-0.6
		c0-0.1,0.1-0.2,0.2-0.4l-1.7,0.4l0.1,0.6l-0.2,0l-0.5-2l0.2,0L82.4,23.3z M85.1,24.9c0.2,0,0.5-0.1,0.9-0.1c0.4-0.1,0.8-0.2,1-0.4
		c0.2-0.1,0.3-0.3,0.3-0.5c0-0.2-0.1-0.3-0.3-0.4c-0.2-0.1-0.3-0.1-0.4-0.1l-1.8,0.4c-0.1,0-0.2,0.1-0.2,0.2
		c-0.1,0.1-0.1,0.3-0.1,0.4C84.5,24.7,84.7,24.9,85.1,24.9z"/>
	<path class="st0" d="M68.5,51.8c0.1,0.4,0.1,0.8-0.1,1.1c-0.2,0.3-0.5,0.6-1,0.7c-0.5,0.1-0.9,0.1-1.3,0c-0.3-0.2-0.6-0.4-0.7-0.8
		c-0.1-0.4-0.1-0.8,0.1-1.1c0.2-0.3,0.5-0.6,1-0.7c0.5-0.1,0.9-0.1,1.3,0C68.2,51.1,68.4,51.4,68.5,51.8z M69.9,53.8l-1.1,0.3
		l0.5,1.7L68.8,56l-0.5-1.7l-1.2,0.3l0.5,1.7L67,56.5l-0.5-1.7l-1.1,0.3l-0.2-0.5l4.6-1.3L69.9,53.8z M67.9,51.9
		c-0.1-0.2-0.2-0.4-0.5-0.5c-0.2-0.1-0.5-0.1-0.8,0c-0.3,0.1-0.5,0.2-0.6,0.4c-0.1,0.2-0.2,0.4-0.1,0.7c0.1,0.2,0.2,0.4,0.5,0.5
		c0.2,0.1,0.5,0.1,0.8,0c0.3-0.1,0.5-0.2,0.6-0.4C68,52.4,68,52.2,67.9,51.9z"/>
	<path class="st0" d="M73.6,50.3c0.2,0.3,0.2,0.7,0.1,1c-0.1,0.3-0.3,0.5-0.6,0.7c-0.3,0.2-0.7,0.2-1,0.1c-0.3-0.1-0.6-0.3-0.7-0.7
		c-0.2-0.3-0.2-0.6-0.2-0.9l-0.6,0.3l-0.2-0.4l1.2-0.6l-0.3-0.6l0.5-0.3l0.3,0.6l1.1-0.6l0.2,0.4L73,49.7
		C73.2,49.8,73.5,50,73.6,50.3z M73.1,50.6c-0.1-0.2-0.2-0.3-0.4-0.4c-0.2-0.1-0.4-0.1-0.5,0c-0.2,0.1-0.3,0.2-0.3,0.4
		c0,0.2,0,0.4,0.1,0.6c0.1,0.2,0.2,0.3,0.4,0.4c0.2,0.1,0.4,0.1,0.5,0c0.2-0.1,0.3-0.2,0.3-0.4C73.2,51,73.2,50.8,73.1,50.6z
		 M76.7,52.7L73.9,54c-0.1,0.1-0.2,0.1-0.3,0.1c-0.1,0-0.1-0.1-0.2-0.2l-0.6-1.2l0.5-0.3l0.4,0.8c0.1,0.1,0.2,0.2,0.3,0.1l2.3-1.2
		L76.7,52.7z M75.8,49.6L75,49.9l0.8,1.5l-0.5,0.3l-1.8-3.4l0.5-0.3l0.8,1.4l0.7-0.4L75.8,49.6z"/>
</g>
</svg>
