<?xml version="1.0" encoding="utf-8"?>
<!-- Generator: Adobe Illustrator 22.1.0, SVG Export Plug-In . SVG Version: 6.00 Build 0)  -->
<svg version="1.1" id="레이어_1" xmlns="http://www.w3.org/2000/svg" xmlns:xlink="http://www.w3.org/1999/xlink" x="0px"
	 y="0px" viewBox="0 0 312.5 75.1" style="enable-background:new 0 0 312.5 75.1;" xml:space="preserve">
<style type="text/css">
	.st0{fill:#0746ED;}
	.st1{fill:#FFFFFF;}
	.st2{fill:#231815;}
</style>
<g>
	<path class="st0" d="M75.1,37.5c0,20.7-16.8,37.5-37.5,37.5C16.8,75.1,0,58.3,0,37.5C0,16.8,16.8,0,37.5,0
		C58.3,0,75.1,16.8,75.1,37.5z"/>
	<path class="st1" d="M58.5,37.7c0-9.5-5.5-17.4-12.8-19.5c-1.9-0.2-3.8-0.4-5.3-0.5c-0.5,0.1-1,0.1-1.5,0.2
		C45.8,19.6,51,27.8,51,37.7c0,9.9-5.3,18.1-12.2,19.8c0,0,0,0,0.1,0c1.8-0.1,6.1-0.5,9.1-1.1C54.2,53.4,58.5,46.1,58.5,37.7z"/>
	<path class="st1" d="M49.8,37.8c0-2.8-0.4-5.5-1.2-7.9c-1.1-4.7-4.2-8.6-8.5-10.7h0c0,0,0,0,0,0c-1.4-0.7-3-1.2-4.6-1.4
		c-1.3-0.3-2.7-0.4-4.2-0.4c-0.4,0-0.7,0-1.1,0l-0.2,0c-6.8,0-12.6,3.4-14.6,8.1h15.5c3.4,0.3,8.7,1.6,10.1,6.9
		c0.1,0.5,0.3,0.9,0.4,1.3c0.2,1.1,0.2,2.3,0.2,3.6c0,2.5-0.3,4.8-0.8,5.9c-1.2,3.5-4.2,6.1-8,6.6h-4.1V32.1c0,0-5.2,1.1-7.8,6.7
		c0,0,0,0.1-0.1,0.1v0.1v11.1v5.8v0.8c0.3,0.4,0.6,0.7,1.2,0.9h8.3c0.4,0,0.7,0,1.1,0h1.9c6.9,0,12.8-4.5,14.9-10.7v0
		C49.2,44.3,49.8,41.1,49.8,37.8z"/>
	<path class="st1" d="M37.6,46.4c0-0.1,0.1-0.1,0.1-0.2v-0.2V44V32.1c0,0-5.2,1.2-7.9,6.9V44v4.6h3.6C33.3,48.6,36.2,48,37.6,46.4z"
		/>
	<g>
		<path class="st2" d="M125.4,7.1H115c-0.1,0-0.2,0-0.4,0H93.5c-0.8,0-1.4,0.6-1.4,1.4v58c0,0.8,0.6,1.4,1.4,1.4h24.1v0h7.9
			c12.8,0,23.1-10.4,23.1-23.3V30.4C148.5,17.6,138.2,7.1,125.4,7.1z M135.1,44.6c0,6.8-5.5,12.2-12.2,12.2h-2.2h-15.2V18.2h15.2
			h2.2c6.8,0,12.2,5.5,12.2,12.2V44.6z"/>
		<path class="st2" d="M168.5,37.6c-1.6,0-2.9-1.2-2.9-2.7v-2.8c0-1.5,1.3-2.7,2.9-2.7h14.7h11.3c0.8,0,1.4-0.6,1.4-1.4v-7.6
			c0-0.8-0.6-1.4-1.4-1.4h-11.3h-11.3h-5.8c-6.8,0-12.2,5.3-12.2,11.9v4.9c0,6.6,5.5,11.9,12.2,11.9h1.8h15.2c1.5,0,2.8,1.3,2.8,3
			v3.1c0,1.7-1.2,3-2.8,3h-15.2h-10.8H157c-0.8,0-1.4,0.6-1.4,1.4v7.6c0,0.8,0.6,1.4,1.4,1.4h10.9h11.9h5.5
			c6.9,0,12.5-5.5,12.5-12.3v-5.1c0-6.8-5.6-12.3-12.5-12.3h-2.1H168.5z"/>
		<path class="st2" d="M215.4,65.6c0,0.8-0.6,1.4-1.3,1.4h-9.5c-0.7,0-1.3-0.6-1.3-1.4V19.9c0-0.8,0.6-1.4,1.3-1.4h9.5
			c0.7,0,1.3,0.6,1.3,1.4V65.6z"/>
		<path class="st2" d="M215.4,14.1c0,0.8-0.6,1.4-1.4,1.4h-9.3c-0.8,0-1.4-0.6-1.4-1.4V5.8c0-0.8,0.6-1.4,1.4-1.4h9.3
			c0.8,0,1.4,0.6,1.4,1.4V14.1z"/>
		<path class="st2" d="M249.8,18.5h-11.9c-8.4,0-15.2,6.7-15.2,15.1v18.3c0,8.3,6.8,15.1,15.2,15.1h11.9c8.4,0,15.2-6.7,15.2-15.1
			V33.6C265,25.3,258.2,18.5,249.8,18.5z M253.6,49.7c0,3.8-3,6.8-6.8,6.8h-6.4c-3.8,0-6.8-3-6.8-6.8V35.5c0-3.7,3-6.8,6.8-6.8h6.4
			c3.8,0,6.8,3,6.8,6.8V49.7z"/>
		<path class="st2" d="M300.5,64.8c0,0.7,0.6,1.3,1.3,1.3h9.5c0.5,0,0.9-0.3,1.2-0.7l-12-13.1V64.8z"/>
		<path class="st2" d="M312.7,36.3L312.7,36.3c0,0,1.4-14.2-12.2-16.7v0c-1.7-0.4-11-2.2-17.2,4.6v-3.1c0-0.7-0.6-1.3-1.3-1.3h-9.5
			c-0.7,0-1.3,0.6-1.3,1.3v43.8c0,0.7,0.6,1.3,1.3,1.3h9.5c0.7,0,1.3-0.6,1.3-1.3V34.6c0.8-2.5,3.2-7.4,10.1-7.2
			c0,0,5.8-0.2,7.2,5.5v1.8v1.5v10.1l12.2,13.2V36.3z M282.9,36.3v-0.2V36.3z"/>
	</g>
</g>
</svg>
