<?xml version="1.0" encoding="utf-8"?>
<!-- Generator: Adobe Illustrator 22.1.0, SVG Export Plug-In . SVG Version: 6.00 Build 0)  -->
<svg version="1.1" id="레이어_1" xmlns="http://www.w3.org/2000/svg" xmlns:xlink="http://www.w3.org/1999/xlink" x="0px"
	 y="0px" viewBox="0 0 1040 237.4" style="enable-background:new 0 0 1040 237.4;" xml:space="preserve">
<style type="text/css">
	.st0{fill:#FEFEFE;}
	.st1{fill:#FDB22B;}
	.st2{fill:#00A5DF;}
	.st3{fill:#F7355C;}
	.st4{fill:#010101;}
</style>
<g>
	<path d="M521.4,0c150.5,0,301,0,451.5-0.1c6.2,0,9.2,2.1,11.9,7.5c17.6,35.2,35.6,70.3,53.6,105.4c2.5,4.9,2.2,8.2-1.5,12.4
		c-30.7,35.1-61.2,70.4-91.5,105.8c-4,4.6-8,6.5-14.1,6.5c-300.1-0.2-600.3-0.1-900.4-0.1c-4.2,0-8.3-0.1-12.3-1.4
		c-12.9-4-20.5-16.9-18-30.7c10.3-57.9,20.6-115.9,31-173.8C34.8,12.9,50.7,0,69.9,0C220.4,0,370.9,0,521.4,0z"/>
	<path class="st0" d="M405.2,226.6c-124.7,0-249.4,0-374,0c-3.5,0-6.9-0.1-10.2-1.3c-7.1-2.7-11-9.4-9.7-17.6
		c3.6-21.2,7.4-42.3,11.1-63.4c6.4-36.1,13-72.2,19.3-108.4c2.8-16.3,13.1-25.3,29.6-25.3c249.7,0,499.4,0,749.1-0.1
		c4,0,6.1,1.2,7.9,4.8c16.5,32.9,33.2,65.7,50,98.5c1.6,3,1.5,4.8-0.9,7.5c-29.5,33.8-58.9,67.8-88.2,101.8c-2.3,2.7-4.6,3.5-8,3.5
		C655.9,226.6,530.6,226.6,405.2,226.6z"/>
	<path class="st1" d="M899.6,226.6c8.7-10.1,16.6-19.2,24.5-28.4c21.1-24.4,42.1-48.8,63.4-73c3.6-4.1,4.1-7.5,1.5-12.4
		c-16.7-32.3-33-64.7-49.5-97.1c-2.5-5-2.5-5,3.1-5c9,0,18,0.1,27-0.1c3.1-0.1,4.9,0.7,6.5,3.7c16.8,33.4,33.8,66.7,50.8,99.9
		c1.4,2.8,1.1,4.5-0.9,6.8c-29.6,34-59,68.1-88.5,102.2c-2.1,2.4-4.2,3.5-7.5,3.5C920.4,226.4,910.7,226.6,899.6,226.6z"/>
	<path class="st2" d="M800.6,226.6c8.4-9.8,16.1-18.7,23.7-27.5c21.1-24.4,42.2-48.8,63.3-73.2c5.7-6.6,5.6-6.6,1.6-14.6
		c-16.2-31.9-32.4-63.9-48.8-95.8c-2-3.8-2.2-5.2,2.9-5.1c9.2,0.3,18.4,0.2,27.6,0c2.9,0,4.7,0.6,6.1,3.4
		c16.9,33.5,34,67,51.1,100.5c1.3,2.6,1,4.2-0.9,6.4c-29.8,34.3-59.5,68.6-89.2,103c-1.6,1.8-3.2,2.8-5.7,2.8
		C822.2,226.5,812.2,226.6,800.6,226.6z"/>
	<path class="st3" d="M887.5,10.6c11.9,0,23,0.1,34.1-0.1c3.3-0.1,4,2.1,5.1,4.2c16.1,31.6,32.2,63.3,48.3,94.9
		c4.1,8.2,4.2,8.2-1.9,15.2c-28.5,32.9-57,65.8-85.4,98.7c-1.9,2.2-3.7,3.1-6.6,3.1c-9.9-0.2-19.8-0.1-29.7-0.1
		c-0.3-2.4,1.7-3.4,2.8-4.7c27.9-32.3,55.7-64.6,83.8-96.7c3.6-4.2,4.1-7.5,1.6-12.4c-16.5-32-32.8-64.1-49.1-96.2
		C889.5,14.8,888.7,13.1,887.5,10.6z"/>
	<path d="M477.6,176.4c-13.1-0.3-10.1,2.1-14.7-10.3c-3.7-10.2-7.6-20.4-11.1-30.7c-1-2.8-2.3-3.8-5.2-3.6
		c-4.3,0.3-9.6-2.3-12.6,0.1c-3,2.4-2.1,8-2.9,12.2c-1.7,8.8-3.2,17.7-4.6,26.6c-0.6,3.9-2.2,5.9-6.4,5.7c-3.6-0.2-7.3-0.2-10.9,0
		c-4.1,0.2-5.5-1.2-4.7-5.5c3.8-20.7,7.4-41.5,11.1-62.3c2.3-12.9,4.6-25.9,6.9-38.8c1.2-6.7,2.2-7.7,9-8.4
		c14.6-1.4,29.3-3.2,44-0.1c19.6,4.2,27.8,17.3,23.5,36.8c-3,13.6-10.7,23.5-23.7,28.7c-2.8,1.1-2.7,2.2-1.8,4.5
		c4.8,12.8,9.4,25.6,14.1,38.4c2.3,6.4,2.1,6.7-4.7,6.7C481.1,176.4,479.4,176.4,477.6,176.4z"/>
	<path d="M123.1,177.6c-6.9-0.6-13.8-1.2-20.7-1.6c-4.6-0.3-5.7-2.3-4.9-6.8c6.2-33.7,12.1-67.4,18.1-101.1c0.5-3.1,1.4-6.1,4.9-6.4
		c14.6-1.4,29.4-3.6,44-0.7c21.5,4.2,31.6,18.8,28.9,42.4c-1.4,12.8-3.3,25.8-7.2,38.2c-6.5,21.1-22.4,33.5-44.5,35.5
		C135.6,177.5,129.3,177.8,123.1,177.6z"/>
	<path d="M630.5,108.2c13.4,0,26.4,0,39.3,0c5.9,0,6.5,0.6,5.4,6.2c-2.3,11.6-0.1,11.4-13.1,11.3c-10.2-0.1-20.5,0.1-30.7-0.1
		c-2.9-0.1-4.4,0.6-4.8,3.7c-0.8,6.2-2.1,12.3-3,18.4c-1.1,7.8,1.6,11,9.6,11.2c10.2,0.2,20.5,0.1,30.7,0c3.6-0.1,5,1.1,4.4,4.9
		c-2.3,13.1-0.7,11.1-11.6,12.3c-12,1.4-24.2,2.8-36.2-0.1c-14-3.4-20.9-13.1-18.6-27.3c3.2-20.5,6.8-41,11-61.3
		c3.8-18.4,12.9-25.8,31.4-27.4c12.5-1.1,24.9-0.2,37.3,1.3c3.4,0.4,4.9,1.8,4.1,5.4c-2.6,11.9,0.1,11.4-13,11.3
		c-8.3,0-16.6-0.1-25,0c-7.9,0.1-11.6,2.9-13.4,10.4C632.7,94.9,631.8,101.4,630.5,108.2z"/>
	<path d="M540,108.2c13.2,0,26.2,0,39.1,0c6.1,0,6.5,0.6,5.6,6.6c-1.8,10.9-1.8,10.9-12.9,10.9c-10.2,0-20.5,0.1-30.7-0.1
		c-3.2-0.1-4.6,0.9-5,4.1c-0.8,5.8-1.9,11.6-2.8,17.4c-1.3,8.4,1.4,11.8,9.8,11.9c10.1,0.1,20.1,0.2,30.2,0c4-0.1,5.2,1.3,4.5,5.2
		c-2.2,12.4-0.7,10.7-11.4,12c-12,1.4-24.2,2.8-36.2-0.1c-14-3.3-21-13-18.8-27.1c3.3-20.7,6.9-41.3,11.1-61.8
		c3.7-17.9,13-25.4,31.2-27.1c12.7-1.2,25.3-0.2,37.8,1.4c3.3,0.4,4.5,1.9,3.7,5.2c-2.6,12.2-0.1,11.5-12.9,11.5
		c-8.3,0-16.6-0.1-25,0c-8.3,0.1-12.1,3.1-13.8,11.2C542.1,95.5,541.2,101.6,540,108.2z"/>
	<path d="M281.7,59.6c9.4,0.7,17,1.1,24.5,2.5c3.2,0.6,4.3,1.9,3.9,5.2c-1.3,12.3-1.2,12.3-13.5,11.8c-9.7-0.4-19.3-1.9-29-0.2
		c-2.1,0.4-4,0.9-5.9,2c-7.4,4.1-8.5,12.9-1.7,17.8c7.4,5.4,15.4,9.9,23.1,14.8c7.2,4.6,13,10.3,15.4,18.8
		c5.6,19.8-6.7,38.5-28.7,43.4c-14.4,3.2-28.9,2.3-43.3-0.5c-3.6-0.7-4.6-2.4-3.9-5.7c2.8-13.4,0.7-12.1,13-11.4
		c8.9,0.6,17.9,2.1,26.9,0.3c1.7-0.3,3.4-0.8,5-1.3c8.3-3,13.4-16,3.6-23c-7.9-5.6-16-10.9-24-16.4c-11.5-7.9-16.2-20.7-12.8-34.1
		c2.3-9,8-15.2,16.4-18.9C261.4,60,272.4,59.5,281.7,59.6z"/>
	<path d="M352.8,79c-8.5,0-16.8-0.1-25.1,0c-4.1,0.1-5.6-1.2-4.7-5.5c3.1-14.6-0.1-12.5,15-12.6c21.5-0.1,43,0.1,64.5-0.1
		c4.7,0,6.1,1.4,5.1,6.1c-3,13.6-0.1,12-14.5,12.1c-4.7,0-9.4,0.3-14-0.1c-3.6-0.3-4.7,1.1-5.3,4.3c-3.5,20.1-7.1,40.2-10.7,60.3
		c-1.7,9.4-3.5,18.7-5,28.1c-0.6,3.5-2.4,4.7-5.6,4.6c-4-0.1-8-0.2-12,0c-4.3,0.3-5-1.7-4.3-5.4c3.6-19.9,7.2-39.8,10.8-59.7
		C349,100.6,350.8,90.1,352.8,79z"/>
	<path d="M727.3,79c-8.5,0-16.6-0.1-24.7,0.1c-4.3,0.1-6-0.9-5-5.7c3.1-14.4,0-12.3,15.2-12.4c21.1-0.1,42.3,0,63.4,0
		c6.8,0,6.9,0.2,5.7,6.6c-2.4,13-0.4,11.3-13.9,11.4c-4.7,0-9.4,0.4-14-0.1c-4.2-0.5-5.1,1.6-5.7,5c-4.9,28.3-9.9,56.6-14.9,84.8
		c-1.3,7.5-1.4,7.5-9,7.5c-2.9,0-5.9-0.2-8.8,0c-4.4,0.4-5.4-1.6-4.6-5.6c4.1-22.1,8-44.2,12-66.4C724.4,96.2,725.8,88,727.3,79z"/>
	<path class="st4" d="M200.1,177.6c-5.5,0-9.8-4.4-9.8-9.9c0.1-5.5,4.4-9.7,10-9.6c5.2,0.1,9.6,4.4,9.6,9.6
		C210.1,173,205.5,177.6,200.1,177.6z"/>
	<path class="st0" d="M447.6,114.2c-11.1-0.3-11.1-0.3-9.2-10.6c1.3-6.9,2.7-13.9,3.8-20.9c0.4-2.6,1.1-3.9,4.1-4.1
		c7.1-0.5,14.2-0.9,21.2,0.5c7.5,1.5,10.5,5.4,10.4,13c-0.3,12.1-6.9,19.5-19,21.3C454.8,114.1,450.9,114.4,447.6,114.2z"/>
	<path class="st0" d="M146.7,78c0.3,0,0.7,0,1,0c20.1,0,26.6,7.3,23.7,27.2c-1.3,9.2-3,18.4-4.9,27.5c-3.7,17.8-14.3,26.4-32.3,26.5
		c-13.1,0.1-13,0.1-10.7-12.9c3.7-20.6,7.4-41.1,10.7-61.8c0.8-4.9,2.5-7.4,7.7-6.6C143.6,78.2,145.2,78,146.7,78
		C146.7,78,146.7,78,146.7,78z"/>
</g>
</svg>
