<?xml version="1.0" encoding="utf-8"?>
<!-- Generator: Adobe Illustrator 22.1.0, SVG Export Plug-In . SVG Version: 6.00 Build 0)  -->
<svg version="1.1" id="图层_1" xmlns="http://www.w3.org/2000/svg" xmlns:xlink="http://www.w3.org/1999/xlink" x="0px" y="0px"
	 viewBox="0 0 309.2 56.9" style="enable-background:new 0 0 309.2 56.9;" xml:space="preserve">
<style type="text/css">
	.st0{fill:#F39800;}
	.st1{fill:#555555;}
</style>
<g>
	<g>
		<path class="st0" d="M55.8,0H43.8c-0.6,0-1.1,0.5-1.1,1.1v40.4c0,0.6-0.5,1.1-1.1,1.1H1.1c-0.6,0-1.1,0.5-1.1,1.1v11.9
			c0,0.6,0.5,1.1,1.1,1.1h54.6h1.1v-1.1V1.1C56.9,0.5,56.4,0,55.8,0z"/>
		<path class="st0" d="M1.3,37h13.6c0.7,0,1.3-0.6,1.3-1.3V22.1c0-0.7-0.6-1.3-1.3-1.3H1.3c-0.7,0-1.3,0.6-1.3,1.3v13.6
			C0,36.4,0.6,37,1.3,37z"/>
		<path class="st0" d="M21.6,16.2h13.6c0.7,0,1.3-0.6,1.3-1.3V1.3c0-0.7-0.6-1.3-1.3-1.3h-0.7H22.5h-0.9c-0.7,0-1.3,0.6-1.3,1.3
			v13.6C20.3,15.6,20.8,16.2,21.6,16.2z"/>
	</g>
	<g>
		<path class="st1" d="M233.3,16c-0.5,0-1,0.4-1.1,0.8l-11.9,31.5c-0.2,0.4-0.5,0.5-0.8,0.1l-7.7-10.9c-0.3-0.4-0.5-1.1-0.5-1.5
			V15.5c0-0.5-0.4-0.8-0.8-0.8h-4.1c-0.5,0-0.8,0.4-0.8,0.8v20.6c0,0.5-0.2,1.2-0.5,1.5l-9.8,13.9c-0.3,0.4-0.2,0.9,0.2,1.1l3,2
			c0.4,0.3,0.9,0.2,1.2-0.2l8.3-11.5c0.3-0.4,0.7-0.4,1,0l7.6,10.6c0.3,0.4,0.7,0.7,1,0.7s0.9,0,1.3,0h3.8c0.5,0,1,0,1.2,0
			c0.2,0,0.5-0.4,0.6-0.8L238,16.8c0.2-0.4-0.1-0.8-0.6-0.8H233.3z"/>
		<path class="st1" d="M97.9,3.5c-0.5,0-1.1,0.3-1.4,0.6L78.8,21.3c-0.3,0.3-0.3,0.9,0,1.2l2.9,2.8c0.3,0.3,0.9,0.3,1.2,0L99.1,9.7
			c0.3-0.3,1-0.6,1.4-0.6h9.5c0.5,0,1.1,0.3,1.4,0.6l16.2,15.6c0.3,0.3,0.9,0.3,1.2,0l2.9-2.8c0.3-0.3,0.3-0.9,0-1.2L114.2,4.1
			c-0.3-0.3-1-0.6-1.4-0.6H97.9z"/>
		<path class="st1" d="M108.3,38.6c0-0.5,0.4-0.8,0.8-0.8h18.2c0.5,0,0.8-0.4,0.8-0.8v-3.8c0-0.5-0.4-0.8-0.8-0.8h-18.2
			c-0.5,0-0.8-0.4-0.8-0.8v-5.8c0-0.5,0.4-0.8,0.8-0.8H120c0.5,0,0.8-0.4,0.8-0.8v-3.9c0-0.5-0.4-0.8-0.8-0.8H90.6
			c-0.5,0-0.8,0.4-0.8,0.8v3.9c0,0.5,0.4,0.8,0.8,0.8h11c0.5,0,0.8,0.4,0.8,0.8v5.8c0,0.5-0.4,0.8-0.8,0.8H83.4
			c-0.5,0-0.8,0.4-0.8,0.8v3.8c0,0.5,0.4,0.8,0.8,0.8h18.2c0.5,0,0.8,0.4,0.8,0.8v9.3c0,0.5-0.4,0.8-0.8,0.8H82.3
			c-0.5,0-0.8,0.4-0.8,0.8v3.9c0,0.5,0.4,0.8,0.8,0.8h46c0.5,0,0.8-0.4,0.8-0.8v-3.9c0-0.5-0.4-0.8-0.8-0.8h-19.2
			c-0.5,0-0.8-0.4-0.8-0.8V38.6z"/>
		<path class="st1" d="M201.8,9.7c0-0.5,0.4-0.8,0.8-0.8h11.7c0.5,0,0.8,0.4,0.8,0.8V39c0,0.5,0.4,0.8,0.8,0.8h4.1
			c0.5,0,0.8-0.4,0.8-0.8V4.3c0-0.5-0.4-0.8-0.8-0.8h-23.2c-0.5,0-0.8,0.4-0.8,0.8V39c0,0.5,0.4,0.8,0.8,0.8h4.1
			c0.5,0,0.8-0.4,0.8-0.8V9.7z"/>
		<path class="st1" d="M244.7,4.3c0-0.5-0.4-0.8-0.8-0.8h-4.1c-0.5,0-0.8,0.4-0.8,0.8v2.1c0,0.5-0.4,0.8-0.8,0.8h-12.6
			c-0.5,0-0.8,0.4-0.8,0.8v3.8c0,0.5,0.4,0.8,0.8,0.8h12.6c0.5,0,0.8,0.4,0.8,0.8V48c0,0.5-0.4,0.8-0.8,0.8H234
			c-0.5,0-0.8,0.4-0.8,0.8v3.7c0,0.5,0.4,0.8,0.8,0.8h9.9c0.5,0,0.8-0.4,0.8-0.8V13.6c0-0.5,0.4-0.8,0.8-0.8h2.4
			c0.5,0,0.8-0.4,0.8-0.8V8.1c0-0.5-0.4-0.8-0.8-0.8h-2.4c-0.5,0-0.8-0.4-0.8-0.8V4.3z"/>
		<path class="st1" d="M275.5,36.1c0,0.5,0.4,0.8,0.8,0.8h11.5c0.5,0,0.8,0.4,0.8,0.8v10.1c0,0.5-0.4,0.8-0.8,0.8h-11.5
			c-0.5,0-0.8,0.4-0.8,0.8v3.7c0,0.5,0.4,0.8,0.8,0.8h30.5c0.5,0,0.8-0.4,0.8-0.8v-3.7c0-0.5-0.4-0.8-0.8-0.8h-11.6
			c-0.5,0-0.8-0.4-0.8-0.8V37.8c0-0.5,0.4-0.8,0.8-0.8h11.6c0.5,0,0.8-0.4,0.8-0.8v-3.8c0-0.5-0.4-0.8-0.8-0.8h-30.5
			c-0.5,0-0.8,0.4-0.8,0.8V36.1z"/>
		<path class="st1" d="M296.4,16.7c-0.4-0.3-0.4-0.7,0-1l8-6c0.4-0.3,0.7-0.9,0.7-1.3V4.7c0-0.5-0.4-0.8-0.8-0.8h-28.1
			c-0.5,0-0.8,0.4-0.8,0.8v3.7c0,0.5,0.4,0.8,0.8,0.8h18.7c0.5,0,0.8,0.1,0.7,0.2c-0.1,0.1-0.4,0.4-0.8,0.7l-20.4,15.2
			c-0.4,0.3-0.4,0.8-0.2,1.2l2.4,3c0.3,0.4,0.8,0.4,1.2,0.2l12.7-9.5c0.4-0.3,1-0.3,1.3,0l12.6,9.5c0.4,0.3,0.9,0.2,1.2-0.1l2.5-3
			c0.3-0.4,0.2-0.9-0.1-1.2L296.4,16.7z"/>
		<g>
			<path class="st1" d="M187.3,49.6c0-0.5-0.4-0.8-0.8-0.8h-38.9c-0.5,0-0.8-0.4-0.8-0.8v-7.3c0-0.5,0.4-0.8,0.8-0.8h38.1
				c0.5,0,0.8-0.4,0.8-0.8V17.8c0-0.5-0.4-0.8-0.8-0.8h-5.2c-0.5,0-0.8-0.4-0.6-0.8l2.2-9.4c0.1-0.5-0.2-0.8-0.6-0.8h-5.6
				c-0.5,0-1.2,0-1.7,0h-24.8c-0.5,0-0.8-0.4-0.7-0.8l0.1-1c0.1-0.5-0.3-0.8-0.7-0.8h-4c-0.5,0-0.9,0.4-1,0.8l-1.2,6.4
				c-0.1,0.5,0.2,0.8,0.7,0.8h4c0.5,0,1.2,0,1.7,0h25.9c0.5,0,0.8,0.4,0.7,0.8l-0.8,3.9c-0.1,0.5-0.6,0.8-1,0.8h-31.1
				c-0.5,0-0.8,0.4-0.8,0.8v35.6c0,0.5,0.4,0.8,0.8,0.8h44.7c0.5,0,0.8-0.4,0.8-0.8V49.6z M165.9,23.3c0-0.5,0.4-0.8,0.8-0.8h13.1
				c0.5,0,0.8,0.4,0.8,0.8v10.2c0,0.5-0.4,0.8-0.8,0.8h-13.1c-0.5,0-0.8-0.4-0.8-0.8V23.3z M146.7,23.3c0-0.5,0.4-0.8,0.8-0.8h11.8
				c0.5,0,0.8,0.4,0.8,0.8v10.2c0,0.5-0.4,0.8-0.8,0.8h-11.8c-0.5,0-0.8-0.4-0.8-0.8V23.3z"/>
		</g>
		<path class="st1" d="M255.8,48.3c-0.5,0-0.8,0.4-0.8,0.8v3.7c0,0.5,0.4,0.8,0.8,0.8H270c0.5,0,0.8-0.4,0.8-0.8v-3.7
			c0-0.5-0.4-0.8-0.8-0.8H255.8z"/>
		<path class="st1" d="M93.8,45.3c0,0.5-0.4,0.8-0.8,0.8H89c-0.5,0-0.8-0.4-0.8-0.8v-3.9c0-0.5,0.4-0.8,0.8-0.8H93
			c0.5,0,0.8,0.4,0.8,0.8V45.3z"/>
		<path class="st1" d="M122.4,45.3c0,0.5-0.4,0.8-0.8,0.8h-3.9c-0.5,0-0.8-0.4-0.8-0.8v-3.9c0-0.5,0.4-0.8,0.8-0.8h3.9
			c0.5,0,0.8,0.4,0.8,0.8V45.3z"/>
		<g>
			<path class="st1" d="M264.8,37.3c-0.5,0-0.7-0.4-0.6-0.8l4.7-13.3c0.2-0.4-0.1-0.8-0.6-0.8l-4.6,0c-0.5,0-1,0.4-1.1,0.8L256.1,42
				c-0.2,0.4,0.1,0.8,0.6,0.8H270c0.5,0,0.8-0.4,0.8-0.8v-3.7c0-0.5-0.4-0.8-0.8-0.8H264.8z"/>
			<path class="st0" d="M262.3,18.9c0.2-0.4,0.4-1.1,0.6-1.6l5.1-13.1c0.2-0.4-0.1-0.8-0.5-0.8h-4.7c-0.5,0-1,0.4-1.1,0.8l-6.4,17.3
				c-0.2,0.4,0.1,0.8,0.6,0.8h4.4c0.5,0,1-0.4,1.1-0.8L262.3,18.9z"/>
		</g>
	</g>
</g>
</svg>
