<?xml version="1.0" encoding="utf-8"?>
<!-- Generator: Adobe Illustrator 22.1.0, SVG Export Plug-In . SVG Version: 6.00 Build 0)  -->
<svg version="1.1" id="레이어_1" xmlns="http://www.w3.org/2000/svg" xmlns:xlink="http://www.w3.org/1999/xlink" x="0px"
	 y="0px" viewBox="0 0 291.3 60.1" style="enable-background:new 0 0 291.3 60.1;" xml:space="preserve">
<style type="text/css">
	.st0{fill:#241C1D;}
	.st1{fill:#008375;}
	.st2{fill:#D50037;}
</style>
<polygon class="st0" points="180.2,15.5 174.2,15.5 174.2,52.9 180.2,52.9 180.2,29 185.8,29 185.8,25.6 180.2,25.6 "/>
<path class="st0" d="M159.9,41.4c-2.6,0-4.7-4.1-4.7-9.2c0-5.1,2.1-9.3,4.7-9.3c2.6,0,4.7,4.1,4.7,9.2
	C164.6,37.3,162.5,41.4,159.9,41.4 M162.9,14.6h-6v3.5h-8.2v3.3h5.6c-3,2.2-5,6.2-5,10.7c0,7,4.8,12.6,10.6,12.6
	c5.9,0,10.6-5.6,10.6-12.6c0-4.5-2-8.5-5-10.7h5.6v-3.3h-8.2V14.6z"/>
<path class="st0" d="M222.7,25.6h-5.6V15.5h-6v22.6c-1,1-2.5,2-4.6,2H197c-1.4,0-2.6-1.1-2.6-2.5l0-20.4h-6l0,20.4
	c0,3.2,2.7,5.9,6,5.9h10.3c0,0,3.6,0.2,6.3-2.2v11.7h6V29h5.6V25.6z"/>
<path class="st0" d="M239.4,18c2.6,0,4.7,3.3,4.7,7.4c0,4.1-2.1,7.5-4.6,7.5c-2.6,0-4.7-3.3-4.7-7.4C234.8,21.4,236.8,18,239.4,18
	 M249.9,25.5c0-6-4.8-10.8-10.6-10.8c-5.9,0-10.6,4.9-10.6,10.8c0,3.7,1.9,7.1,4.7,9h-11V38h4.6l0,9c0,3.3,2.7,5.9,6,5.9l20.2,0
	v-3.4h-17.7c-1.4,0-2.5-1.1-2.5-2.5l0-9h23v-3.5h-10.7C248,32.5,249.9,29.2,249.9,25.5"/>
<path class="st0" d="M266,35.1c-1.5,0-2.7-2.7-2.7-6.1c0-3.4,1.1-6.1,2.6-6.1c1.5,0,2.7,2.7,2.7,6.1C268.6,32.4,267.4,35.1,266,35.1
	 M274.5,29c0-3.1-1.3-5.8-3.4-7.6h3.8v-3.4H269v-3.5h-6v3.5h-6v3.4h3.8c-2.1,1.7-3.4,4.5-3.4,7.6c0,5.2,3.9,9.5,8.6,9.5
	C270.7,38.5,274.5,34.2,274.5,29"/>
<path class="st0" d="M280.8,50.6c-2.6,0-4.7-3.3-4.7-7.5c0-4.1,2.1-7.5,4.6-7.5c2.6,0,4.7,3.3,4.7,7.5
	C285.5,47.3,283.4,50.6,280.8,50.6 M285.6,26.3v7.4c-0.9-0.5-1.8-0.8-2.7-1v-6.4L285.6,26.3z M291.3,43V15.5h-5.7V23l-2.7,0v-7.5
	h-5.7v17.6c-4.1,1.5-7.1,5.5-7.1,10.2c0,6,4.8,10.8,10.6,10.8c5.8,0,10.6-4.8,10.6-10.8C291.3,43.2,291.3,43.1,291.3,43"/>
<path class="st0" d="M89.3,17.7l-6.2-2.1c-3,8.6-10.4,14.8-10.4,14.8V16.6h-6.3v30.2h6.3V31.1l10,15.8h7.9L79.4,30.6
	C79.4,30.6,86.5,26,89.3,17.7 M131.6,37.6c0-2.7-1.9-4.1-4.2-4.1h-5.3v8.3h5.3C129.8,41.8,131.6,40.2,131.6,37.6 M122,28.8h6.7
	c1.2-0.9,1.8-2.2,1.8-3.8c0-2-1.1-3.6-3.7-3.6H122V28.8z M138.2,37.6c0,5.9-4.1,9.3-10.3,9.3H116V16.6h12.1c5.2,0,8.7,3.3,8.7,7.6
	c0,2.4-1,4.5-2.9,5.9C136.3,31.4,138.2,33.9,138.2,37.6 M99.3,41.6h12.3v5.3H93.1V16.6h18l-0.8,5.1H99.2v6.8h9.5v5.1h-9.4V41.6z"/>
<path class="st1" d="M42.3,35.1c-0.1-0.9-0.4-1.7-0.7-2.5c-1.1-2.4-2.6-4.4-4.9-5.7c-3.5-2.1-7.9-2.1-11.4,0.1c-1.6,1-2.9,2.4-3.7,4
	c-0.3,0.6-0.5,1.2-0.7,1.8c-0.9,3-0.9,6.9,0.8,9.6c0.5,0.9,1.3,1.6,2.3,2c1,0.4,2.1,0.3,3-0.2c1.1-0.7,1.3-2.1,1.1-3.3
	c-0.3-1.6-0.5-3.1,0.1-4.6c0.2-0.5,0.4-1,0.8-1.3c0.2-0.2,0.5-0.4,0.8-0.5c0.6-0.3,1.3-0.4,2-0.3c1.2,0.2,2.1,1.1,2.6,2.2
	c0.5,1,0.7,2.3,0.7,3.4c0.2,5.1-1,10.5-2.3,15.4c-0.1,0.5-0.3,1-0.4,1.5c-0.1,0.4-0.3,0.9-0.1,1.3c0.1,0.2,0.3,0.3,0.5,0.3
	c0.8,0.3,1.4-0.2,1.9-0.7c3-3,4.9-6.9,6.3-10.9c0.5-1.5,0.9-3,1.2-4.6C42.4,39.8,42.6,37.3,42.3,35.1"/>
<path class="st1" d="M63.8,11.4c0-0.8-0.7-1.3-1.4-1.3c-0.8,0-1.4,0.4-2.1,0.7c-13.2,5-28.2,6-42.1,4c-2.4-0.3-4.8-0.8-7.2-1.2
	c-1.5-0.2-3-0.6-4.5-0.7c-1.3-0.1-2.9-0.1-3.9,0.8c-1.4,1.2-1.3,3.4-0.5,4.9c0.9,1.8,2.6,3.1,4.3,4.1c1.7,1,3.6,2,5.6,1.9
	c5.3-0.3,10.6-0.9,16-1.5c9-1.2,18.5-2.3,27-5.8c2.8-1.1,5.5-2.6,7.9-4.4C63.2,12.5,63.8,12,63.8,11.4"/>
<path class="st2" d="M25.8,6.8c0,2.9,2.3,5.2,5.2,5.2c2.9,0,5.2-2.3,5.2-5.2c0-0.4-0.1-0.9-0.3-1.2C35.5,4.6,35,4.2,35.1,3
	c0.1-1.5-1.9-1.6-3-1.6c-1.2,0-2.4,0.2-3.4,0.7c-0.8,0.4-1.6,1.1-2,1.8c-0.5,0.8-0.8,1.7-0.8,2.7V6.8"/>
</svg>
