<?xml version="1.0" encoding="utf-8"?>
<!-- Generator: Adobe Illustrator 22.1.0, SVG Export Plug-In . SVG Version: 6.00 Build 0)  -->
<svg version="1.1" id="레이어_1" xmlns="http://www.w3.org/2000/svg" xmlns:xlink="http://www.w3.org/1999/xlink" x="0px"
	 y="0px" viewBox="0 0 407.6 95.6" style="enable-background:new 0 0 407.6 95.6;" xml:space="preserve">
<style type="text/css">
	.st0{fill:#FFFFFF;}
	.st1{fill:#138EC8;}
	.st2{fill:#E45C24;}
	.st3{fill:#005398;}
</style>
<g>
	<path class="st0" d="M22.1,11.7c-2.3,1.2-4,3.1-4.8,5.5L2.1,63.1c-0.8,2.4-0.6,5,0.5,7.3c1.1,2.3,3.1,3.9,5.5,4.8L58.2,92
		c2.5,0.8,5,0.6,7.3-0.5c2.3-1.2,4-3.1,4.8-5.5l15.3-45.9c1.7-5-1.1-10.4-6.1-12.1L29.4,11.2C27,10.4,24.4,10.5,22.1,11.7"/>
	<path class="st1" d="M46.6,55.8c-2.7,3-6.1,5.5-10,7l-2.3,0.9V42.4l2.2,0.9c3.9,1.5,7.3,4,10.1,7c1.9-3.1,3.2-6.8,3.4-10.7
		c0.6-10.2-5.8-19.6-14.5-22.8l-7.2-2.4c-3.3-1.1-6.7,0.7-7.8,4L5.1,64.2c-1.1,3.3,0.7,6.8,4,7.9l34.8,11.6
		c3.5-3.8,5.9-8.8,6.2-14.3C50.4,64.4,49.1,59.7,46.6,55.8 M26.5,65h-3.4V41.1h3.4V65z"/>
	<path class="st2" d="M44.6,53c-1.9-2.3-4.3-4.2-7-5.6v11.2C40.3,57.2,42.7,55.3,44.6,53"/>
	<path class="st3" d="M78.4,31.1L46.5,20.4c4.3,4.7,6.9,10.9,6.9,17.7c0,5.4-1.6,10.6-4.6,14.9c2.9,4.3,4.6,9.5,4.7,14.9
		c0,6.5-2.3,12.4-6.2,17l12,4c3.3,1.1,6.7-0.7,7.8-4l15.3-45.9C83.5,35.7,81.7,32.1,78.4,31.1 M69.9,64.9h-4.3L56.8,53l9-11.9h4.4
		l-9,11.9L69.9,64.9z"/>
	<path class="st3" d="M270.2,36.8c-2.7,2.3-4.1,5.3-4.1,8.9c0,3.6,1.4,6.6,4.1,8.9c2.7,2.4,5.8,3.5,9.4,3.5c3.2,0,6-0.9,8.5-2.7
		c2.3-1.7,3.8-4.1,4.5-6.9h7.6v10.3h6.9V33.6h-6.9v9.8h-7.6c-0.5-2.9-2-5.3-4.3-7.2c-2.5-1.9-5.4-2.9-8.7-2.9
		C276,33.3,272.9,34.5,270.2,36.8 M273.1,45.7c0-2,0.6-3.7,1.9-5.1c1.2-1.3,2.7-2,4.6-2c1.9,0,3.4,0.6,4.6,2
		c1.1,1.4,1.7,3.1,1.7,5.1c0,2-0.6,3.7-1.8,5.1c-1.2,1.4-2.7,2.1-4.7,2.1c-1.8,0-3.3-0.7-4.5-2.1C273.7,49.4,273.1,47.8,273.1,45.7
		 M306.6,60.9h-6.5v4.9h-18.7v-4.9h-6.9v20.7h32.6V60.9H306.6z M300.1,76.1h-18.7v-5.2h18.7V76.1z"/>
	<path class="st3" d="M326.2,35.9c-3,2.1-4.5,5.1-4.5,8.9c0,3.7,1.5,6.7,4.5,8.8c2.9,2.1,6.5,3.1,10.6,3.1c4.1,0,7.7-1,10.6-3.1
		c3-2.1,4.5-5,4.5-8.8c0-3.8-1.5-6.8-4.5-8.9c-3-2.1-6.5-3.1-10.6-3.1C332.7,32.8,329.2,33.8,326.2,35.9 M331,49.6
		c-1.5-1.3-2.2-2.8-2.2-4.8c0-2,0.8-3.7,2.2-5c1.5-1.4,3.5-2,5.9-2c2.4,0,4.3,0.6,5.8,2c1.5,1.3,2.3,3,2.3,5c0,2-0.7,3.5-2.3,4.8
		c-1.5,1.3-3.4,1.9-5.8,1.9C334.4,51.5,332.5,50.9,331,49.6 M357.7,58.3h-40.6v5.2h41.1v-5.2H357.7z M328.4,65.6h-6.5v15.9h33.3
		v-5.2h-26.3V65.6H328.4z"/>
	<path class="st3" d="M379.8,65.5c-3,1.8-4.5,4.3-4.5,7.5c0,3.1,1.5,5.6,4.5,7.4c2.9,1.7,6.4,2.6,10.6,2.6c4.1,0,7.6-0.9,10.6-2.6
		c2.9-1.8,4.5-4.3,4.5-7.4c0-3.2-1.5-5.7-4.5-7.5c-3-1.7-6.5-2.6-10.6-2.6C386.2,62.9,382.7,63.8,379.8,65.5 M382.3,73
		c0-1.4,0.7-2.5,2.2-3.5c1.5-1,3.5-1.5,5.9-1.5c2.4,0,4.4,0.5,5.9,1.5c1.5,1,2.2,2.2,2.2,3.5c0,1.4-0.7,2.5-2.2,3.4
		c-1.5,1-3.5,1.4-5.9,1.4c-2.4,0-4.4-0.5-5.9-1.4C382.9,75.4,382.3,74.3,382.3,73"/>
	<path class="st3" d="M404.9,33.6h-6.5v10.9h-2.6V33.6h-7v27.5h7V49.6h2.6v13.3h7V33.6H404.9 M382.6,34.2h-14.7v5.2h15.1v-5.2H382.6
		z M386.4,40.7h-22v5.2h3.5c-2.2,1.9-3.5,4.6-3.5,7.4c0,5.6,5,10.2,11.2,10.2c6.2,0,11.2-4.6,11.2-10.2c0-2.8-1.3-5.5-3.5-7.4h3.5
		v-5.2H386.4z M371,53.3c0-3,2.1-5.4,4.6-5.4c2.6,0,4.7,2.4,4.7,5.4s-2.1,5.4-4.7,5.4C373.1,58.7,371,56.3,371,53.3"/>
	<polygon class="st3" points="257.1,33.6 250.7,33.6 250.7,81.6 257.6,81.6 257.6,33.6 	"/>
	<path class="st3" d="M241.9,34.7h-23.1v5.2h16.6v2.4v0.9c-0.2,11.1-7.9,20.6-18.7,23.2l-0.7,0.2l3.6,4.5l0.3-0.1
		c12.6-3.7,22.1-15.4,22.5-27.7v-8.6H241.9"/>
	<polygon class="st3" points="113.3,32.8 105,32.8 105,83 113.8,83 113.8,32.8 	"/>
	<path class="st3" d="M126.6,32.8h-0.9V83h15.5c13,0,19.4-4.5,19.4-13.8c0-5.8-3.3-10.3-8.8-11.9c5.1-2.1,7.5-5.8,7.5-11.4
		c0-8.7-6-13.1-17.9-13.1H126.6 M142.5,40.3c2.4,0,8,0.6,8,6.3c0,6.3-5,6.8-11.5,6.8h-4.5V40.3H142.5z M139.7,60.9
		c6,0,11.6,0.9,11.6,7.6c0,4.8-3.3,6.9-10.9,6.9h-5.9V60.9H139.7z"/>
	<path class="st3" d="M207.5,32.8h-10.3c0,0-17,18.2-18.5,19.8V32.8h-8.8V83h8.8V60.8c1.5,1.7,19.4,22.2,19.4,22.2h12.2
		c0,0-24-25.8-24.5-26.4c0.6-0.6,22.8-23.8,22.8-23.8H207.5"/>
	<path class="st3" d="M114.1,12.2c-1.5-0.3-3.9-1.9-4.7-3.3c-0.6,1.5-3.1,3.4-4.7,3.8l-1.3-1.6c4.3-1.6,4.9-4,4.9-4.7h-3.7V4.5h9.6
		v1.8h-3.7c0,0.8,1.4,3.3,4.7,4.1L114.1,12.2 M118.8,20.5h-12.2v-6.8h12.2V20.5z M112.2,3.1h-5.5V1.3h5.5V3.1z M116.8,15.6h-8.2v3
		h8.2V15.6z M118.8,7.9v4.9h-2V1.3h2v4.7h2.5v2H118.8z"/>
	<path class="st3" d="M129.3,20.7h-2.6v-2.8h2.6V20.7z M126.9,9.9V1.5h2.2v8.5l-0.6,5.8h-0.9L126.9,9.9z"/>
	<path class="st3" d="M145.2,10.8V9.1h7.7v-2h2.1v2h7.7v1.7H145.2 M161.6,6.7l-1.1,1.6c-2.8-0.3-5.4-1.7-6.5-3.1
		c-1.1,1.6-3.9,2.8-6.6,3.1l-1.1-1.5c1.6-0.2,5.6-1.3,6.5-3.1h-5.6V1.9h13.4v1.8h-5.5C156.1,5.5,159.7,6.6,161.6,6.7 M161.4,15.8
		h-14.8v-1.6h14.8V15.8z M154,21.1c-3.4,0-6.6-0.6-6.6-2.4c0-1.8,3.3-2.4,6.6-2.4c3.2,0,6.5,0.6,6.5,2.4
		C160.5,20.5,157.1,21.1,154,21.1 M158.1,13.3h-8.3v-1.6h8.3V13.3z M154,17.8c-1.9,0-4.1,0-4.1,0.9c0,0.8,2.3,0.8,4.1,0.8
		c1.7,0,4.1,0,4.1-0.8C158.1,17.9,155.8,17.8,154,17.8"/>
	<path class="st3" d="M182.6,13.1H165v-1.9h17.6V13.1z M173.8,9.5c-4.3,0-6.7-1.7-6.7-4.2c0-2.4,2.4-4.3,6.7-4.3
		c4.3,0,6.7,1.8,6.7,4.3C180.4,7.8,178.1,9.5,173.8,9.5 M167.3,20.3v-5.6h2v3.7h11.6v1.9H167.3z M173.8,2.8c-2.8,0-4.6,1.1-4.6,2.5
		c0,1.5,1.9,2.4,4.6,2.4c2.7,0,4.6-0.9,4.6-2.4C178.4,3.9,176.5,2.8,173.8,2.8"/>
	<path class="st3" d="M209.3,13.1h-17.5v-1.9h17.5V13.1z M200.5,9.5c-4.3,0-6.7-1.7-6.7-4.2c0-2.4,2.4-4.3,6.7-4.3
		c4.4,0,6.7,1.8,6.7,4.3C207.2,7.8,204.9,9.5,200.5,9.5 M194,20.3v-5.6h2v3.7h11.6v1.9H194z M200.6,2.8c-2.8,0-4.6,1.1-4.6,2.5
		c0,1.5,1.9,2.4,4.5,2.4c2.7,0,4.6-0.9,4.6-2.4C205.1,3.9,203.3,2.8,200.6,2.8"/>
	<path class="st3" d="M220.1,6h-8.9V4.3h8.9V6z M215.6,13.1c-2.4,0-4-1.3-4-3.1c0-1.8,1.6-3.1,4-3.1c2.5,0,4,1.2,4,3.1
		C219.7,11.8,218.1,13.1,215.6,13.1 M217.9,3.1h-4.6V1.5h4.6V3.1z M220.3,21.1c-4.4,0-6.8-1.6-6.8-3.7c0-2.1,2.4-3.5,6.8-3.5
		c4.4,0,6.8,1.5,6.8,3.6C227.2,19.6,224.7,21.1,220.3,21.1 M215.6,8.6c-1.4,0-2,0.6-2,1.5c0,0.9,0.7,1.5,2,1.5
		c1.4,0,2.1-0.6,2.1-1.5C217.7,9.1,217.1,8.6,215.6,8.6 M220.3,15.6c-2.7,0-4.6,0.6-4.6,1.9c0,1.2,1.9,1.9,4.6,1.9
		c2.7,0,4.6-0.7,4.6-1.9C224.9,16.2,223.1,15.6,220.3,15.6 M225.3,13.4V8.1h-2V13h-1.9V1.6h1.9v4.5h2V1.3h1.9v12.2H225.3z"/>
</g>
</svg>
