<?xml version="1.0" encoding="utf-8"?>
<!-- Generator: Adobe Illustrator 22.1.0, SVG Export Plug-In . SVG Version: 6.00 Build 0)  -->
<svg version="1.1" id="레이어_1" xmlns="http://www.w3.org/2000/svg" xmlns:xlink="http://www.w3.org/1999/xlink" x="0px"
	 y="0px" viewBox="0 0 239.8 100" style="enable-background:new 0 0 239.8 100;" xml:space="preserve">
<style type="text/css">
	.st0{fill:#0055B8;}
	.st1{fill:#FF6C0E;}
</style>
<g>
	<path class="st0" d="M18.2,100c-2.6,0-5.2-0.3-7.6-0.8c-2.4-0.5-4.5-1.5-6.2-3c-1.7-1.5-3-3.5-3.7-6.1c-0.8-2.6-0.8-6-0.1-10.2
		l10.6-60.2c3,0,5.7,0.5,8.1,1.4c2.4,1,4.5,2.3,6.1,4.1c1.6,1.8,2.7,3.9,3.4,6.3c0.6,2.4,0.7,5.1,0.1,7.9L18.2,100z"/>
	<path class="st0" d="M57.3,100c-2.6,0-5.2-0.3-7.6-0.8c-2.4-0.5-4.5-1.5-6.2-3c-1.7-1.5-3-3.5-3.8-6.1c-0.8-2.6-0.8-6-0.1-10.2
		l10.6-60.2c3,0,5.7,0.5,8.1,1.4c2.4,1,4.4,2.3,6.1,4.1c1.6,1.8,2.7,3.9,3.4,6.3c0.6,2.4,0.7,5.1,0.1,7.9L57.3,100z"/>
	<path class="st0" d="M238.9,49.6c-1.1,5.9-2.7,10.8-4.8,14.7c-2.1,3.9-4.9,7-8.2,9.3c-3.4,2.3-7.4,4-12,4.9c-4.6,1-10,1.4-16.1,1.4
		c-4.1,0-8.2,0-12.1,0c-3.9,0-8.1-0.3-12.5-0.9c-0.6,3-1.5,5.8-2.7,8.4c-1.2,2.6-2.8,4.8-4.9,6.6c-2,1.8-4.6,3.3-7.6,4.3
		c-3,1-6.6,1.6-10.8,1.6l8.8-50.4c1-5.6,2.5-10.3,4.6-14.1c2.1-3.8,4.8-6.9,8.1-9.3c3.3-2.4,7.3-4.1,12.1-5.1
		c4.7-1,10.2-1.6,16.6-1.6h11.1c5.9,0,11,0.5,15.3,1.4c4.3,0.9,7.8,2.5,10.3,4.8c2.6,2.2,4.3,5.3,5.1,9.2
		C240.1,38.8,240,43.7,238.9,49.6z M177.8,53.3c0.1,1.5,0.5,2.8,1.2,3.9c0.7,1.1,1.7,1.9,2.8,2.6c1.1,0.6,2.4,1.1,3.8,1.4
		c1.4,0.3,2.7,0.5,4,0.5h11.7c1.4,0,2.8-0.2,4.3-0.5c1.5-0.3,2.9-0.8,4.3-1.4c1.4-0.6,2.6-1.5,3.6-2.6c1.1-1.1,1.9-2.4,2.5-3.9
		c0.8-2.2,1.3-4.5,1.3-6.9c0-1.5-0.4-2.8-1.1-3.9c-0.7-1.1-1.7-1.9-2.8-2.6c-1.1-0.6-2.4-1.1-3.8-1.4c-1.4-0.3-2.8-0.5-4.1-0.5
		h-11.7c-1.3,0-2.7,0.2-4.2,0.5c-1.5,0.3-2.9,0.8-4.2,1.4c-1.3,0.6-2.5,1.5-3.6,2.6c-1.1,1.1-2,2.4-2.5,3.9c-0.4,1-0.7,2.1-1,3.4
		C177.9,51.1,177.8,52.3,177.8,53.3z"/>
	<path class="st1" d="M162.2,0C162.2,0,162.2,0,162.2,0c-7.9,21.5-64.2,21.2-78,20.4l-3.4,14.7C97,36.3,169.4,37.2,162.2,0L162.2,0z
		"/>
	<path class="st0" d="M125.2,38.5L114.9,100H93.7l10.6-59.6C110.9,40.1,118.1,39.6,125.2,38.5L125.2,38.5z"/>
</g>
</svg>
