<?xml version="1.0" encoding="utf-8"?>
<!-- Generator: Adobe Illustrator 22.1.0, SVG Export Plug-In . SVG Version: 6.00 Build 0)  -->
<svg version="1.1" id="레이어_1" xmlns="http://www.w3.org/2000/svg" xmlns:xlink="http://www.w3.org/1999/xlink" x="0px"
	 y="0px" viewBox="0 0 500 117.6" style="enable-background:new 0 0 500 117.6;" xml:space="preserve">
<style type="text/css">
	.st0{fill:#ED1C24;}
	.st1{fill:#020031;}
</style>
<g>
	<path class="st0" d="M396.2,0.7h15.9c0.4,0,0.8,0.2,1,0.4l28.3,28.3c0.6,0.6,1.5,0.6,2,0l28.3-28.3c0.3-0.3,0.6-0.4,1-0.4h15.9
		c1.3,0,1.9,1.6,1,2.5L443.4,50c-0.6,0.6-1.5,0.6-2.1,0L395.1,3.2C394.2,2.3,394.9,0.7,396.2,0.7z"/>
	<path class="st0" d="M471.7,115.5l-28.3-28.3c-0.6-0.6-1.5-0.6-2,0l-28.3,28.3c-0.3,0.3-0.6,0.4-1,0.4h-15.9c-1.3,0-1.9-1.6-1-2.5
		l46.2-46.8c0.6-0.6,1.5-0.6,2.1,0l46.2,46.8c0.9,0.9,0.3,2.5-1,2.5h-15.9C472.3,116,472,115.8,471.7,115.5z"/>
	<g>
		<path class="st0" d="M450.8,57.3l46.8-46.2c0.9-0.9,2.5-0.3,2.5,1V28c0,0.4-0.2,0.8-0.4,1l-28.3,28.3c-0.6,0.6-0.6,1.5,0,2
			l28.3,28.3c0.3,0.3,0.4,0.6,0.4,1v15.9c0,1.3-1.6,1.9-2.5,1l-46.8-46.2C450.2,58.8,450.2,57.9,450.8,57.3z"/>
		<path class="st0" d="M385.2,87.6l28.3-28.3c0.6-0.6,0.6-1.5,0-2L385.2,29c-0.3-0.3-0.4-0.6-0.4-1V12.1c0-1.3,1.6-1.9,2.5-1
			L434,57.3c0.6,0.6,0.6,1.5,0,2.1l-46.8,46.2c-0.9,0.9-2.5,0.3-2.5-1V88.7C384.8,88.3,384.9,87.9,385.2,87.6z"/>
		<g>
			<path class="st1" d="M1.1,114.8C0.4,114.1,0,113.1,0,112V5.6c0-1.2,0.4-2.1,1.1-2.9C1.9,2,2.8,1.6,3.9,1.6h15.7
				c1.2,0,2.1,0.4,2.9,1.1c0.7,0.7,1.1,1.7,1.1,2.9V112c0,1.1-0.4,2-1.1,2.8c-0.7,0.8-1.7,1.1-2.9,1.1H3.9
				C2.8,116,1.9,115.6,1.1,114.8z"/>
			<path class="st1" d="M50.1,114.8c-0.8-0.8-1.1-1.7-1.1-2.8V5.7c0-1.2,0.4-2.2,1.1-2.9c0.7-0.8,1.7-1.1,2.9-1.1h42.3
				c13.4,0,23.9,3.1,31.4,9.3c7.6,6.2,11.4,15,11.4,26.5c0,7.9-1.9,14.6-5.7,20c-3.8,5.4-9.1,9.3-16,11.7l23.7,41.6
				c0.3,0.7,0.5,1.3,0.5,1.8c0,1-0.4,1.8-1.1,2.5c-0.7,0.7-1.5,1-2.4,1h-15c-1.7,0-3.1-0.4-4.1-1.2c-1-0.8-1.9-1.9-2.6-3.2
				L94.4,72.8H72V112c0,1.1-0.4,2-1.1,2.8c-0.8,0.8-1.7,1.1-2.9,1.1h-15C51.8,116,50.9,115.6,50.1,114.8z M94.7,54.2
				c6.5,0,11.4-1.4,14.7-4.3c3.3-2.9,4.9-7.1,4.9-12.7c0-5.6-1.6-9.8-4.9-12.8c-3.3-3-8.2-4.5-14.7-4.5H72v34.3H94.7z"/>
			<path class="st1" d="M168,106.3c-8.3-7.5-12.6-18.7-13.1-33.5c-0.1-3.2-0.2-7.8-0.2-13.9c0-6.2,0.1-10.9,0.2-14
				c0.4-14.5,4.9-25.6,13.4-33.3c8.5-7.7,20-11.6,34.5-11.6c14.4,0,25.8,3.9,34.4,11.6c8.5,7.7,13,18.8,13.5,33.3
				c0.2,6.3,0.3,11,0.3,14c0,2.9-0.1,7.6-0.3,13.9c-0.4,14.8-4.8,26-13.1,33.5c-8.3,7.5-19.9,11.3-34.7,11.3
				C187.9,117.6,176.3,113.8,168,106.3z M220.1,92.1c4.2-4.4,6.5-11,6.9-20.1c0.2-6.5,0.3-10.9,0.3-13.2c0-2.5-0.1-6.9-0.3-13.2
				c-0.3-8.9-2.7-15.6-7-20c-4.4-4.4-10.1-6.6-17.1-6.6c-7.2,0-13,2.2-17.3,6.6c-4.4,4.4-6.6,11.1-6.9,20c-0.1,3.2-0.2,7.6-0.2,13.2
				c0,5.6,0.1,10,0.2,13.2c0.2,8.9,2.5,15.6,6.8,20c4.3,4.4,10.1,6.6,17.4,6.6C210.1,98.6,215.9,96.5,220.1,92.1z"/>
			<path class="st1" d="M273.4,114.8c-0.8-0.8-1.1-1.7-1.1-2.8V5.7c0-1.2,0.4-2.2,1.1-2.9c0.7-0.8,1.7-1.1,2.9-1.1h12.7
				c2.1,0,3.6,0.9,4.7,2.8l46.7,72.5V5.7c0-1.2,0.4-2.2,1.1-2.9c0.7-0.8,1.7-1.1,2.9-1.1h14c1.2,0,2.2,0.4,2.9,1.1
				c0.8,0.8,1.1,1.7,1.1,2.9v106.2c0,1.2-0.4,2.2-1.1,2.9c-0.8,0.8-1.7,1.1-2.8,1.1h-12.9c-2.2,0-3.8-0.9-4.9-2.8l-46.5-70.9V112
				c0,1.1-0.4,2-1.1,2.8c-0.7,0.8-1.7,1.1-2.9,1.1h-14C275.1,116,274.1,115.6,273.4,114.8z"/>
		</g>
	</g>
</g>
</svg>
