<?xml version="1.0" encoding="utf-8"?>
<!-- Generator: Adobe Illustrator 22.1.0, SVG Export Plug-In . SVG Version: 6.00 Build 0)  -->
<svg version="1.1" id="레이어_1" xmlns="http://www.w3.org/2000/svg" xmlns:xlink="http://www.w3.org/1999/xlink" x="0px"
	 y="0px" viewBox="0 0 620 251.7" style="enable-background:new 0 0 620 251.7;" xml:space="preserve">
<style type="text/css">
	.st0{filter:url(#Adobe_OpacityMaskFilter);}
	.st1{fill:#FFFFFF;}
	.st2{mask:url(#mask-2_1_);fill:#E50039;}
	.st3{filter:url(#Adobe_OpacityMaskFilter_1_);}
	.st4{mask:url(#mask-4_1_);fill:#9F9FA0;}
	.st5{fill:#E50039;}
</style>
<title>item/logo</title>
<desc>Created with Sketch.</desc>
<g id="item_x2F_logo">
	<g id="Group-43" transform="translate(3.000000, 45.000000)">
		<g id="Clip-42">
		</g>
		<defs>
			<filter id="Adobe_OpacityMaskFilter" filterUnits="userSpaceOnUse" x="0" y="0.6" width="130" height="117.5">
				<feColorMatrix  type="matrix" values="1 0 0 0 0  0 1 0 0 0  0 0 1 0 0  0 0 0 1 0"/>
			</filter>
		</defs>
		<mask maskUnits="userSpaceOnUse" x="0" y="0.6" width="130" height="117.5" id="mask-2_1_">
			<g class="st0">
				<polygon id="path-1_1_" class="st1" points="0,0.6 130,0.6 130,118.1 0,118.1 				"/>
			</g>
		</mask>
		<path id="Fill-41" class="st2" d="M78.4,74c17.1-2.7,34.3,1.4,48.4,11.6c0,0,0,0,0,0c5.3-16.5,4-34.1-3.9-49.5
			C115,20.6,101.6,9.2,85.1,3.8C68.6-1.5,51-0.2,35.5,7.7C20,15.6,8.5,29,3.2,45.5c-8.9,27.4,1.5,56.5,23.6,72.6
			c2.1-6.4,5.2-12.5,9.3-18.1C46.2,86,61.3,76.7,78.4,74"/>
	</g>
	<g id="Group-46" transform="translate(26.000000, 0.000000)">
		<g id="Clip-45">
		</g>
		<defs>
			<filter id="Adobe_OpacityMaskFilter_1_" filterUnits="userSpaceOnUse" x="0.6" y="0.8" width="229.9" height="247.4">
				<feColorMatrix  type="matrix" values="1 0 0 0 0  0 1 0 0 0  0 0 1 0 0  0 0 0 1 0"/>
			</filter>
		</defs>
		<mask maskUnits="userSpaceOnUse" x="0.6" y="0.8" width="229.9" height="247.4" id="mask-4_1_">
			<g class="st3">
				<polygon id="path-3_1_" class="st1" points="0.6,0.8 230.5,0.8 230.5,248.2 0.6,248.2 				"/>
			</g>
		</mask>
		<path id="Fill-44" class="st4" d="M182.6,163.4c-14.1,4.6-29.1,3.4-42.3-3.3c-12.5-6.4-21.9-17-26.8-30.1
			c31.2-4.7,55.2-31.7,55.2-64.2c0-3.6-0.3-7.1-0.9-10.6c22.5,1,43.1,15.7,50.4,38.3C227.7,122.6,211.7,153.9,182.6,163.4
			 M196.7,191.9c-2.3,14.6-10.2,27.5-22.2,36.2c-12,8.7-26.7,12.2-41.3,9.9c-14.6-2.3-27.5-10.2-36.2-22.2
			c-8.7-12-12.2-26.7-9.9-41.3c2.2-13.9,9.4-26.1,20.3-34.8c6.2,12.4,16.1,22.4,28.6,28.8c9.3,4.7,19.3,7.1,29.4,7.1
			c6.8,0,13.5-1.1,20.1-3.2c3.4-1.1,6.7-2.5,9.8-4.1C197.4,175.9,198,183.9,196.7,191.9 M74.3,238c-14.6,2.3-29.3-1.2-41.3-9.9
			c-12-8.7-19.9-21.6-22.2-36.2c-1.3-8-0.8-16,1.3-23.6c3.1,1.6,6.4,3,9.8,4.1c6.6,2.1,13.4,3.2,20.1,3.2c10.1,0,20.2-2.4,29.4-7.1
			c3-1.5,5.8-3.3,8.5-5.2c-1,3.2-1.8,6.4-2.3,9.7c-2.7,17.1,1.4,34.3,11.6,48.4c2.1,2.9,4.4,5.6,6.9,8
			C89.7,233.8,82.2,236.7,74.3,238 M227.3,90.5c-8.9-27.4-34.4-44.8-61.8-44.9c-8.5-26-33-44.9-61.8-44.9
			C74.9,0.8,50.5,19.6,42,45.6c3.3,0,6.5,0.3,9.8,0.8c7.9-21.1,28.2-36.1,52-36.1c30.6,0,55.5,24.9,55.5,55.5
			c0,29.8-23.6,54.2-53.1,55.4c-0.5,3.1-1.3,6.3-2.3,9.3c0,0-0.1,0-0.1,0.1c-0.4-0.3-0.8-0.5-1.2-0.8c-13.8-9.6-30.5-13.4-47.2-10.8
			C38.3,121.7,23.2,131,13,145C2.8,159-1.3,176.2,1.4,193.4c2.7,17.1,11.9,32.2,26,42.4c11.2,8.2,24.4,12.4,38.1,12.4
			c3.4,0,6.9-0.3,10.3-0.8c10.3-1.6,19.8-5.6,28-11.6c8.2,6,17.7,9.9,28,11.6c3.4,0.5,6.9,0.8,10.3,0.8c13.6,0,26.8-4.3,38.1-12.4
			c14-10.2,23.3-25.3,26-42.4c1.6-10.3,0.8-20.6-2.4-30.2C225.8,147,236.2,117.9,227.3,90.5"/>
	</g>
</g>
<g>
	<path id="Fill-1_1_" class="st5" d="M361.3,70.9h-19.1c-1.2,0-2.2,1-2.2,2.2V134c0,6.2-2.2,11.6-6.6,16c-4.4,4.4-9.7,6.7-15.7,6.7
		h-7.9c-1.2,0-2.2,1-2.2,2.2v19.4c0,1.2,1,2.2,2.2,2.2h5.9c15,0,28.7-6.3,37.6-17.3c6.7-8.3,10.2-18.2,10.2-29.3V73.1
		C363.5,71.9,362.5,70.9,361.3,70.9"/>
	<path id="Fill-3_1_" class="st5" d="M442.6,98c4.7-3.9,10.6-6.4,16.7-7c10.7-1.1,19.9,1.7,27.3,8.5c0.9,0.8,2.2,0.8,3.1,0
		l13.7-13.7c0.4-0.4,0.7-1,0.7-1.6c0-0.6-0.3-1.2-0.7-1.6c-11-10.3-24.3-15.6-39.5-15.6c-16.9,0-31.4,6.4-43,19
		c-9.1,9.9-14.4,22.8-14.9,36.2c-0.6,17,5.1,31.6,16.9,43.4c11.2,11.2,25,16.9,41,16.9c15.3,0,28.6-5.2,39.5-15.6
		c0.4-0.4,0.7-1,0.7-1.6c0-0.6-0.2-1.2-0.7-1.6l-13.7-13.7c-0.8-0.8-2.2-0.8-3.1,0c-6.4,5.8-14.1,8.8-22.8,8.8
		c-10.7,0-19.8-4.4-26.9-13c-3.9-4.8-6.5-10.8-7.1-16.9C428.6,116.5,432.9,106.1,442.6,98"/>
	<path id="Fill-5_1_" class="st5" d="M613.5,70.9h-74.5c-1.2,0-2.2,1-2.2,2.2v19.4c0,1.2,1,2.2,2.2,2.2h23.7c0.8,0,1.5,0.7,1.5,1.5
		v82.2c0,1.2,1,2.2,2.2,2.2h19.6c1.2,0,2.2-1,2.2-2.2V96.2c0-0.8,0.7-1.5,1.5-1.5h23.7c1.2,0,2.2-1,2.2-2.2V73.1
		C615.8,71.9,614.8,70.9,613.5,70.9"/>
</g>
</svg>
