<?xml version="1.0" encoding="utf-8"?>
<!-- Generator: Adobe Illustrator 22.1.0, SVG Export Plug-In . SVG Version: 6.00 Build 0)  -->
<svg version="1.1" id="레이어_1" xmlns="http://www.w3.org/2000/svg" xmlns:xlink="http://www.w3.org/1999/xlink" x="0px"
	 y="0px" viewBox="0 0 456.4 74.6" style="enable-background:new 0 0 456.4 74.6;" xml:space="preserve">
<style type="text/css">
	.st0{fill:#F8B500;}
	.st1{fill:#7C7366;}
</style>
<g>
	<g>
		<path class="st0" d="M103.5,38.3l-0.9-0.6c-3.1-3.1-7.4-4.4-13.2-4.1c-4.8,0.3-8.6,2.2-11.5,4c0,0,0-0.1,0-0.1
			c0-1.5,0.2-3.1,0.3-4.7c0.2-1.6,0.3-3.3,0.3-4.8c0-1.6-0.2-3.1-0.7-4.3c-0.1-0.3-0.4-0.5-0.8-0.5c-1.6,0-4.6,1.1-5.3,1.7l-0.4,0.9
			c0,1.7-0.4,6.5-0.8,7.1c0,0-0.2,0.6-0.2,0.6c-0.7,6.8-0.7,12.8-0.1,18c0.1,0.5,1.1,1.3,1.8,1.6c0.8,0.3,3.5-0.4,5-1
			c0,0,0.6-0.1,0.6-0.1c0.5-0.1,0.8-0.5,0.7-1l0-1.5c1.1-4.5,5.5-9.8,10.8-10.6c3-0.5,5.3,0.3,7.2,2.3c0.3,0.4,0.8,3.6-1.2,7.2
			c-1.4,2.7-4.4,5-8.2,6.5c-3.6,1.4-7.6,1.9-12.5,1.8c-0.2-0.1-4.6-3.1-4.6-3.1c-3.9-2.7-8.8-6.1-13.2-7.8c-0.8-0.3-2.2-1.4-3-2.1
			l-0.4-0.4c-2.5-2-7.4-5.3-11.3-7.8c0,0-1.7-1.2-2.1-1.4c0-0.2,0-0.4,0-0.4c0.1-0.1,2.6-1.6,2.6-1.6c3.4-2,5-3,5.3-3.5
			c-0.1,0.1,0.4-0.3,0.4-0.3c0,0,8.5-4.8,8.5-4.8c8.1-4.5,17.3-9.5,22.2-14.5l0.2-0.8l0.1-0.7c0.3-1.1,0.3-1.9,0.1-2.8
			C79.2,4.3,79,4,78.6,3.9c-3.8-0.4-8.6,1.9-13.1,6c-1,0.9-1.8,1.4-2.7,1.9l-0.7,0.4c-4.9,2.8-15.9,9.6-21.7,13.3
			c0.4-6.2,1.5-15,2.9-22.3l-0.2-0.9c0,0-0.6-1.1-0.6-1.1l-0.4-0.8l-0.1,0C40.9-0.2,40,0,39.3,0.2l-1.1,0.4l-1.5,0.6
			c-0.3,0.1-0.5,0.2-0.6,0.5c-2.7,6.6-5,17.6-5.6,26.3c-5.5-3.5-10.6-6-13.1-7.2l-0.1,0l-0.3-0.1c-0.9-0.1-2-0.8-3-1.4
			c-0.1-0.1-2.1-1.4-2.1-1.4l-3.2-2c0,0-0.8-0.2-0.8-0.2c-1.4,0.2-4,2-4.8,3.2c-0.1,0.2-0.1,0.3-0.1,0.5c0,0.3,0.1,0.5,0.1,0.8
			l0.1,0.6l0.1,0.4c1.5,1.6,5.4,4.2,9.2,6.2l4.4,2.3l6.7,3.7c0,0,1.1,0.9,1.1,0.9l0.8,0.5c0,0,0.1,0.1,0.1,0.1
			C23.9,36.1,13.4,43,13.4,43L7,47.3c-0.6,0.4-3.1,1.6-3.7,1.8c-1.4,0.6-2.5,1.4-2.9,2.4l-0.2,0.4L0.4,52l0.5,0.4
			c0,0,0.7,0.4,0.7,0.4l0.7,0.5c0,0,0.7,0.1,0.7,0.1c1.1,0,2.8-0.6,5.9-2c2.9-1.3,10.7-6,14-8l1.4-0.9c0.6,0.1,1.2-0.5,1.8-0.9
			c0.7-0.5,2.1-1.4,3-1.8c0,0,0.5-0.3,1-0.6c0,0.1,0,0.4,0,0.4C30.3,50,30.9,57.4,32,63.1l0,0.1l0.1,0.2c0.5,0.8,1.2,3.2,1.7,5.4
			l1.3,4.3c0,0,0.4,0.4,0.4,0.4c0.7,0.5,2.9,1.3,4.4,1.2l0.4,0l0.2-0.5c0.1-0.6,0.2-1.3,0.2-1.9c0-0.8-0.1-1.6-0.1-2.7l-0.1-1.5
			c-0.5-7.1-0.9-17.4-0.9-24.2c0-0.2,0-0.4,0-0.6c1.2,0.8,6.5,4.1,6.5,4.1c9,5.8,22.6,14.7,30.9,17c0.4,0.1,0.9,0,1.2-0.3
			c0,0,1.3-0.8,1.3-0.8l0.2-0.1c0.5-0.2,0.8-1,0.8-1.9c6.9-0.4,16.6-3,21.8-9.5c2-2.5,2.9-5.6,2.9-8.2
			C105.2,41.2,104.6,39.3,103.5,38.3"/>
	</g>
	<g>
		<g>
			<rect x="407.6" y="52" class="st1" width="48.8" height="5.5"/>
			<polygon class="st1" points="419.2,16.6 451.2,16.6 451.2,11.1 412.8,11.1 412.8,40.5 451.2,40.5 451.2,35 419.2,35 			"/>
		</g>
		<g>
			<polygon class="st1" points="354.2,11.1 354.2,16.6 377,16.6 377,24.3 354.2,24.3 354.2,29.8 377,29.8 377,44.4 383.4,44.4 
				383.4,11.1 			"/>
			<polygon class="st1" points="391.2,60.9 397.6,60.9 397.6,28.3 404.1,28.3 404.1,22.7 397.6,22.7 397.6,9.9 391.2,9.9 			"/>
		</g>
		<polygon class="st1" points="272.1,32.4 272.1,40.3 290.8,40.3 290.8,61.1 284.4,61.1 284.4,45.8 246.8,45.8 246.8,40.3 
			265.7,40.3 265.7,32.4 242.9,32.4 242.9,26.9 284.1,26.9 284.1,15.8 247.5,15.8 247.5,10.4 290.5,10.4 290.5,26.8 295.1,26.8 
			295.1,32.4 		"/>
		<g>
			<g>
				<path class="st1" d="M325.4,31.1h-17.6V16.6h17.6V31.1z M331.8,11.1h-30.3v25.5h30.3V11.1z"/>
				<polygon class="st1" points="347.4,60.8 307.3,60.8 307.3,42.1 313.7,42.1 313.7,55.3 347.4,55.3 				"/>
			</g>
			<rect x="340.6" y="9.9" class="st1" width="6.4" height="33.5"/>
		</g>
		<path class="st1" d="M184.1,10.5h25c11.9,0,18.1,3.9,18.1,12.5c0,6.1-4.3,10.3-10,11.5v0.2c8.2,1,12,6.3,12,12.4
			c0,7.6-5.6,14.1-19.4,14.1h-25.8V10.5z M192.2,31.8h16.5c6.1,0,10.6-2.3,10.6-7.7c0-4.7-2.2-7.9-11.6-7.9h-15.5V31.8z M192.2,55.4
			h16c9.9,0,12.6-3.9,12.6-8.8c0-5.8-4.1-9-13-9h-15.5V55.4z"/>
		<polygon class="st1" points="129.1,10.5 137.2,10.5 137.2,33.2 164.5,10.5 176,10.5 147.1,33.4 178.4,61.2 166.9,61.2 137.2,34 
			137.2,61.2 129.1,61.2 		"/>
	</g>
</g>
</svg>
