<?xml version="1.0" encoding="utf-8"?>
<!-- Generator: Adobe Illustrator 22.1.0, SVG Export Plug-In . SVG Version: 6.00 Build 0)  -->
<svg version="1.1" id="Layer_1" xmlns="http://www.w3.org/2000/svg" xmlns:xlink="http://www.w3.org/1999/xlink" x="0px" y="0px"
	 viewBox="0 0 367.1 124.6" style="enable-background:new 0 0 367.1 124.6;" xml:space="preserve">
<style type="text/css">
	.st0{fill:#1E499E;}
	.st1{fill:#E61B28;}
</style>
<g>
	<g>
		<path d="M93.7,38.9h3.6v13.5h0.1c0.7-1,1.5-2.1,2.2-3l8.5-10.5h4.5l-10.1,11.8l10.9,16.1h-4.3L100,53.2l-2.7,3.1V67h-3.5V38.9z"/>
		<path d="M134.3,56.7c0,7.4-5.1,10.7-10,10.7c-5.4,0-9.7-3.9-9.7-10.3c0-6.8,4.4-10.7,10-10.7C130.3,46.4,134.3,50.6,134.3,56.7z
			 M118.4,56.9c0,4.4,2.5,7.7,6.1,7.7c3.5,0,6.1-3.3,6.1-7.8c0-3.4-1.7-7.7-6-7.7C120.1,49.1,118.4,53.1,118.4,56.9z"/>
		<path d="M138.9,53.1c0-2.4,0-4.4-0.2-6.2h3.2l0.1,3.9h0.2c0.9-2.7,3.1-4.4,5.5-4.4c0.4,0,0.7,0,1,0.1v3.4
			c-0.4-0.1-0.7-0.1-1.2-0.1c-2.6,0-4.4,2-4.9,4.7c-0.1,0.5-0.2,1-0.2,1.7v10.7h-3.6V53.1H138.9z"/>
		<path d="M154,57.5c0.1,4.9,3.2,7,6.9,7c2.6,0,4.2-0.4,5.5-1l0.6,2.6c-1.2,0.6-3.5,1.2-6.7,1.2c-6.1,0-9.9-4.1-9.9-10.1
			s3.5-10.8,9.5-10.8c6.5,0,8.3,5.7,8.3,9.5c0,0.7-0.1,1.4-0.1,1.7C168.2,57.5,154,57.5,154,57.5z M164.7,54.9
			c0-2.3-0.9-5.9-5.1-5.9c-3.6,0-5.3,3.4-5.6,5.9H164.7z"/>
		<path d="M183.9,66.9l-0.3-2.5h-0.1c-1.1,1.6-3.3,3-6.1,3c-4.1,0-6.1-2.9-6.1-5.7c0-4.9,4.3-7.5,12.1-7.5v-0.4
			c0-1.7-0.4-4.7-4.6-4.7c-1.9,0-3.8,0.6-5.2,1.5l-0.8-2.4c1.7-1,4.1-1.8,6.5-1.8c6.1,0,7.6,4.2,7.6,8.2v7.5c0,1.8,0.1,3.4,0.3,4.8
			C187.1,66.9,183.9,66.9,183.9,66.9z M183.3,56.7c-3.9-0.1-8.5,0.6-8.5,4.5c0,2.4,1.6,3.5,3.4,3.5c2.6,0,4.3-1.7,4.9-3.3
			c0.1-0.4,0.2-0.8,0.2-1.1V56.7z"/>
		<path d="M199.2,62.5c1.7,1,3.9,1.9,6.4,1.9c3.6,0,5.8-2,5.8-4.8c0-2.6-1.5-4.1-5.3-5.5c-4.6-1.7-7.4-3.9-7.4-7.9
			c0-4.4,3.6-7.6,9-7.6c2.9,0,4.9,0.6,6.1,1.4l-1,2.9c-0.9-0.5-2.8-1.4-5.3-1.4c-3.8,0-5.3,2.3-5.3,4.2c0,2.6,1.7,3.8,5.5,5.4
			c4.7,1.9,7.2,4.1,7.2,8.2c0,4.3-3.2,8-9.8,8c-2.7,0-5.6-0.8-7.2-1.8L199.2,62.5z"/>
		<path d="M238.4,56.7c0,7.4-5.1,10.7-10,10.7c-5.4,0-9.7-3.9-9.7-10.3c0-6.8,4.4-10.7,10-10.7C234.6,46.4,238.4,50.6,238.4,56.7z
			 M222.5,56.9c0,4.4,2.5,7.7,6.1,7.7c3.5,0,6.1-3.3,6.1-7.8c0-3.4-1.7-7.7-6-7.7C224.4,49.1,222.5,53.1,222.5,56.9z"/>
		<path d="M257.4,66.2c-0.9,0.5-3.1,1.1-5.7,1.1c-6,0-10-4.1-10-10.3c0-6.1,4.3-10.7,10.8-10.7c2.2,0,4.1,0.5,5.1,1l-0.8,2.8
			c-0.8-0.5-2.3-0.9-4.3-0.9c-4.6,0-7.1,3.4-7.1,7.6c0,4.7,3,7.5,7,7.5c2.1,0,3.4-0.5,4.5-1L257.4,66.2z"/>
		<path d="M265.8,41.2c0,1.2-0.8,2.3-2.3,2.3c-1.2,0-2.2-1-2.2-2.3s0.9-2.3,2.3-2.3C264.8,38.9,265.8,40,265.8,41.2z M261.6,66.9
			V46.8h3.6v20.1H261.6z"/>
		<path d="M273.4,57.5c0.1,4.9,3.2,7,6.9,7c2.6,0,4.2-0.4,5.5-1l0.6,2.6c-1.2,0.6-3.5,1.2-6.7,1.2c-6.1,0-9.9-4.1-9.9-10.1
			s3.5-10.8,9.5-10.8c6.5,0,8.3,5.7,8.3,9.5c0,0.7-0.1,1.4-0.1,1.7C287.5,57.5,273.4,57.5,273.4,57.5z M284.1,54.9
			c0-2.3-0.9-5.9-5.1-5.9c-3.6,0-5.3,3.4-5.6,5.9H284.1z"/>
		<path d="M296.5,41.1v5.7h5.2v2.8h-5.2v10.8c0,2.5,0.7,3.8,2.7,3.8c0.9,0,1.7-0.1,2.1-0.2l0.2,2.7c-0.7,0.3-1.9,0.5-3.2,0.5
			c-1.7,0-3.1-0.5-3.9-1.6c-1-1-1.5-2.9-1.5-5.2V49.6h-3.1v-2.8h3.1V42L296.5,41.1z"/>
		<path d="M307.6,46.8l4.4,11.8c0.4,1.4,0.9,2.9,1.2,4.1h0.1c0.4-1.2,0.8-2.7,1.2-4.2l4.1-11.7h3.8l-5.5,14.3
			c-2.6,6.9-4.4,10.4-6.9,12.6c-1.8,1.6-3.5,2.2-4.5,2.4l-0.9-3.1c0.9-0.3,2.1-0.8,3.2-1.8c1-0.8,2.3-2.2,3.1-4.1
			c0.2-0.4,0.3-0.6,0.3-0.8s-0.1-0.5-0.2-0.9l-7.5-18.6H307.6z"/>
		<path d="M351,56.7c0,7.4-5.1,10.7-10,10.7c-5.4,0-9.7-3.9-9.7-10.3c0-6.8,4.4-10.7,10-10.7C347.2,46.4,351,50.6,351,56.7z
			 M335.1,56.9c0,4.4,2.5,7.7,6.1,7.7c3.5,0,6.1-3.3,6.1-7.8c0-3.4-1.7-7.7-6-7.7S335.1,53.1,335.1,56.9z"/>
		<path d="M356,66.9V49.6h-2.8v-2.8h2.8v-0.9c0-2.8,0.6-5.4,2.3-7c1.4-1.4,3.2-1.9,4.9-1.9c1.2,0,2.4,0.3,3.1,0.6l-0.5,2.8
			c-0.5-0.2-1.2-0.4-2.3-0.4c-3.1,0-3.8,2.7-3.8,5.8v1h4.9v2.8h-4.9V67H356V66.9z"/>
		<path d="M93.7,78.8c2.4-0.5,6.1-0.8,9.9-0.8c5.4,0,8.8,0.9,11.5,3c2.2,1.7,3.4,4.1,3.4,7.4c0,4.1-2.7,7.6-7.1,9.1v0.2
			c3.9,1,8.6,4.3,8.6,10.5c0,3.6-1.5,6.3-3.5,8.4c-2.9,2.7-7.7,3.9-14.4,3.9c-3.7,0-6.5-0.2-8.4-0.5C93.7,120.1,93.7,78.8,93.7,78.8
			z M99.1,96h4.9c5.7,0,9-3,9-7.1c0-4.9-3.7-6.9-9.1-6.9c-2.5,0-3.9,0.2-4.8,0.4C99.1,82.5,99.1,96,99.1,96z M99.1,116.1
			c1,0.2,2.6,0.2,4.6,0.2c5.6,0,10.7-2.1,10.7-8.1c0-5.7-4.9-8.1-10.8-8.1h-4.5V116.1z"/>
		<path d="M127.2,76h5.5v44.1h-5.5V76z"/>
		<path d="M169.1,104.9c0,11.1-7.7,16-15,16c-8.1,0-14.4-5.9-14.4-15.5c0-10.1,6.5-16,14.9-16C163.3,89.4,169.1,95.7,169.1,104.9z
			 M145.3,105.2c0,6.5,3.7,11.5,9.1,11.5c5.2,0,9.1-4.9,9.1-11.6c0-5.1-2.6-11.5-9-11.5C148.1,93.5,145.3,99.5,145.3,105.2z"/>
		<path d="M197.5,119.1c-1.5,0.7-4.6,1.8-8.6,1.8c-9,0-15-6.1-15-15.4s6.3-16,16.1-16c3.2,0,6.1,0.8,7.6,1.6l-1.2,4.3
			c-1.4-0.7-3.3-1.5-6.3-1.5c-6.9,0-10.6,5.1-10.6,11.3c0,7,4.5,11.2,10.4,11.2c3.1,0,5.2-0.8,6.8-1.5L197.5,119.1z"/>
		<path d="M209.2,103.9h0.1c0.7-1,1.8-2.4,2.7-3.4l8.8-10.4h6.5l-11.6,12.4l13.2,17.7h-6.7l-10.4-14.4l-2.8,3.1v11.3h-5.4V76h5.4
			v27.9H209.2z"/>
		<path d="M254.4,119.1c-1.5,0.7-4.6,1.8-8.6,1.8c-9,0-15-6.1-15-15.4s6.3-16,16.1-16c3.2,0,6.1,0.8,7.6,1.6l-1.2,4.3
			c-1.4-0.7-3.3-1.5-6.3-1.5c-6.9,0-10.6,5.1-10.6,11.3c0,7,4.5,11.2,10.4,11.2c3.1,0,5.2-0.8,6.8-1.5L254.4,119.1z"/>
		<path d="M260.9,76h5.5v18.8h0.1c0.8-1.6,2.3-2.9,3.9-3.8s3.5-1.6,5.6-1.6c4.1,0,10.5,2.5,10.5,12.9v17.9h-5.5V103
			c0-4.9-1.8-8.9-7-8.9c-3.5,0-6.3,2.5-7.4,5.5c-0.3,0.7-0.4,1.6-0.4,2.6v18.2h-5.5V76H260.9z"/>
		<path d="M312,120.2l-0.4-3.7h-0.2c-1.7,2.4-4.9,4.5-9.1,4.5c-6.1,0-9.1-4.3-9.1-8.6c0-7.3,6.4-11.2,18.1-11.2v-0.6
			c0-2.5-0.7-7-6.9-7c-2.8,0-5.7,0.8-7.8,2.3l-1.2-3.6c2.5-1.7,6.1-2.7,9.9-2.7c9.1,0,11.4,6.2,11.4,12.3v11.2
			c0,2.6,0.1,5.2,0.5,7.2H312V120.2z M311.2,104.8c-5.9-0.1-12.8,0.9-12.8,6.8c0,3.5,2.4,5.2,5.2,5.2c3.9,0,6.4-2.5,7.3-5
			c0.2-0.5,0.3-1.1,0.3-1.8V104.8z"/>
		<path d="M331.4,81.6c0.1,1.9-1.4,3.3-3.4,3.3c-2,0-3.3-1.5-3.3-3.3c0-2,1.5-3.4,3.4-3.4C330.1,78.2,331.4,79.8,331.4,81.6z
			 M325.3,120.2V90.1h5.5v30h-5.5V120.2z"/>
		<path d="M339.9,98.3c0-3.1-0.1-5.6-0.2-8.1h4.9l0.3,5h0.1c1.5-2.8,5-5.6,10-5.6c4.2,0,10.6,2.5,10.6,12.8v18h-5.5v-17.5
			c0-4.9-1.8-8.8-7-8.8c-3.6,0-6.4,2.6-7.4,5.6c-0.2,0.7-0.4,1.7-0.4,2.6v18.1h-5.5v-22H339.9z"/>
	</g>
	<g>
		<path class="st0" d="M57.4,61.2c6.7-6,10.8-14.8,10.8-24.4C68.2,18.7,53.6,4,35.6,3.7c-0.1,0-0.2,0-0.3,0h-0.1c-0.1,0-0.1,0-0.2,0
			l0,0c-4.7,0.1-8.3,3.9-8.3,8.6s3.7,8.4,8.3,8.6l0,0c8.7,0,15.9,7.1,15.9,15.9c0,8.6-6.9,15.6-15.5,15.9l0,0
			c-4.8,0-8.7,3.8-8.7,8.7c0,4.8,3.8,8.6,8.6,8.7l0,0c8.7,0,15.9,7.1,15.9,15.9c0,8.7-7.1,15.9-15.9,15.9l0,0l0,0
			c-4.8,0-8.6,3.8-8.6,8.6c0,4.8,3.8,8.6,8.6,8.6l0,0l0,0c18.3,0,33.1-14.8,33.1-33.1C68.4,76,64.1,67.2,57.4,61.2z"/>
		<path class="st1" d="M31.9,94.2c0.7,0.2,1.5,0.3,2.2,0.3c4.8,0,8.7-3.9,8.7-8.7c0-4.8-3.8-8.7-8.7-8.7l0,0l0,0
			c-8.7,0-15.9-7.1-15.9-15.9c0-8.4,6.5-15.3,14.9-15.8c0.3,0,0.6,0.1,0.9,0.1c4.8,0,8.7-3.8,8.7-8.7c0-4.8-3.8-8.7-8.7-8.7
			c-0.5,0-1,0-1.6,0.1C14.8,28.9,0.8,43.4,0.8,61.2C1,78.7,14.6,93.1,31.9,94.2z"/>
	</g>
</g>
</svg>
