<?xml version="1.0" encoding="utf-8"?>
<!-- Generator: Adobe Illustrator 22.1.0, SVG Export Plug-In . SVG Version: 6.00 Build 0)  -->
<svg version="1.1" id="레이어_1" xmlns="http://www.w3.org/2000/svg" xmlns:xlink="http://www.w3.org/1999/xlink" x="0px"
	 y="0px" viewBox="0 0 272.6 112.3" style="enable-background:new 0 0 272.6 112.3;" xml:space="preserve">
<style type="text/css">
	.st0{fill:#E8380D;}
	.st1{fill:#4C4948;}
</style>
<g>
	<path class="st0" d="M256.2,25.2c3.4-3.1,6.9-6.5,10.3-10.2h-4.4c-3,0-5.6,1.1-7.7,3.3c-0.9,0.9-1.8,1.7-2.6,2.5
		C238.1,7.5,224.2,0,211.4,0c-10.8,0-21.2,5.2-31.6,14.8c-2.5-2.4-5-5-7.4-7.8c-4-4.5-8.8-7-14.8-7h-16.5
		c8.9,10.7,18.1,19.8,27.3,27c-4.5,5.4-9.1,11.5-13.7,18.4h3.2c3,0,5.4-1.3,7.1-3.8c2.8-4.1,5.5-7.8,8.2-11.1
		c13.6,9.6,27.1,14.9,39.8,14.9c10.5,0,20.5-3.5,30.6-10.2c0.9,1.1,1.8,2.3,2.7,3.5c3.2,4.3,7.4,6.7,12.9,6.7h13.6
		C267.2,37.8,261.8,31,256.2,25.2 M220.5,35.8c-11.5,0-24.1-6.1-36.5-17c6.9-6,13.7-9.3,20.9-9.3c10.9,0,22.8,7.5,34.5,20.7
		C233.2,33.9,227,35.8,220.5,35.8"/>
	<path class="st1" d="M123.2,80.5v16.9c0,2-1.3,3.3-3.3,3.3h-4.3V79.3c0-3-1.6-4.5-4.9-4.5c-1.9,0-3,0.2-4.2,0.7v21.9
		c0,2-1.3,3.3-3.3,3.3h-4.3V72.3c3.3-1.7,7.5-2.5,12.4-2.5C118.9,69.8,123.2,73.1,123.2,80.5 M61.1,73.5l-4.3,16.9l-5.1-20.1h-3.4
		c-2.2,0-3.5,1.1-4.1,3.2l-4.3,16.9l-4.3-16.9c-0.5-2.1-1.9-3.2-4.1-3.2h-4.2l8.5,30.4h3.5c2.2,0,3.6-1,4.2-3.2L47.9,81l5.5,19.7
		h3.7c2.2,0,3.6-1,4.2-3.2l7.6-27.2h-3.6C63,70.3,61.6,71.4,61.1,73.5 M93.2,80.5v18.4c-3.3,1.6-6.7,2.3-11.1,2.3
		c-7.8,0-12.5-3.5-12.5-9.5c0-8.4,8.6-11.5,16.5-11.2v-0.7c0-3.4-1.6-4.8-5.4-4.8c-3.4,0-6.7,1.4-7.8,1.9v-5.6
		c2.2-0.8,4.9-1.6,8.6-1.6C88.9,69.8,93.2,73.1,93.2,80.5 M86.1,85c-5,0-9.3,2-9.3,6.7c0,3,2.1,4.8,5.8,4.8c1.3,0,2.6-0.2,3.6-0.7
		V85z M26.6,62.1h-5c-2.2,0-3.9,0.9-5.1,2.7l-8.6,13V62.1H3.3c-2,0-3.3,1.3-3.3,3.3v35.3h4.6c2,0,3.3-1.3,3.3-3.3V82.9l9.8,15
		c1.2,1.8,2.9,2.7,5.1,2.7h5.8L14.7,80.1L26.6,62.1z M228.9,69.8c-4.9,0-9.1,0.8-12.4,2.5v28.4h4.3c2,0,3.3-1.3,3.3-3.3V75.5
		c1.2-0.4,2.3-0.7,4.2-0.7c3.2,0,4.9,1.5,4.9,4.5v21.4h4.3c2,0,3.3-1.3,3.3-3.3V80.5C240.7,73.1,236.4,69.8,228.9,69.8 M269.9,72
		v27.9c0,7.9-4.6,12.3-12.5,12.3c-3.7,0-6.9-0.6-9.6-1.9l1.5-5.4c2.2,1.1,4.5,1.7,7.1,1.7c4.3,0,6.3-1.8,6.3-5.7v-1
		c-1.5,0.7-3.2,1.1-5.1,1.1c-7.5,0-12.3-5.8-12.3-14.8c0-10.4,5.4-16.4,14.7-16.4C263.7,69.8,267.1,70.5,269.9,72 M262.5,75.3
		c-0.7-0.3-1.7-0.5-3-0.5c-4.6,0-6.9,3.7-6.9,11.2c0,7.2,2,10.4,6.6,10.4c1.2,0,2.4-0.3,3.3-0.8V75.3z M142.4,69.8
		c3.9,0,7.2,0.8,10,2.3v27.9c0,7.9-4.6,12.3-12.5,12.3c-3.7,0-6.9-0.6-9.6-1.9l1.5-5.4c2.2,1.1,4.5,1.7,7.1,1.7
		c4.3,0,6.3-1.8,6.3-5.7v-1c-1.5,0.7-3.2,1.1-5.1,1.1c-7.5,0-12.3-5.8-12.3-14.8C127.7,75.7,133,69.8,142.4,69.8 M145.1,75.3
		c-0.7-0.3-1.7-0.5-3-0.5c-4.6,0-6.9,3.7-6.9,11.2c0,7.2,2,10.4,6.6,10.4c1.2,0,2.4-0.3,3.3-0.8V75.3z M177.5,58.3h4.3v40.7
		c-3,1.5-6.6,2.3-10.7,2.3c-8.9,0-14.2-5.8-14.2-15.4c0-9.6,5.2-15.8,13.4-15.8c1.5,0,2.8,0.1,4,0.4v-8.9
		C174.2,59.6,175.5,58.3,177.5,58.3 M174.2,75c-0.8-0.2-1.6-0.3-2.5-0.3c-6.1,0-7.3,5.9-7.3,10.8c0,7,2.3,10.6,6.8,10.6
		c1.4,0,2.4-0.1,3-0.5V75z M212.1,85.5c0,9.7-5,15.7-12.9,15.7c-8,0-12.9-6-12.9-15.7c0-9.9,4.8-15.8,12.9-15.8
		C207.2,69.8,212.1,75.6,212.1,85.5 M204.6,85.6c0-7.5-1.7-10.8-5.4-10.8c-3.7,0-5.4,3.4-5.4,10.8c0,7.1,1.8,10.5,5.4,10.5
		C202.9,96.1,204.6,92.9,204.6,85.6"/>
</g>
</svg>
