<?xml version="1.0" encoding="utf-8"?>
<!-- Generator: Adobe Illustrator 22.1.0, SVG Export Plug-In . SVG Version: 6.00 Build 0)  -->
<svg version="1.1" id="레이어_1" xmlns="http://www.w3.org/2000/svg" xmlns:xlink="http://www.w3.org/1999/xlink" x="0px"
	 y="0px" viewBox="0 0 522.7 124.4" style="enable-background:new 0 0 522.7 124.4;" xml:space="preserve">
<style type="text/css">
	.st0{fill:#C7004E;}
	.st1{fill:#FFFFFF;}
	.st2{fill:#6F6E6F;}
	.st3{fill:#706E6F;}
</style>
<path class="st0" d="M61.4,124.4c33.9,0,61.4-27.5,61.4-61.4c0-33.9-27.5-61.4-61.4-61.4C27.5,1.6,0,29.1,0,63
	C0,96.9,27.5,124.4,61.4,124.4z"/>
<polygon class="st1" points="58.9,36.1 58.9,89.9 76.1,89.9 76.1,85.1 63.8,85.1 63.8,36.1 "/>
<path class="st1" d="M41.8,50.8c4,0,7.3-3.3,7.3-7.4c0-4.1-3.3-7.4-7.3-7.4c-4.1,0-7.4,3.3-7.4,7.4C34.4,47.5,37.7,50.8,41.8,50.8z"
	/>
<path class="st1" d="M63.8,11.7c-0.6,0-1.9,0-2.5,0C33.1,11.6,10,34.7,10,63c0,13.8,5.4,26.6,15.1,36.4c9.7,9.7,22.6,15,36.3,15
	c13.7,0,26.6-5.3,36.3-15c9.7-9.7,15.1-22.6,15.1-36.4v-2.3h-2.1H76.1v4.7h31.8c0,0.1,0,0.6,0,0.7c-1.6,24.2-21.8,43.4-46.5,43.4
	c-12.4,0-24.1-4.9-32.9-13.6c-8.8-8.8-13.6-20.5-13.6-33c0-12.4,4.8-24.1,13.6-32.9c8.8-8.8,20.5-13.6,32.9-13.6c0.6,0,1.9,0,2.5,0
	V11.7z"/>
<g>
	<path class="st2" d="M456,63.1c0,12.8,0,25.5,0,38.3c0,1.4-0.4,1.6-1.6,1.6c-9.5,0-18.9-0.1-28.4,0c-1.4,0-1.7-0.7-2.1-1.8
		c-6.8-19.5-13.5-39-20.3-58.5c-0.5-1.5-1.1-2.9-1.5-4.4c-0.3-1-0.7-1.6-1.9-1.4c-1.2,0.2-0.6,1.1-0.6,1.7
		c-0.1,20.7-0.1,41.4,0,62.1c0,1.7-0.3,2.4-2.1,2.3c-4.5-0.1-9-0.1-13.5-0.1c-1.2,0-1.5-0.4-1.5-1.6c0-25.6,0-51.2,0-76.8
		c0-1.3,0.5-1.6,1.7-1.6c9.5,0,18.9,0.1,28.4,0c1.4,0,1.7,0.6,2.1,1.7c7.3,20.4,14.6,40.8,21.9,61.2c0.2,0.5,0.3,1,0.5,1.5
		c0.3,0.7,0.9,0.6,1.5,0.6c0.8,0,0.7-0.6,0.7-1.1c0-0.5,0-0.9,0-1.4c0-20.1,0-40.2,0-60.3c0-1.7,0.4-2.3,2.2-2.2
		c4.3,0.1,8.6,0.1,13,0c1.5,0,1.8,0.4,1.8,1.8C456,37.6,456,50.4,456,63.1z"/>
	<path class="st3" d="M282.1,76.9c0,5.9,0,11.7,0,17.6c0,1.4-0.4,2.2-1.7,2.9c-6,3.3-12.4,5-19.1,5.9c-8.1,1.1-16.2,1.2-24.2-0.6
		c-12.6-2.9-20.8-10.6-24.2-23.1c-3-11.2-3.1-22.6,0.3-33.7c3.8-12.6,12.5-20.1,25.3-22.7c9.6-2,19.2-1.8,28.6,1.2
		c5.4,1.8,9.9,4.8,13.6,9.1c0.8,1,1.1,1.6-0.1,2.6c-3.2,2.8-6.3,5.7-9.5,8.5c-0.4,0.4-0.8,1.2-1.7,0.2c-5.4-6.7-12.8-8.1-20.8-7.7
		c-1.8,0.1-3.6,0.4-5.3,0.8c-6.3,1.5-10.5,5.4-12.4,11.5c-2.7,8.7-2.7,17.5-0.2,26.3c2.4,8.4,8.7,11.8,16.9,12.5
		c5.3,0.5,10.5-0.1,15.7-1.4c1.1-0.3,1.5-0.8,1.5-2c-0.1-3.5-0.1-7.1,0-10.6c0-1.3-0.3-1.8-1.7-1.7c-3.9,0.1-7.9,0-11.8,0.1
		c-1.3,0-1.8-0.2-1.8-1.7c0.1-4,0.1-8,0-12c0-1.1,0.2-1.4,1.3-1.4c9.9,0,19.8,0,29.8,0c1.2,0,1.4,0.4,1.3,1.5
		C282,64.9,282,70.9,282.1,76.9C282.1,76.9,282.1,76.9,282.1,76.9z"/>
	<path class="st3" d="M497.3,21.9c6,0.1,14.7,1.7,22.9,5.7c1.2,0.6,1.4,1.1,0.8,2.3c-1.6,3.2-3.1,6.5-4.4,9.8
		c-0.6,1.4-1.1,1.4-2.4,0.8c-7.8-4-16-5.8-24.8-4.5c-1,0.1-2,0.4-3,0.7c-3,0.9-5.2,2.7-5.7,5.9c-0.6,3.5,0.6,6.5,3.6,8.6
		c3,2.1,6.5,3.1,9.9,4.2c5.4,1.6,10.8,3,15.9,5.4c12.5,6,16.6,21.3,8.5,32.4c-4.2,5.7-10.1,8.7-16.9,10c-13.4,2.7-26.2,0.5-38.5-5.3
		c-1.2-0.6-1.5-1-0.8-2.3c1.7-3.5,3.3-7,4.8-10.5c0.5-1.2,1-1.4,2.2-0.8c7.3,3.7,14.9,6,23.1,5.7c2.6-0.1,5.1-0.4,7.5-1.5
		c5.5-2.5,6.4-9.7,1.7-13.6c-1.6-1.3-3.5-2.1-5.5-2.7c-6.5-2-13.1-3.7-19.2-6.9c-5.2-2.7-9.6-6.3-12.2-11.7
		c-4.1-8.7-2.1-22,9.6-27.8C480.7,22.7,487.4,21.8,497.3,21.9z"/>
	<path class="st3" d="M309.9,64.8c-0.1-7.5,0.6-14.8,3.4-21.8c4.3-10.8,12.3-17.5,23.6-19.9c10.9-2.4,21.6-1.7,31.9,3.2
		c2.7,1.3,5.2,3.1,7.4,5.2c0.7,0.7,0.8,1.1,0.1,1.9c-2.8,3.1-5.5,6.2-8.1,9.3c-0.8,1-1.2,0.8-2.1,0c-6-5.4-13-7.6-21-6.4
		c-7.9,1.1-13.7,6.8-15.8,15.7c-1.8,7.6-1.7,15.2,0,22.8c2.2,9.3,8.9,14.2,19.1,14.3c7.6,0,15-1.1,22-4.1c1.1-0.5,1.5-0.3,1.9,0.9
		c1,3.6,2.1,7.2,3.2,10.7c0.4,1.2-0.1,1.6-1,2c-5.7,2.9-11.8,4.4-18.1,5.2c-6.9,0.9-13.8,0.8-20.5-0.7c-13.7-3.1-21.4-12-24.5-25.4
		C310.4,73.4,310,69.1,309.9,64.8z"/>
	<path class="st3" d="M151.4,63.1c0-12.8,0-25.5,0-38.3c0-1.3,0.2-1.9,1.8-1.9c5,0.1,10,0.1,15.1,0c1.6,0,2,0.4,2,2
		c-0.1,20,0,40.1-0.1,60.1c0,1.7,0.4,2.2,2.2,2.2c11.5-0.1,23.1,0,34.6-0.1c1.5,0,2,0.4,1.9,1.9c-0.1,4.1-0.1,8.1,0,12.2
		c0,1.3-0.4,1.7-1.6,1.7c-18,0-36.1,0-54.1,0c-1.4,0-1.6-0.6-1.6-1.8C151.4,88.5,151.4,75.8,151.4,63.1
		C151.4,63.1,151.4,63.1,151.4,63.1z"/>
</g>
</svg>
