<?xml version="1.0" encoding="utf-8"?>
<!-- Generator: Adobe Illustrator 22.1.0, SVG Export Plug-In . SVG Version: 6.00 Build 0)  -->
<svg version="1.1" id="레이어_1" xmlns="http://www.w3.org/2000/svg" xmlns:xlink="http://www.w3.org/1999/xlink" x="0px"
	 y="0px" viewBox="0 0 500 176.7" style="enable-background:new 0 0 500 176.7;" xml:space="preserve">
<style type="text/css">
	.st0{fill:#2600FF;}
</style>
<g>
	<path class="st0" d="M41.8,46.1v-3.5c0-21.3,5.9-27.1,27.3-27.1h14.6V0H68.2c-30,0-42.8,12.7-42.8,42.6v3.6H0v0.2V62v0.2h25.5v0.7
		v111H42v-111l0-0.7h41.8V62V46.3v-0.2H41.8z"/>
	<path class="st0" d="M191.5,118.3c0,25.6-14.1,40.8-37.8,40.8c-23.7,0-37.8-15.3-37.8-40.8V46.1H99.4v73
		c0,34.2,21.3,56.4,54.3,56.4c33,0,54.3-22.1,54.3-56.4v-73h-16.5V118.3z"/>
	<polygon class="st0" points="310.2,133.2 336.8,159.8 261.5,159.8 311.6,109.7 361.8,59.5 361.8,59.5 375.2,46.1 224,46.1 
		277.4,99.6 288.5,88.5 261.9,61.8 337.3,61.8 287.1,112 237,162.1 237,162.1 223.5,175.5 374.8,175.5 321.3,122.1 	"/>
	<path class="st0" d="M499.4,119.2c0.3-2.7,0.6-5.5,0.6-8.4c0-2.8-0.2-5.6-0.6-8.4C495.3,70,467.7,45,434.2,45
		c-33.5,0-61.2,25.1-65.3,57.5c-0.3,2.7-0.6,5.5-0.6,8.4c0,2.8,0.2,5.6,0.6,8.4h0c4.1,32.4,31.8,57.5,65.3,57.5
		c27.5,0,51-16.8,60.8-40.7h-18.4c-8.6,14.5-24.4,24.2-42.4,24.2c-24.3,0-44.6-17.7-48.6-40.9h97.2H499.4z M385.6,102.4
		c4-23.2,24.3-40.9,48.6-40.9c24.3,0,44.6,17.7,48.6,40.9H385.6z"/>
</g>
</svg>
