<?xml version="1.0" encoding="utf-8"?>
<!-- Generator: Adobe Illustrator 22.1.0, SVG Export Plug-In . SVG Version: 6.00 Build 0)  -->
<svg version="1.1" id="레이어_1" xmlns="http://www.w3.org/2000/svg" xmlns:xlink="http://www.w3.org/1999/xlink" x="0px"
	 y="0px" viewBox="0 0 346.2 182.5" style="enable-background:new 0 0 346.2 182.5;" xml:space="preserve">
<style type="text/css">
	.st0{fill:#05246E;}
	.st1{fill:#E4005A;}
	.st2{clip-path:url(#SVGID_2_);fill:url(#SVGID_3_);}
</style>
<path class="st0" d="M315.8,91.8c0,0.5-0.1,0.9-0.1,0.9h-22.6c0.4,2.7,3.5,6.1,7.9,6.1c3.1,0,5.6-0.8,7.9-2.5c0.2-0.1,1-0.7,1.7,0.2
	l3.3,3.8c0,0-4.3,5.1-12.9,5.1c-9.7,0-14.9-7.4-14.9-16c0-8.5,6.3-15.1,14.6-15.1C308.5,74.3,316.4,79.4,315.8,91.8 M308.9,86.4
	c-0.7-3.5-3.4-5.9-7.7-5.9c-3.8,0-7.1,2.2-8.1,5.9H308.9z"/>
<path class="st0" d="M267.8,118.5c8.2,0,15.4-6.9,15.4-14.7V91.1c0-1.1,0-2,0-2c-0.3-8.3-7.1-14.9-15.5-14.9
	c-8.6,0-15.5,7-15.5,15.5c0,8.6,7,15.6,15.5,15.6c3.2,0,6.2-1,8.7-2.6v0.4c0,4.7-3.8,8.6-8.6,8.6c-2.7,0-5.1-1.5-6.9-3.4
	c-0.4-0.4-0.8-0.6-1.4-0.2c-0.6,0.4-4.7,3.2-4.7,3.2C258.7,117.4,264.6,118.5,267.8,118.5 M267.8,98.4c-4.7,0-8.6-3.8-8.6-8.6
	c0-4.7,3.8-8.6,8.6-8.6c4.7,0,8.6,3.8,8.6,8.6C276.4,94.6,272.5,98.4,267.8,98.4"/>
<path class="st0" d="M165.4,76.3v28.2h-6.9v-3.3c-2.3,2.5-5.7,3.8-9.7,3.8c-9,0-15.3-6.3-15.3-15.4c0-9.1,6.3-15.4,15.3-15.4
	c4,0,7.3,1.3,9.6,3.8c0,0,1.2-3,4-3h1.6C165.1,75,165.4,75.4,165.4,76.3 M149.5,80.7c-4.9,0-8.9,4-8.9,9s4,9,8.9,9
	c4.9,0,8.9-4,8.9-9S154.4,80.7,149.5,80.7"/>
<path class="st0" d="M198.5,76.1v28.5h7c0,0,0-13,0-16.6c0.1-4.9,2.8-6.6,6.7-6.7c2.7,0,4.5,1.2,4.5,1.2l4.1-5.6
	c-2-1.4-4.7-2.3-7.2-2.3c-2.8,0-6.2,0.8-8.3,2.8c0,0-1.4-2.4-4.2-2.4h-1.5C199,75,198.5,75.4,198.5,76.1"/>
<path class="st0" d="M184.1,105.3c-8.6,0-15.5-7-15.5-15.5c0-8.6,7-15.5,15.5-15.5c3.9,0,7.6,1.5,10.5,4.1c0.1,0.1,0.7,0.6,0,1.3
	c-0.7,0.7-4.4,4.1-4.4,4.1l-0.4-0.4c-1.6-1.4-3.6-2.2-5.7-2.2c-4.7,0-8.5,3.8-8.5,8.5c0,4.7,3.8,8.5,8.5,8.5c2.1,0,4.5-0.8,6.1-2.2
	c0.1-0.1,0.7-0.6,1.3,0l3.4,3.7l0.5,0.6c0,0-0.6,0.6-0.6,0.6C191.9,103.8,188.1,105.3,184.1,105.3"/>
<path class="st0" d="M84.7,76v28.5h7.1V87.2c0-4,3-6.1,6-6.1c3.5,0,6,2.7,6,6.1v17.4h7.4V87.2c0-3.4,2.5-6.1,6-6.1
	c3.4,0,6,2.7,6,6.1v17.4h7.2V84.7c0-5.7-5.3-10.4-11.7-10.4c-4.4,0-8.3,2.1-10.3,5.4c-1.8-3.3-5.3-5.4-9.1-5.4
	c-2.9,0-5.6,1.2-7.6,3.3c0-0.3-0.9-2.6-3.9-2.6h-1.8C85,75,84.7,75.3,84.7,76"/>
<path class="st0" d="M319.6,76.3v28.3h7.1V87.2c0-4,3.2-6.1,6.2-6.1c3.7,0,6.2,2.4,6.2,6.1v17.3h7.1V87.2c0-12.5-10.8-12.8-12-12.8
	c-2.9,0-5.7,1.2-7.7,3.3c0-0.3-0.6-2.6-3.3-2.6h-2.3C320.1,75,319.6,75.4,319.6,76.3"/>
<path class="st0" d="M233.9,74.3c-8.6,0-15.6,7-15.6,15.5c0,8.6,7,15.6,15.6,15.6c8.6,0,15.5-7,15.5-15.6
	C249.5,81.2,242.5,74.3,233.9,74.3 M234,98.4c-4.7,0-8.6-3.8-8.6-8.6c0-4.7,3.8-8.6,8.6-8.6c4.7,0,8.6,3.8,8.6,8.6
	C242.5,94.6,238.7,98.4,234,98.4"/>
<polygon class="st0" points="84.7,49.5 86,49.5 86,55.7 93.9,55.7 93.9,49.5 95.2,49.5 95.2,63.6 93.9,63.6 93.9,56.9 86,56.9 
	86,63.6 84.7,63.6 "/>
<path class="st0" d="M105.6,61c0,0.2,0,0.4,0,0.6c0,0.2,0,0.5,0,0.7c0,0.3,0,0.5,0,0.7c0,0.2,0,0.4,0,0.5h-1.2c0-0.3,0-0.7,0-1
	c0-0.3,0-0.5-0.1-0.6h-0.1c-0.2,0.5-0.6,0.9-1.2,1.3c-0.6,0.4-1.2,0.5-2,0.5c-0.7,0-1.3-0.1-1.8-0.3c-0.5-0.2-0.8-0.5-1.1-0.9
	c-0.3-0.4-0.4-0.8-0.5-1.3c-0.1-0.5-0.1-1-0.1-1.5v-5.5h1.2v5.4c0,0.4,0,0.7,0.1,1.1c0.1,0.3,0.2,0.7,0.4,0.9
	c0.2,0.3,0.4,0.5,0.7,0.7c0.3,0.2,0.7,0.3,1.2,0.3c0.4,0,0.9-0.1,1.2-0.2c0.4-0.2,0.7-0.4,1-0.7c0.3-0.3,0.5-0.7,0.7-1.2
	c0.2-0.5,0.3-1,0.3-1.7v-4.6h1.2V61z"/>
<path class="st0" d="M107.9,57c0-0.2,0-0.4,0-0.6c0-0.2,0-0.5,0-0.7c0-0.3,0-0.5,0-0.7c0-0.2,0-0.4,0-0.5h1.2c0,0.3,0,0.7,0,1
	c0,0.3,0,0.5,0,0.6h0.1c0.2-0.5,0.6-0.9,1.2-1.3c0.6-0.4,1.2-0.5,1.9-0.5c0.6,0,1.2,0.2,1.7,0.5c0.5,0.3,0.9,0.8,1.1,1.5
	c0.3-0.7,0.7-1.2,1.3-1.5c0.6-0.3,1.2-0.5,1.8-0.5c0.7,0,1.3,0.1,1.7,0.3c0.5,0.2,0.8,0.5,1.1,0.9c0.3,0.4,0.4,0.8,0.5,1.3
	c0.1,0.5,0.1,1,0.1,1.5v5.5h-1.2v-5.4c0-0.4,0-0.7-0.1-1.1c-0.1-0.3-0.2-0.7-0.3-0.9c-0.2-0.3-0.4-0.5-0.7-0.7
	c-0.3-0.2-0.7-0.3-1.2-0.3c-0.6,0-1,0.1-1.4,0.3c-0.4,0.2-0.6,0.5-0.8,0.8c-0.2,0.3-0.4,0.7-0.4,1c-0.1,0.4-0.1,0.7-0.1,1.1v5.2
	h-1.2v-5.5c0-0.9-0.2-1.5-0.5-2.1c-0.3-0.5-0.8-0.8-1.5-0.8c-0.4,0-0.8,0.1-1.2,0.2c-0.4,0.2-0.7,0.4-1,0.7
	c-0.3,0.3-0.5,0.7-0.7,1.2c-0.2,0.5-0.3,1-0.3,1.7v4.6h-1.2V57z"/>
<path class="st0" d="M130.9,59.8c0,0.4,0,0.9,0,1.2c0,0.4,0,0.7,0,1c0,0.3,0,0.6,0.1,0.9c0,0.3,0.1,0.5,0.1,0.8h-1.1
	c-0.1-0.5-0.1-0.9-0.1-1.5h0c-0.3,0.6-0.8,1-1.3,1.3c-0.5,0.3-1.2,0.4-1.9,0.4c-0.4,0-0.8-0.1-1.2-0.2c-0.4-0.1-0.7-0.3-1-0.5
	c-0.3-0.2-0.6-0.5-0.7-0.8c-0.2-0.4-0.3-0.8-0.3-1.3c0-0.7,0.2-1.3,0.5-1.7c0.4-0.4,0.8-0.7,1.3-0.9c0.5-0.2,1.1-0.3,1.7-0.4
	c0.6-0.1,1.1-0.1,1.6-0.1h1.4v-0.6c0-0.8-0.2-1.4-0.7-1.7c-0.5-0.3-1.1-0.5-1.8-0.5c-1.1,0-2,0.3-2.8,1l-0.7-0.8
	c0.4-0.4,1-0.8,1.6-1c0.7-0.2,1.3-0.3,1.9-0.3c1.1,0,2,0.3,2.7,0.8c0.7,0.5,1,1.4,1,2.5V59.8z M128.5,59c-0.5,0-1,0-1.5,0.1
	c-0.5,0.1-0.9,0.2-1.3,0.3c-0.4,0.2-0.7,0.4-0.9,0.6c-0.2,0.3-0.3,0.6-0.3,1c0,0.3,0.1,0.5,0.2,0.7c0.1,0.2,0.3,0.4,0.5,0.5
	c0.2,0.1,0.4,0.2,0.7,0.3c0.2,0.1,0.5,0.1,0.7,0.1c0.6,0,1.2-0.1,1.6-0.3c0.4-0.2,0.7-0.4,1-0.7c0.2-0.3,0.4-0.6,0.5-1
	c0.1-0.4,0.1-0.8,0.1-1.1V59H128.5z"/>
<path class="st0" d="M133.1,57c0-0.2,0-0.4,0-0.6c0-0.2,0-0.5,0-0.7c0-0.3,0-0.5,0-0.7c0-0.2,0-0.4,0-0.5h1.2c0,0.3,0,0.7,0,1
	c0,0.3,0,0.5,0.1,0.6h0.1c0.2-0.5,0.6-0.9,1.2-1.3c0.6-0.4,1.2-0.5,1.9-0.5c0.7,0,1.3,0.1,1.8,0.3c0.4,0.2,0.8,0.5,1.1,0.9
	c0.2,0.4,0.4,0.8,0.5,1.3c0.1,0.5,0.2,1,0.2,1.5v5.5h-1.2v-5.4c0-0.4,0-0.7-0.1-1.1c-0.1-0.3-0.2-0.7-0.3-0.9
	c-0.2-0.3-0.4-0.5-0.7-0.7c-0.3-0.2-0.7-0.3-1.2-0.3c-0.4,0-0.8,0.1-1.2,0.2c-0.4,0.2-0.7,0.4-1,0.7c-0.3,0.3-0.5,0.7-0.7,1.2
	c-0.2,0.5-0.2,1-0.2,1.7v4.6h-1.2V57z"/>
<polygon class="st0" points="145.6,62.9 151.2,55.5 145.9,55.5 145.9,54.4 152.8,54.4 152.8,55.1 147.3,62.6 153.1,62.6 153.1,63.6 
	145.6,63.6 "/>
<path class="st0" d="M154,50.8c0-0.3,0.1-0.5,0.3-0.6c0.2-0.2,0.4-0.3,0.6-0.3c0.2,0,0.5,0.1,0.6,0.3c0.2,0.2,0.3,0.4,0.3,0.6
	c0,0.2-0.1,0.5-0.3,0.6c-0.2,0.2-0.4,0.3-0.6,0.3c-0.3,0-0.5-0.1-0.6-0.3C154.1,51.2,154,51,154,50.8 M154.3,54.4h1.2v9.2h-1.2V54.4
	z"/>
<path class="st0" d="M157.9,57c0-0.2,0-0.4,0-0.6c0-0.2,0-0.5,0-0.7c0-0.3,0-0.5,0-0.7c0-0.2,0-0.4,0-0.5h1.2c0,0.4,0,0.7,0,1
	c0,0.3,0,0.5,0.1,0.6h0.1c0.2-0.5,0.7-0.9,1.2-1.3c0.6-0.4,1.2-0.5,2-0.5c0.7,0,1.3,0.1,1.7,0.3c0.5,0.2,0.8,0.5,1.1,0.9
	c0.3,0.4,0.4,0.8,0.5,1.3c0.1,0.5,0.1,1,0.1,1.5v5.5h-1.2v-5.4c0-0.4,0-0.7-0.1-1.1c-0.1-0.3-0.2-0.7-0.3-0.9
	c-0.2-0.3-0.4-0.5-0.7-0.7c-0.3-0.2-0.7-0.2-1.2-0.2c-0.4,0-0.9,0.1-1.2,0.2c-0.4,0.2-0.7,0.4-1,0.7c-0.3,0.3-0.5,0.7-0.7,1.2
	c-0.2,0.5-0.3,1-0.3,1.7v4.6h-1.2V57z"/>
<path class="st0" d="M176.8,63c0,1.1-0.2,2.1-0.5,2.8c-0.3,0.7-0.7,1.2-1.2,1.6c-0.5,0.4-1,0.6-1.6,0.8c-0.6,0.1-1.1,0.2-1.6,0.2
	c-0.5,0-0.9,0-1.4-0.1c-0.4-0.1-0.9-0.2-1.3-0.4c-0.4-0.2-0.8-0.4-1.1-0.6c-0.3-0.2-0.6-0.5-0.9-0.8l0.9-0.9c0.4,0.6,1,1,1.6,1.3
	c0.6,0.3,1.3,0.4,2,0.4c0.6,0,1.1-0.1,1.5-0.2c0.4-0.2,0.8-0.4,1-0.6c0.3-0.3,0.5-0.5,0.6-0.9c0.2-0.3,0.3-0.6,0.3-0.9
	c0.1-0.3,0.1-0.6,0.1-0.9c0-0.3,0-0.5,0-0.7v-1.3h0c-0.3,0.6-0.8,1-1.4,1.3c-0.6,0.3-1.3,0.5-2.1,0.5c-0.7,0-1.3-0.1-1.9-0.4
	c-0.6-0.2-1.1-0.6-1.6-1c-0.4-0.4-0.8-0.9-1.1-1.5c-0.3-0.6-0.4-1.2-0.4-1.8c0-0.6,0.1-1.3,0.4-1.8c0.3-0.6,0.6-1.1,1.1-1.5
	c0.4-0.4,1-0.8,1.6-1c0.6-0.3,1.2-0.4,1.9-0.4c0.8,0,1.5,0.2,2.1,0.5c0.6,0.3,1.1,0.8,1.4,1.3h0v-1.6h1.2V63z M175.7,58.9
	c0-0.5-0.1-1-0.3-1.4c-0.2-0.5-0.4-0.8-0.8-1.2c-0.3-0.3-0.7-0.6-1.2-0.8c-0.4-0.2-0.9-0.3-1.4-0.3c-0.5,0-1,0.1-1.4,0.3
	c-0.4,0.2-0.8,0.4-1.2,0.8c-0.3,0.3-0.6,0.7-0.8,1.2c-0.2,0.4-0.3,0.9-0.3,1.4c0,0.5,0.1,1,0.3,1.4c0.2,0.4,0.5,0.8,0.8,1.2
	c0.3,0.3,0.7,0.6,1.2,0.8c0.4,0.2,0.9,0.3,1.4,0.3c0.5,0,1-0.1,1.4-0.3c0.4-0.2,0.8-0.5,1.2-0.8c0.3-0.3,0.6-0.7,0.8-1.2
	C175.6,59.9,175.7,59.4,175.7,58.9"/>
<path class="st0" d="M194.9,62.7c-0.8,0.5-1.7,0.8-2.6,1c-0.9,0.2-1.8,0.3-2.7,0.3c-1.1,0-2.1-0.2-3-0.5c-0.9-0.4-1.7-0.9-2.3-1.5
	c-0.6-0.7-1.1-1.4-1.5-2.3c-0.4-0.9-0.5-1.9-0.5-3c0-1.1,0.2-2.1,0.5-3c0.4-0.9,0.9-1.7,1.5-2.3c0.6-0.7,1.4-1.2,2.3-1.5
	c0.9-0.4,1.9-0.6,3-0.6c2.1,0,3.8,0.7,5.1,1.9l-1,1c-0.2-0.3-0.5-0.5-0.8-0.7c-0.3-0.2-0.7-0.4-1-0.6c-0.4-0.2-0.8-0.3-1.1-0.4
	c-0.4-0.1-0.8-0.1-1.2-0.1c-0.9,0-1.8,0.2-2.5,0.5c-0.7,0.3-1.4,0.7-1.9,1.3c-0.5,0.6-0.9,1.2-1.2,2c-0.3,0.8-0.4,1.6-0.4,2.5
	c0,0.9,0.1,1.7,0.4,2.5c0.3,0.8,0.7,1.4,1.2,2c0.5,0.6,1.1,1,1.9,1.3c0.7,0.3,1.6,0.5,2.5,0.5c0.7,0,1.5-0.1,2.1-0.2
	c0.7-0.1,1.3-0.3,1.8-0.7v-4.7h-3.4V56h4.7V62.7z"/>
<path class="st0" d="M205.5,61.9c-0.5,0.7-1,1.2-1.7,1.5c-0.7,0.3-1.4,0.5-2.3,0.5c-0.7,0-1.3-0.1-1.9-0.4c-0.6-0.2-1.1-0.6-1.5-1
	c-0.4-0.4-0.7-0.9-0.9-1.5c-0.2-0.6-0.3-1.2-0.3-2c0-0.7,0.1-1.3,0.3-1.9c0.2-0.6,0.5-1.1,1-1.5c0.4-0.4,0.9-0.8,1.4-1
	c0.6-0.2,1.2-0.4,1.9-0.4c0.7,0,1.3,0.1,1.9,0.4c0.5,0.2,1,0.6,1.3,1c0.4,0.4,0.6,0.9,0.8,1.4c0.2,0.5,0.3,1,0.3,1.6v0.8h-7.7
	c0,0.2,0,0.6,0.1,1c0.1,0.4,0.3,0.8,0.5,1.1c0.3,0.4,0.6,0.7,1.1,1c0.5,0.3,1,0.4,1.7,0.4c0.6,0,1.2-0.1,1.8-0.4
	c0.6-0.3,1-0.7,1.3-1.2L205.5,61.9z M204.6,58.3c0-0.4-0.1-0.8-0.3-1.2c-0.2-0.4-0.4-0.7-0.7-0.9c-0.3-0.3-0.6-0.5-1-0.6
	c-0.4-0.2-0.8-0.2-1.2-0.2c-0.7,0-1.2,0.1-1.6,0.4c-0.4,0.3-0.8,0.6-1,0.9c-0.3,0.3-0.4,0.7-0.5,1c-0.1,0.3-0.2,0.5-0.2,0.7H204.6z"
	/>
<path class="st0" d="M207.2,57c0-0.2,0-0.4,0-0.6c0-0.2,0-0.5,0-0.7c0-0.3,0-0.5,0-0.7c0-0.2,0-0.4,0-0.5h1.2c0,0.4,0,0.7,0,1
	c0,0.3,0,0.5,0.1,0.6h0.1c0.2-0.5,0.6-0.9,1.2-1.3c0.6-0.4,1.2-0.5,1.9-0.5c0.7,0,1.3,0.1,1.8,0.3c0.4,0.2,0.8,0.5,1.1,0.9
	c0.3,0.4,0.4,0.8,0.5,1.3c0.1,0.5,0.1,1,0.1,1.5v5.5h-1.2v-5.4c0-0.4,0-0.7-0.1-1.1c-0.1-0.3-0.2-0.7-0.4-0.9
	c-0.2-0.3-0.4-0.5-0.7-0.7c-0.3-0.2-0.7-0.2-1.2-0.2c-0.4,0-0.9,0.1-1.2,0.2c-0.4,0.2-0.7,0.4-1,0.7c-0.3,0.3-0.5,0.7-0.7,1.2
	c-0.2,0.5-0.2,1-0.2,1.7v4.6h-1.2V57z"/>
<path class="st0" d="M216.5,59c0-0.7,0.1-1.4,0.4-1.9c0.2-0.6,0.6-1.1,1-1.5c0.4-0.4,0.9-0.8,1.5-1c0.6-0.2,1.2-0.4,2-0.4
	c0.7,0,1.4,0.1,1.9,0.4c0.6,0.2,1.1,0.6,1.5,1c0.4,0.4,0.8,0.9,1,1.5c0.2,0.6,0.4,1.2,0.4,1.9c0,0.7-0.1,1.3-0.4,1.9
	c-0.2,0.6-0.6,1.1-1,1.5c-0.4,0.4-0.9,0.8-1.5,1c-0.6,0.2-1.2,0.4-1.9,0.4c-0.7,0-1.4-0.1-2-0.4c-0.6-0.2-1.1-0.6-1.5-1
	c-0.4-0.4-0.8-0.9-1-1.5C216.6,60.4,216.5,59.7,216.5,59 M217.7,59c0,0.5,0.1,1,0.3,1.5c0.2,0.5,0.4,0.9,0.7,1.2
	c0.3,0.3,0.7,0.6,1.2,0.8c0.4,0.2,1,0.3,1.5,0.3c0.6,0,1.1-0.1,1.5-0.3c0.5-0.2,0.8-0.5,1.2-0.8c0.3-0.3,0.6-0.7,0.7-1.2
	c0.2-0.5,0.2-1,0.2-1.5c0-0.5-0.1-1-0.2-1.5c-0.2-0.5-0.4-0.9-0.7-1.2c-0.3-0.3-0.7-0.6-1.2-0.8c-0.4-0.2-1-0.3-1.5-0.3
	c-0.6,0-1.1,0.1-1.5,0.3c-0.5,0.2-0.8,0.5-1.2,0.8c-0.3,0.3-0.6,0.7-0.7,1.2C217.8,58,217.7,58.5,217.7,59"/>
<path class="st0" d="M227.9,57c0-0.2,0-0.4,0-0.6c0-0.2,0-0.5,0-0.7c0-0.3,0-0.5,0-0.7c0-0.2,0-0.4,0-0.5h1.2c0,0.4,0,0.7,0,1
	c0,0.3,0,0.5,0.1,0.6h0.1c0.2-0.5,0.6-0.9,1.2-1.3c0.6-0.4,1.2-0.5,1.9-0.5c0.6,0,1.2,0.2,1.7,0.5c0.5,0.3,0.9,0.8,1.1,1.5
	c0.3-0.7,0.7-1.2,1.3-1.5c0.6-0.3,1.2-0.5,1.8-0.5c0.7,0,1.3,0.1,1.8,0.3c0.5,0.2,0.8,0.5,1.1,0.9c0.3,0.4,0.4,0.8,0.5,1.3
	c0.1,0.5,0.2,1,0.2,1.5v5.5h-1.2v-5.4c0-0.4,0-0.7-0.1-1.1c-0.1-0.3-0.2-0.7-0.3-0.9c-0.2-0.3-0.4-0.5-0.7-0.7
	c-0.3-0.2-0.7-0.2-1.2-0.2c-0.6,0-1,0.1-1.4,0.3c-0.4,0.2-0.6,0.5-0.8,0.8c-0.2,0.3-0.4,0.7-0.4,1c-0.1,0.4-0.1,0.7-0.1,1.1v5.2
	h-1.2v-5.5c0-0.9-0.2-1.5-0.5-2c-0.3-0.5-0.8-0.8-1.4-0.8c-0.4,0-0.8,0.1-1.2,0.2c-0.4,0.2-0.7,0.4-1,0.7c-0.3,0.3-0.5,0.7-0.7,1.2
	c-0.2,0.5-0.2,1-0.2,1.7v4.6h-1.2V57z"/>
<path class="st0" d="M243.7,50.8c0-0.3,0.1-0.5,0.3-0.6c0.2-0.2,0.4-0.3,0.6-0.3c0.3,0,0.5,0.1,0.6,0.3c0.2,0.2,0.3,0.4,0.3,0.6
	c0,0.2-0.1,0.5-0.3,0.6c-0.2,0.2-0.4,0.3-0.6,0.3c-0.3,0-0.5-0.1-0.6-0.3C243.7,51.2,243.7,51,243.7,50.8 M244,54.4h1.2v9.2H244
	V54.4z"/>
<path class="st0" d="M254.9,62.3c-0.5,0.5-1,0.9-1.5,1.2c-0.6,0.3-1.2,0.4-1.9,0.4c-0.7,0-1.4-0.1-1.9-0.4c-0.6-0.2-1.1-0.6-1.5-1
	c-0.4-0.4-0.8-0.9-1-1.5c-0.2-0.6-0.4-1.2-0.4-1.9c0-0.7,0.1-1.3,0.4-1.9c0.2-0.6,0.6-1.1,1-1.5c0.4-0.4,0.9-0.8,1.5-1
	c0.6-0.2,1.2-0.4,1.9-0.4c0.7,0,1.3,0.1,1.9,0.4c0.6,0.3,1.1,0.7,1.5,1.2l-1,0.7c-0.4-0.4-0.7-0.7-1.1-0.9c-0.4-0.2-0.9-0.3-1.3-0.3
	c-0.5,0-1.1,0.1-1.5,0.3c-0.4,0.2-0.8,0.5-1.2,0.8c-0.3,0.3-0.6,0.7-0.7,1.2c-0.2,0.5-0.3,0.9-0.3,1.5c0,0.5,0.1,1,0.3,1.5
	c0.2,0.5,0.4,0.9,0.7,1.2c0.3,0.3,0.7,0.6,1.2,0.8c0.5,0.2,1,0.3,1.5,0.3c0.5,0,1-0.1,1.4-0.3c0.4-0.2,0.8-0.5,1.1-0.9L254.9,62.3z"
	/>
<path class="st0" d="M256.7,61.3c0.3,0.5,0.6,0.9,1.1,1.1c0.5,0.3,1,0.4,1.6,0.4c0.2,0,0.5,0,0.8-0.1c0.3-0.1,0.5-0.2,0.7-0.3
	c0.2-0.1,0.4-0.3,0.5-0.5c0.1-0.2,0.2-0.4,0.2-0.7c0-0.4-0.1-0.7-0.4-1c-0.3-0.2-0.6-0.4-1-0.5c-0.4-0.1-0.8-0.2-1.3-0.3
	c-0.5-0.1-0.9-0.2-1.3-0.4c-0.4-0.2-0.7-0.4-1-0.7c-0.3-0.3-0.4-0.8-0.4-1.4c0-0.5,0.1-0.8,0.3-1.2c0.2-0.3,0.4-0.6,0.7-0.8
	c0.3-0.2,0.6-0.4,1-0.5c0.4-0.1,0.8-0.2,1.1-0.2c0.8,0,1.4,0.1,2,0.4c0.5,0.3,1,0.7,1.3,1.3l-1.1,0.6c-0.2-0.4-0.5-0.7-0.9-1
	c-0.3-0.2-0.8-0.3-1.3-0.3c-0.2,0-0.4,0-0.7,0.1c-0.2,0.1-0.4,0.2-0.6,0.3c-0.2,0.1-0.3,0.3-0.5,0.5c-0.1,0.2-0.2,0.4-0.2,0.6
	c0,0.4,0.1,0.7,0.4,0.9c0.3,0.2,0.6,0.4,1,0.5c0.4,0.1,0.8,0.2,1.3,0.3c0.5,0.1,0.9,0.2,1.3,0.4c0.4,0.2,0.7,0.4,1,0.8
	c0.3,0.3,0.4,0.8,0.4,1.4c0,0.5-0.1,0.9-0.3,1.2c-0.2,0.3-0.4,0.6-0.7,0.9c-0.3,0.2-0.7,0.4-1.1,0.5c-0.4,0.1-0.8,0.2-1.3,0.2
	c-0.8,0-1.5-0.2-2.2-0.5c-0.7-0.3-1.2-0.8-1.5-1.4L256.7,61.3z"/>
<path class="st0" d="M142.6,50.8c0-0.3,0.1-0.5,0.3-0.6c0.2-0.2,0.4-0.3,0.6-0.3c0.3,0,0.5,0.1,0.6,0.3c0.2,0.2,0.3,0.4,0.3,0.6
	c0,0.2-0.1,0.5-0.3,0.6c-0.2,0.2-0.4,0.3-0.6,0.3c-0.3,0-0.5-0.1-0.6-0.3C142.7,51.2,142.6,51,142.6,50.8 M142.9,54.4h1.2v9.2h-1.2
	V54.4z"/>
<path class="st1" d="M47.3,27.8c0.5,3.8,1.8,8.8,3.9,11.3c3.2,3.8,5.9-3.9,6-8c0.1-4.5-2.3-8.6-5.5-9.2
	C47.8,21.1,46.9,24.7,47.3,27.8"/>
<g>
	<defs>
		<path id="SVGID_1_" d="M31.6,114.1c3.5,0.5,8.2,1.4,13.3,2.7c0.6,0.2,1.3,0.3,1.9,0.5c0.1,0,0.1,0,0.2,0.1
			c0.7,0.3,0.8,0.8,0.2,1.4c-0.5,0.5-0.9,0.9-1.2,1.2c-8.8,7.8-12.6,17.7-14.1,22.7C30.3,134.5,29.9,124.9,31.6,114.1 M12.1,103.2
			c-1.3-1.4-2-3-1.8-4.8c4.5-1.5,10.5-1.8,18.9-0.5c-1.4,3-3.5,7.1-5,10.5C18.9,107.5,14.9,106.1,12.1,103.2 M40.4,2.1
			c-4.2,8.2-9.3,18.1-3.8,39.5c2,7.8,7.1,18.5,5.4,20.5c-6.4,7.6-14.7,13.7-25.3,20.7C6.9,89.2,1.3,91.3,0.2,96.5
			c-0.9,4.4,1.1,10.9,14,14.6c3.4,1,6.9,1.7,8.7,2c-6.2,24.7-3.5,42.4,6.4,59.3c4.2,7.2,10.3,10.3,17,10.1c2.7-0.1,3.8-2.4,2.1-4.7
			c-1.3-1.8-9.2-10.6-14.1-25.5c-0.2-0.7-0.2-1.4,0-2.2c0,0,0,0,0,0c6-19,19.1-26.9,21.6-28.2c0.9-0.4,1.7-0.3,2.7,0
			c5.1,1.8,10.4,5,14.1,7.9c3.5,2.7,3.4,6.5-1.3,11.3c-10.5,10.7-15.3,18.6-17.7,23.3c-1.5,2.9-2.2,5.3-1.8,8
			c0.5,3.1,2.6,3.2,4.7,0.5c7.1-9.2,13.8-17.3,30.2-28.5c7.3-5,6.8-9.4,2-13.5c-18.5-16-41.9-18.5-56.4-20.9
			c1.3-6.4,3.4-13.2,6.4-20.3c3.7-8.8,5.3-14.2,5.8-18.7c0.1-0.8-0.7-1.9-1.5-0.2c-1.3,2.7-7.3,14.8-11.2,21.8
			c-6.8-0.8-14.5-0.1-19.7,1.6c0.5-0.6,1.7-1.7,2.4-2.2c6.2-5.2,24.1-15.1,45.9-45.8c0.6-0.9,0.9-1.9,0.5-2.9L60,41.5
			c-0.4-0.7-1.4-1.1-2.2,0.1c-1.7,2.6-5.3,9.1-12.3,16.7c-0.1-2.3-1-4.7-1.4-6.1c-1.7-6.7-5.6-20.4,2.6-36.6
			c3.8-7.4,4.3-9.2-1.1-14.5C44.8,0.4,44,0,43.2,0C42.1,0,41.1,0.7,40.4,2.1"/>
	</defs>
	<clipPath id="SVGID_2_">
		<use xlink:href="#SVGID_1_"  style="overflow:visible;"/>
	</clipPath>
	
		<linearGradient id="SVGID_3_" gradientUnits="userSpaceOnUse" x1="-169.0712" y1="399.2138" x2="-167.0168" y2="399.2138" gradientTransform="matrix(0 81.8672 81.8672 0 -32635.8164 13849.3545)">
		<stop  offset="0" style="stop-color:#8DC21F"/>
		<stop  offset="0.2962" style="stop-color:#38B571"/>
		<stop  offset="0.5069" style="stop-color:#00ACA8"/>
		<stop  offset="0.603" style="stop-color:#018F9C"/>
		<stop  offset="0.8748" style="stop-color:#04427B"/>
		<stop  offset="1" style="stop-color:#05246E"/>
	</linearGradient>
	<rect x="-0.7" class="st2" width="94.9" height="182.6"/>
</g>
</svg>
