<?xml version="1.0" encoding="utf-8"?>
<!-- Generator: Adobe Illustrator 22.1.0, SVG Export Plug-In . SVG Version: 6.00 Build 0)  -->
<svg version="1.1" id="레이어_1" xmlns="http://www.w3.org/2000/svg" xmlns:xlink="http://www.w3.org/1999/xlink" x="0px"
	 y="0px" viewBox="0 0 455.8 95.7" style="enable-background:new 0 0 455.8 95.7;" xml:space="preserve">
<style type="text/css">
	.st0{fill:url(#SVGID_1_);}
</style>
<linearGradient id="SVGID_1_" gradientUnits="userSpaceOnUse" x1="349.5647" y1="-79.3576" x2="101.267" y2="168.94">
	<stop  offset="0" style="stop-color:#5FB6E7"/>
	<stop  offset="1" style="stop-color:#005EAB"/>
</linearGradient>
<path class="st0" d="M161.4,26.9h2.2v42.4h-10.2V52.2l-11.2,12.3l-11.2-12.3v17.1h-10.2V26.9h2.2l19.1,22.1L161.4,26.9z M179.1,69.3
	h10.7V26.9h-10.7V69.3z M231.1,49.4l-25.2-22.5h-2.4v42.4h10.7V46.9l25.1,22.3h2.3V26.9h-10.4V49.4z M287.2,60.2h-22.1v-8.9h19.6V43
	h-19.6v-7.7h22.1v-8.3h-22.1h-3.6h-6.3v42.4h6.3h3.6h22.1V60.2z M304,69.3h-2.7V26.9h2.7h2h10.9c12.9,0,13.7,8.9,13.7,10.7
	s-0.3,6.6-6.4,9.4c5.1,1.2,8.8,4,8.8,10.5s-3.8,11.8-16.1,11.8H306H304z M316.9,49.5H306v15.6h10.9c3.1,0,6,0,9.2-2.8
	c3.3-3.7,1.9-7.9,0-10.1C324.2,50.1,321.1,49.5,316.9,49.5z M306,31v14.3h10.9c4.3,0,5.5-1.1,7.2-3.1s1.3-5.3,0-7.5
	c-1.3-2.1-2.6-3.7-7.2-3.7H306z M425.5,26.9V31h12.7v38.2h5V31h12.7v-4.2H425.5z M375.4,65.1h-24.8V50.4h21.6v-4.2h-21.6V31h24.7
	v-4.2h-24.7h-2h-2.7v42.4h2.7h2h24.8V65.1z M402.3,50.5c3.3,0.7,10.5,2.1,10.5,7.2s-5.7,7.4-10.7,7.4c-5.1,0-6.9-0.9-9.6-2.5
	c-2.6-1.6-2.9-3.1-2.9-3.1l-3.3,5.2c0,0,2.6,2.7,5.6,3.8c4.4,1.6,14.1,3,20.5-1c5.5-3.4,7.1-8.7,5.2-14.2c-2.3-5.8-9.9-7.6-13.5-8.4
	s-5.7-1.2-9.4-2.7c-3.6-1.5-5.3-5.4-2.7-8.8c2.6-3.5,10.2-2.7,11-2.7s7.6,0.2,9.7,4.2c0,0,0.8-1.4,2.8-4.7c-1.3-1.4-4.6-3.9-7.9-4.2
	c-12.2-1.3-15.7,1.1-17.9,2.5s-7.3,7.5-3.5,13.8C390.1,48.7,399,49.8,402.3,50.5z M48.6,39.7c0.3-0.6,0.5-1.1-0.1-1.6
	c-0.7-0.8-0.7-1.7-0.2-2.5c0.4-0.8,0.9-1.5,1.4-2.2c0.4-0.5,0.3-0.9-0.1-1.3c-3.2-3.3-6.9-5.6-11.2-6.9c-1.4-0.4-4.3-0.7-4.4-1.2
	c-0.1-0.5,2.7-0.9,4-1c4.7-0.3,9.3,0.6,13.8,2.1c0.8,0.3,1.6,0.9,2.3,0.7c0.6-0.2,1-1.2,1.5-1.8c0.2-0.2,0.3-0.5,0.6-0.7
	c0.5-0.2,1-0.6,1.5-0.5c2.4,0.4,4.6,1.3,6.2,3.1c0.8,0.9,0.9,1.7,0.3,2.8c-0.4,0.7-0.8,1.5-1.2,2.1c0.1,0.1,0.1,0.2,0.2,0.2
	c0.2,0.1,0.4,0.3,0.6,0.4c5,3.5,8.5,8.1,10.6,13.8c0.3,0.7,1,3.3,0,2.2c-0.6-0.6-1.1-1.2-1.7-1.8c-3.6-3.6-7.7-6.3-12.6-7.8
	c-0.6-0.2-1-0.1-1.3,0.5c-0.3,0.7-0.7,1.4-1,2.1c-0.5,0.9-1.3,1.4-2.3,1.2c-1-0.2-1.4,0.3-1.8,1C47.8,53,42,63.4,36.2,73.7
	c-0.8,1.4-1.6,2.9-2.4,4.3c12.1,6.3,32.3,4.2,42.7-12.9c10.2-16.8,3.8-38.6-13.9-47.3C45.1,9.2,24,17.2,16.7,35.6
	c-3.5,9-3.1,17.9,0.9,26.7c2.4,5.2,6.1,9.5,10.8,12.8c0.3-0.4,0.4-0.7,0.6-1c3-5.2,5.9-10.4,8.9-15.6C41.5,52.3,45.1,46,48.6,39.7z
	 M68,14.5C48.6,2.8,23.4,10,13.1,30.2c-9.7,19.2-1.6,40.5,12.7,49.5c0.2-0.4,0.4-0.7,0.7-1.1c0.6-0.7,0.4-1.2-0.4-1.7
	c-12.5-9.4-17.7-25.5-13-40.2c6.2-19.1,26.1-29.6,45.4-23.7c18,5.4,29,23.8,24.9,42.7c-3.5,15.7-16.9,27.5-33.7,28.4
	c-5.5,0.3-10.7-0.6-15.8-2.7c-0.6-0.2-1.1-0.5-1.7-0.7c-0.4,0.8-0.8,1.4-1.1,2c12.9,7,35.6,5.9,48.7-12.7
	C92.7,51.7,87.2,26.2,68,14.5z M95.7,47.9c0,26.4-21.4,47.9-47.9,47.9S0,74.3,0,47.9S21.4,0,47.9,0S95.7,21.4,95.7,47.9z M91.9,48
	c0.1-24-19.5-44.2-44-44.1C23.6,3.7,3.9,23.6,3.8,47.7c-0.1,24.1,19.4,44,43.7,44.1C72.3,92,91.8,71.8,91.9,48z"/>
</svg>
