<?xml version="1.0" encoding="utf-8"?>
<!-- Generator: Adobe Illustrator 22.1.0, SVG Export Plug-In . SVG Version: 6.00 Build 0)  -->
<svg version="1.1" id="레이어_1" xmlns="http://www.w3.org/2000/svg" xmlns:xlink="http://www.w3.org/1999/xlink" x="0px"
	 y="0px" viewBox="0 0 500 189.5" style="enable-background:new 0 0 500 189.5;" xml:space="preserve">
<style type="text/css">
	.st0{fill:#494949;}
	.st1{fill:#FF1414;}
	.st2{fill:#646464;}
</style>
<g>
	<g>
		<g>
			<g>
				<path class="st0" d="M23.4,17.7c0-8.2-1.6-13.9-7-17.1c-0.9-0.5-1.8-0.8-2.7-0.2c-2,1.3-8,7.2-10.6,10.1C0.6,13.2,0,14.8,0,19.1
					v86.8c0,7.2,1.6,12.3,7,15.2c0.9,0.5,1.8,0.7,2.7,0.2c1.9-1.2,8-6.4,10.6-8.9c2.4-2.4,3.1-3.8,3.1-7.7V17.7z"/>
				<path class="st0" d="M177.6,17.7c0-8.2-1.6-13.9-7-17.1c-0.9-0.5-1.8-0.8-2.7-0.2c-1.9,1.3-8,7.2-10.6,10.1
					c-2.4,2.7-3.1,4.3-3.1,8.7v86.8c0,7.2,1.6,12.3,7,15.2c0.9,0.5,1.8,0.7,2.7,0.2c1.9-1.2,8-6.4,10.6-8.9c2.4-2.4,3.1-3.8,3.1-7.7
					V17.7z"/>
				<path class="st0" d="M126.5,65.7c6.8,3.5,10.9,7.5,10.9,13.9c0,1.1-0.2,2-1.2,2.6c-2.1,1.3-9.9,4.5-13.5,5.7
					c-3.4,1.1-5.1,1.1-8.7-0.8L53,56c-7.7-3.9-12.4-8.2-12.8-14.9c-0.1-1.1,0.1-2.1,1.1-2.6c2.2-1.2,10.7-4.1,14.6-5.1
					c3.7-1,5.6-0.8,9.7,1.3L126.5,65.7z"/>
				<path class="st0" d="M345.8,17.7c0-8.2-1.6-13.9-7-17.1c-0.9-0.5-1.8-0.8-2.7-0.2c-2,1.3-8,7.2-10.6,10.1
					c-2.4,2.7-3.1,4.3-3.1,8.7v86.8c0,7.2,1.6,12.3,7,15.2c0.9,0.5,1.8,0.7,2.7,0.2c1.9-1.2,8-6.4,10.6-8.9c2.4-2.4,3.1-3.8,3.1-7.7
					V17.7z"/>
				<path class="st0" d="M500,17.7c0-8.2-1.6-13.9-7-17.1c-0.9-0.5-1.8-0.8-2.7-0.2c-1.9,1.3-8,7.2-10.6,10.1
					c-2.4,2.7-3.1,4.3-3.1,8.7v86.8c0,7.2,1.6,12.3,7,15.2c0.9,0.5,1.8,0.7,2.7,0.2c2-1.2,8-6.4,10.6-8.9c2.4-2.4,3.1-3.8,3.1-7.7
					V17.7z"/>
				<path class="st0" d="M448.9,65.7c6.8,3.5,10.9,7.5,10.9,13.9c0,1.1-0.2,2-1.2,2.6c-2,1.3-9.9,4.5-13.5,5.7
					c-3.4,1.1-5.1,1.1-8.7-0.8l-61-31.1c-7.7-3.9-12.4-8.2-12.8-14.9c-0.1-1.1,0.1-2.1,1.1-2.6c2.2-1.2,10.7-4.1,14.6-5.1
					c3.7-1,5.6-0.8,9.7,1.3L448.9,65.7z"/>
				<path class="st1" d="M217.7,48.4c-4.6,0-6.3,0.7-9.2,3.3c-3,2.7-9.3,9.2-10.7,11.2c-0.7,1-0.4,1.9,0.2,2.9
					c3.4,5.7,9.5,7.4,18.1,7.4h66.2c4.6,0,6.3-0.7,9.2-3.3c3-2.7,9.3-9.1,10.7-11.2c0.7-1,0.4-1.9-0.2-2.9
					c-3.4-5.7-9.5-7.4-18.2-7.4H217.7z"/>
			</g>
		</g>
	</g>
	<g>
		<g>
			<g>
				<path class="st2" d="M49.1,189.5v-30.9h18.4v4.2H53.7v9.3h11.7v4.1H53.7v9.1h14.2v4.2H49.1z"/>
				<path class="st2" d="M98.3,189.5l-14.5-23.4v23.4h-4.7v-30.9h4.6l14.5,23.4v-23.4h4.7v30.9H98.3z"/>
				<path class="st2" d="M126.3,162.8v26.7h-4.7v-26.7h-8.4v-4.2h21.6v4.2H126.3z"/>
				<path class="st2" d="M145,189.5v-30.9h18.4v4.2h-13.8v9.3h11.6v4.1h-11.6v9.1h14.2v4.2H145z"/>
				<path class="st2" d="M193.1,189.5l-6.6-13h-6.8v13h-4.7v-30.9H189c3.8,0,6.6,3.1,6.6,6.9v4.2c0,3-1.7,5.5-4.2,6.4l6.9,13.4
					H193.1z M190.9,166.6c0-2.6-1.1-3.8-4-3.8h-7.2v9.6h7.2c2.9,0,4-1.2,4-3.8V166.6z"/>
				<path class="st2" d="M218.4,162.8v26.7h-4.7v-26.7h-8.4v-4.2h21.6v4.2H218.4z"/>
				<path class="st2" d="M252.9,181h-12.6l-2.9,8.5h-4.8l10.6-30.9h6.8l10.6,30.9h-4.8L252.9,181z M241.8,176.6h9.7l-4.6-13.6h-0.5
					L241.8,176.6z"/>
				<path class="st2" d="M272.3,189.5v-30.9h4.7v30.9H272.3z"/>
				<path class="st2" d="M309.8,189.5l-14.5-23.4v23.4h-4.7v-30.9h4.6l14.5,23.4v-23.4h4.7v30.9H309.8z"/>
				<path class="st2" d="M340.8,176.4l8-17.8h4.7v30.9h-4.7v-20.8h-0.2l-6.2,13.3h-3.8l-6.2-13.3h-0.2v20.8h-4.7v-30.9h4.7l8,17.8
					H340.8z"/>
				<path class="st2" d="M366.6,189.5v-30.9h18.5v4.2h-13.8v9.3H383v4.1h-11.6v9.1h14.2v4.2H366.6z"/>
				<path class="st2" d="M415.9,189.5l-14.5-23.4v23.4h-4.7v-30.9h4.6l14.5,23.4v-23.4h4.7v30.9H415.9z"/>
				<path class="st2" d="M443.9,162.8v26.7h-4.6v-26.7h-8.4v-4.2h21.5v4.2H443.9z"/>
			</g>
		</g>
	</g>
</g>
</svg>
