<?xml version="1.0" encoding="utf-8"?>
<!-- Generator: Adobe Illustrator 22.1.0, SVG Export Plug-In . SVG Version: 6.00 Build 0)  -->
<svg version="1.1" id="Layer_1" xmlns="http://www.w3.org/2000/svg" xmlns:xlink="http://www.w3.org/1999/xlink" x="0px" y="0px"
	 viewBox="0 0 775 267" style="enable-background:new 0 0 775 267;" xml:space="preserve">
<style type="text/css">
	.st0{fill:url(#SVGID_1_);}
	.st1{fill:#5A85E3;}
	.st2{fill:#5988E3;}
</style>
<g>
	<linearGradient id="SVGID_1_" gradientUnits="userSpaceOnUse" x1="-7.694261e-04" y1="120.6796" x2="278.3923" y2="120.6796">
		<stop  offset="0" style="stop-color:#36CFDA"/>
		<stop  offset="1" style="stop-color:#5B84E3"/>
	</linearGradient>
	<path class="st0" d="M60,202.3c0,7.4-1.3,14.5-3.8,21C24.8,209.7,0,189.3,0,164.8v-22.4C33.1,142.4,60,169.2,60,202.3z M0,71.1
		v53.3c43,0,77.9,34.9,77.9,77.9c0,9.6-1.8,18.9-5,27.4c17.4,5.9,35.8,9.8,52.5,11.2c3.8-12.2,5.8-25.2,5.8-38.6
		C131.2,129.9,72.5,71.1,0,71.1z M0-0.1v53.3c82.4,0,149.2,66.8,149.2,149.2c0,13.5-1.8,26.6-5.2,39.1c17.3-0.5,37.3-4.1,56.4-10
		c1.4-9.5,2.1-19.2,2.1-29.1C202.4,90.5,111.8-0.1,0-0.1z M87.2-0.1c78.3,33.8,133.2,111.7,133.2,202.4c0,7.5-0.4,14.9-1.1,22.3
		c32.7-13.6,59.1-34.5,59.1-59.8V-0.1H87.2z M0,142.4v22.4c0,24.5,24.8,44.9,56.2,58.5c2.5-6.5,3.8-13.6,3.8-21
		C60,169.2,33.1,142.4,0,142.4z M0,142.4v22.4c0,24.5,24.8,44.9,56.2,58.5c2.5-6.5,3.8-13.6,3.8-21C60,169.2,33.1,142.4,0,142.4z
		 M0,142.4v22.4c0,24.5,24.8,44.9,56.2,58.5c2.5-6.5,3.8-13.6,3.8-21C60,169.2,33.1,142.4,0,142.4z M0,71.1v53.3
		c43,0,77.9,34.9,77.9,77.9c0,9.6-1.8,18.9-5,27.4c17.4,5.9,35.8,9.8,52.5,11.2c3.8-12.2,5.8-25.2,5.8-38.6
		C131.2,129.9,72.5,71.1,0,71.1z M0,142.4v22.4c0,24.5,24.8,44.9,56.2,58.5c2.5-6.5,3.8-13.6,3.8-21C60,169.2,33.1,142.4,0,142.4z
		 M0,71.1v53.3c43,0,77.9,34.9,77.9,77.9c0,9.6-1.8,18.9-5,27.4c17.4,5.9,35.8,9.8,52.5,11.2c3.8-12.2,5.8-25.2,5.8-38.6
		C131.2,129.9,72.5,71.1,0,71.1z M0,142.4v22.4c0,24.5,24.8,44.9,56.2,58.5c2.5-6.5,3.8-13.6,3.8-21C60,169.2,33.1,142.4,0,142.4z
		 M0,71.1v53.3c43,0,77.9,34.9,77.9,77.9c0,9.6-1.8,18.9-5,27.4c17.4,5.9,35.8,9.8,52.5,11.2c3.8-12.2,5.8-25.2,5.8-38.6
		C131.2,129.9,72.5,71.1,0,71.1z M0-0.1v53.3c82.4,0,149.2,66.8,149.2,149.2c0,13.5-1.8,26.6-5.2,39.1c17.3-0.5,37.3-4.1,56.4-10
		c1.4-9.5,2.1-19.2,2.1-29.1C202.4,90.5,111.8-0.1,0-0.1z M0,142.4v22.4c0,24.5,24.8,44.9,56.2,58.5c2.5-6.5,3.8-13.6,3.8-21
		C60,169.2,33.1,142.4,0,142.4z M0,71.1v53.3c43,0,77.9,34.9,77.9,77.9c0,9.6-1.8,18.9-5,27.4c17.4,5.9,35.8,9.8,52.5,11.2
		c3.8-12.2,5.8-25.2,5.8-38.6C131.2,129.9,72.5,71.1,0,71.1z M0-0.1v53.3c82.4,0,149.2,66.8,149.2,149.2c0,13.5-1.8,26.6-5.2,39.1
		c17.3-0.5,37.3-4.1,56.4-10c1.4-9.5,2.1-19.2,2.1-29.1C202.4,90.5,111.8-0.1,0-0.1z"/>
	<g>
		<path class="st1" d="M355.9,97.9C345,87,339.6,73.6,339.6,57.5c0-16.1,5.4-29.6,16.3-40.5c10.8-10.8,24.3-16.3,40.5-16.3
			c16.1,0,29.6,5.4,40.5,16.3C447.6,27.9,453,41.4,453,57.5c0,16.1-5.4,29.6-16.3,40.5c-10.8,10.8-24.3,16.3-40.5,16.3
			C380.2,114.2,366.7,108.8,355.9,97.9z M396.4,93c10,0,18.2-3.4,24.5-10.2c6.3-6.8,9.5-15.2,9.5-25.3c0-10.1-3.2-18.5-9.5-25.3
			c-6.3-6.8-14.5-10.2-24.7-10.2c-10,0-18.2,3.4-24.5,10.2c-6.3,6.8-9.5,15.2-9.5,25.3c0,10.1,3.1,18.5,9.5,25.3
			C378,89.6,386.3,93,396.4,93z"/>
		<path class="st1" d="M489.3,66.1v48.1h-21.2V40.8l21.2-2.3v6.9c5.1-4.5,11.1-6.8,18.1-6.8c9.6,0,16.9,2.9,21.9,8.7
			c5,5.8,7.6,12.5,7.6,20v46.9h-21.2V72.6c0-5-1.3-8.9-3.8-11.7c-2.5-2.8-6.3-4.2-11.4-4.4C496.2,56.8,492.5,60,489.3,66.1z"/>
		<path class="st1" d="M575.9,66.1v48.1h-21.2V40.8l21.2-2.3v6.9c5.1-4.5,11.1-6.8,18.1-6.8c9.6,0,16.9,2.9,21.9,8.7
			c5,5.8,7.6,12.5,7.6,20v46.9h-21.2V72.6c0-5-1.3-8.9-3.8-11.7c-2.5-2.8-6.3-4.2-11.4-4.4C582.8,56.8,579,60,575.9,66.1z"/>
		<path class="st1" d="M637.3,76.4c0-11.1,3.5-20.2,10.6-27.2c7.1-7.1,16.1-10.6,27.2-10.6c11.1,0,19.9,3.5,26.5,10.6
			c6.6,7.1,9.8,16.1,9.8,27.2V84h-52.2c0.5,4,2.3,7.2,5.3,9.5c3,2.3,6.6,3.4,10.6,3.4c7.1,0,13.4-2,18.9-6l12.1,12.1
			c-5.5,7.6-15.9,11.3-31,11.3c-11.1,0-20.2-3.5-27.2-10.6C640.8,96.6,637.3,87.5,637.3,76.4z M685.7,59.4c-3-2.3-6.6-3.4-10.6-3.4
			c-4,0-7.6,1.1-10.6,3.4c-3,2.3-4.5,5.4-4.5,9.5h30.2C690.2,64.8,688.7,61.6,685.7,59.4z"/>
		<path class="st1" d="M762.2,114.2c-8.6,0-15.4-2.4-20.4-7.2c-5-4.8-7.6-11-7.6-18.5V55.7h-11.3V38.7h11.3V18.2l21.2-2.3v22.8h11.3
			v17.1h-11.3v29.7c0,4,0.8,6.9,2.5,8.5c1.7,1.6,3.9,2.5,6.5,2.5c0.8,0,2.7-0.3,5.7-1l4.5,15.2C771.1,113,766.9,114.2,762.2,114.2z"
			/>
	</g>
	<g>
		<path class="st2" d="M346.4,217.2c0.6-0.8,1.6-2.8,2-3.5c0.7-1.1,2.3-1.4,3.8-0.4c0,0,6.1,4.9,13.3,4.9c5.8,0,9.2-3,9.2-6.8
			c0-4.9-4.2-7.2-12.4-11.3c-7.5-3.7-16.1-8.6-16.1-18.2c0-5.9,4.8-14.7,17.9-14.7c7.3,0,13,2.5,15.7,4.4c1.3,0.8,1.7,2.8,0.8,4.4
			l-1.1,2.3c-0.8,1.6-2.8,2-4.1,1.3c0,0-6.1-3.4-11.3-3.4c-6.4,0-8.1,3.2-8.1,5.6c0,4.7,4.7,6.8,10.5,9.6c9.7,4.7,18.5,9,18.5,19.2
			c0,8.2-7.9,16-19.5,16c-9.5,0-15.3-4-18.4-6.4C346.4,219.6,346,218.2,346.4,217.2z"/>
		<path class="st2" d="M392,171.7c-0.8-1.8,0-3.1,2.1-3.1h6.2c1.1,0,2,0.7,2.4,1.6l20.9,43.2h0.1l19.8-43.2c0.4-0.8,1.4-1.6,2.4-1.6
			h5.4c2.1,0,3.1,1.4,2.1,3.2l-43.4,93.9c-0.4,0.8-1.4,1.7-2.4,1.7h-5.2c-2.1,0-3.2-1.6-2.3-3.5l18.1-39L392,171.7z"/>
		<path class="st2" d="M462.5,217.2c0.6-0.8,1.6-2.8,2-3.5c0.7-1.1,2.3-1.4,3.8-0.4c0,0,6.1,4.9,13.3,4.9c5.8,0,9.2-3,9.2-6.8
			c0-4.9-4.2-7.2-12.4-11.3c-7.5-3.7-16.1-8.6-16.1-18.2c0-5.9,4.8-14.7,17.9-14.7c7.3,0,13,2.5,15.7,4.4c1.3,0.8,1.7,2.8,0.8,4.4
			l-1.1,2.3c-0.8,1.6-2.8,2-4.1,1.3c0,0-6.1-3.4-11.3-3.4c-6.4,0-8,3.2-8,5.6c0,4.7,4.7,6.8,10.5,9.6c9.7,4.7,18.5,9,18.5,19.2
			c0,8.2-7.9,16-19.5,16c-9.5,0-15.3-4-18.4-6.4C462.5,219.6,462.1,218.2,462.5,217.2z"/>
		<path class="st2" d="M519.8,177.1h-7.2c-1.6,0-2.7-1.3-2.7-2.7v-3.1c0-1.6,1.1-2.7,2.7-2.7h7.2V153c0-1.4,1.3-2.7,2.7-2.7l4.5-0.3
			c1.4,0,2.5,1.3,2.5,2.7v16H546c1.6,0,2.7,1.1,2.7,2.7v3.1c0,1.4-1.1,2.7-2.7,2.7h-16.4v33c0,5.6,1.4,6.8,4.7,6.8
			c3.5,0,8.5-2.1,10.3-3.1c2.1-1.1,2.7-0.3,3.4,0.8l2.1,3.5c1,1.7,0.6,2.5-1,3.5c-2,1.3-9.6,4.8-16.2,4.8c-11.3,0-13-6.8-13-15.5
			V177.1z"/>
		<path class="st2" d="M588,167.2c14.8,0,25.6,11,25.6,25.8c0,1-0.1,2.8-0.3,3.8c-0.1,1.4-1.3,2.4-2.5,2.4h-40.7
			c0.6,9.5,8.9,18.4,18.9,18.4c5.9,0,10.7-2.3,14-4.2c2-1.1,2.8-1.8,4-0.3c0.8,1.1,1.6,2.1,2.4,3.2c1,1.3,1.6,2.1-0.6,3.7
			c-3.4,2.7-11,6.5-20.8,6.5c-17.1,0-27.7-13.4-27.7-29.7C560.4,180.9,571,167.2,588,167.2z M603.9,191.4
			c-0.4-8.2-7.2-15.5-15.8-15.5c-9.5,0-16.8,6.8-17.8,15.5H603.9z"/>
		<path class="st2" d="M629,171.3c0-1.4,1.3-2.7,2.7-2.7h2.7c1.3,0,2,0.6,2.3,1.7l1.3,4.4c0,0,6.6-7.5,18.4-7.5
			c8.3,0,14.4,3.2,18.1,9.2c0.7-0.6,9.7-9.2,21-9.2c16.4,0,21.9,10.7,21.9,25.4v29.8c0,1.4-1.3,2.7-2.7,2.7h-4.5
			c-1.4,0-2.7-1.3-2.7-2.7v-29.8c0-10.6-4.5-16-12.7-16c-9.2,0-15.3,6.1-17.2,7.9c0.4,2.4,0.7,5.1,0.7,8v29.8c0,1.4-1.3,2.7-2.7,2.7
			h-4.5c-1.4,0-2.7-1.3-2.7-2.7v-29.8c0-10.7-4.8-16-13.4-16c-10,0-16.1,8-16.1,8v37.7c0,1.4-1.3,2.7-2.7,2.7h-4.4
			c-1.4,0-2.7-1.3-2.7-2.7V171.3z"/>
		<path class="st2" d="M733.2,217.2c0.6-0.8,1.6-2.8,2-3.5c0.7-1.1,2.3-1.4,3.8-0.4c0,0,6.1,4.9,13.3,4.9c5.8,0,9.2-3,9.2-6.8
			c0-4.9-4.2-7.2-12.4-11.3c-7.5-3.7-16.1-8.6-16.1-18.2c0-5.9,4.8-14.7,17.9-14.7c7.3,0,13,2.5,15.7,4.4c1.3,0.8,1.7,2.8,0.8,4.4
			l-1.1,2.3c-0.8,1.6-2.8,2-4.1,1.3c0,0-6.1-3.4-11.3-3.4c-6.4,0-8,3.2-8,5.6c0,4.7,4.7,6.8,10.5,9.6c9.7,4.7,18.5,9,18.5,19.2
			c0,8.2-7.9,16-19.5,16c-9.5,0-15.3-4-18.4-6.4C733.2,219.6,732.8,218.2,733.2,217.2z"/>
	</g>
</g>
</svg>
