<?xml version="1.0" encoding="utf-8"?>
<!-- Generator: Adobe Illustrator 22.1.0, SVG Export Plug-In . SVG Version: 6.00 Build 0)  -->
<svg version="1.1" id="레이어_1" xmlns="http://www.w3.org/2000/svg" xmlns:xlink="http://www.w3.org/1999/xlink" x="0px"
	 y="0px" viewBox="0 0 633.6 126.2" style="enable-background:new 0 0 633.6 126.2;" xml:space="preserve">
<style type="text/css">
	.st0{fill:#FF9400;}
</style>
<g>
	<path class="st0" d="M145.1,13.2h42.3c4.9,0,9,4,9,9l0,19.2c0,4.9-4,9-9,9h-32.1v26.9h-10.3L145.1,13.2z M186.2,23.5h-30.8v16.7
		h30.8L186.2,23.5z"/>
	<path class="st0" d="M246.2,77.3h-35.9c-4.9,0-9-4-9-9l0-9c0-4.9,4-9,9-9h26.9v-7.7H209v-9h28.2c4.9,0,9,4,9,9L246.2,77.3z
		 M237.2,59.4h-26.9l0,9h26.9L237.2,59.4z"/>
	<path class="st0" d="M271.4,75.7l-18.6-42.1h10.3l13.1,29.6l11.3-29.6h10.3l-21.6,56.4c-1.4,3.5-3.6,5.1-7.9,5.1h-9V84.9h8.6
		L271.4,75.7z"/>
	<path class="st0" d="M312.5,68.3h33.3v9h-33.3c-4.9,0-9-4-9-9V42.7c0-4.9,4-9,9-9h26.9c4.9,0,9,4,9,9v7.7c0,4.9-4,9-9,9h-26.9
		L312.5,68.3z M312.5,50.4h26.9v-7.7h-26.9L312.5,50.4z"/>
	<path class="st0" d="M382.3,55.5L399,77.3h-11.5l-10.9-14.3l-10.9,14.3h-11.5l16.7-21.8l-16.7-21.8h11.5L376.5,48l10.9-14.3H399
		L382.3,55.5z"/>
	<path class="st0" d="M450.8,42.7v25.7c0,4.9-4,9-9,9h-26.9v18h-9l0-61.6h35.9C446.8,33.7,450.8,37.8,450.8,42.7z M441.8,42.7h-26.9
		l0,25.7h26.9V42.7z"/>
	<path class="st0" d="M460.2,42.7c0-4.9,4-9,9-9h11.5v9h-11.5v34.6h-9V42.7z"/>
	<path class="st0" d="M494.3,68.3h33.3v9h-33.3c-4.9,0-9-4-9-9V42.7c0-4.9,4-9,9-9h26.9c4.9,0,9,4,9,9v7.7c0,4.9-4,9-9,9h-26.9
		L494.3,68.3z M494.3,50.4h26.9v-7.7h-26.9L494.3,50.4z"/>
	<path class="st0" d="M582.4,68.3c0,4.9-4,9-9,9h-34.6v-9h34.6v-9h-25.7c-4.9,0-9-4-9-9v-7.7c0-4.9,4-9,9-9l25.7,0v9l-25.7,0v7.7
		l25.7,0c4.9,0,9,4,9,9V68.3z"/>
	<path class="st0" d="M633.6,68.3c0,4.9-4,9-9,9H590v-9h34.6v-9H599c-4.9,0-9-4-9-9v-7.7c0-4.9,4-9,9-9l25.7,0v9l-25.7,0v7.7l25.7,0
		c4.9,0,9,4,9,9V68.3z"/>
</g>
<path class="st0" d="M22.5,36.3L34.4,57h26v-0.1c2.5-0.1,5-1,6.9-2.9c4-4,4-10.6,0-14.6c-1.9-1.9-4.4-2.8-6.9-2.9v-0.1H22.5z M0,0
	l11.7,20.2H27h35.7h2.6v0.3c6,0.5,11.8,2.9,16.4,7.5C92,38.4,92,55.1,81.7,65.5c-4.6,4.6-10.4,7.1-16.4,7.6v0.1h-0.8
	c-0.9,0-1.8,0-2.7,0H40.5l0.3,0.3l-0.3-0.1L31.9,100L47,126.2l11.1-34.3c13.6,2,28-2.2,38.5-12.9c17.7-18.1,17.7-47.4,0-65.4
	C87.7,4.5,76.1,0,64.5,0c-0.6,0-1.2,0.1-1.8,0.2V0H0z"/>
</svg>
