<?xml version="1.0" encoding="utf-8"?>
<!-- Generator: Adobe Illustrator 22.1.0, SVG Export Plug-In . SVG Version: 6.00 Build 0)  -->
<svg version="1.1" id="레이어_1" xmlns="http://www.w3.org/2000/svg" xmlns:xlink="http://www.w3.org/1999/xlink" x="0px"
	 y="0px" viewBox="0 0 283.5 86.4" style="enable-background:new 0 0 283.5 86.4;" xml:space="preserve">
<g>
	<path d="M37.5,0C60.9,0.1,78,20.4,74.3,43.9c-0.4,2.3,0.1,3.7,1.9,5.2c9.2,7.7,10.1,20.6,2.3,30.2c-6.9,8.4-20.2,9.5-29.1,2.5
		c-1.5-1.1-2.9-2.4-3.7-4c-1.4-2.7-3.4-3.2-6.2-3C19.9,76.2,3.8,61.6,0.6,44.5C-3.7,21.3,14-0.1,37.5,0z M65.4,38.2
		C65.5,22,53.2,9.4,37.4,9.5C25.1,9.6,15,16.8,11,28.3c-4,11.4-0.5,23.5,9,31.1c5,4,10.8,6,17.2,6.3c2.5,0.1,4.2-0.3,4.6-3.7
		c1.2-10.1,9.9-17.6,20.2-17.7c2.6,0,3.5-1.1,3.4-3.5C65.4,39.9,65.4,39,65.4,38.2z M62.6,76.8c6.7,0,11.7-5,11.7-11.7
		c0-6.2-5.5-11.8-11.6-11.7c-6.5,0-11.5,5.1-11.6,11.6C51,71.8,55.8,76.8,62.6,76.8z"/>
	<path d="M155.7,40.6c0-5.3,0-10.7,0-16c0-2.7,1-3.8,3.8-3.7c4.5,0.2,9.1,0,13.7,0.1c5.6,0.1,10.2,3.5,11.8,8.7
		c1.6,5-0.3,10.3-5,13.4c-2.1,1.4-2.1,2.4-0.9,4.3c1.9,3.1,3.5,6.4,5.3,9.7c1.1,2,0.6,3.1-1.8,3.2c-4.7,0.3-5.7-0.2-7.8-4.4
		c-1.3-2.5-2.5-5-3.8-7.5c-0.5-1-1.1-2-2.2-2.7c-2.6-1.6-4.7-0.5-4.8,2.6c0,2.8-0.1,5.6,0,8.4c0.1,2.9-1.2,3.7-3.9,3.6
		c-3.8-0.1-4.3-0.4-4.4-3.7C155.7,51.3,155.7,45.9,155.7,40.6z M169.6,38.4c0.8,0,1.5,0,2.3,0c3.3-0.1,5.5-2.2,5.6-5.1
		c0.1-2.6-2.2-4.8-5.3-5.1c-1.2-0.1-2.5,0-3.8,0c-4.5,0-4.5,0-4.5,4.4C164,39.1,163.3,38.4,169.6,38.4z"/>
	<path d="M131.9,35.7c-0.2,3.6,0.4,7.9-0.4,12.3c-1.4,7.9-8.2,13.2-16.5,12.8c-7.7-0.4-14.2-6.5-14.6-14.3
		c-0.3-7.5-0.1-15.1-0.1-22.7c0-1.5,0.4-2.7,2.2-2.8c2.2-0.2,4.3,0,5.5,2.3c0.6,1.3,0.7,2.8,0.7,4.3c0,5.6,0,11.2,0,16.9
		c0,5.2,3,8.5,7.5,8.4c4.5,0,7.4-3.4,7.4-8.6c0-5.8,0-11.6,0.1-17.4c0-1.1,0-2.2,0.4-3.1c1-2.7,3.3-3,5.7-2.7
		c2.4,0.3,2.1,2.2,2.1,3.8C131.9,28.2,131.9,31.6,131.9,35.7z"/>
	<path d="M236.2,60.2c-2.6,0.3-4.3-1.2-5.1-3.8c-0.8-2.5-2.3-3.5-5-3.3c-3.1,0.2-6.2,0.2-9.3,0c-2.2-0.1-3.5,0.6-4.4,2.7
		c-1.6,4-2.7,4.5-6.9,4.3c-2.3-0.1-3-1-2-3.1c2.4-5.3,4.9-10.6,7.3-15.8c2.8-6.2,5.7-12.3,8.5-18.5c0.5-1,0.8-2.3,2.3-2.3
		c1.4,0,1.9,1.2,2.4,2.2c5.2,11.3,10.3,22.5,15.5,33.8C240.9,59.6,240.3,60.3,236.2,60.2z M221.6,35.6c-1,2.1-1.6,3.4-2.1,4.7
		c-2.7,6.2-4.3,5.9,4.3,5.8c0.2,0,0.4,0,0.6,0c1.3-0.1,1.7-0.8,1.1-2C224.3,41.5,223.1,38.9,221.6,35.6z"/>
	<path d="M270,60.8c-3.8,0-7.3-1.1-10.4-3.2c-1.1-0.7-2.5-1.5-1.9-3.2c0.6-1.6,1.5-2.9,3.4-3.2c1.4-0.2,2.7,0.1,3.9,0.8
		c1.6,0.9,3.3,1.6,5.2,1.6c2.1,0,3.6-0.9,4.3-2.8c0.7-1.9-0.3-3.5-1.8-4.5c-1.4-1-3-1.7-4.6-2.5c-1.6-0.9-3.3-1.6-4.9-2.6
		c-4.6-2.8-6.6-7.4-5.5-12.1c1.2-4.9,5.1-8.1,10.4-8.6c4.1-0.4,7.9,0.5,11.4,2.5c1.4,0.8,3.2,1.6,2,3.8c-1.1,2-2.6,3.5-5.1,2.9
		c-1-0.2-2-0.8-2.9-1.2c-1.3-0.6-2.6-0.9-3.9-0.8c-1.8,0.1-3.3,0.6-3.8,2.5c-0.5,1.9,0.3,3.5,1.9,4.4c1.8,1,3.6,1.9,5.4,2.8
		c1.3,0.7,2.6,1.2,3.9,2c5.2,3.2,7.3,7.7,6,13c-1.1,4.6-6,8.2-11.6,8.5C271,60.8,270.5,60.8,270,60.8z"/>
</g>
</svg>
