<?xml version="1.0" encoding="utf-8"?>
<!-- Generator: Adobe Illustrator 22.1.0, SVG Export Plug-In . SVG Version: 6.00 Build 0)  -->
<svg version="1.1" id="Layer_1" xmlns="http://www.w3.org/2000/svg" xmlns:xlink="http://www.w3.org/1999/xlink" x="0px" y="0px"
	 viewBox="0 0 228.8 58.2" style="enable-background:new 0 0 228.8 58.2;" xml:space="preserve">
<style type="text/css">
	.st0{fill:#221E1F;}
</style>
<g>
	<path class="st0" d="M108.8,55.2H75.2c-1.9,0-3.5-0.5-4.7-1.6s-1.8-2.5-1.8-4.2v-6.9h29.6v-3H67.9V34h15.2v-3.3H60.4v-5.6h54.1v5.6
		h-22V34h15.3v13.1H78v2.7h30.7v5.4H108.8z M99,3.5c3.1,2.3,4.6,5.1,4.6,8.4s-1.5,6.1-4.6,8.3c-3.1,2.3-6.8,3.4-11.3,3.4
		c-4.4,0-8.2-1.1-11.2-3.4c-3.1-2.3-4.6-5.1-4.6-8.3c0-3.3,1.5-6.1,4.6-8.4S83.3,0,87.7,0C92.1,0,95.9,1.2,99,3.5z M82.9,6.8
		c-1.3,1.4-2,3.1-2,5.1c0,1.9,0.7,3.6,2,5.1s2.9,2.2,4.8,2.2s3.5-0.7,4.8-2.2s2-3.1,2-5.1c0-1.9-0.7-3.6-2-5.1
		c-1.3-1.4-2.9-2.2-4.8-2.2C85.8,4.7,84.2,5.4,82.9,6.8z"/>
	<path class="st0" d="M158,2.7h9.3v30.2H158v-6.7h-11.5v-4.9H158V15h-9.3c-1.6,5.5-4.9,9.8-9.8,13c-4.9,3.2-10.2,4.8-15.6,4.9
		l-5.2-3.4c6.4-0.4,11.6-2.3,15.6-5.6c4-3.3,6.1-8,6.1-13.9V9.3h-18V4.4h28v4.3c0,0.2,0,0.5,0,0.7c0,0.3,0,0.5-0.1,0.7h8.4L158,2.7
		L158,2.7z M160.6,36.5c3.1,2.5,4.6,5.4,4.6,9c0,3.5-1.5,6.5-4.6,9s-6.8,3.7-11.1,3.7s-8-1.2-11.1-3.7s-4.6-5.4-4.6-9
		c0-3.5,1.5-6.5,4.6-9c3.1-2.4,6.8-3.7,11.1-3.7C153.9,32.8,157.5,34,160.6,36.5z M145,40.1c-1.2,1.5-1.9,3.3-1.9,5.4
		c0,2,0.6,3.8,1.9,5.3c1.2,1.5,2.8,2.3,4.6,2.3c1.7,0,3.2-0.8,4.5-2.3c1.2-1.5,1.9-3.3,1.9-5.3s-0.6-3.8-1.9-5.4
		c-1.2-1.5-2.7-2.3-4.5-2.3C147.7,37.8,146.2,38.5,145,40.1z"/>
	<path class="st0" d="M23.7,5.2v10.7c0,2.2,0.3,4.4,0.9,6.6s1.4,4.3,2.6,6.1c1.2,1.9,2.7,3.5,4.5,4.9s3.9,2.4,6.4,2.9l-2,3.1
		c-0.4,0.6-0.8,1-1.2,1.2s-0.8,0.4-1.2,0.5s-0.8,0.1-1.2,0s-0.7-0.2-1-0.3c-1.2-0.4-2.4-1-3.7-1.7c-1.3-0.8-2.5-1.7-3.6-2.7
		s-2.1-2.1-3-3.4c-0.9-1.2-1.5-2.4-1.9-3.7c-0.6,1.5-1.4,3-2.5,4.4s-2.2,2.6-3.4,3.7s-2.4,2-3.6,2.8s-2.2,1.3-3.1,1.6
		c-0.4,0.1-0.8,0.2-1.2,0.3s-0.9,0.1-1.3,0S3.4,41.9,3,41.7c-0.4-0.3-0.8-0.7-1.1-1.3L0,37.3c2.3-0.8,4.3-1.9,6.1-3.2
		c1.7-1.4,3.2-3,4.4-4.9s2.1-3.9,2.7-6.2c0.6-2.2,0.9-4.6,0.9-7.2V5.2H23.7z M31.3,17.7h12.2V3h9.2v47.3c0,1.1-0.3,2-0.9,2.8
		c-0.6,0.8-1.7,1.2-3.1,1.2h-6.3c0.4-0.2,0.7-0.5,0.9-0.9s0.3-0.9,0.3-1.7V22.9H31.3V17.7z"/>
	<path class="st0" d="M195.9,10.7v6.1c0,2.2,0.1,4.2,0.4,6.1c0.3,1.9,0.9,3.7,1.7,5.3c0.8,1.6,2,3.1,3.6,4.5
		c1.5,1.3,3.5,2.5,5.9,3.5l-2.1,3.2c-0.3,0.5-0.7,0.9-1.1,1.1c-0.4,0.2-0.8,0.3-1.2,0.3s-0.8-0.1-1.2-0.2c-0.4-0.1-0.7-0.3-1-0.4
		c-0.8-0.4-1.7-1-2.6-1.6c-0.9-0.6-1.8-1.4-2.6-2.1c-0.8-0.8-1.6-1.6-2.3-2.6c-0.7-0.9-1.3-1.9-1.8-3c-0.5,1.1-1.1,2.1-1.8,3.1
		c-0.8,1-1.6,2-2.5,2.9s-1.9,1.7-2.9,2.4c-1,0.7-2,1.3-3,1.8c-0.4,0.2-0.7,0.3-1.1,0.4c-0.4,0.1-0.7,0.1-1.1,0
		c-0.4-0.1-0.7-0.3-1.1-0.5c-0.4-0.3-0.7-0.7-1.1-1.2l-2-3c2.3-0.9,4.3-2.1,5.8-3.5s2.7-3,3.6-4.7c0.9-1.7,1.5-3.6,1.9-5.6
		s0.6-4.1,0.6-6.3v-6.1h-9.5V5.4h27.9v5.2L195.9,10.7L195.9,10.7z M200.3,18.7h8.4v-16h7.8V46c0,1.1-0.3,2-0.9,2.8
		c-0.6,0.8-1.6,1.2-3.1,1.2h-5.2c0.4-0.2,0.7-0.5,0.9-0.9c0.3-0.4,0.4-0.9,0.4-1.7V23.9h-8.4v-5.2H200.3z M228.8,2.7v47.9
		c0,1.1-0.3,2-0.9,2.8c-0.6,0.8-1.6,1.2-3.1,1.2h-5.9c0.4-0.2,0.7-0.5,0.9-0.9s0.3-0.9,0.3-1.7V2.7H228.8z"/>
</g>
</svg>
