<?xml version="1.0" encoding="utf-8"?>
<!-- Generator: Adobe Illustrator 22.1.0, SVG Export Plug-In . SVG Version: 6.00 Build 0)  -->
<svg version="1.1" id="레이어_1" xmlns="http://www.w3.org/2000/svg" xmlns:xlink="http://www.w3.org/1999/xlink" x="0px"
	 y="0px" viewBox="0 0 164 46.3" style="enable-background:new 0 0 164 46.3;" xml:space="preserve">
<style type="text/css">
	.st0{fill:#231815;}
	.st1{fill:#C2002F;}
	.st2{fill:#0080C8;}
	.st3{fill:#00933B;}
</style>
<g>
	<path class="st0" d="M69.5,39.6c0,2.6-0.9,4.6-2.7,5.9c-1.8,1.3-4.3,1.9-7.4,1.9c-0.6,0-1.2,0-1.8-0.1c-0.6-0.1-1.2-0.2-1.8-0.3
		c-0.6-0.1-1.2-0.2-1.7-0.4c-0.6-0.1-1.1-0.3-1.6-0.4v-3.9c0.3,0.1,0.7,0.3,1.1,0.5c0.4,0.2,1,0.4,1.6,0.5c0.6,0.2,1.3,0.3,2,0.4
		c0.8,0.1,1.6,0.2,2.5,0.2c0.7,0,1.3-0.1,2-0.2c0.6-0.1,1.2-0.3,1.7-0.7c0.5-0.3,0.9-0.7,1.2-1.2c0.3-0.5,0.5-1.1,0.5-1.8
		c0-0.7-0.1-1.3-0.4-1.8c-0.3-0.5-0.6-0.9-1.1-1.3c-0.4-0.4-0.9-0.7-1.5-0.9c-0.5-0.3-1.1-0.5-1.6-0.8c-0.9-0.4-1.8-0.8-2.7-1.3
		c-1-0.5-1.9-1.1-2.7-1.7c-0.8-0.6-1.5-1.3-2.1-2.1c-0.5-0.8-0.8-1.7-0.8-2.8c0-2.4,0.8-4.2,2.5-5.3c1.6-1.1,3.8-1.7,6.3-1.7
		c0.6,0,1.2,0,1.8,0.1c0.6,0.1,1.2,0.2,1.8,0.3c0.6,0.1,1.1,0.3,1.6,0.4c0.5,0.1,1,0.3,1.4,0.3v4c-0.7-0.3-1.6-0.7-2.8-1
		c-1.2-0.3-2.6-0.5-4.1-0.6c-1.2,0-2.3,0.3-3.1,0.8c-0.8,0.5-1.2,1.3-1.2,2.4c0,0.5,0.1,1,0.3,1.3c0.2,0.4,0.5,0.7,0.9,1
		c0.4,0.3,0.8,0.6,1.3,0.8c0.5,0.2,1,0.5,1.5,0.8l2.7,1.3c0.6,0.4,1.2,0.7,1.9,1.1c0.7,0.4,1.4,0.8,2,1.3c0.6,0.5,1.1,1.2,1.6,2
		C69.3,37.4,69.5,38.4,69.5,39.6z"/>
	<path class="st0" d="M88.7,47H73.3V20.7h15v3.5h-11v7.3h10.6V35H77.3v8.5h11.4V47z"/>
	<path class="st0" d="M115.1,33.7c0,1.8-0.2,3.6-0.7,5.2c-0.5,1.6-1.2,3.1-2.1,4.3c-1,1.2-2.2,2.2-3.7,3c-1.5,0.7-3.3,1.1-5.5,1.1
		c-2,0-3.7-0.3-5.2-1c-1.5-0.7-2.8-1.7-3.8-2.9c-1-1.2-1.8-2.7-2.3-4.3c-0.5-1.7-0.8-3.5-0.8-5.4c0-1.8,0.3-3.5,0.8-5.1
		c0.5-1.6,1.3-3.1,2.3-4.3c1-1.2,2.2-2.2,3.8-3c1.5-0.7,3.2-1.1,5.2-1.1c2,0,3.7,0.3,5.2,1c1.5,0.7,2.8,1.7,3.8,2.9
		c1,1.2,1.8,2.6,2.3,4.3C114.8,30.1,115.1,31.8,115.1,33.7z M111.1,33.7c0-1.4-0.2-2.7-0.5-3.9c-0.3-1.2-0.8-2.3-1.5-3.2
		c-0.7-0.9-1.5-1.6-2.5-2.2c-1-0.5-2.2-0.8-3.6-0.8c-1.2,0-2.3,0.3-3.3,0.8c-1,0.5-1.8,1.2-2.5,2.1c-0.7,0.9-1.2,2-1.6,3.2
		c-0.4,1.2-0.5,2.6-0.5,4c0,1.4,0.2,2.7,0.5,3.9c0.3,1.2,0.8,2.3,1.4,3.3c0.7,1,1.5,1.7,2.5,2.3c1,0.6,2.2,0.9,3.6,0.9
		c1.3,0,2.5-0.3,3.5-0.8c1-0.5,1.8-1.3,2.5-2.2c0.7-0.9,1.2-2,1.5-3.3C110.9,36.5,111.1,35.2,111.1,33.7z"/>
	<path class="st0" d="M138.1,37.1c0,1.1-0.1,2.2-0.4,3.4c-0.3,1.2-0.8,2.3-1.5,3.3c-0.7,1-1.7,1.9-3,2.5c-1.3,0.7-2.8,1-4.8,1
		c-2,0-3.6-0.3-4.8-1c-1.3-0.7-2.2-1.5-2.9-2.5c-0.7-1-1.2-2.1-1.4-3.3c-0.3-1.2-0.4-2.4-0.4-3.5V20.7h4.1V37c0,0.9,0.1,1.7,0.2,2.5
		c0.1,0.8,0.4,1.6,0.8,2.2c0.4,0.7,1,1.2,1.7,1.6c0.7,0.4,1.6,0.6,2.7,0.6c1.1,0,2-0.2,2.7-0.6c0.7-0.4,1.3-0.9,1.7-1.6
		c0.4-0.7,0.7-1.4,0.9-2.2c0.2-0.8,0.3-1.7,0.3-2.5V20.7h4.1V37.1z"/>
	<path class="st0" d="M159.5,46.9h-15.9V20.7h4.1v22.7h11.8V46.9z"/>
</g>
<g>
	<path class="st1" d="M29.3,6.3c0.1,0.1,0.2,0.3,0.2,0.4c0.1,0.4,0.5,0.7,0.6,1.1c0,0.1,0.2,0.2,0.3,0.3c0.1,0.1,0,0.3,0.2,0.5
		c0.1,0.1,0,0.2,0,0.3C30.7,8.9,30.8,9,30.9,9c0.8,1.3,0.9,2.9-0.1,4.3c-0.2,0.2-0.3,0.4-0.4,0.6c-0.1,0.1-0.2,0.2-0.3,0.2
		c0,0.1,0.1,0.2,0.2,0.3c-0.4,0.1-0.5,0.5-0.8,0.7c-0.1,0-0.3,0-0.3,0c-0.2,0.2-0.5,0.3-0.7,0.5c-0.1,0.1-0.1,0.3,0,0.4
		c-0.4,0.3-1,0.5-1.6,0.5c-0.1,0-0.1,0.2-0.2,0.2c-0.4,0-1,0-1.4,0.1c-0.2-0.1-0.3-0.2-0.5-0.2c-0.2,0-0.3,0-0.5,0
		c-0.3-0.2-0.6-0.2-0.9-0.3c-0.2-0.1-0.5,0.1-0.7,0c-0.6-0.5-1.2-1-1.5-1.6c-0.2-0.3-0.6-0.4-0.7-0.8c0-0.1,0-0.4-0.1-0.4
		C19.9,13.4,20,13.2,20,13c-0.1-0.2-0.1-0.3-0.3-0.5c-0.1-0.2,0-0.5-0.1-0.8c0-0.1,0.1-0.1,0.1-0.2c-0.1-0.4,0.1-0.9,0-1.2
		c0-0.2,0-0.5,0.1-0.7c0.2-0.4,0.4-1,0.8-1.4c0-0.1,0-0.2,0-0.3c0.1-0.1,0.2-0.1,0.2-0.2c0.1-0.4,0.3-0.7,0.5-1
		c0.3-0.4,0.8-0.7,1.2-1.1c0.2-0.2,0.6-0.4,0.8-0.8c0.1-0.1,0.4,0,0.4,0c0.2-0.2,0.6-0.2,0.8-0.4c0.2-0.2,0.2,0.2,0.4,0.1
		c0.2,0,0.3-0.1,0.4-0.2c0.3-0.1,0.5,0.1,0.8,0.1c0.3,0,0.5,0,0.8,0.2c0.4,0.2,1.2,0.2,1.4,0.6C28.7,5.7,29.1,5.9,29.3,6.3z"/>
	<path class="st2" d="M44,11.8c0-0.2,0-0.4-0.1-0.6c0-0.2,0.1-0.5,0.1-0.8c0-0.1-0.2-0.2-0.1-0.2C44,9.8,44,9.3,44,8.8
		c0-0.2-0.1-0.2-0.1-0.3c0-0.1,0-0.2,0.1-0.3c0-0.4-0.1-0.7-0.2-1.1c0-0.1-0.1-0.2-0.2-0.5c0-0.1-0.2-0.2-0.1-0.2
		c0.1-0.6-0.2-1.1-0.3-1.7c-0.1-0.7-0.8-1.1-1-1.8c0-0.1,0.2,0,0.3,0c0.5,0.5,1,1,1.2,1.7c0.1,0.2,0,0.4,0.1,0.6
		c0.4,0.5,0.5,1.2,0.6,1.8c0,0.1,0.1,0,0.2,0.1c0,0.1,0,0.2,0,0.3c0.3,0.4,0.1,0.7,0.2,1.1c0,0.1,0.1,0.2,0.1,0.3
		c0,0.1-0.2,0.2-0.2,0.3c0.3,0.3,0.4,0.8,0.3,1.2c0.3,0.1,0.2,0.5,0.2,0.8c0,0.1,0.1,0.1,0.2,0.1c0.1-0.1,0.2-0.2,0.2-0.4
		c0-0.6,0.1-1,0-1.6c-0.1-0.2-0.1-0.4,0-0.6c-0.1,0-0.2-0.2-0.2-0.3C45,7.5,45,6.5,44.7,5.6c0,0,0.1-0.1,0.1-0.1
		c-0.1-0.8-0.7-1.5-1-2.4c0-0.1-0.3-0.3-0.4-0.5c0,0,0-0.1,0-0.1c0.3,0,0.5,0.3,0.7,0.6c0.3,0.5,0.7,1,0.8,1.5
		c0.2,0.5,0.4,0.9,0.5,1.4c0.1,0.3,0.3,0.5,0.4,0.7c0.1,0.2,0,0.4,0.1,0.6c0.1,0.5,0.2,1,0.3,1.5c0.1,0.4,0.2,0.8,0,1.1
		c-0.2,0.6,0.2,1.2,0.4,1.8c0.1,0.2,0,0.5-0.1,0.7c0,0.1,0.1,0.2,0.1,0.2c-0.1,0.3,0,0.5-0.1,0.8c-0.1,0.1,0.1,0.2,0,0.3
		c-0.1,0.1-0.1,0-0.2,0.1c-0.1,0.2,0,0.4-0.1,0.6c-0.2,0.4-0.1,0.9-0.5,1.2c-0.1,0-0.1,0.1-0.2,0.2c0.1,0,0.1,0.1,0.2,0.2
		c-0.1,0.1-0.1,0-0.2,0.1c0,0.1,0.2,0.3,0.3,0.4c-0.1,0.5-0.5,1-0.5,1.6c0,0.1-0.1,0.3-0.1,0.5c-0.1,0.3-0.4,0.6-0.5,0.9
		c0,0.1-0.3,0.1-0.3,0.3c-0.2,0.2-0.1,0.5-0.3,0.7c-0.1,0.1-0.3,0.1-0.4,0.2c-0.2,0.2-0.1,0.5-0.3,0.7c-0.2,0.3-0.4,0.6-0.6,1
		c-0.2,0.4-0.6,0.9-0.9,1.2c-0.1,0-0.2,0-0.3,0.1c-0.2,0.4-0.4,0.7-0.8,0.9c-0.1,0-0.2,0.3-0.2,0.3c-0.3,0.2-0.5,0.5-0.8,0.7
		c-0.1,0-0.2,0.1-0.3-0.1c-0.5,0.8-1.1,1.4-1.7,2c-0.3,0.2-0.7,0.2-0.9,0.4c-0.8,0.7-2,1.5-2.1,1.6c-0.1,0-0.3,0.3-0.3,0.3
		c-0.2,0-0.1,0-0.3,0c0,0,0,0.4-0.3,0.4c-0.7,0.1-0.8,0.9-0.9,1.2c0,0.2-0.1,0-0.2,0.1c-0.1,0.1,0,0.2-0.1,0.2
		c-0.3,0.2-0.5,0.5-0.8,0.8c-0.1,0.1-0.1,0-0.2,0c-0.1,0.1-0.4,0.5-0.5,0.9c-0.3,0.7-0.6,1.2-1,1.7c-0.1,0.1,0.2,0.6,0.2,0.7
		C30.3,36,30.1,36,30,36.2c-0.1,0.5-0.1,1.1-0.2,1.6c-0.1,0.5,0,0.9,0.1,1.4c0.1,0.4,0,0.9,0,1.3c0,0.3,0.2,0.7,0.2,1
		c0,0.5-0.1,0.4,0,0.8c0,0.2-0.1,0.5,0,0.6c0,0.3-0.1,0.5-0.1,0.8C30,43.8,29.8,44,29.8,44c0,0.8-0.5,1.4-1.1,1.9
		c-0.3,0.2-0.6,0.5-1,0.5c-0.2,0-0.8,0.4-1,0.4c-0.6,0.2-1,0.2-1.5,0.1c-0.6-0.2-1-0.3-1.4-0.9c-0.2-0.3-0.6-0.2-0.8-0.6
		c0-0.2-0.4-0.2-0.4-0.3c-0.3-0.3-0.5-0.6-0.7-0.9c-0.2-0.4,0-0.7-0.2-1.1c-0.2-0.2-0.3-0.4-0.5-0.7c-0.3-0.3,0.1-0.8-0.1-1.1
		c-0.1-0.1-0.3-0.2-0.3-0.4c-0.1-0.3-0.1-0.8-0.3-1.1c-0.1-0.4,0-1.8,0-2.2c0-0.1-0.2-0.2-0.2-0.3c0-0.6,0.2-1.1,0.2-1.7
		c0.1-0.3,0-0.6,0.3-0.8c0,0-0.1-0.1-0.1-0.2c0.2-0.5,0.2-0.8,0.3-1.3c0-0.1,0.2-0.1,0.2-0.2c-0.1-0.3-0.1-1,0-1.4
		c0-0.2,0.4-0.4,0.5-0.5c0-0.1-0.1-0.3,0.1-0.5c0-0.1,0.1,0,0.2-0.1c0-0.1,0-0.2,0-0.2c0-0.2,0.4-0.4,0.5-0.6
		c0.2-0.5,0.4-0.8,0.7-1.2c0.1-0.2,0.1-0.4,0.3-0.6c0.1-0.1,0.1,0,0.1-0.1c0-0.1,0-0.2,0-0.3c0.2-0.2,0.4-0.3,0.4-0.5
		c0.1-0.3,0.2-0.4,0.4-0.6c0.3-0.2,0.6-0.4,0.8-0.7c0.2-0.2,0.3-0.1,0.5-0.3c0.2-0.2,0.3-0.6,0.5-0.8c0.4-0.5,0.8-0.8,1.3-1.1
		c0.4-0.3,0.8-0.4,1.2-0.6c0.4-0.3,0.6-0.8,0.9-1c0.2-0.2,0.5-0.2,0.7-0.3c0.2-0.2,0.4-0.5,0.7-0.5c0.7-0.2,0.2,0,0.9-0.3
		c0.4-0.3,0.2-0.3,0.7-0.6c0.7-0.4,1.1-0.7,1.1-0.6c0.1-0.1,0.1-0.1,0.2-0.2c0.2-0.2,1.1-0.9,1.2-0.9c0.1,0,0.3,0.1,0.4,0
		c0.1-0.1-0.1-0.2,0-0.4c0.2-0.2,0.4-0.5,0.7-0.7c0.1-0.1,0.2,0.1,0.4,0c0.1-0.1,0.1-0.2,0.2-0.2c0.1-0.1-0.1-0.3,0-0.4
		c0.1-0.2,0.2-0.4,0.3-0.4c0.2-0.1,0.5-0.2,0.5-0.4c0-0.3,0.2-0.5,0.4-0.7c0-0.1,0-0.1,0-0.2c0.2-0.2,0.3-0.3,0.5-0.5
		c0.2-0.2,0.1-0.5,0.2-0.7c0.3-0.4,0.6-0.6,0.7-1.1c0-0.2-0.2-0.5-0.1-0.7c0.1-0.1,0.4-0.2,0.4-0.3c0-0.3-0.1-0.6-0.1-0.9
		c0-0.2,0.3-0.4,0.2-0.6c0-0.6,0-1.1-0.1-1.7c0.2,0,0.2-0.2,0.2-0.3c0-0.4-0.3-0.8-0.4-1.3c0-0.3,0.2-0.5,0.2-0.8
		c0-0.2-0.2-0.5-0.5-0.7c-0.2-0.3-0.1-0.6-0.1-0.9c-0.1-0.4-0.3-0.6-0.4-1.1c0-0.2-0.3-0.2-0.4-0.4c-0.1-0.3-0.1-0.6-0.1-0.9
		c0-0.1-0.2-0.1-0.3-0.2c-0.2-0.4-0.2-1.2-0.7-1.4c0-0.3-0.2-0.3-0.3-0.6c0.3,0,0.6,0.1,0.8,0.5c0,0.1,0.2,0.1,0.3,0.1
		c0.2,0.2,0.2,0.6,0.3,0.7c0.2,0.2,0.6,0.1,0.6,0.3c0.1,0.4,0.4,0.6,0.5,0.9c0,0.1,0,0.2,0.1,0.3c0.2,0.2,0.2,0.4,0.4,0.6
		c0.4,0.4,0.7,0.9,0.6,1.5c-0.1,0.3,0.2,0.2,0.3,0.3c0.2,0.4,0.1,0.9,0.5,1.3c-0.1,0.7,0.3,1.3,0.5,1.9c-0.4,0.6-0.2,1.5,0.1,2.1
		c0,0,0.2,0,0.2-0.1c0.1-0.3,0.7-0.4,0.6-0.6c-0.1-0.4-0.3-1.2-0.3-1.5c0-0.6,0.1-1,0-1.6c0-0.1-0.1-0.2-0.1-0.2
		c-0.1-0.3-0.1-0.6-0.1-0.9c0-0.1-0.1-0.2-0.2-0.4c0-0.1,0-0.2,0-0.3C41.9,4.9,42,5,42.2,5c0.1,0.1,0,0.3,0.1,0.4
		c0.2,0.3,0.5,0.5,0.6,0.8c0,0.1,0,0.2,0,0.3c0,0.4,0.3,0.8,0.4,1.1c0,0.2-0.2,0.5-0.1,0.8c0.3,0.6,0.3,1.2,0.2,1.8
		c-0.1,0.3,0.3,0.5,0.2,0.7c-0.1,0.2,0,0.2-0.1,0.4c0,0.1-0.1,0.1-0.2,0.2c0.2,0.4-0.1,1-0.2,1.3c0,0.1,0.2,0.1,0.3-0.1
		c0-0.1,0.3-0.1,0.4-0.2C43.9,12.3,44,12.1,44,11.8z M45.3,13.1c0-0.3,0.2-0.6,0.1-1c-0.1-0.4-0.4,0-0.6,0c0.1,0.4-0.1,0.8-0.2,1.1
		c-0.1,0.1-0.1,0.5,0,0.4C45,13.9,45.3,13.6,45.3,13.1z M44.8,15c0.1-0.1,0-0.3-0.1-0.4c-0.2-0.1-0.4,0.1-0.5,0.2
		c-0.1,0.2,0,0.5,0.2,0.5C44.5,15.3,44.7,15.1,44.8,15z"/>
	<path class="st2" d="M41.2,3.5c0.3,0.2,0.5,0.7,0.7,1l0,0.1C41.4,5,41,4.4,40.9,4c-0.2-0.4-0.4-0.8-0.7-1.1c0-0.1,0-0.1,0-0.2
		c-0.2-0.2-0.4-0.4-0.2-0.5c0.1-0.1,0.2,0.1,0.4,0.2C40.7,2.7,40.8,3.2,41.2,3.5z"/>
	<path class="st2" d="M43,1.7c0,0.1-0.1,0.2-0.1,0.3c-0.2-0.2-0.4-0.4-0.6-0.7c-0.1,0-0.2,0-0.2-0.1c-0.1,0,0-0.1,0-0.1
		c0.2,0,0.4,0.2,0.5,0.3c0.1,0,0.1,0,0.2,0C42.9,1.4,43,1.5,43,1.7z"/>
	<path class="st3" d="M15.3,14.2c0.1,0,0.1,0.1,0.2,0.2c0.1,0.1,0.2,0.1,0.3,0c0.1,0,0.2,0.3,0.3,0.3c0.1,0.1,0.2,0.3,0.4,0.5
		c0.1,0.1,0.2,0.2,0.3,0.2c0.1,0.2,0.2,0.4,0.4,0.5c0.1,0.1,0.3,0.1,0.4,0.1c0.2,0.1,0.3,0.4,0.4,0.5c0.1,0,0.1,0.2,0.1,0.2
		c0.1,0.1,0.2,0.2,0.3,0.3c0,0.1,0,0.2,0.1,0.2c0.4,0.6,0.9,1,1.2,1.6c0,0,0,0.1,0,0.2c0.4,0.4,0.6,0.9,0.9,1.3
		c0.1,0.2,0.2,0.5,0.3,0.7c0.1,0.1,0.2,0.2,0.3,0.3c0.1,0.2,0.3,0.5,0.3,0.8c0,0.1-0.1,0.4-0.3,0.3c-0.2-0.2-0.2-0.6-0.5-0.8
		c0-0.1-0.1-0.2-0.1-0.3c-0.1-0.1-0.3-0.1-0.3-0.3c0-0.2-0.2-0.3-0.3-0.4c-0.2-0.4-0.6-0.5-0.9-0.8c-0.1,0-0.1,0-0.2,0
		c-0.1,0.1-0.2,0.3-0.1,0.4c0.2,0.1,0.3,0.4,0.5,0.5c0.1,0.1,0.2,0.5,0.3,0.7c0.1,0.1,0.2,0.2,0.3,0.3c0.2,0.1,0.1,0.3,0.2,0.5
		c0,0.1-0.1,0.1-0.1,0.2c0.1,0.2,0.3,0.1,0.4,0.3c0.1-0.1,0.3,0,0.4,0.1c-0.2,0.2-0.1,0.3-0.2,0.4c-0.2,0.3,0.2,0.5,0.5,0.7
		c0.2,0,0.1,0.3,0.3,0.4c0.1,0.2,0.3,0.2,0.5,0.4c0,0.1-0.1,0.2-0.1,0.3c0,0.2,0.2,0.2,0.3,0.3c0.1,0.1,0.1,0.2,0.2,0.3
		c-0.2,0-0.5-0.2-0.6-0.2c-0.1,0-0.3-0.3-0.5-0.3c-0.1,0-0.1,0.1-0.2,0.1c-0.1,0-0.2,0-0.3-0.1c-0.1,0-0.4-0.3-0.5-0.3
		c-0.1,0-0.3,0.2-0.4,0.2c-0.5-0.1-0.5-0.1-0.6-0.2c-0.2-0.1-0.3-0.2-0.5-0.2c-0.1-0.1-0.1-0.2-0.2-0.2c-0.1-0.1-0.3-0.1-0.4-0.1
		c-0.4-0.2-0.7-0.7-1-0.9c-0.2-0.1-0.4-0.2-0.6-0.3c-0.1-0.1-0.2-0.2-0.3-0.3c-0.4-0.1-0.8-0.4-1.3-0.6c-0.9-0.3-1.7,0.3-2.5,0.7
		c0,0-0.1,0-0.2,0c-0.2,0.1-0.4,0.2-0.6,0.3c-0.2,0.2-0.6,0.2-0.8,0.4c-0.1,0-0.1,0.2-0.2,0.3c-0.1,0.1-0.3,0.1-0.5,0.2
		c-0.1,0.1-0.1,0.2-0.2,0.3c-0.2,0.2-0.4,0.3-0.7,0.5c-0.2,0.1-1.6,0.3-1.8,0.3c-0.4,0-0.6,0.3-1.2,0.3c-0.8,0-1.6,0-2.3-0.5
		c-0.1-0.1-0.2-0.5-0.3-0.5c-0.3-0.2-0.3-0.6-0.4-0.9c-0.1-0.1-0.3-0.1-0.3-0.3c0.1-0.8,0.5-1.6,1-2.2c0.1-0.2,0.4-0.3,0.4-0.6
		c0,0,0.5-0.6,0.7-0.9c0.1-0.1,0-0.3,0-0.4c0.4-0.8,1.2-1.4,1.8-2.1c0.2-0.2,0.3-0.4,0.5-0.4c0.1,0,0.2,0,0.3-0.1
		c0.1-0.3,0.3-0.4,0.5-0.5c0.6-0.4,1.1-1,1.8-1.1c0.1,0,0.2-0.2,0.3-0.2c0.1-0.1,0.3,0,0.4,0c0.5-0.2,1-0.7,1.5-0.8
		c0.1,0,0.2-0.2,0.2-0.2c0.5,0,1-0.4,1.4,0.1C14.4,13.9,15,14,15.3,14.2z M18.8,19.1c0-0.1,0-0.1,0-0.2c-0.2-0.1-0.3-0.5-0.5-0.5
		c0,0-0.2,0-0.2,0.1c0,0.3,0.1,0.6,0.3,0.9c0.1-0.2,0.2-0.2,0.3,0C18.7,19.3,18.8,19.2,18.8,19.1z"/>
</g>
</svg>
