<?xml version="1.0" encoding="utf-8"?>
<!-- Generator: Adobe Illustrator 22.1.0, SVG Export Plug-In . SVG Version: 6.00 Build 0)  -->
<svg version="1.1" id="레이어_1" xmlns="http://www.w3.org/2000/svg" xmlns:xlink="http://www.w3.org/1999/xlink" x="0px"
	 y="0px" viewBox="0 0 500 95.2" style="enable-background:new 0 0 500 95.2;" xml:space="preserve">
<style type="text/css">
	.st0{clip-path:url(#XMLID_2_);fill:url(#XMLID_3_);}
	.st1{clip-path:url(#XMLID_4_);fill:url(#XMLID_5_);}
	.st2{fill:#6F7271;}
</style>
<g>
	<g id="XMLID_286_">
		<g id="XMLID_294_">
			<defs>
				<path id="XMLID_330_" d="M45.5,0.7c-25.9,1.2-46,23.1-44.8,49c1.2,25.9,23.1,45.9,49,44.8c25.9-1.2,46-23.1,44.8-49
					C93.4,20.3,72.6,0.6,47.6,0.6C46.9,0.6,46.2,0.6,45.5,0.7"/>
			</defs>
			<clipPath id="XMLID_2_">
				<use xlink:href="#XMLID_330_"  style="overflow:visible;"/>
			</clipPath>
			
				<radialGradient id="XMLID_3_" cx="-52.7046" cy="518.7688" r="1.3844" gradientTransform="matrix(32.1837 0 0 -32.1837 1749.6487 16728.291)" gradientUnits="userSpaceOnUse">
				<stop  offset="0" style="stop-color:#FFFFFF"/>
				<stop  offset="1" style="stop-color:#D2A143"/>
			</radialGradient>
			<rect id="XMLID_331_" x="-0.5" y="0.6" class="st0" width="96.2" height="95"/>
		</g>
		<g id="XMLID_287_">
			<defs>
				<path id="XMLID_288_" d="M36.9,87.9c-5.3-0.5-11.5-2.2-17-6.9c-5-4.3-8.1-10.3-9.7-15.6C8.7,60.1,8,53.8,10.6,54.3
					c0.8,0.1,2.1,3.6,3.6,6.1c1.5,2.6,2.8,4,3.9,4.9c0.5,0.4,2.3-3.6,4.9-5.9c1.5-1.3,3.2-1.7,3.5,2.1c0.3,4.6-0.5,10,0.8,10
					c1.2,0,4.1-0.9,10.3-1.5c2.3-0.2,3.7,0.2,1.4,3.4c-1.1,1.6-2.6,3.8-6.1,6.3c5.3,4.9,11.6,4.3,11.7,6.4c0.1,1.2-2.3,1.9-5.4,1.9
					C38.5,88.1,37.7,88,36.9,87.9 M54.6,43.6c-4.8-1-5.8-5.4-5.8-5.4c-0.4-1.5-0.5-3.5-0.2-6c0.6-5.2,2.1-7.6,3.7-11.7
					C54.4,15.2,49.2,12,50,10c1.2-2.7,4.9,0.7,9.1,1c3.6,0.2,5.7,0,8.5,0.4c3.7,0.5,8.1,1.8,10.1,4.1c1.8,2.1-1,4.7-4.3,3.1
					c-2.4-1.2-5.5-0.5-3.7,2.1c2.1,2.4,3.2,2.5,5.4,3.1c6.1,1.6,6.2,7.4,2.1,10.4c-4.7,3.4-9.4,2-11.3-4.7c-0.9-3.3-3.3-5.1-5.7-4.1
					c-2.4,0.9-1,5.3,0.9,9.4c3.2,8.1-3.2,8.9-5.7,8.9C55,43.6,54.7,43.6,54.6,43.6 M51.1,89.4c0-1.1,1.5-1.3,1.5-1.3
					c14.1-2.8,10-12,5-16.7c-2.1-2-21.7-18.9-21.7-18.9C17.2,36.4,18.7,23.9,18.7,23.9C19.7,8.4,33.2,4.6,43.4,5.5
					c1.2,0.1,1.9,0.8,1.6,1.8c-0.2,1.1-1.8,1.2-1.8,1.2c-3.3,0.2-6.2,0.5-8.4,2C26.6,16,29,25.5,40,36c1.4,1.3,2.9,2.7,4.4,4.1
					c0,0,2.2,1.9,6.6,6.1c8.5,7.8,13.1,12,13.1,12C79,70.6,73.9,82,68.2,85.9c-4.4,3-9.2,4.4-15.5,4.8c-0.1,0-0.1,0-0.2,0
					C52,90.7,51.1,90.4,51.1,89.4 M45.4,0C19.2,1.2-1.1,23.5,0,49.7C1.2,76,23.5,96.3,49.7,95.1C76,93.9,96.3,71.7,95.1,45.4
					C94,19.9,72.9,0,47.6,0C46.9,0,46.2,0,45.4,0"/>
			</defs>
			<clipPath id="XMLID_4_">
				<use xlink:href="#XMLID_288_"  style="overflow:visible;"/>
			</clipPath>
			
				<radialGradient id="XMLID_5_" cx="-48.9913" cy="519.9899" r="1.384" gradientTransform="matrix(72.0012 0 0 -72.0012 3582.5112 37474.9961)" gradientUnits="userSpaceOnUse">
				<stop  offset="0" style="stop-color:#00B8EE"/>
				<stop  offset="0.2191" style="stop-color:#0092D3"/>
				<stop  offset="0.2955" style="stop-color:#007BC2"/>
				<stop  offset="0.3797" style="stop-color:#0069B5"/>
				<stop  offset="0.4694" style="stop-color:#005EAD"/>
				<stop  offset="0.573" style="stop-color:#005BAB"/>
				<stop  offset="1" style="stop-color:#005BAB"/>
			</radialGradient>
			<rect id="XMLID_293_" x="-1.1" class="st1" width="97.5" height="96.3"/>
		</g>
	</g>
	<g>
		<path class="st2" d="M129.3,25c0-2.1-0.1-3.3-1.4-4.7c-0.8-1-0.3-1.9,0.7-1.9h11.2v8.6c0,8.5,8.3,13.5,15.8,16l-2.8,5.3
			c-0.8,1.6-4,1-9.6-2.5c-3.2-1.9-6.2-4.5-8.2-7.3c-2.4,3.4-5.4,6.3-8.8,8.6c-4,2.6-9,5.1-9.9,3.4l-3-5.6c8.6-3.4,16-9,16-17.3V25z
			 M172.1,70.4v7.3H135c-7.9,0-11-2-11-8.6v-9.4c0-1.3-0.5-2.3-1.4-3.4c-0.8-1-0.3-1.9,0.6-1.9h11v13.3c0,2,0.6,2.6,2.7,2.6H172.1z
			 M160.8,57.8V24c0-2.3-0.4-3.4-1.6-4.8c-0.8-1-0.3-1.8,0.7-1.8H171v40.4H160.8z"/>
		<path class="st2" d="M193.6,22.2c0-2.3-0.1-3.3-1.4-4.8c-0.8-1-0.3-1.8,0.7-1.8H204v7.3h14.7V30h-6.8c2,2.3,3.2,5.1,3.2,8.4
			c0,8.2-6,14.4-16.8,14.4c-10.7,0-16.8-6.2-16.8-14.4c0-3.4,1.2-6.2,3.1-8.4h-6.8v-7.1h15.8V22.2z M234.9,70.4v7.3h-36.4
			c-7.9,0-11-2-11-8.6v-6.8c0-1.3-0.5-2.3-1.4-3.4c-0.8-1-0.3-1.9,0.7-1.9h11v10.7c0,2,0.7,2.6,2.7,2.6H234.9z M198.3,45.6
			c4.5,0,7.1-3.4,7.1-7.6c0-4.4-2.6-7.8-7.1-7.8c-4.5,0-7.1,3.4-7.1,7.8C191.2,42.2,193.8,45.6,198.3,45.6z M224,58.7V24
			c0-2.3-0.3-3.3-1.6-4.8c-0.8-1-0.3-1.8,0.7-1.8h11.1v15.3h7.4V40h-7.4v18.6H224z"/>
		<path class="st2" d="M287.7,27.1c0.1-0.9-0.5-1.4-1.6-1.4h-35v-7.1h38.3c7.3,0,8.9,1.9,8.3,8.3l-1.2,13h8.8V47h-61.9v-7.1h43.2
			L287.7,27.1z M250.7,58.2c0-1.3-0.5-2.3-1.4-3.4c-0.8-1-0.3-1.9,0.7-1.9h46.2c1,0,1.5,0.3,1.5,1.4V78h-39.8
			c-4.5,0-7.1-2.7-7.1-6.8V58.2z M287.6,71.1V59.6h-27v9.6c0,1.4,0.6,1.9,2.1,1.9H287.6z"/>
		<path class="st2" d="M363.5,67c0,7.9-9,12.3-24.3,12.3c-15.3,0-24.3-4.5-24.3-12.3c0-3.8,2.1-6.9,6.2-9h-0.2v-7.5h-12.7v-7h61.9v7
			h-12.7V58h-0.2C361.3,60.1,363.5,63.2,363.5,67z M363,28.2c0,7.2-7.2,12.1-23.8,12.1c-16.6,0-23.8-4.9-23.8-12.1
			c0-7.2,7.2-12.1,23.8-12.1C355.8,16.1,363,21,363,28.2z M353.5,67c0-3.8-4.9-5.4-14.3-5.4c-9.4,0-14.3,1.6-14.3,5.4
			c0,3.8,4.9,5.4,14.3,5.4C348.6,72.4,353.5,70.8,353.5,67z M353,28.2c0-3.6-4.3-5.3-13.8-5.3c-9.5,0-13.8,1.6-13.8,5.3
			c0,3.6,4.3,5.3,13.8,5.3C348.7,33.5,353,31.9,353,28.2z M339.3,54.6c3,0,5.8,0.2,8.3,0.5v-4.7h-16.7v4.7
			C333.4,54.8,336.2,54.6,339.3,54.6z"/>
		<path class="st2" d="M416.9,29.7c0.1-1.2-0.4-1.8-1.7-1.8h-34.8v-7.4h36.1c8.9,0,11,2.1,10.7,10.3l-1.9,34.6h9.7v7.4h-61.9v-7.4
			h42L416.9,29.7z"/>
		<path class="st2" d="M500,45.8v6.9h-25.7v5.8h-10.5v-5.8h-25.7v-6.9H500z M445.1,60.8c0-1.3-0.5-2.3-1.4-3.4
			c-0.8-1-0.3-1.9,0.7-1.9h10.7v5.3h27.6v-5.3h10V78h-40.5c-4.5,0-7.1-2.7-7.1-6.8V60.8z M482.1,27.1V24h-36.5v-6.3h44.9
			c1,0,1.5,0.3,1.5,1.4v14h-36.4v1.9c0,1,0.4,1.2,1.4,1.2h35.9v6.3h-41.3c-4.5,0-5.8-1.6-5.8-5.5v-3.5c0-2.1-0.5-3.2-1.7-4.7
			c-0.8-1-0.3-1.9,0.6-1.9H482.1z M456.7,71.2h26v-3.8h-27.6v2.2C455.1,70.9,455.6,71.2,456.7,71.2z"/>
	</g>
</g>
</svg>
