<?xml version="1.0" encoding="utf-8"?>
<!-- Generator: Adobe Illustrator 22.1.0, SVG Export Plug-In . SVG Version: 6.00 Build 0)  -->
<svg version="1.1" id="레이어_1" xmlns="http://www.w3.org/2000/svg" xmlns:xlink="http://www.w3.org/1999/xlink" x="0px"
	 y="0px" viewBox="0 0 1001.9 234" style="enable-background:new 0 0 1001.9 234;" xml:space="preserve">
<style type="text/css">
	.st0{fill:#FEFEFE;}
	.st1{fill:#1890C2;}
	.st2{fill:#177B93;}
	.st3{fill:#78958F;}
	.st4{fill:#4590A9;}
	.st5{fill:#74948E;}
	.st6{fill:#1891C2;}
	.st7{fill:#167B93;}
	.st8{fill:#C0C0C0;}
</style>
<g>
	<g>
		<path class="st0" d="M1002,93c0,45.8-0.1,91.7,0.1,137.5c0,3.8-0.8,4.6-4.6,4.6C708,235,418.5,235,129,235
			c1.1-3.7,4.6-1.7,6.8-2.9c1.3-0.3,2.6-0.4,3.9-0.5c5.2-0.9,10.3-2.4,15.4-3.8c1.9-0.5,3.6-1.4,5.4-2.1c4.4-1.6,8.6-3.5,12.8-5.6
			c1.9-0.8,3.5-1.9,5.2-3.1c4.1-2.7,8.3-5.3,12.1-8.4c1.5-0.9,2.9-2,4.1-3.3c3.6-3.5,7.1-7.1,10.7-10.7c1.3-1.2,2.4-2.6,3.3-4.1
			c3.4-3.6,5.9-7.9,8.6-12c1.3-1.9,2.1-4,3.2-6c2.7-3.6,3.8-7.9,5.7-11.9c0.9-2,1.4-4.1,2.1-6.1c1.5-4.5,2.7-9.2,3.5-13.9
			c0.4-2.1,0.9-4.2,1-6.3c1-4.4,0.7-8.9,0.8-13.4c-0.1-2-0.1-4,0-6c-0.1-4.5,0.2-9-0.8-13.4c-0.2-2.1-0.3-4.2-0.9-6.3
			c-1.1-4.7-2.1-9.4-3.7-13.9c-0.6-2.1-1.2-4.1-2.1-6.1c-1.9-4.2-3.3-8.7-6-12.5c-1-1.8-1.8-3.7-2.9-5.4c-2.5-4-5.2-7.8-8-11.6
			c-1.1-1.7-2.5-3.1-4-4.4c-3.3-3.8-7-7.1-10.6-10.6c-1.2-1.3-2.6-2.4-4.1-3.3c-3.9-3-7.6-6.2-12-8.4c-1.4-0.8-2.7-1.7-4.1-2.4
			c-4.6-2.4-9.1-4.8-13.9-6.5c-1.7-0.8-3.6-1.4-5.4-1.9c-4-1.4-8.1-2.4-12.2-3.3c-2.5-0.7-5.1-0.7-7.6-1.4C133.4,3,130.7,4.1,130,1
			c289.2,0,578.3,0,867.5-0.1c3.7,0,4.6,0.8,4.6,4.6c-0.2,24.2-0.1,48.3-0.1,72.5c-2.3,1.9-5,1.6-7.6,1.6c-18.2,0-36.3,0-54.5,0
			c-5.8,0-6.4,1-6.3,6.8c0.1,3.7,1.7,5,5.2,5c3.8-0.1,7.7,0,11.5,0c9.6,0,10.3,0.7,10.3,10.1c0,16.3,0,32.6,0,49c0,1.3,0,2.7,0,4
			c0.1,6.3,4.7,9.1,10.6,6.5c2.8-1.3,2.1-3.9,2.2-6.1c0.1-17.3,0-34.6,0-52c0-2.3-0.1-4.7,0.3-7c0.3-2.2,1.4-3.9,3.7-4.1
			c7.6-0.6,15.3-0.9,22.9,0.2C1000.9,92.1,1001.5,92.6,1002,93z"/>
		<path class="st1" d="M206.2,41c1.5,1,2.7,2.3,3.5,4c-0.8,3.6-3.8,5.3-6.4,7.3c-2.7,2.1-4.1,3.9-1.7,7.4c2.4,3.5,4.6,3.3,7.8,1.4
			c2.7-1.6,5.1-4.3,8.7-4c1.3,1.4,2.4,3,2.7,4.9c-1.1,3.7-4.8,4.4-7.6,5.8c-3.9,2-4.1,4.2-2.4,7.9c1.9,4.3,4.5,2.7,7.3,1.7
			c2.9-1,5.6-3,9-2.4c1.3,1.7,1.8,3.6,2.1,5.6c-2.4,3.3-6.4,3.3-9.7,4.7c-3.2,1.4-3.7,3.1-2.8,6.2c0.9,3.1,2.1,4.4,5.6,3.9
			c3.5-0.6,7-2.4,10.7-0.6c1,1.9,1.2,3.8,1,5.9c-2.6,2.2-5.9,1.8-8.9,2.5c-2.8,0.6-5.7,0.8-5.1,5c0.5,3.9,2.3,5.3,6.2,5.2
			c3-0.1,6.3-1,9,1.5c0,1.9,0,3.8,0,5.7c-2.8,2.5-6.3,1.5-9.5,1.5c-3.8,0-5.2,1.7-5.7,5.2c-0.6,3.9,2.1,4.2,4.7,4.8
			c3.2,0.7,6.7,0.4,9.3,2.7c0.3,2.1-0.2,4-1,5.9c-3.3,2-6.5,0-9.6-0.6c-3.9-0.7-5.8,0.3-6.8,4.3c-0.7,3.1,0,4.6,2.9,5.7
			c3.3,1.3,7.2,1.7,9.6,4.8c-0.2,2.1-0.8,3.9-2,5.6c-3.9,0.1-7.4-1.8-10.9-3.1c-4.1-1.6-4.7,1.5-6.1,3.9c-1.4,2.6-0.8,4.1,1.8,5.6
			c3.2,1.9,7,3,9.4,6.2c-0.6,2.1-1.6,3.9-3.1,5.5c-3.2,0.2-5.5-1.9-8.1-3.4c-2.8-1.6-5.2-4-8.2,0.5c-2.7,4.1-1,5.9,2,8
			c1.6,1.1,3,2.6,4.5,3.9c1.1,1,1.5,2.1,0.8,3.5c-0.5,1.6-1.6,2.7-2.9,3.6c-4.2-0.1-6.3-3.6-9.1-5.9c-2.1-1.6-3.6-2.7-5.8-0.3
			c-2.1,2.3-4.5,4.2-1.6,7.4c1.4,1.6,3,3,4.1,4.9c0.9,1.5,2.6,2.8,1.2,4.8c-0.9,1.5-2.1,2.5-3.7,3.2c-3.6-1.1-5.3-4.3-7.4-7
			c-2.2-2.8-4.2-3-7.1-1c-3,2.1-3.2,3.9-1.5,7c1.6,3,5.2,5.4,3.7,9.6c-1.6,1-3.2,1.9-4.8,2.9c-3.1-2.3-4.3-5.8-6.1-8.9
			c-1.9-3.4-4.1-2.9-7-1.6c-3.2,1.4-3.5,3.3-2.4,6.3c1.1,3.3,3.9,6.3,2.3,10.2c-1.6,0.6-3.3,1.2-4.9,1.8c-3.7-1.8-3.3-5.8-4.6-8.8
			c-2.2-4.9-2.2-5-7.3-3.5c-2.9,0.8-3.6,2.4-3.1,5.1c0.4,2.1,0.8,4.2,1,6.4c0.1,2,0.4,4.1-2.1,5c-1.2,0.2-2.5,0.3-3.7,0.5
			c-3.1-2.6-2.8-6.5-3.3-10c-0.6-4.4-3.4-3.9-6.5-3.9c-3.4,0-4.1,1.9-4.1,4.8c0,2.9,0.3,5.9-0.4,8.8c-0.2,0.5-0.5,0.9-0.9,1.3
			c-1.6,0.4-3.2,0.2-4.8,0.1c-0.5-0.2-0.8-0.6-1.1-1.1c-0.8-2.1-0.4-4.3-0.6-6.4c-0.3-3.1,1.6-7.4-4.4-7.6c-5.1-0.1-5.3-0.1-6.6,6.9
			c-0.5,2.6-0.4,5.4-2.6,7.3c-2.1,0.6-4.2,1-6.1-0.5c-1.1-3.7,0.4-7.2,1.1-10.7c0.8-4.2-1-5.4-4.6-6.5c-3.9-1.2-4.5,1.1-5.5,3.7
			c-1.3,3.4-1.8,7.1-4.7,9.7c-2.2,0.5-3.9-0.6-5.4-1.9c-1.1-3.9,1.6-6.9,2.5-10.4c0.8-3,1.4-5.3-2.3-6.9c-3.7-1.6-5.9-0.9-7.5,2.7
			c-1.4,3-3,6-5.3,8.4c-2.5,0.3-4.1-1.2-5.5-2.9c-0.8-4.3,2.4-7,4.3-10.1c2.1-3.3,1.5-4.8-1.6-7c-3.3-2.3-5.1-1.7-7.3,1.2
			c-2,2.7-3.9,5.8-7.2,7.2c-2.1-0.2-3.7-1.1-4.6-3.2c-0.2-4.1,2.9-6.5,5.3-9.1c2.8-3,2.4-5.1-0.3-7.9c-2.9-3-4.8-1.5-7.1,0.5
			c-2.6,2.3-4.9,5-8.5,5.7c-2.2-0.6-3.1-2.3-3.4-4.3c0.8-3.8,3.9-5.6,6.7-7.7c3-2.2,3.3-4.4,1.2-7.6c-2.2-3.4-4.3-2.8-7.1-1.2
			c-3,1.7-5.6,4.3-9.5,4c-2.1-0.8-3.1-2.3-3.1-4.6c1.9-3.7,5.8-4.8,9-6.7c2.5-1.5,4-2.7,2.4-5.9c-1.5-2.9-2.6-5.1-6.7-3.7
			c-3.5,1.2-6.8,3.9-10.9,2.6c-1.8-1.4-2.4-3.2-1.8-5.4c2.8-2.8,6.7-3.6,10.2-4.8c3.5-1.2,3.3-3.4,2.6-6.3c-0.7-3-2.1-4.1-5.3-3.6
			c-3.8,0.6-7.6,2.6-11.7,0.7c-1.3-1.6-1.8-3.3-0.9-5.3c2.5-2.9,6.2-2.7,9.6-3.4c2.8-0.6,5.7-0.9,5.3-5c-0.4-4.1-2.7-5.1-6.4-5.1
			c-3.4,0-7,1-10.1-1.3c0-2,0-4,0-6c3.4-2.4,7.3-1.1,11-1.4c2.5-0.2,4.5-0.7,5.1-3.6c0.9-3.8,0-5.5-3.9-6.4
			c-3.6-0.9-7.7-0.3-10.6-3.3c-1-1.9-0.5-3.7,0.8-5.3c3.8-2.4,7.4-0.1,11.1,0.5c3.9,0.6,5.5-0.8,6.2-4.4c0.6-2.8-0.2-4.3-2.8-5.5
			c-3.5-1.6-7.5-1.8-10.4-4.7c-0.9-2.3-0.1-4,1.7-5.4c3.9-1.4,7,0.9,10.3,2.2c3.3,1.3,5.3,1.1,7.1-2.5c1.8-3.6,0.8-5.2-2.3-7.1
			c-3-1.8-6.9-2.6-8.7-6.2c0-2.4,0.8-4.3,3-5.5c3.9,0.5,6.9,3.1,10.2,5c2.6,1.5,4.4,1.7,6.2-1.1c1.7-2.6,2.7-4.8-0.2-7.4
			c-2.8-2.5-6.6-4.1-7.6-8.2c0-2.3,1.2-3.7,3.4-4.4c4.2,0.4,6.6,3.6,9.3,6.2c2.7,2.7,4.5,2.1,6.9-0.5c2.3-2.5,3-4.3,0.3-7.1
			c-2.6-2.7-5.8-5.1-5.8-9.4c0.7-2.1,2.1-3.4,4.4-3.4c3.6,1.5,5.4,4.8,7.6,7.6c2,2.6,3.9,3.1,6.7,1.1c2.6-1.9,4.1-3.5,2.1-6.9
			c-1.8-3.2-4.8-6-4.5-10.2c1.3-2,2.9-3.4,5.5-3.1c3.2,2.6,4.3,6.6,6.4,10c1.7,2.7,3.4,2.5,5.8,1.3c2.4-1.2,4.4-2,3.5-5.5
			c-1-3.9-3.9-7.4-3.1-11.8c1.4-1.7,3.2-2.4,5.4-2.1c3.2,2.7,3.8,6.8,5.1,10.5c1,2.9,2.2,4.1,5.4,3c2.8-1,5.3-1.5,4.6-5.5
			c-0.7-3.7-1.9-7.4-1.5-11.2c1.9-2.1,4.3-1.5,6.6-1.4c2.6,3.3,2.1,7.5,3,11.3c0.6,2.4,1.1,4,4.1,3.4c2.7-0.5,5.7,0.2,6.2-4
			c0.4-3.7-1-7.6,1.4-11c1.6-0.4,3.2-0.3,4.9-0.1c2.4,2.7,1.4,5.9,1.5,9c0.3,5,4.1,7.8,8.6,6.2c1.6-0.6,1.4-2.1,1.7-3.3
			c1-3.7,0.5-8,3.5-11.1c2.2,0.7,4.6,0.1,6.7,1.4c-0.4,3.6-1.1,7.2-1.9,10.8c-0.8,3.6,1,4.6,3.9,5.4c3.1,0.9,5.1,0.5,6.1-2.9
			c0.6-2.1,1.4-4.1,2.2-6.1c0.6-1.5,0.8-3.3,2.9-3.7c1.6,0.6,3.3,1.2,4.9,1.8c1.7,3.8-1.2,6.7-2.3,9.8c-1.4,3.9-0.4,5.8,3.3,7.3
			c2.7,1,4.4,0.8,5.8-1.7c1-1.9,1.9-3.9,3.2-5.6c1-1.3,1.6-3.5,4-2.9c1.6,0.2,2.8,1.1,3.9,2.1c1.4,1.7,0.1,3.1-0.7,4.5
			c-1,1.7-1.8,3.6-2.9,5.2c-2.3,3.3-1.1,5.2,1.9,7.3c3.3,2.3,5.1,0.7,7-1.7c2-2.6,3.6-5.6,7.1-6.7c1.5,0.7,2.8,1.7,3.7,3.2
			c1.2,4.4-2.5,6.4-4.7,8.9c-2.6,2.8-2.5,4.8,0.1,7.5c2.6,2.7,4.4,2.4,7,0.2C200,44.2,202,40.8,206.2,41z"/>
		<path class="st0" d="M42.1,206c0.9,1.5,2.3,2.3,3.7,3.1c4.6,2.1,9,4.7,12.3,8.7c1.6,1,3.2,1.9,4.8,2.9c5,0.8,9.4,2.8,13.2,6.1
			c1.6,0.6,3.3,1.2,4.9,1.8c5.1-0.4,9.8,0.8,14,3.7c1.8,1.1,3.8,0.8,5.8,0.9c2.3-0.2,5-1.6,6.2,1.9c-34.1,0-68.2,0-102.3,0.1
			c-3.1,0-3.8-0.7-3.8-3.8C1,194.8,1,158.4,1,122c1.3-0.2,1.9,0.8,2,1.7c0.4,4.1,1.8,8.2,0.3,12.3c-0.3,1.8,0.5,3.3,0.9,5
			c2.4,4.4,3.9,9,3.8,14.1c0.1,1.8,0.7,3.4,1.8,4.9c3,4.3,5.8,8.7,6.4,14c0.4,1.5,1.2,2.9,2.3,4c3.9,3.8,7.1,8.2,9.4,13.2
			c0.6,1.5,1.6,2.8,3,3.7C35.6,197.7,39.1,201.6,42.1,206z"/>
		<path class="st0" d="M100.9,2.5c-2,0.4-3.9,0.8-5.9,1.1c-4.2,2.8-9,3.7-14,3.7c-1.6,0.6-3.3,1.2-4.9,1.8c-4,3-8.1,5.5-13.2,6.1
			c-1.6,1-3.2,1.9-4.8,2.9c-3.3,4.1-7.7,6.7-12.4,8.8c-1.6,0.6-2.8,1.6-3.6,3c-2.9,4.5-6.4,8.4-11.1,11.1c-1.4,0.9-2.4,2.1-3,3.7
			c-2,4.8-5.1,8.8-8.9,12.4c-1.4,1.3-2.2,3.1-2.9,4.8c-0.6,5.4-3.4,9.8-6.4,14.1c-1,1.5-1.7,3.1-1.7,4.9C8.1,86,6.6,90.6,4.2,95
			c-0.5,1.6-1.3,3.2-0.9,5c1.5,4.1,0.1,8.2-0.3,12.3c-0.1,1-0.7,1.9-2,1.7C1,77.5,1,41,0.9,4.5c0-3,0.6-3.6,3.6-3.6
			C38.7,1,72.8,1,107,1C105.7,4.3,103.2,3.3,100.9,2.5z"/>
		<path class="st1" d="M1002,93c-7.5,0-15,0.2-22.5-0.1c-3.5-0.1-4.5,0.9-4.4,4.4c0.2,20.3,0,40.6,0.2,61c0,3.6-0.7,4.8-4.6,4.8
			c-11.6-0.2-11.6,0-11.6-11.6c0-18.2-0.1-36.3,0.1-54.5c0-3.3-0.9-4.2-4.2-4.1c-6.5,0.2-13,0-19.5,0.1c-2.2,0-3.2-0.5-3.3-3
			c-0.7-11.9-0.8-11.9,11-11.9c19.7,0,39.3-0.1,59-0.1C1002,83,1002,88,1002,93z"/>
		<path class="st2" d="M136.2,2.4c-0.7,4.4-1.5,8.7-2.3,13.1c-0.3,1.7-0.8,2.8-3.2,2.6c-9.8-0.8-9.8,1.9-9.7-9.7c0-2.2,0-4.3,0-6.5
			c-0.4-0.2-0.5-0.5-0.4-0.7c0.1-0.2,0.2-0.4,0.4-0.4c3,0,6,0,9,0C131.7,3,134.2,1.4,136.2,2.4z"/>
		<path class="st2" d="M100.9,2.5c1.9-1.2,4.5,0.5,6.1-1.5c2.7,0,5.3,0,8,0c0.3,0.4,0.9,0.4,1,1.1c0,4,0,8,0,12c0,2.7-1.1,4-3.9,3.9
			c-1.3,0-2.7-0.2-4,0.1c-3.8,0.9-4.7-1.1-5.2-4.3C102.5,10,101.6,6.3,100.9,2.5z"/>
		<path class="st2" d="M121,234c0-4,0.1-8,0-12c-0.1-3,0.9-4,4-4.1c8-0.2,8-0.3,9.7,7.4c0.6,2.6,1.1,5.2,1.6,7.8
			c-2.1,1.9-5.3-0.5-7.2,1.8c-0.7,0-1.3,0-2,0C125.2,233.7,122.8,235.3,121,234z"/>
		<path class="st2" d="M107,235c-1.6-2.3-4.5,0-6.2-1.9c0.8-3.7,1.6-7.4,2.2-11.1c0.5-2.9,1-5.6,5.1-4.1c1,0.4,2.3,0.2,3.5,0.1
			c3.6-0.5,4.6,1.2,4.4,4.6c-0.2,3.8,0,7.6,0,11.4c-2.2,1.4-4.8-0.3-7,1C108.3,235,107.7,235,107,235z"/>
		<path class="st2" d="M1,114c2.2-4.4,0.5-9.5,2.3-14c4.1,2,8.6,1.8,12.9,2.8c4.3,0.9,3,4,2.6,6.2c-0.4,2.3,0.6,6.1-3.9,6.1
			c-4.6-0.1-9.2,0-13.9,0C1,114.7,1,114.3,1,114z"/>
		<path class="st2" d="M3.3,136c-1.8-4.5-0.1-9.6-2.3-14c0-0.3,0-0.7,0-1c4.5,0,8.9,0.1,13.4,0c5.1-0.2,4,3.9,4.5,6.6
			c0.4,2.3,1.2,5.1-3.2,5.7C11.5,133.8,7.1,133.8,3.3,136z"/>
		<path class="st3" d="M109,235c2.1-2,4.7-0.5,7-1c0,0,0,0,0,0c0.3,0.2,0.4,0.4,0.3,0.7c-0.1,0.2-0.2,0.3-0.3,0.3
			C113.7,235,111.3,235,109,235z"/>
		<path class="st4" d="M116,2.1c-0.3-0.4-0.6-0.7-1-1.1c2,0,4,0,6,0c0,0.3,0,0.7,0,1C119.3,2.1,117.7,2.1,116,2.1z"/>
		<path class="st5" d="M121,234c2,0.4,4.3-0.9,6,1c-2,0-4,0-6,0c-0.3-0.2-0.4-0.4-0.3-0.7C120.8,234.1,120.9,234,121,234L121,234z"
			/>
		<path class="st4" d="M121,234c0,0.3,0,0.7,0,1c-1.7,0-3.3,0-5,0c0-0.3,0-0.7,0-1C117.7,234,119.3,234,121,234z"/>
		<path class="st6" d="M615,106.2c0,18.1-0.2,34.7,0.1,51.2c0.1,4.6-1.2,5.8-5.7,5.7C599,162.8,599,163,599,152.8
			c0-23.3,0.1-46.6-0.1-70c0-3.7,0.9-4.6,4.7-4.8c6.1-0.4,10,1.5,13.7,6.5c11.3,15,23.2,29.6,34.9,44.4c1.6-1.4,0.9-3,0.9-4.4
			c0.1-14,0.1-28,0-42c0-3.3,0.6-4.6,4.3-4.6c12.2,0.1,12.2-0.1,12.2,12.1c0,22.2,0.1,44.3-0.1,66.5c0,2.1,1.8,5.8-1.7,6.3
			c-3.6,0.4-7.7,1.7-10.9-2.5c-11.5-15.3-23.4-30.3-35.2-45.4C619.9,112.3,617.9,109.9,615,106.2z"/>
		<path class="st1" d="M846.1,120.7c-0.2,27-17.7,44.4-44.6,44.2c-25.1-0.2-42.6-18.2-42.5-43.7c0.1-26.6,18.4-45,44.4-44.7
			C828.5,76.7,846.3,95.2,846.1,120.7z"/>
		<path class="st1" d="M433.1,120.9c-0.3,26.9-17.9,44.2-44.8,43.9c-25.6-0.2-42.4-18.3-42.2-45.4c0.2-25.3,18.9-43.4,44.5-43
			C415.7,76.8,433.4,95.3,433.1,120.9z"/>
		<path class="st1" d="M521,120.7c0-12.8,0.1-25.6-0.1-38.5c0-3.3,0.9-4.2,4.2-4.2c18.5,0.1,37,0.1,55.4,0c3,0,4,0.8,4.1,3.9
			c0.3,11.9,0.4,11.9-11.6,11.9c-10.8,0-21.6,0.1-32.5-0.1c-2.8,0-3.9,0.7-3.7,3.6c0.5,5.1-2.1,11.7,1.1,14.8
			c2.5,2.5,9.1,0.8,13.9,0.8c9,0.1,18,0.1,27-0.1c3.1-0.1,3.9,0.8,3.9,3.9c0.1,11.1,0.2,11.1-11.1,11.1c-10.3,0-20.6,0.1-31-0.1
			c-3.1-0.1-4.2,0.8-3.9,3.9c0.5,4.9-2.1,11.5,1,14.3c2.7,2.4,9.2,0.8,13.9,0.8c9.7,0.1,19.3,0.1,29,0c2.8,0,3.7,0.8,3.7,3.6
			c0.3,12.4,0.4,12.4-11.9,12.4c-15.8,0-31.6-0.1-47.5,0.1c-3.5,0-4.5-0.9-4.4-4.4C521.1,146,521,133.4,521,120.7z"/>
		<path class="st6" d="M682.4,120.3c0-12.6,0.1-25.3-0.1-37.9c0-3.1,0.7-4.4,4.2-4.3c12.3,0.2,24.6-0.2,36.9,0
			c17.8,0.2,30.1,12.8,30.1,30.4c-0.1,17.1-12.7,29.4-30.3,29.6c-6.7,0.1-13.3,0.2-20-0.1c-3.4-0.1-4.7,0.7-4.5,4.3
			c0.3,5.5-0.1,11,0.1,16.5c0.1,3-0.5,4.3-4,4.4c-12.5,0.1-12.5,0.2-12.5-12.3C682.4,140.6,682.4,130.5,682.4,120.3z"/>
		<path class="st1" d="M889.6,165c-4.8,0.2-10.2-0.6-15.5-2.1c-7.3-2.2-13.1-6.4-17.3-12.8c-3.7-5.8-3.7-5.8,2.5-8.9
			c2.4-1.2,4.7-3.2,7.1-3.3c2.6-0.1,3,3.5,4.7,5.3c7.4,7.6,24.4,9.9,33.5,4.4c3.7-2.3,5.7-5.4,5.5-9.9c-0.2-4.5-2.9-6.9-6.5-8.7
			c-5.5-2.7-11.6-2.9-17.5-3.8c-5.9-1-11.8-2.1-17.1-5.1c-14.1-7.7-15.7-27.4-3.1-37.4c12.4-9.8,37.5-9.9,49.9-0.2
			c1,0.8,2,1.7,3,2.7c6,6.2,5.8,6.6-1.5,10.6c-4,2.2-6.5,2.7-10.5-0.8c-7.4-6.5-16.7-6.8-25.9-3.8c-4.4,1.5-7.4,4.6-7.2,9.7
			c0.2,4.9,3.8,6.8,7.7,8.1c7.1,2.4,14.8,2.1,22,4.1c2.6,0.7,5.2,1.3,7.6,2.3c9.9,3.9,15.2,11.2,15.4,21.8
			c0.2,10.3-4,18.3-13.4,23.2C906,163.9,898.3,165.1,889.6,165z"/>
		<path class="st6" d="M515.4,163c-7.2,0-13.1,0-19.1,0c-2.7,0-3.9-2.4-5.4-4c-10.1-10.6-20.1-21.2-30.1-31.9
			c-1.9,1-1.2,2.5-1.2,3.7c-0.1,9.5-0.1,19,0,28.5c0,2.7-0.6,3.7-3.6,3.8c-12.9,0.3-12.9,0.4-12.9-12.4c0-22.5,0.1-45-0.1-67.5
			c0-3.6,0.5-5.3,4.8-5.2c11.7,0.2,11.7,0,11.7,11.8c0,7,0,14,0.1,21c0,0.3,0.2,0.6,0.4,0.9c1.7,0.2,2.2-1.2,3-2.1
			c8.1-9,16.4-18,24.3-27.2c2.8-3.2,5.6-4.7,9.8-4.3c4.4,0.4,8.9,0.1,14.7,0.1c-4.3,4.7-7.7,8.6-11.2,12.4
			c-7.8,8.4-15.6,16.9-23.6,25.1c-2.7,2.8-2.4,4.5,0.2,7.1c11.3,11.5,22.4,23.2,33.6,34.9C512.2,159.1,513.4,160.6,515.4,163z"/>
		<path class="st1" d="M315,128.1c0,10.2-0.1,20.3,0.1,30.5c0.1,3.3-0.5,4.6-4.2,4.6c-12-0.1-12,0.1-12-11.8c0-18-0.1-36,0.1-54
			c0-3.5-1-4.6-4.5-4.4c-6.1,0.3-12.3,0-18.5,0.1c-2.8,0.1-4.1-0.4-4.1-3.7c-0.1-11.2-0.2-11.2,11.1-11.2c18.2,0,36.3,0.1,54.5-0.1
			c3.5,0,4.5,1,4.5,4.5C341.9,93,342,93,331.6,93c-4.3,0-8.7,0.2-13-0.1c-2.9-0.1-3.7,0.8-3.6,3.6C315.1,107.1,315,117.6,315,128.1z
			"/>
		<path class="st2" d="M221.2,173.4c-2.8-1-5.3-2.6-7.9-4.2c-6.2-3.8-6.7-6.9-2-12.7c0.9-1,1.7-1.6,2.9-0.9c4.1,2.2,9,2.4,12.8,5.2
			C225.7,165.3,223.9,169.5,221.2,173.4z"/>
		<path class="st2" d="M156,7.4c-1.7,4.3-3.5,8.5-4.9,12.9c-0.7,2.2-1.8,2.2-3.7,1.8c-8.9-2.1-9.2-2.1-7.2-10.7
			c0.6-2.4-0.8-5.9,2.5-7.4C147.4,4.3,151.8,5.7,156,7.4z"/>
		<path class="st2" d="M229,155.2c-4-1.4-8-2.9-12.1-4.3c-2.6-0.9-3-2.2-2.1-4.8c2.6-8.1,2.4-8.1,10.8-6.3c2.4,0.5,4.8,0.8,7.3,1.2
			C232.4,145.9,231.1,150.7,229,155.2z"/>
		<path class="st2" d="M140,232.7c2.6-4.1,0.3-8.2-0.5-12c-0.8-3.8,0.5-4.8,3.5-5.5c1.1-0.3,2.3-0.4,3.4-0.9
			c2.9-1.3,4.4-0.5,5.3,2.7c1.1,4,2.9,7.7,4.4,11.6C150.8,230.5,145.5,232,140,232.7z"/>
		<path class="st2" d="M232.9,95c-4.1,0.7-8.2,1.2-12.2,2c-2.8,0.5-4.1,0-4.8-3.1c-1.7-7.6-1.9-7.6,5.2-10.4c2.6-1,5.3-1.8,8-2.7
			C231.1,85.3,232.4,90,232.9,95z"/>
		<path class="st2" d="M175.1,16c-3.4,2.5-4.6,6.4-6.5,9.8c-1.7,3.2-3.8,3.6-6.8,1.6c-2.6-1.7-7.5-1.4-4.8-7c1.7-3.6,2.7-7.5,4-11.2
			C166,10.8,170.7,12.9,175.1,16z"/>
		<path class="st2" d="M227,75.2c-4,1.6-8,3.1-12,4.7c-2.2,0.9-3.8,0.6-4.6-1.9c-0.6-1.9-1.4-3.7-2.3-5.5c-1.1-2-0.2-2.9,1.5-3.8
			c3.8-2.1,7.4-4.4,11.1-6.6C223.6,66,225.8,70.4,227,75.2z"/>
		<path class="st2" d="M160.9,226.7c-1.3-3.9-2.6-7.9-4.1-11.7c-1-2.6-1.1-4.5,2.2-5.2c1.3-0.3,2.5-1,3.6-1.7
			c2.2-1.3,3.9-1.3,5.3,1.3c2,3.8,4.8,7.2,6.2,11.3C169.9,223.1,165.6,225.2,160.9,226.7z"/>
		<path class="st2" d="M209.1,191.4c-1.4-3.5-4.5-5.5-7.4-7.5c-3.3-2.3-4.3-4.4-1.3-7.9c4.4-5.1,4.2-5.3,10.1-1.7
			c2.5,1.5,5.1,3,7.6,4.6C215.7,183.5,212.8,187.7,209.1,191.4z"/>
		<path class="st7" d="M235,115.1c-4.2,0-8.3-0.2-12.5-0.1c-6.1,0.1-2.8-5.3-4.3-7.8c-1.1-1.9-0.2-4,2.9-4.4
			c4.2-0.7,8.4-1.7,12.7-1.8C235.5,105.5,235,110.4,235,115.1z"/>
		<path class="st7" d="M191.3,26.8c-2.9,3.4-5.7,6.9-8.7,10.1c-3.8,4-5.5-1.4-8.1-2.3c-2.1-0.7-3.1-2.5-1.5-5.2
			c2.2-3.6,4.8-7.1,6-11.3C183.5,20.3,187.6,23.3,191.3,26.8z"/>
		<path class="st7" d="M218.1,57.1c-3,1.8-6,3.5-8.9,5.4c-3.5,2.3-5.8,2.2-8.3-1.8c-3.1-5.2-3.6-5.6,1.3-9c2.8-1.9,4.9-4.5,7.4-6.6
			C213,48.6,215.9,52.6,218.1,57.1z"/>
		<path class="st2" d="M233.9,135.1c-3.9-0.6-7.8-1.5-11.7-1.8c-3.1-0.3-5.2-1.4-3.9-4.5c1.2-2.9-1.4-8.5,5.4-7.9
			c3.8,0.4,7.6,0,11.5-0.1C235,125.6,235.4,130.4,233.9,135.1z"/>
		<path class="st7" d="M178.9,217.8c-0.8-4.2-3.7-7.4-5.8-10.9c-1.5-2.5-0.9-3.9,1.1-5.4c6.2-4.8,7.1-4.7,11.9,1.7
			c1.6,2.1,3.4,4,5.2,6.1C187.6,212.6,183.4,215.5,178.9,217.8z"/>
		<path class="st7" d="M195,206c-0.8-4.5-4.8-6.9-7.3-10.3c-3.7-5.2,2.1-5.8,3.7-8.4c1.8-3,3.8-1.3,5.6,0.3c3,2.6,6.1,5,9.1,7.5
			C202.9,199.1,199.3,202.9,195,206z"/>
		<path class="st7" d="M206.2,41c-3.3,2.6-6.7,5.3-10,7.9c-1.7,1.4-3,1.8-4.9-0.1c-6.1-5.9-6.2-5.8-0.3-12.3
			c1.8-1.9,3.6-3.8,4.1-6.6C199.3,33,203,36.7,206.2,41z"/>
		<path class="st0" d="M154.2,137.2c-0.1,6.8-0.1,13.7-0.2,20.5c-0.1,4.5-2.1,6.3-6.3,4.6c-7.4-2.8-14.8-5.9-22-9.3
			c-4-1.9-5.9-5.4-5.8-10.2c0.2-15.3,0.1-30.7,0.1-46c-2.3-0.8-3.8,1.3-5.7,1.4c-1.3,1.3-2.6,2.5-4.4,3.2c-9.8,4.2-19.1,9.3-29,13.2
			c-0.9,0.3-1.9-0.3-2.8,0.2c-7,5.1-13.7,4.7-20.6-0.4c-5-3.8-10.5-7.1-15.6-10.9c-4.5-3.3-4.1-6,0.9-8.3
			c25.7-12,51.3-24.6,77.3-35.9c18.1-7.9,37.1-11.3,55.8-1.3c10.9,5.8,18.6,14.5,21.4,26.8c-2,0.6-2,0.7-3.8-1.2
			c-5.8-6.1-12.9-9-21.3-8.4c-16.1,0.8-16.6,1.3-16.6,17.2c0,5.6,0,11.3,0,16.9c0.3,7.3,0.1,14.6,0.1,21.9
			C155.6,133.5,155.4,135.5,154.2,137.2z"/>
		<path class="st0" d="M78,114.9c0.4-0.7,1.1-0.9,1.9-1c10.5,1.1,20.3,5,30.4,7.7c2.2,0.6,3.2,2.1,3.2,4.4
			c-0.2,18.3,0.4,36.6-0.3,54.8c-1.4,3.5-4.1,2.9-6.6,2c-7.1-2.8-14.1-5.7-21-8.9c-4.4-2-6.5-5.8-6.4-10.8c0.1-14.4,0.1-28.9,0-43.3
			C79.1,118.2,80.1,116.2,78,114.9z"/>
		<path class="st8" d="M154.2,137.2c0-9.4-0.1-18.9-0.1-28.3c1.6-2.1,4-2.9,6.2-4c11.7-6.2,15.3-13.6,12.9-26.6
			c-0.3-1.4-1-2.9-0.1-4.3c8.9-0.3,16.1,3.2,22,9.7c0.5,0.6,0.7,2.1,2.2,1.3c4.1,15.5-3.1,32.7-18.1,43
			C171.6,133.1,163.3,136.2,154.2,137.2z"/>
		<path class="st8" d="M113.2,181c-0.1-17.3-0.3-34.6-0.1-51.9c0-4.2-1.3-5.6-5.2-6.7c-9.4-2.6-19.1-4.2-28-8.3
			c11.4-5.2,22.8-10.5,34.3-15.7c-0.1,25.8-0.2,51.6-0.3,77.4C113.8,177.4,114.4,179.3,113.2,181z"/>
		<path class="st2" d="M8,155.1c-2-4.5-3.3-9.2-3.8-14.1c4.4-0.7,8.8-1.3,13.1-2.3c2.5-0.6,3.4,0.1,3.7,2.4c0.2,1.1,0.5,2.3,0.9,3.3
			c1.9,4.3,0.1,6.2-4.1,7.2C14.5,152.5,11.3,153.9,8,155.1z"/>
		<path class="st2" d="M81,7.4c4.5-1.7,9.1-3.2,14-3.7c2.1,4.2,1.7,8.9,2.9,13.3c0.5,1.7-0.4,2.8-2.2,3.2c-0.8,0.2-1.6,0.5-2.4,0.7
			c-6.6,1.7-6.5,1.7-8.9-4.9C83.5,13.1,82.2,10.3,81,7.4z"/>
		<path class="st2" d="M4.2,95c0.6-4.9,1.7-9.6,3.8-14.1c3.9,1.4,7.7,2.9,11.6,4.1c2.8,0.9,3.8,2.2,2.5,5.1
			c-0.7,1.5-0.9,3.2-1.1,4.8c-0.3,2.1-1,2.8-3.3,2.3C13.3,96.2,8.7,95.7,4.2,95z"/>
		<path class="st2" d="M76.1,226.7c-4.6-1.5-9-3.6-13.2-6.1c1.7-3.2,3.5-6.4,5.1-9.6c1.6-3.3,3.4-4.6,7.3-2.6c6,3,6.1,2.6,4,8.9
			C78.3,220.5,77.2,223.6,76.1,226.7z"/>
		<path class="st2" d="M16.2,174c-2.8-4.4-5-9-6.4-14c4.2-0.3,7.8-2.5,11.6-3.8c2.7-0.9,4.4-0.7,5.3,2.2c0.5,1.4,1.2,2.7,2,4
			c1.4,2.3,1,3.7-1.5,5C23.4,169.4,19.9,171.8,16.2,174z"/>
		<path class="st2" d="M9.8,76c1.4-5,3.7-9.6,6.4-14.1c3.7,2.2,7.2,4.6,11,6.6c2.5,1.3,3,2.7,1.6,5c-0.9,1.4-1.7,2.9-2.2,4.4
			c-0.9,2.5-2.4,2.6-4.6,1.9C17.9,78.6,14.2,76,9.8,76z"/>
		<path class="st2" d="M95,232.2c-4.8-0.5-9.4-2-14-3.7c1.6-4,3.4-7.9,4.6-12c0.8-2.9,2.2-3.3,4.6-2.3c1.7,0.6,3.5,1.1,5.2,1.5
			c2,0.5,2.9,1.7,2.4,3.6C96.7,223.5,97,228.1,95,232.2z"/>
		<path class="st2" d="M62.9,15.3c4.2-2.5,8.5-4.6,13.2-6.1c1.3,3.6,2.4,7.2,3.8,10.7c1.4,3.3,1.3,5.7-2.9,6.6
			c-1.3,0.3-2.4,1.1-3.6,1.7c-1.9,1.1-3,0.5-4-1.3C67.3,23,65.1,19.2,62.9,15.3z"/>
		<path class="st2" d="M27.9,191.2c-3.9-3.8-6.9-8.4-9.4-13.2c4.5-0.4,7.6-3.8,11.4-5.6c2.4-1.1,3.6-1.1,5.2,1.2
			c4.7,6.8,4.8,6.6-1.9,11.9C31.2,187.1,29.1,188.7,27.9,191.2z"/>
		<path class="st7" d="M19.1,57.1c2.3-4.6,5.1-8.8,8.9-12.4c1.8,4,6,5.6,8.9,8.5c4.4,4.3-0.8,6.3-1.9,9.2c-1.3,3.4-3.6,1.9-5.6,0.7
			C25.9,61.2,22.5,59.1,19.1,57.1z"/>
		<path class="st2" d="M58,217.7c-4.5-2.4-8.7-5.1-12.3-8.7c2.7-3.1,5.5-6.2,8.1-9.4c1.8-2.3,3.6-2.6,5.8-0.5
			c0.8,0.8,1.8,1.6,2.8,2.1c3.2,1.5,3.3,3.5,1.5,6.2C61.7,210.7,59.1,213.8,58,217.7z"/>
		<path class="st7" d="M45.7,26.9c3.6-3.6,7.9-6.4,12.4-8.8c1.9,3.5,3.7,7,5.7,10.4c1.6,2.7,1.3,4.6-1.4,6.2c-7,4.1-5.1,5.9-11-1.7
			C49.7,30.9,47.6,29,45.7,26.9z"/>
		<path class="st7" d="M42.1,206c-4.2-3.2-7.9-6.8-11.1-11c2.2-1.7,4.6-3.3,6.7-5.1c5.7-5.1,5.5-5,10.8,0c2.8,2.6,2.5,4.6,0.2,7
			C46,199.6,43.4,202.3,42.1,206z"/>
		<path class="st7" d="M30.9,41c3.2-4.2,6.8-7.9,11.1-11.1c1.4,3.8,4,6.7,6.9,9.4c2.3,2.1,2.4,3.8,0.1,6.2c-5.8,6-5.7,6.1-11.8,0.2
			C35.3,43.9,33.2,42.3,30.9,41z"/>
		<path class="st0" d="M830.2,120.9c-0.4,10.6-3.5,20.4-13.7,25.7c-10.2,5.2-20.6,4.9-30.3-1.6c-12.5-8.5-15-30.7-5.2-43.6
			c9.2-12,27.9-14,39.6-4C827.7,103.5,829.9,111.7,830.2,120.9z"/>
		<path class="st0" d="M417.1,123.1c-0.4,8.8-3.6,18.5-13.9,23.7c-10.2,5.1-20.7,4.7-30.3-1.9c-12.3-8.5-14.7-30.5-5.1-43.3
			c8.9-11.9,27.3-14.1,39.2-4.6C413.4,102,417.2,111.1,417.1,123.1z"/>
		<path class="st0" d="M698.7,108.2c0.2-4.6-1.3-10.7,1.1-13.5c2.7-3.2,9-0.9,13.8-1.1c3.8-0.2,7.7-0.2,11.4,0.2
			c7.7,0.8,12.6,6.7,12.5,14.8c-0.1,7.7-5,13.8-12.4,14.3c-7.8,0.5-15.6,0.2-23.4,0.3c-2.3,0-2.8-1.1-2.7-3c0.1-4,0-8,0-12
			C698.8,108.2,698.7,108.2,698.7,108.2z"/>
		<path class="st1" d="M173.1,74c6,17-0.9,29.6-19,35c0-9.2,0.1-18.5-0.2-27.7c-0.1-2.9,1.1-4.2,3.7-4.8
			C162.7,75,167.8,73.6,173.1,74z"/>
	</g>
</g>
</svg>
