<?xml version="1.0" encoding="utf-8"?>
<!-- Generator: Adobe Illustrator 22.1.0, SVG Export Plug-In . SVG Version: 6.00 Build 0)  -->
<svg version="1.1" id="레이어_1" xmlns="http://www.w3.org/2000/svg" xmlns:xlink="http://www.w3.org/1999/xlink" x="0px"
	 y="0px" viewBox="0 0 245.8 48" style="enable-background:new 0 0 245.8 48;" xml:space="preserve">
<style type="text/css">
	.st0{fill:#005BAB;}
	.st1{fill:url(#SVGID_1_);}
	.st2{fill:#231815;}
</style>
<g>
	<g>
		<path class="st0" d="M19.7,37.7l2.3,9.6h9l3.4-9.5C29.1,38.2,24.1,38.2,19.7,37.7z"/>
		<path class="st0" d="M45.6,36.3c-1.7,0.3-3.4,0.6-5.1,0.8l3.7,10.1h8.7l3.2-13.6C52.8,34.7,49.3,35.6,45.6,36.3z"/>
		<path class="st0" d="M56.8,31.3l3.9-14.2h-9.5l-4.3,15.1l-5.1-14.8h-8.5l-5.7,14.7l-3.5-15h-9.8l4,14.7c-7.6-2-12.5-5.4-13.3-10
			C3.4,12.5,20.3,4.3,43.1,0c-0.8,0.1-1.6,0.2-2.4,0.3c-24,3.9-42.2,13-40.5,23.2c1.7,10.2,22.5,15.3,46.5,11.4
			c11.1-1.8,21-5.3,28.2-9.5C69.6,27.8,63.5,29.8,56.8,31.3z M39.2,33.6c-1.1,0.1-2.3,0.1-3.4,0.1l1.7-4.7L39.2,33.6z"/>
		<g>
			
				<radialGradient id="SVGID_1_" cx="-32.2604" cy="239.2111" r="8.6039" gradientTransform="matrix(0.8363 -0.224 0.224 0.8363 55.5405 -185.1869)" gradientUnits="userSpaceOnUse">
				<stop  offset="0" style="stop-color:#FFFFFF"/>
				<stop  offset="7.422091e-02" style="stop-color:#FBDDC4"/>
				<stop  offset="0.1688" style="stop-color:#F5B57F"/>
				<stop  offset="0.2542" style="stop-color:#F19648"/>
				<stop  offset="0.3274" style="stop-color:#EE7F21"/>
				<stop  offset="0.3856" style="stop-color:#ED7109"/>
				<stop  offset="0.4213" style="stop-color:#EC6C00"/>
				<stop  offset="0.6648" style="stop-color:#D86200"/>
				<stop  offset="0.882" style="stop-color:#C25800"/>
				<stop  offset="1" style="stop-color:#EE7D1F"/>
			</radialGradient>
			<path class="st1" d="M77,20.2c-1.2,2-0.5,4.6,1.6,5.8c2,1.2,4.6,0.5,5.8-1.6c1.2-2,0.5-4.7-1.6-5.8C80.8,17.5,78.2,18.2,77,20.2z
				"/>
		</g>
	</g>
	<path class="st2" d="M178.1,43.2c-3.1,0-5.7-2.5-5.7-5.7c0-3.1,2.5-5.7,5.7-5.7c2.1,0,3.9,1.1,4.9,2.8l4.4-2.2
		c-1.8-3.3-5.2-5.5-9.2-5.5c-5.8,0-10.5,4.7-10.5,10.5c0,5.8,4.7,10.5,10.5,10.5c5.6,0,10.2-4.4,10.5-9.9l-4.9,0
		C183.5,41,181.1,43.2,178.1,43.2z"/>
	<path class="st2" d="M204.5,28.9c-1.5-0.9-3.3-1.5-5.2-1.5c-5.6,0-10.1,4.5-10.1,10.1s4.5,10.1,10.1,10.1c1.9,0,3.7-0.5,5.2-1.5
		v0.9h5.1V27.5h-5.1V28.9z M199.2,43c-3,0-5.5-2.4-5.5-5.5c0-3,2.4-5.4,5.5-5.4c3,0,5.4,2.4,5.4,5.4C204.7,40.6,202.2,43,199.2,43z"
		/>
	<path class="st2" d="M121.6,23.2l-7.2,0v1.6h1.4c-0.7,3.4-2.3,11.2-2.5,11.9c-0.2-0.9-3.2-12.6-3.2-12.6h-5.8c0,0-3,11.7-3.2,12.6
		c-0.2-0.9-2.8-13.5-2.8-13.5l-6.5,0v1.6h1.5L98.5,47h4.9c0,0,3.6-14.8,3.8-15.7c0.2,0.8,3.9,15.7,3.9,15.7h5.1l5.6-23.8H121.6z"/>
	<path class="st2" d="M236.9,27.8c-1.3,0-2.6,0.3-3.8,0.8c0-0.3,0-5.9,0-5.9H233l-6.5,0v1.6h1.4v22.7h5.1V36.2
		c0-2.6,1.2-3.7,3.8-3.7c2.4,0,3.8,1.3,3.8,3.7l0,10.8h5.1l0-10.8C245.8,30.8,242.7,27.8,236.9,27.8z"/>
	<path class="st2" d="M224.5,37.2c-1.3-0.8-2.6-1.4-3.9-1.9l-2.5-1c-0.7-0.3-1-0.6-1-1c0-0.4,0.2-0.7,0.5-1c0.4-0.3,0.8-0.4,1.4-0.4
		c0.5,0,1,0.2,1.3,0.6c0.4,0.4,0.5,0.8,0.5,1.2v0.2l0.2-0.1l4.8-2.4l-1.1-1.9c-1.1-1.6-3-2.4-5.7-2.4c-2.1,0-3.8,0.6-5.2,1.8
		c-1.4,1.2-2.1,2.7-2.1,4.3c0,2,0.9,3.5,2.8,4.3l4.8,2c0.7,0.3,1.3,0.6,1.5,0.9c0.3,0.3,0.4,0.6,0.4,0.9c0,0.2,0,0.6-0.4,1
		c-0.4,0.5-1,0.7-1.8,0.7c-0.8,0-1.3-0.2-1.7-0.7c-0.4-0.5-0.5-1-0.5-1.4l0-0.1h-5.6l0,0.5c0,2.3,1.3,4.3,3.5,5.5
		c0.7,0.4,1.5,0.7,2.5,0.9l1.6,0.1c0.1,0,0.2,0,0.2,0c2.3,0,4.2-0.7,5.5-2c1.4-1.3,2.1-2.8,2.1-4.4C226.5,39.4,225.8,38,224.5,37.2z
		"/>
	<path class="st2" d="M137,37.9c0,0.6-0.1,1.2-0.4,1.8c-0.3,0.7-0.9,1.4-1.8,2.1c-1.1,0.7-2.2,1.1-3.3,1c-1,0-1.8-0.4-2.6-1
		c0.3-0.2,12.5-8.7,12.5-8.7l-0.4-0.6c-0.8-1.4-1.8-2.6-2.8-3.4c-1.1-0.9-2.3-1.5-3.6-1.9c-1.6-0.5-3.3-0.5-4.8-0.2
		c-1.6,0.3-2.9,0.9-4.1,1.7c-2.3,1.6-3.8,3.9-4.3,6.8c-0.5,2.9,0.1,5.5,1.7,7.8c1.6,2.4,3.9,3.8,6.8,4.3c2.9,0.5,5.5-0.1,7.8-1.7
		c1.9-1.4,3.3-3.1,3.9-5.1c0.3-0.9,0.5-1.9,0.5-2.9l0-0.1l-5.1,0L137,37.9z M126.2,37.1c0-0.6,0.1-1.2,0.3-1.7v0
		c0.3-1,1-1.8,1.9-2.5c0.8-0.6,1.7-0.9,2.8-1c0.9-0.1,1.7,0.2,2.5,0.6c-0.3,0.2-7.2,5-7.5,5.2C126.2,37.5,126.2,37.3,126.2,37.1z"/>
	<path class="st2" d="M154.4,27c-1.9,0-3.7,0.5-5.3,1.5c0-0.3,0-5.7,0-5.7H149h-6.5v1.6h1.4v22.8h5.2c0,0,0-0.7,0-1
		c1.6,1,3.5,1.5,5.3,1.5c5.7,0,10.4-4.6,10.4-10.4C164.8,31.6,160.1,27,154.4,27z M154.2,42.7c-2.9,0-5.3-2.4-5.3-5.3
		c0-2.9,2.4-5.3,5.3-5.3c2.9,0,5.3,2.4,5.3,5.3C159.4,40.4,157.1,42.7,154.2,42.7z"/>
</g>
</svg>
