<?xml version="1.0" encoding="utf-8"?>
<!-- Generator: Adobe Illustrator 22.1.0, SVG Export Plug-In . SVG Version: 6.00 Build 0)  -->
<svg version="1.1" id="레이어_1" xmlns="http://www.w3.org/2000/svg" xmlns:xlink="http://www.w3.org/1999/xlink" x="0px"
	 y="0px" viewBox="0 0 300 63.2" style="enable-background:new 0 0 300 63.2;" xml:space="preserve">
<style type="text/css">
	.st0{fill:#242628;}
</style>
<g>
	<path class="st0" d="M2.3,30.1c1.7,0.4,2.7,0.8,4.1,3.3c5,9.1,10,19.2,14.8,29.2c0.6,0.5,1.3,0.6,2.4,0.6c1,0,1.7-0.1,2.3-0.6
		c2.3-4.4,8.4-16.1,11.1-20.6c3.1,5.6,8.3,15.9,10.5,20.6c0.6,0.5,1.3,0.6,2.3,0.6c1,0,1.7-0.1,2.3-0.6c4.3-9.3,8.9-19,13.6-27.9
		c1.6-3.2,2.3-4.1,5.7-4.7l1.4-0.3c0.8-0.8,0.6-2.7-0.3-3.1c-2.2,0.2-4.9,0.3-7.8,0.3c-2.5,0-5-0.1-8.3-0.3c-1,0.4-1,2.5-0.4,3.1
		l1.7,0.3c1.7,0.4,2.5,0.8,2.5,1.2c0,0.6-0.3,1.8-0.9,3.4c-1.6,4.1-3.2,8.4-5.7,13.5c-2.2-4.2-5.1-9.9-6.9-14.1
		c-0.6-1.5-0.8-2-0.8-2.7c0-0.4,1.4-0.9,3.8-1.3l1.5-0.3c0.7-0.4,0.8-3-0.3-3.1c-6.5,0.2-11.6,0.3-18,0.3H12.5
		c-4.3,0-7.5-0.1-11.7-0.3c-1,0.4-1,2.4-0.3,3.1L2.3,30.1z M25.4,30.1c1.8,0,3.5,0.1,4.9,0.3c2,0.4,3.8,3.2,3.8,4.6
		c0,0.7,0,1.5-0.3,2.6c-0.5,1.8-4,8.1-5.4,10.5c-1.7-2.8-5.8-10.7-7.2-13.8c-0.6-1.3-0.9-2.4-0.9-2.9C20.2,30.4,22.2,30.1,25.4,30.1
		"/>
	<path class="st0" d="M87.2,63.2c6.1,0,13.6-2.6,17.8-10c0-1.5-1.5-2.2-2.6-2c-2.7,4.1-6.6,4.6-9.5,4.6c-9.4,0-14.3-6.4-14.3-13
		c0-1.4,0.2-1.6,2.6-1.6h19.5c3.2,0,3.7-1.2,3.7-2.9c0-6.8-5.7-12.7-16.3-12.7c-12.7,0-21.9,8.6-21.9,19.7
		C66.1,54.9,73.5,63.2,87.2,63.2 M87.3,29.7c3.4,0,5.4,1.9,5.4,4.8c0,0.9-0.2,1.8-0.7,2c-1.1,0.6-2.8,0.8-4.2,0.8H84
		c-3.3,0-4.7-0.1-4.7-1.3C79.4,33.1,83,29.7,87.3,29.7"/>
	<path class="st0" d="M107.3,30.1c1.7,0.4,2.7,0.8,4.2,3.3c5,9.1,10,19.2,14.8,29.2c0.6,0.5,1.3,0.6,2.3,0.6c1,0,1.7-0.1,2.3-0.6
		c2.3-4.4,8.4-16.1,11.1-20.6c3.1,5.6,8.3,15.9,10.5,20.6c0.6,0.5,1.3,0.6,2.3,0.6c1,0,1.7-0.1,2.3-0.6c4.3-9.3,8.9-19,13.6-27.9
		c1.6-3.2,2.3-4.1,5.7-4.7l1.4-0.3c0.8-0.8,0.6-2.7-0.3-3.1c-2.2,0.2-4.9,0.3-7.8,0.3c-2.5,0-5-0.1-8.3-0.3c-1,0.4-1,2.5-0.4,3.1
		l1.7,0.3c1.7,0.4,2.5,0.8,2.5,1.2c0,0.6-0.3,1.8-0.9,3.4c-1.6,4.1-3.3,8.4-5.7,13.5c-2.2-4.2-5.1-9.9-6.9-14.1
		c-0.6-1.5-0.8-2-0.8-2.7c0-0.4,1.4-0.9,3.8-1.3l1.5-0.3c0.7-0.4,0.8-3-0.3-3.1c-6.5,0.2-11.6,0.3-18,0.3h-20.5
		c-4.2,0-7.5-0.1-11.7-0.3c-1,0.4-1,2.4-0.3,3.1L107.3,30.1z M130.3,30.1c1.9,0,3.5,0.1,4.9,0.3c2,0.4,3.8,3.2,3.8,4.6
		c0,0.7,0,1.5-0.3,2.6c-0.5,1.8-4,8.1-5.4,10.5c-1.7-2.8-5.8-10.7-7.2-13.8c-0.6-1.3-0.9-2.4-0.9-2.9
		C125.2,30.4,127.1,30.1,130.3,30.1"/>
	<path class="st0" d="M194.3,63.2c12.5,0,23.4-6.1,23.4-18.9c0-12.4-10.8-18.7-22.8-18.7c-12,0-23.5,6.9-23.4,19.5
		C171.6,57.2,182.2,63.2,194.3,63.2 M194.3,29.7c5.8,0,8.6,7.4,8.7,15.9c0.1,7.9-1.9,13.6-7.6,13.6c-5.9,0-9.2-6.8-9.2-16
		C186.1,33.6,189.8,29.7,194.3,29.7"/>
	<path class="st0" d="M235,33.2c0.6,0,1.5,0.1,3.9,1.8c1.3,1.1,2.5,1.6,4,1.6c3.2,0,6.5-1.7,6.5-5.7c0-3.3-2.8-5.2-5.6-5.2
		c-4.3,0-7.2,2.9-10,4.4c-0.8-0.2-1-0.4-1-1c0-0.8,0.2-2,0.4-3.8c-0.4-0.5-1-0.8-1.8-0.8c-3.2,1.8-10.2,4.1-14.9,5.3
		c-0.7,0.5-0.7,2.1,0,2.6l1.4,0.8c1.9,1.1,1.9,2.1,1.9,5.6V52c0,6.1-0.4,6.9-3.8,7.2l-1.9,0.2c-0.8,0.5-0.8,2.6,0.1,3.1
		c3.4-0.2,7.8-0.3,12-0.3c4.8,0,8.8,0.1,13.7,0.3c0.9-0.5,0.9-2.6,0.1-3.1l-3.2-0.2c-3.4-0.3-3.8-1-3.8-7.1V38.4
		C233,35.1,233.5,33.2,235,33.2"/>
	<path class="st0" d="M274.7,58.9l-1.3,0.3c-0.8,0.8-0.6,2.6,0.4,3.1c2.8-0.2,6.5-0.3,12.5-0.3c5.9,0,9.6,0.1,12.8,0.3
		c1-0.3,1.2-2.4,0.4-3.1l-1.5-0.3c-2.6-0.4-4.6-0.9-6-2c-2.6-2-11.5-14-13.3-16.8c-0.5-0.7-0.7-1.2-0.7-1.5c0-0.3,0.1-0.6,0.6-1.1
		c1.4-1.2,3-2.6,6.8-5.1c2.7-1.8,4.9-2.7,6.8-3.1l3.2-0.6c0.7-0.7,0.6-2.6-0.4-3.1c-6,0.8-14.4,1.2-19.2,1.2h-2.4
		c-1,0.4-1.1,2.3-0.2,3.1l2.5,0.4c0.9,0.1,1.9,0.4,1.9,0.9c0,0.5-0.5,1.5-2.4,3.5L271,39c-2,2-4.2,2.5-5.9,2.5
		c-1.1,0-1.4-0.3-1.4-1.2V13.4c0-5.5,0.1-9.2,0.3-12.8c-0.4-0.4-1.1-0.6-1.7-0.6c-5.2,1.9-11.4,4-15.5,4.9c-0.7,0.5-0.7,2.1,0,2.6
		l1.7,0.9c2,1.1,2,2,2,5.6v37.8c0,6.1-0.4,6.9-4.1,7.2l-1.9,0.2c-0.8,0.5-0.8,2.5,0.1,3.1c3.6-0.2,7.7-0.3,12.4-0.3
		c4.7,0,8.9,0.1,12.2,0.3c0.9-0.5,0.9-2.5,0.1-3.1l-1.6-0.2c-3.6-0.4-4-1.1-4-7.2v-5.1c0-1.7,0.5-2.1,1.2-2.1c1,0,1.8,0.4,2.6,1.3
		l7.2,9.5c0.8,1,1.7,2.4,1.7,2.8C276.3,58.5,275.7,58.7,274.7,58.9"/>
</g>
</svg>
