<?xml version="1.0" encoding="utf-8"?>
<!-- Generator: Adobe Illustrator 22.1.0, SVG Export Plug-In . SVG Version: 6.00 Build 0)  -->
<svg version="1.1" id="레이어_1" xmlns="http://www.w3.org/2000/svg" xmlns:xlink="http://www.w3.org/1999/xlink" x="0px"
	 y="0px" viewBox="0 0 500 120.2" style="enable-background:new 0 0 500 120.2;" xml:space="preserve">
<style type="text/css">
	.st0{fill:#FFFFFF;}
	.st1{fill:#007EC3;}
	.st2{clip-path:url(#SVGID_2_);fill:#007EC3;}
	.st3{clip-path:url(#SVGID_4_);fill:#0080C5;}
	.st4{clip-path:url(#SVGID_6_);fill:#0082C6;}
	.st5{clip-path:url(#SVGID_8_);fill:#0084C8;}
	.st6{clip-path:url(#SVGID_10_);fill:#0086C9;}
	.st7{clip-path:url(#SVGID_12_);fill:#0088CB;}
	.st8{clip-path:url(#SVGID_14_);fill:#038ACC;}
	.st9{clip-path:url(#SVGID_16_);fill:#048CCE;}
	.st10{clip-path:url(#SVGID_18_);fill:#088ECF;}
	.st11{clip-path:url(#SVGID_20_);fill:#0C90D1;}
	.st12{clip-path:url(#SVGID_22_);fill:#0E92D2;}
	.st13{clip-path:url(#SVGID_24_);fill:#1294D4;}
	.st14{clip-path:url(#SVGID_26_);fill:#1396D5;}
	.st15{clip-path:url(#SVGID_28_);fill:#1698D7;}
	.st16{clip-path:url(#SVGID_30_);fill:#189AD8;}
	.st17{clip-path:url(#SVGID_32_);fill:#1B9CD9;}
	.st18{clip-path:url(#SVGID_34_);fill:#1C9FDB;}
	.st19{clip-path:url(#SVGID_36_);fill:#1FA1DC;}
	.st20{clip-path:url(#SVGID_38_);fill:#20A3DE;}
	.st21{clip-path:url(#SVGID_40_);fill:#22A5DF;}
	.st22{clip-path:url(#SVGID_42_);fill:#24A7E1;}
	.st23{clip-path:url(#SVGID_44_);fill:#26A9E2;}
	.st24{clip-path:url(#SVGID_46_);fill:#28ABE4;}
	.st25{clip-path:url(#SVGID_48_);fill:#2AADE5;}
	.st26{clip-path:url(#SVGID_50_);fill:#2CB0E6;}
	.st27{clip-path:url(#SVGID_52_);fill:#2DB2E8;}
	.st28{clip-path:url(#SVGID_54_);fill:#2FB4E9;}
	.st29{clip-path:url(#SVGID_56_);fill:#30B6EB;}
	.st30{clip-path:url(#SVGID_58_);fill:#32B8EC;}
	.st31{clip-path:url(#SVGID_60_);fill:#34BAED;}
	.st32{clip-path:url(#SVGID_62_);fill:#36BCEF;}
	.st33{clip-path:url(#SVGID_64_);fill:#39BEF0;}
	.st34{clip-path:url(#SVGID_66_);fill:#46C0F0;}
	.st35{clip-path:url(#SVGID_68_);fill:#51C2F1;}
	.st36{clip-path:url(#SVGID_70_);fill:#5BC4F1;}
	.st37{clip-path:url(#SVGID_72_);fill:#65C7F2;}
	.st38{clip-path:url(#SVGID_74_);fill:#6DC9F2;}
	.st39{clip-path:url(#SVGID_76_);fill:#75CBF3;}
	.st40{clip-path:url(#SVGID_78_);fill:#7DCDF4;}
	.st41{clip-path:url(#SVGID_80_);fill:#85D0F4;}
	.st42{clip-path:url(#SVGID_82_);fill:#8CD2F5;}
	.st43{clip-path:url(#SVGID_84_);fill:#93D4F5;}
	.st44{clip-path:url(#SVGID_86_);fill:#99D6F6;}
	.st45{clip-path:url(#SVGID_88_);fill:#A0D9F6;}
	.st46{clip-path:url(#SVGID_90_);fill:#A5DBF7;}
	.st47{clip-path:url(#SVGID_92_);fill:#ABDDF7;}
	.st48{clip-path:url(#SVGID_94_);fill:#B1DFF8;}
	.st49{clip-path:url(#SVGID_96_);fill:#B7E1F9;}
	.st50{clip-path:url(#SVGID_98_);fill:#BCE4F9;}
	.st51{clip-path:url(#SVGID_100_);fill:#C2E6FA;}
	.st52{clip-path:url(#SVGID_102_);fill:#C7E8FA;}
	.st53{clip-path:url(#SVGID_104_);fill:#CCEAFA;}
	.st54{clip-path:url(#SVGID_106_);fill:#D1ECFB;}
	.st55{clip-path:url(#SVGID_108_);fill:#D6EEFB;}
	.st56{clip-path:url(#SVGID_110_);fill:#DBF0FC;}
	.st57{clip-path:url(#SVGID_112_);fill:#E0F2FC;}
	.st58{clip-path:url(#SVGID_114_);fill:#E5F4FD;}
	.st59{clip-path:url(#SVGID_116_);fill:#E9F6FD;}
	.st60{clip-path:url(#SVGID_118_);fill:#EEF8FD;}
	.st61{clip-path:url(#SVGID_120_);fill:#F2FAFE;}
	.st62{clip-path:url(#SVGID_122_);fill:#F7FCFE;}
	.st63{clip-path:url(#SVGID_124_);fill:#FBFDFF;}
	.st64{clip-path:url(#SVGID_126_);fill:#FFFFFF;}
	.st65{fill:#005FA9;}
</style>
<g>
	<path class="st0" d="M120.2,60.1c0,33.3-27,60.1-60.1,60.1S0,93.4,0,60.1C0,27,27,0,60.1,0S120.2,27,120.2,60.1"/>
	<path class="st1" d="M60.1,117.5c31.8,0,57.2-25.7,57.2-57.4c0-31.6-25.7-57.4-57.2-57.4S2.9,28.3,2.9,60.1S28.5,117.5,60.1,117.5"
		/>
	<g>
		<g>
			<defs>
				<path id="SVGID_1_" d="M2.9,60.1c0,31.6,25.7,57.2,57.4,57.2c31.6,0.2,57-25.5,57-57.2c0-31.6-25.7-57.4-57.2-57.4
					C28.5,2.9,2.9,28.5,2.9,60.1"/>
			</defs>
			<clipPath id="SVGID_2_">
				<use xlink:href="#SVGID_1_"  style="overflow:visible;"/>
			</clipPath>
			<path class="st2" d="M60.3,87.9c25.3,0,46.7,7.1,56.1,17c3.1-7.1,4.8-14.9,4.8-23.2c0-32.9-27.2-59.5-60.9-59.5
				C26.8,22-0.4,48.6-0.4,81.5c0,8.2,1.7,16.1,4.8,23.2C13.6,94.8,35.2,87.9,60.3,87.9"/>
		</g>
		<g>
			<defs>
				<path id="SVGID_3_" d="M2.9,60.1c0,31.6,25.7,57.2,57.4,57.2c31.6,0.2,57-25.5,57-57.2c0-31.6-25.7-57.4-57.2-57.4
					C28.5,2.9,2.9,28.5,2.9,60.1"/>
			</defs>
			<clipPath id="SVGID_4_">
				<use xlink:href="#SVGID_3_"  style="overflow:visible;"/>
			</clipPath>
			<path class="st3" d="M60.3,87.9c25.1,0,46.7,6.9,55.9,16.8c3.1-7.1,4.8-14.7,4.8-23c0-32.5-27.2-59.2-60.7-59.2
				c-33.5,0-60.7,26.6-60.7,59.2c0,8.2,1.7,15.9,4.8,23C13.8,94.8,35.2,87.9,60.3,87.9"/>
		</g>
		<g>
			<defs>
				<path id="SVGID_5_" d="M2.9,60.1c0,31.6,25.7,57.2,57.4,57.2c31.6,0.2,57-25.5,57-57.2c0-31.6-25.7-57.4-57.2-57.4
					C28.5,2.9,2.9,28.5,2.9,60.1"/>
			</defs>
			<clipPath id="SVGID_6_">
				<use xlink:href="#SVGID_5_"  style="overflow:visible;"/>
			</clipPath>
			<path class="st4" d="M60.3,87.9c25.1,0,46.5,6.9,55.7,16.7c3.1-7.1,4.8-14.7,4.8-22.8c0-32.4-27.2-58.8-60.5-58.8
				S-0.2,49.4-0.2,81.7c0,8,1.7,15.9,4.8,22.8C13.8,94.8,35.2,87.9,60.3,87.9"/>
		</g>
		<g>
			<defs>
				<path id="SVGID_7_" d="M2.9,60.1c0,31.6,25.7,57.2,57.4,57.2c31.6,0.2,57-25.5,57-57.2c0-31.6-25.7-57.4-57.2-57.4
					C28.5,2.9,2.9,28.5,2.9,60.1"/>
			</defs>
			<clipPath id="SVGID_8_">
				<use xlink:href="#SVGID_7_"  style="overflow:visible;"/>
			</clipPath>
			<path class="st5" d="M60.3,88.1c24.9,0,46.3,6.9,55.5,16.7c3.1-6.9,4.8-14.5,4.8-22.6c0-32.2-27-58.4-60.3-58.4
				C27,23.5,0,49.8,0,81.9c0,8,1.7,15.7,4.8,22.6C14,94.8,35.4,88.1,60.3,88.1"/>
		</g>
		<g>
			<defs>
				<path id="SVGID_9_" d="M2.9,60.1c0,31.6,25.7,57.2,57.4,57.2c31.6,0.2,57-25.5,57-57.2c0-31.6-25.7-57.4-57.2-57.4
					C28.5,2.9,2.9,28.5,2.9,60.1"/>
			</defs>
			<clipPath id="SVGID_10_">
				<use xlink:href="#SVGID_9_"  style="overflow:visible;"/>
			</clipPath>
			<path class="st6" d="M60.3,88.1c24.9,0,46.3,6.7,55.5,16.5c3.1-6.9,4.8-14.5,4.8-22.4c0-31.8-27-58-60.3-58s-60.1,26-60.1,58
				c0,7.8,1.7,15.5,4.8,22.4C14,94.8,35.4,88.1,60.3,88.1"/>
		</g>
		<g>
			<defs>
				<path id="SVGID_11_" d="M2.9,60.1c0,31.6,25.7,57.2,57.4,57.2c31.6,0.2,57-25.5,57-57.2c0-31.6-25.7-57.4-57.2-57.4
					C28.5,2.9,2.9,28.5,2.9,60.1"/>
			</defs>
			<clipPath id="SVGID_12_">
				<use xlink:href="#SVGID_11_"  style="overflow:visible;"/>
			</clipPath>
			<path class="st7" d="M60.3,88.1c24.9,0,46.1,6.7,55.3,16.3c3.1-6.9,4.8-14.4,4.8-22.2c0-31.6-27-57.6-60.1-57.6
				S0.2,50.5,0.2,82.1c0,7.8,1.7,15.5,4.8,22.2C14.2,94.9,35.4,88.1,60.3,88.1"/>
		</g>
		<g>
			<defs>
				<path id="SVGID_13_" d="M2.9,60.1c0,31.6,25.7,57.2,57.4,57.2c31.6,0.2,57-25.5,57-57.2c0-31.6-25.7-57.4-57.2-57.4
					C28.5,2.9,2.9,28.5,2.9,60.1"/>
			</defs>
			<clipPath id="SVGID_14_">
				<use xlink:href="#SVGID_13_"  style="overflow:visible;"/>
			</clipPath>
			<path class="st8" d="M60.3,88.2c24.7,0,46.1,6.7,55.1,16.1c3.1-6.7,4.8-14.2,4.8-22c0-31.4-26.8-57.2-59.9-57.2
				S0.4,50.9,0.4,82.3c0,7.8,1.7,15.3,4.8,22C14.2,94.9,35.6,88.2,60.3,88.2"/>
		</g>
		<g>
			<defs>
				<path id="SVGID_15_" d="M2.9,60.1c0,31.6,25.7,57.2,57.4,57.2c31.6,0.2,57-25.5,57-57.2c0-31.6-25.7-57.4-57.2-57.4
					C28.5,2.9,2.9,28.5,2.9,60.1"/>
			</defs>
			<clipPath id="SVGID_16_">
				<use xlink:href="#SVGID_15_"  style="overflow:visible;"/>
			</clipPath>
			<path class="st9" d="M60.3,88.2c24.7,0,45.9,6.5,54.9,16.1c3.1-6.7,4.8-14.2,4.8-21.8c0-31-26.8-56.9-59.7-56.9
				c-32.9,0-59.7,25.7-59.7,56.7c0,7.8,1.7,15.1,4.8,21.8C14.4,94.9,35.6,88.2,60.3,88.2"/>
		</g>
		<g>
			<defs>
				<path id="SVGID_17_" d="M2.9,60.1c0,31.6,25.7,57.2,57.4,57.2c31.6,0.2,57-25.5,57-57.2c0-31.6-25.7-57.4-57.2-57.4
					C28.5,2.9,2.9,28.5,2.9,60.1"/>
			</defs>
			<clipPath id="SVGID_18_">
				<use xlink:href="#SVGID_17_"  style="overflow:visible;"/>
			</clipPath>
			<path class="st10" d="M60.3,88.2c24.7,0,45.8,6.5,54.9,15.9c3.1-6.7,4.8-14,4.8-21.6c0-30.8-26.6-56.3-59.5-56.3
				c-33.1,0-59.7,25.5-59.7,56.3c0,7.7,1.7,15.1,4.8,21.6C14.5,94.9,35.6,88.2,60.3,88.2"/>
		</g>
		<g>
			<defs>
				<path id="SVGID_19_" d="M2.9,60.1c0,31.6,25.7,57.2,57.4,57.2c31.6,0.2,57-25.5,57-57.2c0-31.6-25.7-57.4-57.2-57.4
					C28.5,2.9,2.9,28.5,2.9,60.1"/>
			</defs>
			<clipPath id="SVGID_20_">
				<use xlink:href="#SVGID_19_"  style="overflow:visible;"/>
			</clipPath>
			<path class="st11" d="M60.3,88.4c24.7,0,45.8,6.5,54.7,15.7c3.1-6.5,4.8-14,4.8-21.4c0-30.4-26.6-55.9-59.3-55.9
				S1.1,52.3,1.1,82.7c0,7.7,1.7,14.9,4.8,21.4C14.5,94.9,35.8,88.4,60.3,88.4"/>
		</g>
		<g>
			<defs>
				<path id="SVGID_21_" d="M2.9,60.1c0,31.6,25.7,57.2,57.4,57.2c31.6,0.2,57-25.5,57-57.2c0-31.6-25.7-57.4-57.2-57.4
					C28.5,2.9,2.9,28.5,2.9,60.1"/>
			</defs>
			<clipPath id="SVGID_22_">
				<use xlink:href="#SVGID_21_"  style="overflow:visible;"/>
			</clipPath>
			<path class="st12" d="M60.3,88.4c24.5,0,45.6,6.5,54.6,15.7c3.1-6.5,4.6-13.8,4.6-21.2c0-30.2-26.6-55.5-59.3-55.5
				S0.8,52.6,0.8,82.9c0,7.7,1.7,14.7,4.8,21.2C14.7,94.9,35.8,88.4,60.3,88.4"/>
		</g>
		<g>
			<defs>
				<path id="SVGID_23_" d="M2.9,60.1c0,31.6,25.7,57.2,57.4,57.2c31.6,0.2,57-25.5,57-57.2c0-31.6-25.7-57.4-57.2-57.4
					C28.5,2.9,2.9,28.5,2.9,60.1"/>
			</defs>
			<clipPath id="SVGID_24_">
				<use xlink:href="#SVGID_23_"  style="overflow:visible;"/>
			</clipPath>
			<path class="st13" d="M60.3,88.4c24.5,0,45.6,6.3,54.4,15.5c3.1-6.5,4.6-13.6,4.6-21.2c0-30.1-26.4-55.1-59.2-55.1
				C27.6,27.6,1,52.8,1,82.7c0,7.5,1.7,14.7,4.6,21.2C14.7,94.9,35.8,88.4,60.3,88.4"/>
		</g>
		<g>
			<defs>
				<path id="SVGID_25_" d="M2.9,60.1c0,31.6,25.7,57.2,57.4,57.2c31.6,0.2,57-25.5,57-57.2c0-31.6-25.7-57.4-57.2-57.4
					C28.5,2.9,2.9,28.5,2.9,60.1"/>
			</defs>
			<clipPath id="SVGID_26_">
				<use xlink:href="#SVGID_25_"  style="overflow:visible;"/>
			</clipPath>
			<path class="st14" d="M60.3,88.6c24.3,0,45.4,6.3,54.4,15.3c3.1-6.5,4.6-13.6,4.6-20.9c0-29.7-26.4-54.7-59-54.7
				s-59,25.1-59,54.7c0,7.5,1.7,14.5,4.6,20.9C14.9,94.9,35.8,88.6,60.3,88.6"/>
		</g>
		<g>
			<defs>
				<path id="SVGID_27_" d="M2.9,60.1c0,31.6,25.7,57.2,57.4,57.2c31.6,0.2,57-25.5,57-57.2c0-31.6-25.7-57.4-57.2-57.4
					C28.5,2.9,2.9,28.5,2.9,60.1"/>
			</defs>
			<clipPath id="SVGID_28_">
				<use xlink:href="#SVGID_27_"  style="overflow:visible;"/>
			</clipPath>
			<path class="st15" d="M60.3,88.6c24.3,0,45.2,6.3,54.2,15.3c3.1-6.3,4.6-13.4,4.6-20.9c0-29.5-26.4-54.4-58.8-54.4
				c-32.5,0-58.8,24.9-58.8,54.4c0,7.5,1.7,14.4,4.6,20.9C14.9,94.9,36,88.6,60.3,88.6"/>
		</g>
		<g>
			<defs>
				<path id="SVGID_29_" d="M2.9,60.1c0,31.6,25.7,57.2,57.4,57.2c31.6,0.2,57-25.5,57-57.2c0-31.6-25.7-57.4-57.2-57.4
					C28.5,2.9,2.9,28.5,2.9,60.1"/>
			</defs>
			<clipPath id="SVGID_30_">
				<use xlink:href="#SVGID_29_"  style="overflow:visible;"/>
			</clipPath>
			<path class="st16" d="M60.3,88.6c24.3,0,45.2,6.1,54,15.1c3.1-6.3,4.6-13.2,4.6-20.7c0-29.3-26.2-54-58.6-54S1.7,54,1.7,83.1
				c0,7.3,1.7,14.4,4.6,20.7C15.1,94.9,36,88.6,60.3,88.6"/>
		</g>
		<g>
			<defs>
				<path id="SVGID_31_" d="M2.9,60.1c0,31.6,25.7,57.2,57.4,57.2c31.6,0.2,57-25.5,57-57.2c0-31.6-25.7-57.4-57.2-57.4
					C28.5,2.9,2.9,28.5,2.9,60.1"/>
			</defs>
			<clipPath id="SVGID_32_">
				<use xlink:href="#SVGID_31_"  style="overflow:visible;"/>
			</clipPath>
			<path class="st17" d="M60.3,88.8c24.3,0,45,6.1,53.8,14.9c3.1-6.3,4.6-13.2,4.6-20.5c0-28.9-26.2-53.6-58.6-53.6
				S1.7,54.4,1.7,83.3c0,7.3,1.7,14.2,4.6,20.5C15.3,94.9,36,88.8,60.3,88.8"/>
		</g>
		<g>
			<defs>
				<path id="SVGID_33_" d="M2.9,60.1c0,31.6,25.7,57.2,57.4,57.2c31.6,0.2,57-25.5,57-57.2c0-31.6-25.7-57.4-57.2-57.4
					C28.5,2.9,2.9,28.5,2.9,60.1"/>
			</defs>
			<clipPath id="SVGID_34_">
				<use xlink:href="#SVGID_33_"  style="overflow:visible;"/>
			</clipPath>
			<path class="st18" d="M60.3,88.8c24.1,0,44.8,6.1,53.8,14.7c3.1-6.1,4.6-13,4.6-20.3c0-28.7-26-53.2-58.4-53.2
				C28.1,30.2,1.9,54.7,1.9,83.5c0,7.1,1.7,14,4.6,20.3C15.3,94.9,36.2,88.8,60.3,88.8"/>
		</g>
		<g>
			<defs>
				<path id="SVGID_35_" d="M2.9,60.1c0,31.6,25.7,57.2,57.4,57.2c31.6,0.2,57-25.5,57-57.2c0-31.6-25.7-57.4-57.2-57.4
					C28.5,2.9,2.9,28.5,2.9,60.1"/>
			</defs>
			<clipPath id="SVGID_36_">
				<use xlink:href="#SVGID_35_"  style="overflow:visible;"/>
			</clipPath>
			<path class="st19" d="M60.3,88.8c24.1,0,44.8,6.1,53.6,14.5c3.1-6.1,4.6-12.8,4.6-20.1c0-28.1-26-52.6-58.2-52.6
				S2.1,55.1,2.1,83.5c0,7.1,1.7,14,4.6,20.1C15.5,94.9,36.2,88.8,60.3,88.8"/>
		</g>
		<g>
			<defs>
				<path id="SVGID_37_" d="M2.9,60.1c0,31.6,25.7,57.2,57.4,57.2c31.6,0.2,57-25.5,57-57.2c0-31.6-25.7-57.4-57.2-57.4
					C28.5,2.9,2.9,28.5,2.9,60.1"/>
			</defs>
			<clipPath id="SVGID_38_">
				<use xlink:href="#SVGID_37_"  style="overflow:visible;"/>
			</clipPath>
			<path class="st20" d="M60.3,89c24.1,0,44.6,5.9,53.4,14.5c2.9-6.1,4.6-12.8,4.6-19.9c0-28.1-26-52.5-58-52.5
				c-32.2,0-58,24.3-58,52.5c0,7.1,1.7,13.8,4.6,19.9C15.5,94.9,36.2,89,60.3,89"/>
		</g>
		<g>
			<defs>
				<path id="SVGID_39_" d="M2.9,60.1c0,31.6,25.7,57.2,57.4,57.2c31.6,0.2,57-25.5,57-57.2c0-31.6-25.7-57.4-57.2-57.4
					C28.5,2.9,2.9,28.5,2.9,60.1"/>
			</defs>
			<clipPath id="SVGID_40_">
				<use xlink:href="#SVGID_39_"  style="overflow:visible;"/>
			</clipPath>
			<path class="st21" d="M60.3,89c23.9,0,44.6,5.9,53.2,14.4c2.9-5.9,4.6-12.6,4.6-19.7c0-27.9-25.8-52.1-57.8-52.1
				S2.5,55.7,2.5,83.7c0,6.9,1.5,13.6,4.6,19.7C15.7,94.9,36.2,89,60.3,89"/>
		</g>
		<g>
			<defs>
				<path id="SVGID_41_" d="M2.9,60.1c0,31.6,25.7,57.2,57.4,57.2c31.6,0.2,57-25.5,57-57.2c0-31.6-25.7-57.4-57.2-57.4
					C28.5,2.9,2.9,28.5,2.9,60.1"/>
			</defs>
			<clipPath id="SVGID_42_">
				<use xlink:href="#SVGID_41_"  style="overflow:visible;"/>
			</clipPath>
			<path class="st22" d="M60.3,89c23.9,0,44.4,5.9,53.2,14.2c2.9-5.9,4.6-12.6,4.6-19.5c0-27.6-25.8-51.7-57.8-51.7
				C28.5,32,2.7,55.9,2.7,83.7c0,6.9,1.7,13.4,4.6,19.5C15.9,94.9,36.4,89,60.3,89"/>
		</g>
		<g>
			<defs>
				<path id="SVGID_43_" d="M2.9,60.1c0,31.6,25.7,57.2,57.4,57.2c31.6,0.2,57-25.5,57-57.2c0-31.6-25.7-57.4-57.2-57.4
					C28.5,2.9,2.9,28.5,2.9,60.1"/>
			</defs>
			<clipPath id="SVGID_44_">
				<use xlink:href="#SVGID_43_"  style="overflow:visible;"/>
			</clipPath>
			<path class="st23" d="M60.3,89.2c23.9,0,44.2,5.7,53,14.2c2.9-5.9,4.6-12.4,4.6-19.3c0-27.4-25.8-51.1-57.6-51.1S2.7,56.9,2.7,84
				c0,6.9,1.5,13.4,4.6,19.3C15.9,94.9,36.4,89.2,60.3,89.2"/>
		</g>
		<g>
			<defs>
				<path id="SVGID_45_" d="M2.9,60.1c0,31.6,25.7,57.2,57.4,57.2c31.6,0.2,57-25.5,57-57.2c0-31.6-25.7-57.4-57.2-57.4
					C28.5,2.9,2.9,28.5,2.9,60.1"/>
			</defs>
			<clipPath id="SVGID_46_">
				<use xlink:href="#SVGID_45_"  style="overflow:visible;"/>
			</clipPath>
			<path class="st24" d="M60.3,89.2c23.7,0,44.2,5.7,52.8,14c2.9-5.9,4.6-12.3,4.6-19.1c0-27-25.7-50.7-57.4-50.7
				C28.7,33.3,2.9,57,2.9,84c0,6.7,1.5,13.2,4.6,19.1C16.1,94.9,36.4,89.2,60.3,89.2"/>
		</g>
		<g>
			<defs>
				<path id="SVGID_47_" d="M2.9,60.1c0,31.6,25.7,57.2,57.4,57.2c31.6,0.2,57-25.5,57-57.2c0-31.6-25.7-57.4-57.2-57.4
					C28.5,2.9,2.9,28.5,2.9,60.1"/>
			</defs>
			<clipPath id="SVGID_48_">
				<use xlink:href="#SVGID_47_"  style="overflow:visible;"/>
			</clipPath>
			<path class="st25" d="M60.1,89.2c23.7,0,44,5.7,52.6,13.8c2.9-5.7,4.6-12.3,4.6-19c0-26.8-25.7-50.3-57.2-50.3
				c-31.6,0-57.2,23.7-57.2,50.5c0,6.7,1.5,13.2,4.6,19C16.1,94.9,36.6,89.2,60.1,89.2"/>
		</g>
		<g>
			<defs>
				<path id="SVGID_49_" d="M2.9,60.1c0,31.6,25.7,57.2,57.4,57.2c31.6,0.2,57-25.5,57-57.2c0-31.6-25.7-57.4-57.2-57.4
					C28.5,2.9,2.9,28.5,2.9,60.1"/>
			</defs>
			<clipPath id="SVGID_50_">
				<use xlink:href="#SVGID_49_"  style="overflow:visible;"/>
			</clipPath>
			<path class="st26" d="M60.1,89.4c23.5,0,43.8,5.6,52.6,13.8c2.9-5.7,4.6-12.1,4.6-18.8c0-26.6-25.7-50-57-50
				C28.7,34.3,3.1,57.8,3.1,84.2c0,6.7,1.5,13,4.6,18.8C16.3,94.9,36.6,89.4,60.1,89.4"/>
		</g>
		<g>
			<defs>
				<path id="SVGID_51_" d="M2.9,60.1c0,31.6,25.7,57.2,57.4,57.2c31.6,0.2,57-25.5,57-57.2c0-31.6-25.7-57.4-57.2-57.4
					C28.5,2.9,2.9,28.5,2.9,60.1"/>
			</defs>
			<clipPath id="SVGID_52_">
				<use xlink:href="#SVGID_51_"  style="overflow:visible;"/>
			</clipPath>
			<path class="st27" d="M60.1,89.4c23.5,0,43.8,5.6,52.5,13.6c2.9-5.7,4.4-11.9,4.4-18.6c0-26.2-25.5-49.6-56.9-49.6
				c-31.4,0-56.9,23.4-56.9,49.6c0,6.5,1.5,12.8,4.6,18.6C16.3,94.9,36.6,89.4,60.1,89.4"/>
		</g>
		<g>
			<defs>
				<path id="SVGID_53_" d="M2.9,60.1c0,31.6,25.7,57.2,57.4,57.2c31.6,0.2,57-25.5,57-57.2c0-31.6-25.7-57.4-57.2-57.4
					C28.5,2.9,2.9,28.5,2.9,60.1"/>
			</defs>
			<clipPath id="SVGID_54_">
				<use xlink:href="#SVGID_53_"  style="overflow:visible;"/>
			</clipPath>
			<path class="st28" d="M60.1,89.4c23.5,0,43.6,5.6,52.3,13.4c2.9-5.6,4.4-11.9,4.4-18.4c0-26-25.5-49.2-56.9-49.2
				S3.1,58.4,3.1,84.4c0,6.5,1.5,12.8,4.4,18.4C16.5,94.9,36.8,89.4,60.1,89.4"/>
		</g>
		<g>
			<defs>
				<path id="SVGID_55_" d="M2.9,60.1c0,31.6,25.7,57.2,57.4,57.2c31.6,0.2,57-25.5,57-57.2c0-31.6-25.7-57.4-57.2-57.4
					C28.5,2.9,2.9,28.5,2.9,60.1"/>
			</defs>
			<clipPath id="SVGID_56_">
				<use xlink:href="#SVGID_55_"  style="overflow:visible;"/>
			</clipPath>
			<path class="st29" d="M60.1,89.6c23.4,0,43.5,5.6,52.1,13.2c2.9-5.6,4.4-11.7,4.4-18.2c0-25.8-25.3-48.8-56.7-48.8
				C28.7,35.8,3.3,59,3.3,84.6c0,6.5,1.5,12.6,4.4,18.2C16.7,94.9,36.8,89.6,60.1,89.6"/>
		</g>
		<g>
			<defs>
				<path id="SVGID_57_" d="M2.9,60.1c0,31.6,25.7,57.2,57.4,57.2c31.6,0.2,57-25.5,57-57.2c0-31.6-25.7-57.4-57.2-57.4
					C28.5,2.9,2.9,28.5,2.9,60.1"/>
			</defs>
			<clipPath id="SVGID_58_">
				<use xlink:href="#SVGID_57_"  style="overflow:visible;"/>
			</clipPath>
			<path class="st30" d="M60.1,89.6c23.4,0,43.5,5.4,52.1,13.2c2.9-5.6,4.4-11.7,4.4-18c0-25.5-25.3-48.4-56.5-48.4
				S3.6,59.3,3.6,84.8c0,6.3,1.5,12.4,4.4,18C16.7,94.9,36.8,89.6,60.1,89.6"/>
		</g>
		<g>
			<defs>
				<path id="SVGID_59_" d="M2.9,60.1c0,31.6,25.7,57.2,57.4,57.2c31.6,0.2,57-25.5,57-57.2c0-31.6-25.7-57.4-57.2-57.4
					C28.5,2.9,2.9,28.5,2.9,60.1"/>
			</defs>
			<clipPath id="SVGID_60_">
				<use xlink:href="#SVGID_59_"  style="overflow:visible;"/>
			</clipPath>
			<path class="st31" d="M60.1,89.6c23.4,0,43.3,5.4,51.9,13c2.9-5.6,4.4-11.5,4.4-17.8c0-25.3-25.3-48-56.3-48
				c-31,0-56.3,23-56.3,48c0,6.3,1.5,12.4,4.4,17.8C16.8,94.9,36.9,89.6,60.1,89.6"/>
		</g>
		<g>
			<defs>
				<path id="SVGID_61_" d="M2.9,60.1c0,31.6,25.7,57.2,57.4,57.2c31.6,0.2,57-25.5,57-57.2c0-31.6-25.7-57.4-57.2-57.4
					C28.5,2.9,2.9,28.5,2.9,60.1"/>
			</defs>
			<clipPath id="SVGID_62_">
				<use xlink:href="#SVGID_61_"  style="overflow:visible;"/>
			</clipPath>
			<path class="st32" d="M60.1,89.8c23.2,0,43.3,5.4,51.7,12.8c2.9-5.4,4.4-11.3,4.4-17.6c0-25.1-25.1-47.7-56.1-47.7S4,59.9,4,85
				c0,6.3,1.5,12.3,4.4,17.6C16.8,94.9,36.9,89.8,60.1,89.8"/>
		</g>
		<g>
			<defs>
				<path id="SVGID_63_" d="M2.9,60.1c0,31.6,25.7,57.2,57.4,57.2c31.6,0.2,57-25.5,57-57.2c0-31.6-25.7-57.4-57.2-57.4
					C28.5,2.9,2.9,28.5,2.9,60.1"/>
			</defs>
			<clipPath id="SVGID_64_">
				<use xlink:href="#SVGID_63_"  style="overflow:visible;"/>
			</clipPath>
			<path class="st33" d="M60.1,89.8c23.2,0,43.1,5.2,51.5,12.8c2.9-5.4,4.4-11.3,4.4-17.4c0-24.7-25.1-47.3-55.9-47.3
				S4.2,60.5,4.2,85.2c0,6.1,1.5,12.1,4.4,17.4C17,94.9,36.9,89.8,60.1,89.8"/>
		</g>
		<g>
			<defs>
				<path id="SVGID_65_" d="M2.9,60.1c0,31.6,25.7,57.2,57.4,57.2c31.6,0.2,57-25.5,57-57.2c0-31.6-25.7-57.4-57.2-57.4
					C28.5,2.9,2.9,28.5,2.9,60.1"/>
			</defs>
			<clipPath id="SVGID_66_">
				<use xlink:href="#SVGID_65_"  style="overflow:visible;"/>
			</clipPath>
			<path class="st34" d="M60.1,90c23.2,0,43.1,5.2,51.5,12.6c2.9-5.4,4.4-11.1,4.4-17.2c0-24.7-25.1-47.1-55.9-47.1
				S4.2,60.7,4.2,85.2c0,6.1,1.5,12.1,4.4,17.2C17,95.1,36.9,90,60.1,90"/>
		</g>
		<g>
			<defs>
				<path id="SVGID_67_" d="M2.9,60.1c0,31.6,25.7,57.2,57.4,57.2c31.6,0.2,57-25.5,57-57.2c0-31.6-25.7-57.4-57.2-57.4
					C28.5,2.9,2.9,28.5,2.9,60.1"/>
			</defs>
			<clipPath id="SVGID_68_">
				<use xlink:href="#SVGID_67_"  style="overflow:visible;"/>
			</clipPath>
			<path class="st35" d="M60.1,90.2c23.2,0,42.9,5.2,51.5,12.6c2.9-5.2,4.4-11.1,4.4-17.2c0-24.3-24.9-46.7-55.9-46.7
				c-30.8,0-55.9,22.4-55.9,46.7c0,6.1,1.5,11.9,4.4,17.2C17.2,95.3,37.1,90.2,60.1,90.2"/>
		</g>
		<g>
			<defs>
				<path id="SVGID_69_" d="M2.9,60.1c0,31.6,25.7,57.2,57.4,57.2c31.6,0.2,57-25.5,57-57.2c0-31.6-25.7-57.4-57.2-57.4
					C28.5,2.9,2.9,28.5,2.9,60.1"/>
			</defs>
			<clipPath id="SVGID_70_">
				<use xlink:href="#SVGID_69_"  style="overflow:visible;"/>
			</clipPath>
			<path class="st36" d="M60.1,90.2c23.2,0,42.9,5.2,51.3,12.4c2.9-5.2,4.4-11.1,4.4-17c0-24.3-24.9-46.3-55.7-46.3
				S4.4,61.4,4.4,85.6c0,6.1,1.5,11.9,4.4,17C17.2,95.3,37.1,90.2,60.1,90.2"/>
		</g>
		<g>
			<defs>
				<path id="SVGID_71_" d="M2.9,60.1c0,31.6,25.7,57.2,57.4,57.2c31.6,0.2,57-25.5,57-57.2c0-31.6-25.7-57.4-57.2-57.4
					C28.5,2.9,2.9,28.5,2.9,60.1"/>
			</defs>
			<clipPath id="SVGID_72_">
				<use xlink:href="#SVGID_71_"  style="overflow:visible;"/>
			</clipPath>
			<path class="st37" d="M60.1,90.4c23,0,42.9,5.2,51.3,12.4c2.9-5.2,4.4-10.9,4.4-16.8c0-24.1-24.9-46.1-55.7-46.1
				S4.4,61.8,4.4,85.9c0,5.9,1.5,11.7,4.4,16.8C17.2,95.5,37.1,90.4,60.1,90.4"/>
		</g>
		<g>
			<defs>
				<path id="SVGID_73_" d="M2.9,60.1c0,31.6,25.7,57.2,57.4,57.2c31.6,0.2,57-25.5,57-57.2c0-31.6-25.7-57.4-57.2-57.4
					C28.5,2.9,2.9,28.5,2.9,60.1"/>
			</defs>
			<clipPath id="SVGID_74_">
				<use xlink:href="#SVGID_73_"  style="overflow:visible;"/>
			</clipPath>
			<path class="st38" d="M60.1,90.5c23,0,42.9,5.2,51.3,12.3c2.9-5.2,4.4-10.9,4.4-16.8c0-23.9-24.9-45.8-55.7-45.8
				c-30.6,0-55.7,22-55.7,45.8c0,5.9,1.5,11.7,4.4,16.8C17.4,95.5,37.1,90.5,60.1,90.5"/>
		</g>
		<g>
			<defs>
				<path id="SVGID_75_" d="M2.9,60.1c0,31.6,25.7,57.2,57.4,57.2c31.6,0.2,57-25.5,57-57.2c0-31.6-25.7-57.4-57.2-57.4
					C28.5,2.9,2.9,28.5,2.9,60.1"/>
			</defs>
			<clipPath id="SVGID_76_">
				<use xlink:href="#SVGID_75_"  style="overflow:visible;"/>
			</clipPath>
			<path class="st39" d="M60.1,90.7c23,0,42.7,5,51.1,12.3c2.9-5.2,4.4-10.9,4.4-16.7c0-23.7-24.9-45.6-55.5-45.6S4.6,62.6,4.6,86.3
				C4.6,92.3,6.1,98,9,103C17.4,95.7,37.1,90.7,60.1,90.7"/>
		</g>
		<g>
			<defs>
				<path id="SVGID_77_" d="M2.9,60.1c0,31.6,25.7,57.2,57.4,57.2c31.6,0.2,57-25.5,57-57.2c0-31.6-25.7-57.4-57.2-57.4
					C28.5,2.9,2.9,28.5,2.9,60.1"/>
			</defs>
			<clipPath id="SVGID_78_">
				<use xlink:href="#SVGID_77_"  style="overflow:visible;"/>
			</clipPath>
			<path class="st40" d="M60.1,90.7c23,0,42.7,5,51.1,12.3c2.9-5.2,4.4-10.7,4.4-16.7c0-23.5-24.9-45.2-55.5-45.2S4.6,62.8,4.6,86.3
				c0,5.9,1.5,11.5,4.4,16.7C17.4,95.7,37.1,90.7,60.1,90.7"/>
		</g>
		<g>
			<defs>
				<path id="SVGID_79_" d="M2.9,60.1c0,31.6,25.7,57.2,57.4,57.2c31.6,0.2,57-25.5,57-57.2c0-31.6-25.7-57.4-57.2-57.4
					C28.5,2.9,2.9,28.5,2.9,60.1"/>
			</defs>
			<clipPath id="SVGID_80_">
				<use xlink:href="#SVGID_79_"  style="overflow:visible;"/>
			</clipPath>
			<path class="st41" d="M60.1,90.9c23,0,42.5,5,50.9,12.1c2.9-5,4.4-10.7,4.4-16.5c0-23.4-24.7-45-55.3-45S4.8,63.2,4.8,86.5
				c0,5.9,1.5,11.5,4.4,16.5C17.6,95.9,37.1,90.9,60.1,90.9"/>
		</g>
		<g>
			<defs>
				<path id="SVGID_81_" d="M2.9,60.1c0,31.6,25.7,57.2,57.4,57.2c31.6,0.2,57-25.5,57-57.2c0-31.6-25.7-57.4-57.2-57.4
					C28.5,2.9,2.9,28.5,2.9,60.1"/>
			</defs>
			<clipPath id="SVGID_82_">
				<use xlink:href="#SVGID_81_"  style="overflow:visible;"/>
			</clipPath>
			<path class="st42" d="M60.1,91.1c23,0,42.5,5,50.9,12.1c2.9-5,4.4-10.5,4.4-16.5c0-23.4-24.7-44.6-55.3-44.6
				c-30.4,0-55.3,21.2-55.3,44.6c0,5.7,1.5,11.3,4.4,16.5C17.6,96.1,37.3,91.1,60.1,91.1"/>
		</g>
		<g>
			<defs>
				<path id="SVGID_83_" d="M2.9,60.1c0,31.6,25.7,57.2,57.4,57.2c31.6,0.2,57-25.5,57-57.2c0-31.6-25.7-57.4-57.2-57.4
					C28.5,2.9,2.9,28.5,2.9,60.1"/>
			</defs>
			<clipPath id="SVGID_84_">
				<use xlink:href="#SVGID_83_"  style="overflow:visible;"/>
			</clipPath>
			<path class="st43" d="M60.1,91.3c22.8,0,42.5,5,50.9,11.9c2.9-5,4.4-10.5,4.4-16.3c0-23.2-24.7-44.4-55.3-44.4
				c-30.4,0-55.3,21.2-55.3,44.4c0,5.7,1.5,11.3,4.4,16.3C17.6,96.1,37.3,91.3,60.1,91.3"/>
		</g>
		<g>
			<defs>
				<path id="SVGID_85_" d="M2.9,60.1c0,31.6,25.7,57.2,57.4,57.2c31.6,0.2,57-25.5,57-57.2c0-31.6-25.7-57.4-57.2-57.4
					C28.5,2.9,2.9,28.5,2.9,60.1"/>
			</defs>
			<clipPath id="SVGID_86_">
				<use xlink:href="#SVGID_85_"  style="overflow:visible;"/>
			</clipPath>
			<path class="st44" d="M60.1,91.3c22.8,0,42.5,4.8,50.7,11.9c2.9-5,4.4-10.3,4.4-16.1c0-23-24.7-44-55.1-44S5,64.1,5,87.1
				c0,5.7,1.5,11.3,4.4,16.1C17.6,96.3,37.3,91.3,60.1,91.3"/>
		</g>
		<g>
			<defs>
				<path id="SVGID_87_" d="M2.9,60.1c0,31.6,25.7,57.2,57.4,57.2c31.6,0.2,57-25.5,57-57.2c0-31.6-25.7-57.4-57.2-57.4
					C28.5,2.9,2.9,28.5,2.9,60.1"/>
			</defs>
			<clipPath id="SVGID_88_">
				<use xlink:href="#SVGID_87_"  style="overflow:visible;"/>
			</clipPath>
			<path class="st45" d="M60.1,91.5c22.8,0,42.3,4.8,50.7,11.7c2.9-5,4.4-10.3,4.4-16.1c0-22.8-24.7-43.8-55.1-43.8S5,64.3,5,87.1
				c0,5.7,1.5,11.1,4.4,16.1C17.8,96.3,37.3,91.5,60.1,91.5"/>
		</g>
		<g>
			<defs>
				<path id="SVGID_89_" d="M2.9,60.1c0,31.6,25.7,57.2,57.4,57.2c31.6,0.2,57-25.5,57-57.2c0-31.6-25.7-57.4-57.2-57.4
					C28.5,2.9,2.9,28.5,2.9,60.1"/>
			</defs>
			<clipPath id="SVGID_90_">
				<use xlink:href="#SVGID_89_"  style="overflow:visible;"/>
			</clipPath>
			<path class="st46" d="M60.1,91.7c22.8,0,42.3,4.8,50.7,11.7c2.9-4.8,4.4-10.3,4.4-15.9c0-22.6-24.7-43.5-54.9-43.5
				C29.9,44,5.4,64.9,5.4,87.5c0,5.7,1.5,11.1,4.4,15.9C17.8,96.5,37.3,91.7,60.1,91.7"/>
		</g>
		<g>
			<defs>
				<path id="SVGID_91_" d="M2.9,60.1c0,31.6,25.7,57.2,57.4,57.2c31.6,0.2,57-25.5,57-57.2c0-31.6-25.7-57.4-57.2-57.4
					C28.5,2.9,2.9,28.5,2.9,60.1"/>
			</defs>
			<clipPath id="SVGID_92_">
				<use xlink:href="#SVGID_91_"  style="overflow:visible;"/>
			</clipPath>
			<path class="st47" d="M60.1,91.9c22.8,0,42.3,4.8,50.5,11.7c2.9-4.8,4.4-10.1,4.4-15.9c0-22.4-24.5-43.3-54.9-43.3
				c-30.2,0-54.9,20.7-54.9,43.3c0,5.6,1.5,10.9,4.4,15.9C17.8,96.7,37.5,91.9,60.1,91.9"/>
		</g>
		<g>
			<defs>
				<path id="SVGID_93_" d="M2.9,60.1c0,31.6,25.7,57.2,57.4,57.2c31.6,0.2,57-25.5,57-57.2c0-31.6-25.7-57.4-57.2-57.4
					C28.5,2.9,2.9,28.5,2.9,60.1"/>
			</defs>
			<clipPath id="SVGID_94_">
				<use xlink:href="#SVGID_93_"  style="overflow:visible;"/>
			</clipPath>
			<path class="st48" d="M60.1,91.9c22.6,0,42.1,4.8,50.5,11.5c2.7-4.8,4.4-10.1,4.4-15.7c0-22.2-24.5-42.9-54.7-42.9
				S5.4,65.5,5.4,87.7c0,5.6,1.5,10.9,4.4,15.7C18,96.7,37.5,91.9,60.1,91.9"/>
		</g>
		<g>
			<defs>
				<path id="SVGID_95_" d="M2.9,60.1c0,31.6,25.7,57.2,57.4,57.2c31.6,0.2,57-25.5,57-57.2c0-31.6-25.7-57.4-57.2-57.4
					C28.5,2.9,2.9,28.5,2.9,60.1"/>
			</defs>
			<clipPath id="SVGID_96_">
				<use xlink:href="#SVGID_95_"  style="overflow:visible;"/>
			</clipPath>
			<path class="st49" d="M60.1,92.1c22.6,0,42.1,4.8,50.5,11.5c2.7-4.8,4.4-10.1,4.4-15.5c0-22.2-24.5-42.7-54.7-42.7
				S5.6,65.8,5.6,88.1c0,5.6,1.5,10.9,4.4,15.5C18,96.9,37.5,92.1,60.1,92.1"/>
		</g>
		<g>
			<defs>
				<path id="SVGID_97_" d="M2.9,60.1c0,31.6,25.7,57.2,57.4,57.2c31.6,0.2,57-25.5,57-57.2c0-31.6-25.7-57.4-57.2-57.4
					C28.5,2.9,2.9,28.5,2.9,60.1"/>
			</defs>
			<clipPath id="SVGID_98_">
				<use xlink:href="#SVGID_97_"  style="overflow:visible;"/>
			</clipPath>
			<path class="st50" d="M60.1,92.3c22.6,0,42.1,4.6,50.3,11.3c2.9-4.8,4.4-10,4.4-15.5c0-22-24.5-42.3-54.7-42.3S5.4,66,5.4,88.1
				c0,5.6,1.5,10.7,4.2,15.5C18,96.9,37.5,92.3,60.1,92.3"/>
		</g>
		<g>
			<defs>
				<path id="SVGID_99_" d="M2.9,60.1c0,31.6,25.7,57.2,57.4,57.2c31.6,0.2,57-25.5,57-57.2c0-31.6-25.7-57.4-57.2-57.4
					C28.5,2.9,2.9,28.5,2.9,60.1"/>
			</defs>
			<clipPath id="SVGID_100_">
				<use xlink:href="#SVGID_99_"  style="overflow:visible;"/>
			</clipPath>
			<path class="st51" d="M60.1,92.5c22.6,0,42.1,4.6,50.3,11.3c2.7-4.8,4.4-10,4.4-15.3c0-21.8-24.5-42.1-54.6-42.1
				c-30.2,0-54.6,20.3-54.6,42.1c0,5.6,1.5,10.7,4.2,15.3C18.2,97.1,37.5,92.5,60.1,92.5"/>
		</g>
		<g>
			<defs>
				<path id="SVGID_101_" d="M2.9,60.1c0,31.6,25.7,57.2,57.4,57.2c31.6,0.2,57-25.5,57-57.2c0-31.6-25.7-57.4-57.2-57.4
					C28.5,2.9,2.9,28.5,2.9,60.1"/>
			</defs>
			<clipPath id="SVGID_102_">
				<use xlink:href="#SVGID_101_"  style="overflow:visible;"/>
			</clipPath>
			<path class="st52" d="M60.1,92.5c22.6,0,41.9,4.6,50.2,11.1c2.7-4.6,4.2-9.8,4.2-15.3c0-21.6-24.5-41.7-54.6-41.7
				S5.4,66.6,5.4,88.2c0,5.4,1.5,10.5,4.4,15.3C18.2,97.2,37.5,92.5,60.1,92.5"/>
		</g>
		<g>
			<defs>
				<path id="SVGID_103_" d="M2.9,60.1c0,31.6,25.7,57.2,57.4,57.2c31.6,0.2,57-25.5,57-57.2c0-31.6-25.7-57.4-57.2-57.4
					C28.5,2.9,2.9,28.5,2.9,60.1"/>
			</defs>
			<clipPath id="SVGID_104_">
				<use xlink:href="#SVGID_103_"  style="overflow:visible;"/>
			</clipPath>
			<path class="st53" d="M60.1,92.6c22.6,0,41.9,4.6,50.2,11.1c2.7-4.6,4.2-9.8,4.2-15.1c0-21.4-24.5-41.5-54.6-41.5
				c-29.9,0-54.2,20.1-54.2,41.5c0,5.4,1.5,10.5,4.4,15.1C18.2,97.2,37.5,92.6,60.1,92.6"/>
		</g>
		<g>
			<defs>
				<path id="SVGID_105_" d="M2.9,60.1c0,31.6,25.7,57.2,57.4,57.2c31.6,0.2,57-25.5,57-57.2c0-31.6-25.7-57.4-57.2-57.4
					C28.5,2.9,2.9,28.5,2.9,60.1"/>
			</defs>
			<clipPath id="SVGID_106_">
				<use xlink:href="#SVGID_105_"  style="overflow:visible;"/>
			</clipPath>
			<path class="st54" d="M60.1,92.8c22.6,0,41.9,4.6,50.2,10.9c2.9-4.6,4.2-9.8,4.2-15.1c0-21.4-24.3-41.2-54.4-41.2
				C30.1,47.7,5.7,67.6,5.7,88.8c0,5.4,1.5,10.3,4.2,15.1C18.2,97.4,37.7,92.8,60.1,92.8"/>
		</g>
		<g>
			<defs>
				<path id="SVGID_107_" d="M2.9,60.1c0,31.6,25.7,57.2,57.4,57.2c31.6,0.2,57-25.5,57-57.2c0-31.6-25.7-57.4-57.2-57.4
					C28.5,2.9,2.9,28.5,2.9,60.1"/>
			</defs>
			<clipPath id="SVGID_108_">
				<use xlink:href="#SVGID_107_"  style="overflow:visible;"/>
			</clipPath>
			<path class="st55" d="M60.1,93c22.4,0,41.7,4.4,50,10.9c2.7-4.6,4.2-9.6,4.2-14.9c0-21.2-24.3-41-54.4-41
				C30.1,48,5.7,67.8,5.7,89c0,5.4,1.5,10.3,4.2,14.9C18.4,97.4,37.7,93,60.1,93"/>
		</g>
		<g>
			<defs>
				<path id="SVGID_109_" d="M2.9,60.1c0,31.6,25.7,57.2,57.4,57.2c31.6,0.2,57-25.5,57-57.2c0-31.6-25.7-57.4-57.2-57.4
					C28.5,2.9,2.9,28.5,2.9,60.1"/>
			</defs>
			<clipPath id="SVGID_110_">
				<use xlink:href="#SVGID_109_"  style="overflow:visible;"/>
			</clipPath>
			<path class="st56" d="M60.1,93.2c22.4,0,41.7,4.4,50,10.9c2.7-4.6,4.2-9.6,4.2-14.7c0-21.1-24.3-40.6-54.2-40.6
				c-30.1,0-54.2,19.5-54.2,40.6c0,5.4,1.5,10.3,4.2,14.7C18.4,97.6,37.7,93.2,60.1,93.2"/>
		</g>
		<g>
			<defs>
				<path id="SVGID_111_" d="M2.9,60.1c0,31.6,25.7,57.2,57.4,57.2c31.6,0.2,57-25.5,57-57.2c0-31.6-25.7-57.4-57.2-57.4
					C28.5,2.9,2.9,28.5,2.9,60.1"/>
			</defs>
			<clipPath id="SVGID_112_">
				<use xlink:href="#SVGID_111_"  style="overflow:visible;"/>
			</clipPath>
			<path class="st57" d="M60.1,93.2c22.4,0,41.7,4.4,50,10.7c2.7-4.4,4.2-9.4,4.2-14.7C114.3,68.3,90,49,60.1,49S5.9,68.5,5.9,89.2
				c0,5.2,1.5,10.1,4.2,14.7C18.4,97.8,37.7,93.2,60.1,93.2"/>
		</g>
		<g>
			<defs>
				<path id="SVGID_113_" d="M2.9,60.1c0,31.6,25.7,57.2,57.4,57.2c31.6,0.2,57-25.5,57-57.2c0-31.6-25.7-57.4-57.2-57.4
					C28.5,2.9,2.9,28.5,2.9,60.1"/>
			</defs>
			<clipPath id="SVGID_114_">
				<use xlink:href="#SVGID_113_"  style="overflow:visible;"/>
			</clipPath>
			<path class="st58" d="M60.1,93.4c22.4,0,41.5,4.4,49.8,10.7c2.7-4.4,4.2-9.4,4.2-14.5c0-20.7-24.3-40-54.2-40
				c-29.7,0-53.8,19.3-53.8,40c0,5.2,1.5,10.1,4.2,14.5C18.6,97.8,37.7,93.4,60.1,93.4"/>
		</g>
		<g>
			<defs>
				<path id="SVGID_115_" d="M2.9,60.1c0,31.6,25.7,57.2,57.4,57.2c31.6,0.2,57-25.5,57-57.2c0-31.6-25.7-57.4-57.2-57.4
					C28.5,2.9,2.9,28.5,2.9,60.1"/>
			</defs>
			<clipPath id="SVGID_116_">
				<use xlink:href="#SVGID_115_"  style="overflow:visible;"/>
			</clipPath>
			<path class="st59" d="M60.1,93.6c22.4,0,41.5,4.4,49.8,10.5c2.7-4.4,4.2-9.4,4.2-14.5c0-20.5-24.3-39.6-54-39.6
				c-29.9,0-54,19.1-54,39.6c0,5.2,1.5,10,4.2,14.5C18.6,98,37.7,93.6,60.1,93.6"/>
		</g>
		<g>
			<defs>
				<path id="SVGID_117_" d="M2.9,60.1c0,31.6,25.7,57.2,57.4,57.2c31.6,0.2,57-25.5,57-57.2c0-31.6-25.7-57.4-57.2-57.4
					C28.5,2.9,2.9,28.5,2.9,60.1"/>
			</defs>
			<clipPath id="SVGID_118_">
				<use xlink:href="#SVGID_117_"  style="overflow:visible;"/>
			</clipPath>
			<path class="st60" d="M60.1,93.8c22.4,0,41.5,4.4,49.8,10.5c2.7-4.4,4.2-9.2,4.2-14.4c0-20.3-24.1-39.4-54-39.4S6.1,69.7,6.1,90
				c0,5.2,1.5,10,4.2,14.4C18.6,98,37.9,93.8,60.1,93.8"/>
		</g>
		<g>
			<defs>
				<path id="SVGID_119_" d="M2.9,60.1c0,31.6,25.7,57.2,57.4,57.2c31.6,0.2,57-25.5,57-57.2c0-31.6-25.7-57.4-57.2-57.4
					C28.5,2.9,2.9,28.5,2.9,60.1"/>
			</defs>
			<clipPath id="SVGID_120_">
				<use xlink:href="#SVGID_119_"  style="overflow:visible;"/>
			</clipPath>
			<path class="st61" d="M60.1,93.8c22.2,0,41.5,4.4,49.6,10.3c2.7-4.4,4.2-9.2,4.2-14.2c0-20.3-24.1-39.1-53.8-39.1
				S6.3,69.9,6.3,90c0,5.2,1.5,10,4.2,14.2C18.8,98.2,37.9,93.8,60.1,93.8"/>
		</g>
		<g>
			<defs>
				<path id="SVGID_121_" d="M2.9,60.1c0,31.6,25.7,57.2,57.4,57.2c31.6,0.2,57-25.5,57-57.2c0-31.6-25.7-57.4-57.2-57.4
					C28.5,2.9,2.9,28.5,2.9,60.1"/>
			</defs>
			<clipPath id="SVGID_122_">
				<use xlink:href="#SVGID_121_"  style="overflow:visible;"/>
			</clipPath>
			<path class="st62" d="M60.1,94c22.2,0,41.3,4.2,49.6,10.3c2.7-4.4,4.2-9.2,4.2-14.2c0-20.1-24.1-38.9-53.8-38.9
				S6.3,70.1,6.3,90.2c0,5,1.5,9.8,4.2,14.2C18.8,98.2,37.9,94,60.1,94"/>
		</g>
		<g>
			<defs>
				<path id="SVGID_123_" d="M2.9,60.1c0,31.6,25.7,57.2,57.4,57.2c31.6,0.2,57-25.5,57-57.2c0-31.6-25.7-57.4-57.2-57.4
					C28.5,2.9,2.9,28.5,2.9,60.1"/>
			</defs>
			<clipPath id="SVGID_124_">
				<use xlink:href="#SVGID_123_"  style="overflow:visible;"/>
			</clipPath>
			<path class="st63" d="M60.1,94.2c22.2,0,41.3,4.2,49.4,10.1c2.7-4.2,4.2-9,4.2-14c0-19.9-24.1-38.5-53.8-38.5S6.1,70.6,6.1,90.4
				c0,5,1.5,9.8,4.2,14C18.8,98.4,37.9,94.2,60.1,94.2"/>
		</g>
		<g>
			<defs>
				<path id="SVGID_125_" d="M2.9,60.1c0,31.6,25.7,57.2,57.4,57.2c31.6,0.2,57-25.5,57-57.2c0-31.6-25.7-57.4-57.2-57.4
					C28.5,2.9,2.9,28.5,2.9,60.1"/>
			</defs>
			<clipPath id="SVGID_126_">
				<use xlink:href="#SVGID_125_"  style="overflow:visible;"/>
			</clipPath>
			<path class="st64" d="M60.1,94.4c22.2,0,41.3,4.2,49.4,10.1c2.7-4.2,4.2-9,4.2-14c0-19.7-24.1-38.3-53.6-38.3
				c-29.7,0-53.6,18.6-53.6,38.3c0,5,1.5,9.6,4.2,14C18.8,98.6,37.9,94.4,60.1,94.4"/>
		</g>
	</g>
	<path class="st1" d="M60.1,74.7c-19.5,0-37.5,3.3-52.3,8.8c9,20.1,28.9,34.1,52.3,34.1s43.5-14,52.3-34.1
		C97.6,77.9,79.6,74.7,60.1,74.7"/>
	<path class="st65" d="M135.9,71h90.2v9.4h-37.3v33.7h-15.5V80.2h-37.3V71z M147.6,38.1c0-14.4,14.4-25.1,33.5-25.1
		c19.3,0,33.5,10.5,33.5,25.1s-14,25.1-33.5,25.1C161.9,63.4,147.6,52.5,147.6,38.1 M181.1,53.8c10.1,0,17.4-6.5,17.4-15.7
		c0-9-7.3-15.7-17.4-15.7c-10.1,0-17.4,6.5-17.4,15.7S170.9,53.8,181.1,53.8"/>
	<path class="st65" d="M370.4,61.1c18.4,0,31.8-10.1,31.8-24.1c0-13.8-13.4-23.9-31.8-23.9c-18.2,0-31.8,10.3-31.8,23.9
		C338.6,51.1,352,61.1,370.4,61.1 M353.9,37.1c0-8.6,6.9-14.7,16.5-14.7c9.6,0,16.5,6.1,16.5,14.7s-6.9,14.9-16.5,14.9
		C360.8,52.1,353.9,45.8,353.9,37.1 M339.6,80c0-2.3-0.6-2.9-2.5-2.9h-13v-9h88.8v9h-59.2c0.8,1.1,1,2.7,1,4v18.8
		c0,1.9,0.4,2.5,2.9,2.5h49.2v9h-57.4c-5.7,0-9.4-2.5-9.4-7.1C339.6,99.7,339.6,84.2,339.6,80"/>
	<path class="st65" d="M469,67.6c-17.8,0-30.8,9.6-30.8,23c0,13.2,13,23,30.8,23c17.6,0,30.8-10,30.8-23
		C499.6,77.5,486.4,67.6,469,67.6 M484.5,90.5c0,8-6.5,14-15.5,14c-9.2,0-15.7-5.7-15.7-14s6.5-14,15.7-14
		C478,76.6,484.5,82.5,484.5,90.5 M483.3,18.6v15.3h4V22.6c0-6.7-1.1-7.8-1.1-7.8h9.4c3.1,0,4.4,1.1,4.4,3.8v45.9h-12.4V43.1h-4
		v21.4h-12.6V22.6c0-6.7-1.1-7.8-1.1-7.8h9.2C482,14.7,483.3,15.7,483.3,18.6 M467.6,20.9h-18.6V17c0-2.9-1.3-4-4.2-4h-10.3
		c0,0,1.1,0.8,1.1,5v2.9H416v9h8.2c-4.4,3.8-6.9,9.2-6.9,14.9c0,12.3,10.5,21.1,24.9,21.1c14.2,0,24.9-9,24.9-21.1
		c0-5.9-2.5-11.1-6.9-14.9h7.7v-9H467.6z M442.2,56.9c-6.7,0-11.3-5-11.3-12.3s4.6-12.3,11.3-12.3c6.5,0,11.1,5.2,11.1,12.3
		C453.3,51.9,448.5,56.9,442.2,56.9"/>
	<path class="st65" d="M268.4,45.9h-33.5c0,0,1.1,1.5,1.1,5.6v27.4c0,4.6,3.6,7.1,9.4,7.1c0,0,35.4,0,39.4,0s9.6-0.2,12.8-2.1v27.4
		h14.5V19c0-2.3-0.8-4.4-5-4.4h-10.7c0,0,1.1,1.1,1.1,7.8v47.9c0,6.5-9.6,6.5-10.7,6.5H254c-2.5,0.2-2.7-0.8-2.9-2.5V55.1h27.8
		c3.1,0,4.4-1.1,4.4-3.8V22c0-3.1-1.1-4.4-3.8-4.4h-45v9.2h33.7v19.1H268.4z"/>
</g>
</svg>
