<?xml version="1.0" encoding="utf-8"?>
<!-- Generator: Adobe Illustrator 22.1.0, SVG Export Plug-In . SVG Version: 6.00 Build 0)  -->
<svg version="1.1" xmlns="http://www.w3.org/2000/svg" xmlns:xlink="http://www.w3.org/1999/xlink" x="0px" y="0px"
	 viewBox="0 0 249.9 92.6" style="enable-background:new 0 0 249.9 92.6;" xml:space="preserve">
<style type="text/css">
	.st0{fill:#9EACB4;}
	.st1{fill:#D7000F;}
	.st2{fill:#004EA2;}
</style>
<g>
	<polygon class="st0" points="0,31.3 8.3,31.3 12.6,39.2 19.7,31.2 27.8,31.2 15.2,45.6 12.8,60 5.8,60 8.4,45.4 	"/>
	<polygon class="st0" points="31,31.2 26.5,60.2 42.9,60.1 43.7,54.3 34.7,54.3 35.5,48.5 44.4,48.7 45.5,42.7 36.5,42.7 37.5,37.2 
		46.9,37.2 47.6,31.2 	"/>
	<path class="st0" d="M67.9,37.7c0,0-0.1-1.8-4.7-2.1c0,0-3.4,0.1-4.1,2.8c0,0-1.1,3.7,5.5,4.7c0,0,5.4,1.1,5.4,7.1
		c0,0-0.4,5.1-3.9,7.5c0,0-3.2,2.8-8.8,2.9c0,0-4.5,0.7-9.8-2.8l3.8-5.7c0,0,2.8,4,6.9,3.1c0,0,3.8-0.4,4.5-3.9c0,0,0.9-3.3-5.7-3.8
		c0,0-5.7-0.6-5.5-7.2c0,0,0.6-5.4,3.7-7.2c0,0,2.5-2.5,7.6-2.6c0,0,3.7-0.6,8.5,2.3L67.9,37.7z"/>
	<path class="st1" d="M99,6.3c0,0,1.4-6.2,5.2-6.3c0,0,5.2-0.4,3.8,6.2c0,0-1.9,5.6-2.7,8.7c0,0-1.5,4.9-1.7,5.4
		c0,0-0.4,1.9-3.5,1.8c0,0-4.2,0-4-4.3c0.6-3.3,0.7-3.3,1.2-5.5L99,6.3z"/>
	<path class="st1" d="M119,6.4c0,0,1.4-6.2,5.2-6.3c0,0,5.2-0.4,3.8,6.2c0,0-1.9,5.6-2.7,8.7c0,0-1.5,4.9-1.7,5.4
		c0,0-0.4,1.9-3.5,1.8c0,0-4.2,0-4-4.3c0.6-3.3,0.7-3.3,1.2-5.5L119,6.4z"/>
	<path d="M82.4,41.2l7.6,0c0,0-0.6-4.9,4.1-4.9c0,0,3.2-0.4,3.4,4.1c0,0,0,3.4-3.4,6.3l-6.4,6.4l-8.6,7.6h22.4h1L103,55h-9.7
		c0,0,5.1-4.2,7.1-6.5c0,0,4.5-3.5,4.3-8.2c0,0,0.2-3.6-2.1-6.4c0,0-1.8-3.2-7.6-3.2c0,0-6,0.1-9,4.1C86,34.7,84,37.3,82.4,41.2z"/>
	<path class="st0" d="M140.3,57.4c0,0,0-5.1,4.8-5.1c0,0,3.6-0.2,3.9,3.6c0,0-0.6,4.8-4.9,4.8C144.1,60.8,140.9,61,140.3,57.4z"/>
	<path class="st0" d="M176.1,51.5l-1.3,8c0,0-3,1.4-7,1.3c0,0-6.6,0-10.4-4.8c0,0-2.8-3.7-2.9-8c0,0,0.2-8,5.5-12.4
		c0,0,2-2.2,5.1-3.6c0,0,3.2-1.7,6.5-1.6c0,0,4.3-0.1,7.2,1.9l-1,6.8c0,0-2.1-2.7-6.6-2.7c0,0-3.9,0-7.2,3.7c0,0-2.9,3-2.6,6.7
		c0,0-0.4,3.5,2.2,5.8c0,0,1.2,1.3,5.1,1.5C168.6,54.2,174.6,54.4,176.1,51.5z"/>
	<polygon class="st0" points="213.4,60.1 220,60.1 225.8,42.7 230.3,60.1 232.9,60.1 243.2,42.5 243.2,60.1 249.9,60.1 249.9,31.2 
		243.2,31.2 234.1,47.3 230,31.2 223.7,31.2 	"/>
	<path class="st2" d="M66.7,72c0,0-2.6-3.4,2-5.8c0,0,3.2-2.2,5.5,1.3c0,0,3.5,6.2,8.7,10.7c0,0,6.1,5.4,21.1,6c0,0,16,1.3,24.8-6.9
		c0,0,4.6-3.5,8.7-10.7c0,0,2.3-2.5,5.5-0.1c0,0,3.5,2.5,0.2,6.9c0,0-3.9,6.1-11.2,11.6c0,0-9.2,7.6-27.8,7.5c0,0-12.1,1-23.6-6.1
		C80.6,86.4,72.4,82.6,66.7,72z"/>
	<path d="M127.9,49.4l2.8-17.5h-9.2l-15.1,18.4l-0.7,4.6h14.2l-0.7,6.1h6.8l0.7-6.1l4-0.1l0.7-5.3H127.9z M121,49.5l-6.5-0.1l9-11.8
		L121,49.5z"/>
	<path class="st0" d="M213.3,41.9c-0.3-3.5-2.2-5.8-2.2-5.8c-2.7-4.1-7-5.3-7-5.3c-4.9-1.6-9.5,0-9.5,0c-6.5,1.2-11.7,8.9-11.7,8.9
		c-2.5,3.2-2.5,8.4-2.5,8.4c0,4.8,3.4,8.3,3.4,8.3c3.1,4.8,10.9,4.2,10.9,4.2c5.9,0,10-3,10-3c3.1-2,6.1-6.7,6.1-6.7
		C213.9,46.1,213.3,41.9,213.3,41.9z M202.7,51.3c0,0-3.1,3.2-7.1,3.2c0,0-5,0.3-7.1-4.1c0,0-0.6-0.9-0.7-4.1c0,0-0.1-2.9,2.7-6.4
		c0,0,3.2-3.8,7.7-3.6c0,0,4.4,0,6.7,3.5c0,0,1.1,2,1.1,4.2C206.2,43.9,206.6,47.5,202.7,51.3z"/>
</g>
</svg>
